<?xml version="1.0" encoding="UTF-8" standalone="no"?>
<!DOCTYPE svg PUBLIC "-//W3C//DTD SVG 1.1//EN"
 "http://www.w3.org/Graphics/SVG/1.1/DTD/svg11.dtd">
<!-- Generated by graphviz version 2.38.0 (20140413.2041)
 -->
<!-- Title: g Pages: 1 -->
<svg width="7591pt" height="7470pt"
 viewBox="216.00 216.00 7374.88 7253.88" xmlns="http://www.w3.org/2000/svg" xmlns:xlink="http://www.w3.org/1999/xlink">
<g id="graph0" class="graph" transform="scale(1 1) rotate(0) translate(3939.44 4311.19)">
<title>g</title>
<polygon fill="white" stroke="none" points="-3723.44,2942.69 -3723.44,-4095.19 3435.44,-4095.19 3435.44,2942.69 -3723.44,2942.69"/>
<text text-anchor="middle" x="-144" y="-4075.99" font-family="Times,serif" font-size="14.00">data01&#45;tabou (cost = 828)</text>
<!-- 0&#45;&gt;6 -->
<g id="edge4" class="edge"><title>0&#45;&gt;6</title>
<path fill="none" stroke="red" stroke-width="15" d="M2157.28,-2398.54C1928.29,-1959.64 753.075,292.856 511.46,755.951"/>
<polygon fill="red" stroke="red" stroke-width="15" points="523.037,762.138 506.774,764.932 499.764,749.995 523.037,762.138"/>
</g>
<!-- 0&#45;&gt;12 -->
<g id="edge15" class="edge"><title>0&#45;&gt;12</title>
<path fill="none" stroke="black" stroke-width="15" d="M2242.41,-2403.14C2426.17,-2127.5 3102.22,-1113.43 3295.85,-822.968"/>
<polygon fill="black" stroke="black" stroke-width="15" points="3306.82,-830.188 3301.44,-814.587 3284.97,-815.627 3306.82,-830.188"/>
</g>
<!-- 0&#45;&gt;20 -->
<g id="edge29" class="edge"><title>0&#45;&gt;20</title>
<path fill="none" stroke="orange" stroke-width="15" d="M2122.27,-2511.92C1778.75,-2694.41 336.613,-3460.55 -25.3275,-3652.83"/>
<polygon fill="orange" stroke="orange" stroke-width="15" points="-31.5144,-3641.25 -34.1878,-3657.54 -19.1989,-3664.44 -31.5144,-3641.25"/>
</g>
<!-- 0&#45;&gt;24 -->
<g id="edge1" class="edge"><title>0&#45;&gt;24</title>
<path fill="none" stroke="blue" stroke-width="15" d="M2126.11,-2426.15C1875.74,-2259.25 1024.72,-1691.9 761.938,-1516.71"/>
<polygon fill="blue" stroke="blue" stroke-width="15" points="769.188,-1505.77 753.587,-1511.14 754.627,-1527.61 769.188,-1505.77"/>
</g>
<!-- 0&#45;&gt;26 -->
<g id="edge21" class="edge"><title>0&#45;&gt;26</title>
<path fill="none" stroke="green" stroke-width="15" d="M2188.08,-2389.58C2163.25,-2128.88 2087.05,-1328.78 2060.91,-1054.31"/>
<polygon fill="green" stroke="green" stroke-width="15" points="2073.94,-1052.69 2059.93,-1043.98 2047.81,-1055.18 2073.94,-1052.69"/>
</g>
<!-- 1&#45;&gt;13 -->
<g id="edge17" class="edge"><title>1&#45;&gt;13</title>
<path fill="none" stroke="black" stroke-width="15" d="M3159.37,-98.081C3012.44,134.561 2544.43,875.567 2389.99,1120.11"/>
<polygon fill="black" stroke="black" stroke-width="15" points="2401.06,1127.15 2384.63,1128.59 2378.87,1113.13 2401.06,1127.15"/>
</g>
<!-- 2&#45;&gt;17 -->
<g id="edge24" class="edge"><title>2&#45;&gt;17</title>
<path fill="none" stroke="green" stroke-width="15" d="M-24.4075,2645.37C398.942,2676.34 2303.73,2815.72 2750.16,2848.38"/>
<polygon fill="green" stroke="green" stroke-width="15" points="2751.42,2835.32 2760.43,2849.14 2749.5,2861.5 2751.42,2835.32"/>
</g>
<!-- 3&#45;&gt;2 -->
<g id="edge23" class="edge"><title>3&#45;&gt;2</title>
<path fill="none" stroke="green" stroke-width="15" d="M-153.599,2502.45C-148.414,2518.01 -142.942,2534.42 -137.659,2550.27"/>
<polygon fill="green" stroke="green" stroke-width="15" points="-125.109,2546.42 -134.398,2560.06 -150.012,2554.72 -125.109,2546.42"/>
</g>
<!-- 4&#45;&gt;11 -->
<g id="edge8" class="edge"><title>4&#45;&gt;11</title>
<path fill="none" stroke="red" stroke-width="15" d="M-2850.28,2465.89C-2957.13,2425.83 -3148.1,2354.21 -3259.86,2312.3"/>
<polygon fill="red" stroke="red" stroke-width="15" points="-3264.67,2324.52 -3269.43,2308.71 -3255.46,2299.94 -3264.67,2324.52"/>
</g>
<!-- 5&#45;&gt;25 -->
<g id="edge31" class="edge"><title>5&#45;&gt;25</title>
<path fill="none" stroke="orange" stroke-width="15" d="M-1697.68,-3439.82C-1944.94,-3538.73 -2712.74,-3845.84 -2972.83,-3949.88"/>
<polygon fill="orange" stroke="orange" stroke-width="15" points="-2977.83,-3937.75 -2982.24,-3953.65 -2968.08,-3962.12 -2977.83,-3937.75"/>
</g>
<!-- 6&#45;&gt;23 -->
<g id="edge5" class="edge"><title>6&#45;&gt;23</title>
<path fill="none" stroke="red" stroke-width="15" d="M417.387,905.68C229.335,1152.5 -428.51,2015.92 -626.923,2276.34"/>
<polygon fill="red" stroke="red" stroke-width="15" points="-616.722,2284.61 -633.223,2284.61 -637.602,2268.7 -616.722,2284.61"/>
</g>
<!-- 7&#45;&gt;16 -->
<g id="edge19" class="edge"><title>7&#45;&gt;16</title>
<path fill="none" stroke="black" stroke-width="15" d="M2366.45,111.901C2420.23,-49.4357 2541.99,-414.732 2598.35,-583.811"/>
<polygon fill="black" stroke="black" stroke-width="15" points="2585.95,-588.096 2601.56,-593.433 2610.85,-579.795 2585.95,-588.096"/>
</g>
<!-- 8&#45;&gt;18 -->
<g id="edge10" class="edge"><title>8&#45;&gt;18</title>
<path fill="none" stroke="red" stroke-width="15" d="M-2655.68,1200.33C-2588.27,1092.48 -2460.4,887.887 -2389.85,775.007"/>
<polygon fill="red" stroke="red" stroke-width="15" points="-2400.88,767.899 -2384.45,766.375 -2378.62,781.812 -2400.88,767.899"/>
</g>
<!-- 9&#45;&gt;22 -->
<g id="edge12" class="edge"><title>9&#45;&gt;22</title>
<path fill="none" stroke="red" stroke-width="15" d="M-3504.98,132.227C-3477,104.245 -3443.45,70.6988 -3414.56,41.8136"/>
<polygon fill="red" stroke="red" stroke-width="15" points="-3423.68,32.3668 -3407.33,34.5765 -3405.12,50.9284 -3423.68,32.3668"/>
</g>
<!-- 10&#45;&gt;15 -->
<g id="edge33" class="edge"><title>10&#45;&gt;15</title>
<path fill="none" stroke="orange" stroke-width="15" d="M-3501.78,-2821.58C-3527.69,-2601.42 -3597.91,-2004.56 -3625.07,-1773.68"/>
<polygon fill="orange" stroke="orange" stroke-width="15" points="-3612.05,-1772.03 -3626.25,-1763.63 -3638.12,-1775.09 -3612.05,-1772.03"/>
</g>
<!-- 11&#45;&gt;8 -->
<g id="edge9" class="edge"><title>11&#45;&gt;8</title>
<path fill="none" stroke="red" stroke-width="15" d="M-3302.69,2208.77C-3185.59,2026.61 -2873.48,1541.11 -2750.66,1350.06"/>
<polygon fill="red" stroke="red" stroke-width="15" points="-2761.58,1342.77 -2745.13,1341.46 -2739.5,1356.97 -2761.58,1342.77"/>
</g>
<!-- 12&#45;&gt;1 -->
<g id="edge16" class="edge"><title>12&#45;&gt;1</title>
<path fill="none" stroke="black" stroke-width="15" d="M3327.75,-663.749C3301.13,-557.272 3254.5,-370.75 3226.71,-259.59"/>
<polygon fill="black" stroke="black" stroke-width="15" points="3239.4,-256.253 3224.25,-249.735 3213.94,-262.62 3239.4,-256.253"/>
</g>
<!-- 13&#45;&gt;7 -->
<g id="edge18" class="edge"><title>13&#45;&gt;7</title>
<path fill="none" stroke="black" stroke-width="15" d="M2340,1115.47C2340,929.011 2340,480.809 2340,285.209"/>
<polygon fill="black" stroke="black" stroke-width="15" points="2326.88,284.955 2340,274.955 2353.13,284.955 2326.88,284.955"/>
</g>
<!-- 14&#45;&gt;0 -->
<g id="edge14" class="edge"><title>14&#45;&gt;0</title>
<path fill="none" stroke="red" stroke-width="15" d="M748.969,-1301.34C994.428,-1500.05 1864.44,-2204.35 2123.01,-2413.66"/>
<polygon fill="red" stroke="red" stroke-width="15" points="2114.82,-2423.92 2130.85,-2420.01 2131.34,-2403.52 2114.82,-2423.92"/>
</g>
<!-- 15&#45;&gt;29 -->
<g id="edge34" class="edge"><title>15&#45;&gt;29</title>
<path fill="none" stroke="orange" stroke-width="15" d="M-3555.28,-1701.99C-3315.81,-1765.01 -2610.4,-1950.65 -2358.6,-2016.91"/>
<polygon fill="orange" stroke="orange" stroke-width="15" points="-2361.76,-2029.65 -2348.75,-2019.5 -2355.08,-2004.26 -2361.76,-2029.65"/>
</g>
<!-- 16&#45;&gt;0 -->
<g id="edge20" class="edge"><title>16&#45;&gt;0</title>
<path fill="none" stroke="black" stroke-width="15" d="M2608.46,-754.178C2537.35,-1050.45 2292.67,-2069.94 2217.89,-2381.55"/>
<polygon fill="black" stroke="black" stroke-width="15" points="2205.08,-2378.66 2215.51,-2391.45 2230.61,-2384.79 2205.08,-2378.66"/>
</g>
<!-- 17&#45;&gt;19 -->
<g id="edge25" class="edge"><title>17&#45;&gt;19</title>
<path fill="none" stroke="green" stroke-width="15" d="M2918.95,2817.77C2919.02,2817.74 2919.09,2817.71 2919.16,2817.67"/>
<polygon fill="green" stroke="green" stroke-width="15" points="2904.54,2810.3 2919.36,2817.57 2916.29,2833.78 2904.54,2810.3"/>
</g>
<!-- 18&#45;&gt;9 -->
<g id="edge11" class="edge"><title>18&#45;&gt;9</title>
<path fill="none" stroke="red" stroke-width="15" d="M-2417.5,663.34C-2634.93,573.807 -3249.69,320.671 -3477.59,226.83"/>
<polygon fill="red" stroke="red" stroke-width="15" points="-3482.59,238.964 -3486.84,223.02 -3472.6,214.691 -3482.59,238.964"/>
</g>
<!-- 19&#45;&gt;31 -->
<g id="edge26" class="edge"><title>19&#45;&gt;31</title>
<path fill="none" stroke="green" stroke-width="15" d="M3065.67,2752.18C3123.16,2729.19 3201.5,2697.85 3261.07,2674.02"/>
<polygon fill="green" stroke="green" stroke-width="15" points="3256.31,2661.79 3270.47,2670.26 3266.06,2686.16 3256.31,2661.79"/>
</g>
<!-- 20&#45;&gt;5 -->
<g id="edge30" class="edge"><title>20&#45;&gt;5</title>
<path fill="none" stroke="orange" stroke-width="15" d="M-190.096,-3681.11C-450.179,-3631.57 -1254.81,-3478.31 -1528.09,-3426.26"/>
<polygon fill="orange" stroke="orange" stroke-width="15" points="-1525.7,-3413.35 -1537.98,-3424.37 -1530.61,-3439.14 -1525.7,-3413.35"/>
</g>
<!-- 21&#45;&gt;0 -->
<g id="edge28" class="edge"><title>21&#45;&gt;0</title>
<path fill="none" stroke="green" stroke-width="15" d="M3327.15,1910.44C3185.77,1362.62 2369.01,-1802.33 2219.5,-2381.69"/>
<polygon fill="green" stroke="green" stroke-width="15" points="2206.72,-2378.7 2216.93,-2391.66 2232.13,-2385.26 2206.72,-2378.7"/>
</g>
<!-- 22&#45;&gt;14 -->
<g id="edge13" class="edge"><title>22&#45;&gt;14</title>
<path fill="none" stroke="red" stroke-width="15" d="M-3267.91,-49.0621C-2755.9,-204.494 54.7303,-1057.72 594.374,-1221.54"/>
<polygon fill="red" stroke="red" stroke-width="15" points="590.676,-1234.14 604.057,-1224.48 598.301,-1209.02 590.676,-1234.14"/>
</g>
<!-- 23&#45;&gt;28 -->
<g id="edge6" class="edge"><title>23&#45;&gt;28</title>
<path fill="none" stroke="red" stroke-width="15" d="M-763.713,2326.08C-1002.57,2250.65 -1711.39,2026.81 -1962.54,1947.5"/>
<polygon fill="red" stroke="red" stroke-width="15" points="-1966.78,1959.93 -1972.36,1944.4 -1958.87,1934.89 -1966.78,1959.93"/>
</g>
<!-- 24&#45;&gt;30 -->
<g id="edge2" class="edge"><title>24&#45;&gt;30</title>
<path fill="none" stroke="blue" stroke-width="15" d="M767.345,-1457.8C1056.4,-1433.72 2014.67,-1353.86 2318.63,-1328.53"/>
<polygon fill="blue" stroke="blue" stroke-width="15" points="2319.86,-1341.6 2328.73,-1327.69 2317.68,-1315.44 2319.86,-1341.6"/>
</g>
<!-- 25&#45;&gt;10 -->
<g id="edge32" class="edge"><title>25&#45;&gt;10</title>
<path fill="none" stroke="orange" stroke-width="15" d="M-3091.07,-3907.08C-3169.43,-3711.16 -3374.75,-3197.87 -3457.1,-2992.01"/>
<polygon fill="orange" stroke="orange" stroke-width="15" points="-3445.02,-2986.85 -3460.92,-2982.44 -3469.4,-2996.6 -3445.02,-2986.85"/>
</g>
<!-- 26&#45;&gt;3 -->
<g id="edge22" class="edge"><title>26&#45;&gt;3</title>
<path fill="none" stroke="green" stroke-width="15" d="M2005.89,-890.847C1718.44,-455.034 174.526,1885.74 -128.405,2345.02"/>
<polygon fill="green" stroke="green" stroke-width="15" points="-117.595,2352.47 -134.058,2353.6 -139.508,2338.02 -117.595,2352.47"/>
</g>
<!-- 27&#45;&gt;0 -->
<g id="edge36" class="edge"><title>27&#45;&gt;0</title>
<path fill="none" stroke="orange" stroke-width="15" d="M476.545,-1991.3C771.962,-2074.02 1794.91,-2360.44 2105.73,-2447.47"/>
<polygon fill="orange" stroke="orange" stroke-width="15" points="2102.43,-2460.18 2115.6,-2450.24 2109.51,-2434.9 2102.43,-2460.18"/>
</g>
<!-- 28&#45;&gt;4 -->
<g id="edge7" class="edge"><title>28&#45;&gt;4</title>
<path fill="none" stroke="red" stroke-width="15" d="M-2117.17,1971.38C-2251.31,2078.7 -2557.54,2323.68 -2698.5,2436.45"/>
<polygon fill="red" stroke="red" stroke-width="15" points="-2690.72,2447.03 -2706.72,2443.03 -2707.11,2426.53 -2690.72,2447.03"/>
</g>
<!-- 29&#45;&gt;27 -->
<g id="edge35" class="edge"><title>29&#45;&gt;27</title>
<path fill="none" stroke="orange" stroke-width="15" d="M-2184.24,-2038.49C-1789.15,-2027.81 -113.575,-1982.52 302.293,-1971.28"/>
<polygon fill="orange" stroke="orange" stroke-width="15" points="302.828,-1984.4 312.47,-1971.01 302.119,-1958.16 302.828,-1984.4"/>
</g>
<!-- 30&#45;&gt;0 -->
<g id="edge3" class="edge"><title>30&#45;&gt;0</title>
<path fill="none" stroke="blue" stroke-width="15" d="M2396.55,-1403.14C2357.37,-1612.09 2254.33,-2161.64 2213.26,-2380.7"/>
<polygon fill="blue" stroke="blue" stroke-width="15" points="2200.35,-2378.31 2211.41,-2390.56 2226.15,-2383.15 2200.35,-2378.31"/>
</g>
<!-- 31&#45;&gt;21 -->
<g id="edge27" class="edge"><title>31&#45;&gt;21</title>
<path fill="none" stroke="green" stroke-width="15" d="M3348,2555.53C3348,2434.44 3348,2211.14 3348,2084.78"/>
<polygon fill="green" stroke="green" stroke-width="15" points="3334.88,2084.73 3348,2074.73 3361.13,2084.73 3334.88,2084.73"/>
</g>
<!-- 0 -->
<g id="node1" class="node"><title>0</title>
<ellipse fill="white" stroke="black" stroke-width="15" cx="2196" cy="-2472.75" rx="83.3772" ry="83.3772"/>
<text text-anchor="middle" x="2196" y="-2447.75" font-family="Times,serif" font-size="100.00">0</text>
</g>
<!-- 1 -->
<g id="node2" class="node"><title>1</title>
<ellipse fill="white" stroke="black" stroke-width="15" cx="3204" cy="-168.75" rx="83.3772" ry="83.3772"/>
<text text-anchor="middle" x="3204" y="-143.75" font-family="Times,serif" font-size="100.00">1</text>
</g>
<!-- 2 -->
<g id="node3" class="node"><title>2</title>
<ellipse fill="white" stroke="black" stroke-width="15" cx="-108" cy="2639.25" rx="83.3772" ry="83.3772"/>
<text text-anchor="middle" x="-108" y="2664.25" font-family="Times,serif" font-size="100.00">2</text>
</g>
<!-- 3 -->
<g id="node4" class="node"><title>3</title>
<ellipse fill="white" stroke="black" stroke-width="15" cx="-180" cy="2423.25" rx="83.3772" ry="83.3772"/>
<text text-anchor="middle" x="-180" y="2448.25" font-family="Times,serif" font-size="100.00">3</text>
</g>
<!-- 4 -->
<g id="node5" class="node"><title>4</title>
<ellipse fill="white" stroke="black" stroke-width="15" cx="-2772" cy="2495.25" rx="83.3772" ry="83.3772"/>
<text text-anchor="middle" x="-2772" y="2520.25" font-family="Times,serif" font-size="100.00">4</text>
</g>
<!-- 5 -->
<g id="node6" class="node"><title>5</title>
<ellipse fill="white" stroke="black" stroke-width="15" cx="-1620" cy="-3408.75" rx="83.3772" ry="83.3772"/>
<text text-anchor="middle" x="-1620" y="-3383.75" font-family="Times,serif" font-size="100.00">5</text>
</g>
<!-- 6 -->
<g id="node7" class="node"><title>6</title>
<ellipse fill="white" stroke="black" stroke-width="15" cx="468" cy="839.25" rx="83.3772" ry="83.3772"/>
<text text-anchor="middle" x="468" y="864.25" font-family="Times,serif" font-size="100.00">6</text>
</g>
<!-- 7 -->
<g id="node8" class="node"><title>7</title>
<ellipse fill="white" stroke="black" stroke-width="15" cx="2340" cy="191.25" rx="83.3772" ry="83.3772"/>
<text text-anchor="middle" x="2340" y="216.25" font-family="Times,serif" font-size="100.00">7</text>
</g>
<!-- 8 -->
<g id="node9" class="node"><title>8</title>
<ellipse fill="white" stroke="black" stroke-width="15" cx="-2700" cy="1271.25" rx="83.3772" ry="83.3772"/>
<text text-anchor="middle" x="-2700" y="1296.25" font-family="Times,serif" font-size="100.00">8</text>
</g>
<!-- 9 -->
<g id="node10" class="node"><title>9</title>
<ellipse fill="white" stroke="black" stroke-width="15" cx="-3564" cy="191.25" rx="83.3772" ry="83.3772"/>
<text text-anchor="middle" x="-3564" y="216.25" font-family="Times,serif" font-size="100.00">9</text>
</g>
<!-- 10 -->
<g id="node11" class="node"><title>10</title>
<ellipse fill="white" stroke="black" stroke-width="15" cx="-3492" cy="-2904.75" rx="83.3772" ry="83.3772"/>
<text text-anchor="middle" x="-3492" y="-2879.75" font-family="Times,serif" font-size="100.00">10</text>
</g>
<!-- 11 -->
<g id="node12" class="node"><title>11</title>
<ellipse fill="white" stroke="black" stroke-width="15" cx="-3348" cy="2279.25" rx="83.3772" ry="83.3772"/>
<text text-anchor="middle" x="-3348" y="2304.25" font-family="Times,serif" font-size="100.00">11</text>
</g>
<!-- 12 -->
<g id="node13" class="node"><title>12</title>
<ellipse fill="white" stroke="black" stroke-width="15" cx="3348" cy="-744.75" rx="83.3772" ry="83.3772"/>
<text text-anchor="middle" x="3348" y="-719.75" font-family="Times,serif" font-size="100.00">12</text>
</g>
<!-- 13 -->
<g id="node14" class="node"><title>13</title>
<ellipse fill="white" stroke="black" stroke-width="15" cx="2340" cy="1199.25" rx="83.3772" ry="83.3772"/>
<text text-anchor="middle" x="2340" y="1224.25" font-family="Times,serif" font-size="100.00">13</text>
</g>
<!-- 14 -->
<g id="node15" class="node"><title>14</title>
<ellipse fill="white" stroke="black" stroke-width="15" cx="684" cy="-1248.75" rx="83.3772" ry="83.3772"/>
<text text-anchor="middle" x="684" y="-1223.75" font-family="Times,serif" font-size="100.00">14</text>
</g>
<!-- 15 -->
<g id="node16" class="node"><title>15</title>
<ellipse fill="white" stroke="black" stroke-width="15" cx="-3636" cy="-1680.75" rx="83.3772" ry="83.3772"/>
<text text-anchor="middle" x="-3636" y="-1655.75" font-family="Times,serif" font-size="100.00">15</text>
</g>
<!-- 16 -->
<g id="node17" class="node"><title>16</title>
<ellipse fill="white" stroke="black" stroke-width="15" cx="2628" cy="-672.75" rx="83.3772" ry="83.3772"/>
<text text-anchor="middle" x="2628" y="-647.75" font-family="Times,serif" font-size="100.00">16</text>
</g>
<!-- 17 -->
<g id="node18" class="node"><title>17</title>
<ellipse fill="white" stroke="black" stroke-width="15" cx="2844" cy="2855.25" rx="83.3772" ry="83.3772"/>
<text text-anchor="middle" x="2844" y="2880.25" font-family="Times,serif" font-size="100.00">17</text>
</g>
<!-- 18 -->
<g id="node19" class="node"><title>18</title>
<ellipse fill="white" stroke="black" stroke-width="15" cx="-2340" cy="695.25" rx="83.3772" ry="83.3772"/>
<text text-anchor="middle" x="-2340" y="720.25" font-family="Times,serif" font-size="100.00">18</text>
</g>
<!-- 19 -->
<g id="node20" class="node"><title>19</title>
<ellipse fill="white" stroke="black" stroke-width="15" cx="2988" cy="2783.25" rx="83.3772" ry="83.3772"/>
<text text-anchor="middle" x="2988" y="2808.25" font-family="Times,serif" font-size="100.00">19</text>
</g>
<!-- 20 -->
<g id="node21" class="node"><title>20</title>
<ellipse fill="white" stroke="black" stroke-width="15" cx="-108" cy="-3696.75" rx="83.3772" ry="83.3772"/>
<text text-anchor="middle" x="-108" y="-3671.75" font-family="Times,serif" font-size="100.00">20</text>
</g>
<!-- 21 -->
<g id="node22" class="node"><title>21</title>
<ellipse fill="white" stroke="black" stroke-width="15" cx="3348" cy="1991.25" rx="83.3772" ry="83.3772"/>
<text text-anchor="middle" x="3348" y="2016.25" font-family="Times,serif" font-size="100.00">21</text>
</g>
<!-- 22 -->
<g id="node23" class="node"><title>22</title>
<ellipse fill="white" stroke="black" stroke-width="15" cx="-3348" cy="-24.75" rx="83.3772" ry="83.3772"/>
<text text-anchor="middle" x="-3348" y="0.25" font-family="Times,serif" font-size="100.00">22</text>
</g>
<!-- 23 -->
<g id="node24" class="node"><title>23</title>
<ellipse fill="white" stroke="black" stroke-width="15" cx="-684" cy="2351.25" rx="83.3772" ry="83.3772"/>
<text text-anchor="middle" x="-684" y="2376.25" font-family="Times,serif" font-size="100.00">23</text>
</g>
<!-- 24 -->
<g id="node25" class="node"><title>24</title>
<ellipse fill="white" stroke="black" stroke-width="15" cx="684" cy="-1464.75" rx="83.3772" ry="83.3772"/>
<text text-anchor="middle" x="684" y="-1439.75" font-family="Times,serif" font-size="100.00">24</text>
</g>
<!-- 25 -->
<g id="node26" class="node"><title>25</title>
<ellipse fill="white" stroke="black" stroke-width="15" cx="-3060" cy="-3984.75" rx="83.3772" ry="83.3772"/>
<text text-anchor="middle" x="-3060" y="-3959.75" font-family="Times,serif" font-size="100.00">25</text>
</g>
<!-- 26 -->
<g id="node27" class="node"><title>26</title>
<ellipse fill="white" stroke="black" stroke-width="15" cx="2052" cy="-960.75" rx="83.3772" ry="83.3772"/>
<text text-anchor="middle" x="2052" y="-935.75" font-family="Times,serif" font-size="100.00">26</text>
</g>
<!-- 27 -->
<g id="node28" class="node"><title>27</title>
<ellipse fill="white" stroke="black" stroke-width="15" cx="396" cy="-1968.75" rx="83.3772" ry="83.3772"/>
<text text-anchor="middle" x="396" y="-1943.75" font-family="Times,serif" font-size="100.00">27</text>
</g>
<!-- 28 -->
<g id="node29" class="node"><title>28</title>
<ellipse fill="white" stroke="black" stroke-width="15" cx="-2052" cy="1919.25" rx="83.3772" ry="83.3772"/>
<text text-anchor="middle" x="-2052" y="1944.25" font-family="Times,serif" font-size="100.00">28</text>
</g>
<!-- 29 -->
<g id="node30" class="node"><title>29</title>
<ellipse fill="white" stroke="black" stroke-width="15" cx="-2268" cy="-2040.75" rx="83.3772" ry="83.3772"/>
<text text-anchor="middle" x="-2268" y="-2015.75" font-family="Times,serif" font-size="100.00">29</text>
</g>
<!-- 30 -->
<g id="node31" class="node"><title>30</title>
<ellipse fill="white" stroke="black" stroke-width="15" cx="2412" cy="-1320.75" rx="83.3772" ry="83.3772"/>
<text text-anchor="middle" x="2412" y="-1295.75" font-family="Times,serif" font-size="100.00">30</text>
</g>
<!-- 31 -->
<g id="node32" class="node"><title>31</title>
<ellipse fill="white" stroke="black" stroke-width="15" cx="3348" cy="2639.25" rx="83.3772" ry="83.3772"/>
<text text-anchor="middle" x="3348" y="2664.25" font-family="Times,serif" font-size="100.00">31</text>
</g>
</g>
</svg>
