<?xml version="1.0" encoding="UTF-8" standalone="no"?>
<!DOCTYPE svg PUBLIC "-//W3C//DTD SVG 1.1//EN"
 "http://www.w3.org/Graphics/SVG/1.1/DTD/svg11.dtd">
<!-- Generated by graphviz version 2.38.0 (20140413.2041)
 -->
<!-- Title: g Pages: 1 -->
<svg width="7591pt" height="7470pt"
 viewBox="216.00 216.00 7374.88 7253.88" xmlns="http://www.w3.org/2000/svg" xmlns:xlink="http://www.w3.org/1999/xlink">
<g id="graph0" class="graph" transform="scale(1 1) rotate(0) translate(3939.44 4311.19)">
<title>g</title>
<polygon fill="white" stroke="none" points="-3723.44,2942.69 -3723.44,-4095.19 3435.44,-4095.19 3435.44,2942.69 -3723.44,2942.69"/>
<text text-anchor="middle" x="-144" y="-4075.99" font-family="Times,serif" font-size="14.00">data01&#45;tabou (cost = 806)</text>
<!-- 0&#45;&gt;3 -->
<g id="edge6" class="edge"><title>0&#45;&gt;3</title>
<path fill="none" stroke="red" stroke-width="15" d="M2159.39,-2397.32C1884.89,-1831.68 151.481,1740.2 -138.789,2338.33"/>
<polygon fill="red" stroke="red" stroke-width="15" points="-127.191,2344.49 -143.365,2347.76 -150.807,2333.03 -127.191,2344.49"/>
</g>
<!-- 0&#45;&gt;6 -->
<g id="edge16" class="edge"><title>0&#45;&gt;6</title>
<path fill="none" stroke="black" stroke-width="15" d="M2157.28,-2398.54C1928.29,-1959.64 753.075,292.856 511.46,755.951"/>
<polygon fill="black" stroke="black" stroke-width="15" points="523.037,762.138 506.774,764.932 499.764,749.995 523.037,762.138"/>
</g>
<!-- 0&#45;&gt;14 -->
<g id="edge33" class="edge"><title>0&#45;&gt;14</title>
<path fill="none" stroke="orange" stroke-width="15" d="M2131.03,-2420.16C1885.57,-2221.45 1015.56,-1517.15 756.989,-1307.84"/>
<polygon fill="orange" stroke="orange" stroke-width="15" points="765.181,-1297.58 749.151,-1301.49 748.665,-1317.98 765.181,-1297.58"/>
</g>
<!-- 0&#45;&gt;26 -->
<g id="edge25" class="edge"><title>0&#45;&gt;26</title>
<path fill="none" stroke="green" stroke-width="15" d="M2188.08,-2389.58C2163.25,-2128.88 2087.05,-1328.78 2060.91,-1054.31"/>
<polygon fill="green" stroke="green" stroke-width="15" points="2073.94,-1052.69 2059.93,-1043.98 2047.81,-1055.18 2073.94,-1052.69"/>
</g>
<!-- 0&#45;&gt;30 -->
<g id="edge1" class="edge"><title>0&#45;&gt;30</title>
<path fill="none" stroke="blue" stroke-width="15" d="M2211.45,-2390.36C2250.63,-2181.41 2353.67,-1631.86 2394.74,-1412.8"/>
<polygon fill="blue" stroke="blue" stroke-width="15" points="2407.65,-1415.19 2396.59,-1402.94 2381.85,-1410.35 2407.65,-1415.19"/>
</g>
<!-- 1&#45;&gt;12 -->
<g id="edge4" class="edge"><title>1&#45;&gt;12</title>
<path fill="none" stroke="blue" stroke-width="15" d="M3224.25,-249.751C3250.87,-356.228 3297.5,-542.75 3325.29,-653.91"/>
<polygon fill="blue" stroke="blue" stroke-width="15" points="3312.6,-657.247 3327.75,-663.765 3338.06,-650.88 3312.6,-657.247"/>
</g>
<!-- 2&#45;&gt;23 -->
<g id="edge8" class="edge"><title>2&#45;&gt;23</title>
<path fill="none" stroke="red" stroke-width="15" d="M-182.711,2601.89C-290.038,2548.23 -487.274,2449.61 -599.688,2393.41"/>
<polygon fill="red" stroke="red" stroke-width="15" points="-605.89,2404.98 -608.964,2388.77 -594.15,2381.5 -605.89,2404.98"/>
</g>
<!-- 3&#45;&gt;2 -->
<g id="edge7" class="edge"><title>3&#45;&gt;2</title>
<path fill="none" stroke="red" stroke-width="15" d="M-153.599,2502.45C-148.414,2518.01 -142.942,2534.42 -137.659,2550.27"/>
<polygon fill="red" stroke="red" stroke-width="15" points="-125.109,2546.42 -134.398,2560.06 -150.012,2554.72 -125.109,2546.42"/>
</g>
<!-- 4&#45;&gt;11 -->
<g id="edge11" class="edge"><title>4&#45;&gt;11</title>
<path fill="none" stroke="red" stroke-width="15" d="M-2850.28,2465.89C-2957.13,2425.83 -3148.1,2354.21 -3259.86,2312.3"/>
<polygon fill="red" stroke="red" stroke-width="15" points="-3264.67,2324.52 -3269.43,2308.71 -3255.46,2299.94 -3264.67,2324.52"/>
</g>
<!-- 5&#45;&gt;0 -->
<g id="edge24" class="edge"><title>5&#45;&gt;0</title>
<path fill="none" stroke="black" stroke-width="15" d="M-1538.53,-3388.77C-1041.2,-3266.78 1581.81,-2623.4 2105.12,-2495.04"/>
<polygon fill="black" stroke="black" stroke-width="15" points="2108.31,-2507.77 2114.89,-2492.64 2102.05,-2482.28 2108.31,-2507.77"/>
</g>
<!-- 6&#45;&gt;18 -->
<g id="edge17" class="edge"><title>6&#45;&gt;18</title>
<path fill="none" stroke="black" stroke-width="15" d="M384.343,834.96C-25.0722,813.964 -1815.23,722.161 -2246.35,700.052"/>
<polygon fill="black" stroke="black" stroke-width="15" points="-2247.27,713.148 -2256.59,699.528 -2245.93,686.932 -2247.27,713.148"/>
</g>
<!-- 7&#45;&gt;13 -->
<g id="edge27" class="edge"><title>7&#45;&gt;13</title>
<path fill="none" stroke="green" stroke-width="15" d="M2340,275.027C2340,461.489 2340,909.691 2340,1105.29"/>
<polygon fill="green" stroke="green" stroke-width="15" points="2353.13,1105.54 2340,1115.54 2326.88,1105.54 2353.13,1105.54"/>
</g>
<!-- 8&#45;&gt;29 -->
<g id="edge13" class="edge"><title>8&#45;&gt;29</title>
<path fill="none" stroke="red" stroke-width="15" d="M-2689.16,1188.14C-2629.63,731.716 -2342.83,-1467.03 -2280.13,-1947.76"/>
<polygon fill="red" stroke="red" stroke-width="15" points="-2293.13,-1949.56 -2278.82,-1957.78 -2267.1,-1946.17 -2293.13,-1949.56"/>
</g>
<!-- 9&#45;&gt;22 -->
<g id="edge19" class="edge"><title>9&#45;&gt;22</title>
<path fill="none" stroke="black" stroke-width="15" d="M-3504.98,132.227C-3477,104.245 -3443.45,70.6988 -3414.56,41.8136"/>
<polygon fill="black" stroke="black" stroke-width="15" points="-3423.68,32.3668 -3407.33,34.5765 -3405.12,50.9284 -3423.68,32.3668"/>
</g>
<!-- 10&#45;&gt;25 -->
<g id="edge22" class="edge"><title>10&#45;&gt;25</title>
<path fill="none" stroke="black" stroke-width="15" d="M-3460.93,-2982.42C-3382.57,-3178.34 -3177.25,-3691.63 -3094.9,-3897.49"/>
<polygon fill="black" stroke="black" stroke-width="15" points="-3106.98,-3902.65 -3091.08,-3907.06 -3082.6,-3892.9 -3106.98,-3902.65"/>
</g>
<!-- 11&#45;&gt;8 -->
<g id="edge12" class="edge"><title>11&#45;&gt;8</title>
<path fill="none" stroke="red" stroke-width="15" d="M-3302.69,2208.77C-3185.59,2026.61 -2873.48,1541.11 -2750.66,1350.06"/>
<polygon fill="red" stroke="red" stroke-width="15" points="-2761.58,1342.77 -2745.13,1341.46 -2739.5,1356.97 -2761.58,1342.77"/>
</g>
<!-- 12&#45;&gt;0 -->
<g id="edge5" class="edge"><title>12&#45;&gt;0</title>
<path fill="none" stroke="blue" stroke-width="15" d="M3301.59,-814.361C3117.83,-1090 2441.78,-2104.07 2248.15,-2394.53"/>
<polygon fill="blue" stroke="blue" stroke-width="15" points="2237.18,-2387.31 2242.56,-2402.91 2259.03,-2401.87 2237.18,-2387.31"/>
</g>
<!-- 13&#45;&gt;17 -->
<g id="edge28" class="edge"><title>13&#45;&gt;17</title>
<path fill="none" stroke="green" stroke-width="15" d="M2364.31,1279.12C2448.59,1556.05 2727.95,2473.94 2816.69,2765.52"/>
<polygon fill="green" stroke="green" stroke-width="15" points="2829.29,2761.82 2819.64,2775.21 2804.17,2769.47 2829.29,2761.82"/>
</g>
<!-- 14&#45;&gt;24 -->
<g id="edge34" class="edge"><title>14&#45;&gt;24</title>
<path fill="none" stroke="orange" stroke-width="15" d="M684,-1332.26C684,-1344.91 684,-1358.03 684,-1370.87"/>
<polygon fill="orange" stroke="orange" stroke-width="15" points="670.875,-1371.1 684,-1381.1 697.125,-1371.1 670.875,-1371.1"/>
</g>
<!-- 15&#45;&gt;10 -->
<g id="edge21" class="edge"><title>15&#45;&gt;10</title>
<path fill="none" stroke="black" stroke-width="15" d="M-3626.22,-1763.92C-3600.31,-1984.08 -3530.09,-2580.94 -3502.93,-2811.82"/>
<polygon fill="black" stroke="black" stroke-width="15" points="-3515.95,-2813.47 -3501.75,-2821.87 -3489.88,-2810.41 -3515.95,-2813.47"/>
</g>
<!-- 16&#45;&gt;1 -->
<g id="edge3" class="edge"><title>16&#45;&gt;1</title>
<path fill="none" stroke="blue" stroke-width="15" d="M2691.01,-617.613C2799.31,-522.857 3019.98,-329.766 3133.33,-230.585"/>
<polygon fill="blue" stroke="blue" stroke-width="15" points="3142.09,-240.362 3140.97,-223.899 3124.8,-220.607 3142.09,-240.362"/>
</g>
<!-- 17&#45;&gt;19 -->
<g id="edge29" class="edge"><title>17&#45;&gt;19</title>
<path fill="none" stroke="green" stroke-width="15" d="M2918.95,2817.77C2919.02,2817.74 2919.09,2817.71 2919.16,2817.67"/>
<polygon fill="green" stroke="green" stroke-width="15" points="2904.54,2810.3 2919.36,2817.57 2916.29,2833.78 2904.54,2810.3"/>
</g>
<!-- 18&#45;&gt;9 -->
<g id="edge18" class="edge"><title>18&#45;&gt;9</title>
<path fill="none" stroke="black" stroke-width="15" d="M-2417.5,663.34C-2634.93,573.807 -3249.69,320.671 -3477.59,226.83"/>
<polygon fill="black" stroke="black" stroke-width="15" points="-3482.59,238.964 -3486.84,223.02 -3472.6,214.691 -3482.59,238.964"/>
</g>
<!-- 19&#45;&gt;31 -->
<g id="edge30" class="edge"><title>19&#45;&gt;31</title>
<path fill="none" stroke="green" stroke-width="15" d="M3065.67,2752.18C3123.16,2729.19 3201.5,2697.85 3261.07,2674.02"/>
<polygon fill="green" stroke="green" stroke-width="15" points="3256.31,2661.79 3270.47,2670.26 3266.06,2686.16 3256.31,2661.79"/>
</g>
<!-- 20&#45;&gt;0 -->
<g id="edge15" class="edge"><title>20&#45;&gt;0</title>
<path fill="none" stroke="red" stroke-width="15" d="M-34.2746,-3657.58C309.245,-3475.09 1751.39,-2708.95 2113.33,-2516.67"/>
<polygon fill="red" stroke="red" stroke-width="15" points="2119.51,-2528.25 2122.19,-2511.96 2107.2,-2505.06 2119.51,-2528.25"/>
</g>
<!-- 21&#45;&gt;0 -->
<g id="edge32" class="edge"><title>21&#45;&gt;0</title>
<path fill="none" stroke="green" stroke-width="15" d="M3327.15,1910.44C3185.77,1362.62 2369.01,-1802.33 2219.5,-2381.69"/>
<polygon fill="green" stroke="green" stroke-width="15" points="2206.72,-2378.7 2216.93,-2391.66 2232.13,-2385.26 2206.72,-2378.7"/>
</g>
<!-- 22&#45;&gt;15 -->
<g id="edge20" class="edge"><title>22&#45;&gt;15</title>
<path fill="none" stroke="black" stroke-width="15" d="M-3362.33,-107.154C-3410.85,-386.134 -3568.74,-1294.01 -3619.87,-1587.98"/>
<polygon fill="black" stroke="black" stroke-width="15" points="-3632.86,-1586.08 -3621.64,-1598.18 -3607,-1590.57 -3632.86,-1586.08"/>
</g>
<!-- 23&#45;&gt;28 -->
<g id="edge9" class="edge"><title>23&#45;&gt;28</title>
<path fill="none" stroke="red" stroke-width="15" d="M-763.713,2326.08C-1002.57,2250.65 -1711.39,2026.81 -1962.54,1947.5"/>
<polygon fill="red" stroke="red" stroke-width="15" points="-1966.78,1959.93 -1972.36,1944.4 -1958.87,1934.89 -1966.78,1959.93"/>
</g>
<!-- 24&#45;&gt;27 -->
<g id="edge35" class="edge"><title>24&#45;&gt;27</title>
<path fill="none" stroke="orange" stroke-width="15" d="M642.583,-1537.23C589.602,-1629.95 498.087,-1790.1 442.686,-1887.05"/>
<polygon fill="orange" stroke="orange" stroke-width="15" points="431.172,-1880.75 437.606,-1895.94 453.963,-1893.77 431.172,-1880.75"/>
</g>
<!-- 25&#45;&gt;5 -->
<g id="edge23" class="edge"><title>25&#45;&gt;5</title>
<path fill="none" stroke="black" stroke-width="15" d="M-2982.32,-3953.68C-2735.06,-3854.77 -1967.26,-3547.66 -1707.17,-3443.62"/>
<polygon fill="black" stroke="black" stroke-width="15" points="-1702.17,-3455.75 -1697.76,-3439.85 -1711.92,-3431.38 -1702.17,-3455.75"/>
</g>
<!-- 26&#45;&gt;7 -->
<g id="edge26" class="edge"><title>26&#45;&gt;7</title>
<path fill="none" stroke="green" stroke-width="15" d="M2072.25,-879.744C2124.3,-671.554 2262.48,-118.841 2317.21,100.093"/>
<polygon fill="green" stroke="green" stroke-width="15" points="2329.98,97.064 2319.67,109.949 2304.52,103.431 2329.98,97.064"/>
</g>
<!-- 27&#45;&gt;0 -->
<g id="edge36" class="edge"><title>27&#45;&gt;0</title>
<path fill="none" stroke="orange" stroke-width="15" d="M476.545,-1991.3C771.962,-2074.02 1794.91,-2360.44 2105.73,-2447.47"/>
<polygon fill="orange" stroke="orange" stroke-width="15" points="2102.43,-2460.18 2115.6,-2450.24 2109.51,-2434.9 2102.43,-2460.18"/>
</g>
<!-- 28&#45;&gt;4 -->
<g id="edge10" class="edge"><title>28&#45;&gt;4</title>
<path fill="none" stroke="red" stroke-width="15" d="M-2117.17,1971.38C-2251.31,2078.7 -2557.54,2323.68 -2698.5,2436.45"/>
<polygon fill="red" stroke="red" stroke-width="15" points="-2690.72,2447.03 -2706.72,2443.03 -2707.11,2426.53 -2690.72,2447.03"/>
</g>
<!-- 29&#45;&gt;20 -->
<g id="edge14" class="edge"><title>29&#45;&gt;20</title>
<path fill="none" stroke="red" stroke-width="15" d="M-2201.58,-2091.67C-1883.53,-2335.51 -517.702,-3382.65 -182.501,-3639.63"/>
<polygon fill="red" stroke="red" stroke-width="15" points="-190.223,-3650.25 -174.301,-3645.92 -174.252,-3629.42 -190.223,-3650.25"/>
</g>
<!-- 30&#45;&gt;16 -->
<g id="edge2" class="edge"><title>30&#45;&gt;16</title>
<path fill="none" stroke="blue" stroke-width="15" d="M2438.49,-1241.29C2478.97,-1119.83 2556,-888.763 2598.32,-761.803"/>
<polygon fill="blue" stroke="blue" stroke-width="15" points="2610.84,-765.733 2601.55,-752.096 2585.94,-757.432 2610.84,-765.733"/>
</g>
<!-- 31&#45;&gt;21 -->
<g id="edge31" class="edge"><title>31&#45;&gt;21</title>
<path fill="none" stroke="green" stroke-width="15" d="M3348,2555.53C3348,2434.44 3348,2211.14 3348,2084.78"/>
<polygon fill="green" stroke="green" stroke-width="15" points="3334.88,2084.73 3348,2074.73 3361.13,2084.73 3334.88,2084.73"/>
</g>
<!-- 0 -->
<g id="node1" class="node"><title>0</title>
<ellipse fill="white" stroke="black" stroke-width="15" cx="2196" cy="-2472.75" rx="83.3772" ry="83.3772"/>
<text text-anchor="middle" x="2196" y="-2447.75" font-family="Times,serif" font-size="100.00">0</text>
</g>
<!-- 1 -->
<g id="node2" class="node"><title>1</title>
<ellipse fill="white" stroke="black" stroke-width="15" cx="3204" cy="-168.75" rx="83.3772" ry="83.3772"/>
<text text-anchor="middle" x="3204" y="-143.75" font-family="Times,serif" font-size="100.00">1</text>
</g>
<!-- 2 -->
<g id="node3" class="node"><title>2</title>
<ellipse fill="white" stroke="black" stroke-width="15" cx="-108" cy="2639.25" rx="83.3772" ry="83.3772"/>
<text text-anchor="middle" x="-108" y="2664.25" font-family="Times,serif" font-size="100.00">2</text>
</g>
<!-- 3 -->
<g id="node4" class="node"><title>3</title>
<ellipse fill="white" stroke="black" stroke-width="15" cx="-180" cy="2423.25" rx="83.3772" ry="83.3772"/>
<text text-anchor="middle" x="-180" y="2448.25" font-family="Times,serif" font-size="100.00">3</text>
</g>
<!-- 4 -->
<g id="node5" class="node"><title>4</title>
<ellipse fill="white" stroke="black" stroke-width="15" cx="-2772" cy="2495.25" rx="83.3772" ry="83.3772"/>
<text text-anchor="middle" x="-2772" y="2520.25" font-family="Times,serif" font-size="100.00">4</text>
</g>
<!-- 5 -->
<g id="node6" class="node"><title>5</title>
<ellipse fill="white" stroke="black" stroke-width="15" cx="-1620" cy="-3408.75" rx="83.3772" ry="83.3772"/>
<text text-anchor="middle" x="-1620" y="-3383.75" font-family="Times,serif" font-size="100.00">5</text>
</g>
<!-- 6 -->
<g id="node7" class="node"><title>6</title>
<ellipse fill="white" stroke="black" stroke-width="15" cx="468" cy="839.25" rx="83.3772" ry="83.3772"/>
<text text-anchor="middle" x="468" y="864.25" font-family="Times,serif" font-size="100.00">6</text>
</g>
<!-- 7 -->
<g id="node8" class="node"><title>7</title>
<ellipse fill="white" stroke="black" stroke-width="15" cx="2340" cy="191.25" rx="83.3772" ry="83.3772"/>
<text text-anchor="middle" x="2340" y="216.25" font-family="Times,serif" font-size="100.00">7</text>
</g>
<!-- 8 -->
<g id="node9" class="node"><title>8</title>
<ellipse fill="white" stroke="black" stroke-width="15" cx="-2700" cy="1271.25" rx="83.3772" ry="83.3772"/>
<text text-anchor="middle" x="-2700" y="1296.25" font-family="Times,serif" font-size="100.00">8</text>
</g>
<!-- 9 -->
<g id="node10" class="node"><title>9</title>
<ellipse fill="white" stroke="black" stroke-width="15" cx="-3564" cy="191.25" rx="83.3772" ry="83.3772"/>
<text text-anchor="middle" x="-3564" y="216.25" font-family="Times,serif" font-size="100.00">9</text>
</g>
<!-- 10 -->
<g id="node11" class="node"><title>10</title>
<ellipse fill="white" stroke="black" stroke-width="15" cx="-3492" cy="-2904.75" rx="83.3772" ry="83.3772"/>
<text text-anchor="middle" x="-3492" y="-2879.75" font-family="Times,serif" font-size="100.00">10</text>
</g>
<!-- 11 -->
<g id="node12" class="node"><title>11</title>
<ellipse fill="white" stroke="black" stroke-width="15" cx="-3348" cy="2279.25" rx="83.3772" ry="83.3772"/>
<text text-anchor="middle" x="-3348" y="2304.25" font-family="Times,serif" font-size="100.00">11</text>
</g>
<!-- 12 -->
<g id="node13" class="node"><title>12</title>
<ellipse fill="white" stroke="black" stroke-width="15" cx="3348" cy="-744.75" rx="83.3772" ry="83.3772"/>
<text text-anchor="middle" x="3348" y="-719.75" font-family="Times,serif" font-size="100.00">12</text>
</g>
<!-- 13 -->
<g id="node14" class="node"><title>13</title>
<ellipse fill="white" stroke="black" stroke-width="15" cx="2340" cy="1199.25" rx="83.3772" ry="83.3772"/>
<text text-anchor="middle" x="2340" y="1224.25" font-family="Times,serif" font-size="100.00">13</text>
</g>
<!-- 14 -->
<g id="node15" class="node"><title>14</title>
<ellipse fill="white" stroke="black" stroke-width="15" cx="684" cy="-1248.75" rx="83.3772" ry="83.3772"/>
<text text-anchor="middle" x="684" y="-1223.75" font-family="Times,serif" font-size="100.00">14</text>
</g>
<!-- 15 -->
<g id="node16" class="node"><title>15</title>
<ellipse fill="white" stroke="black" stroke-width="15" cx="-3636" cy="-1680.75" rx="83.3772" ry="83.3772"/>
<text text-anchor="middle" x="-3636" y="-1655.75" font-family="Times,serif" font-size="100.00">15</text>
</g>
<!-- 16 -->
<g id="node17" class="node"><title>16</title>
<ellipse fill="white" stroke="black" stroke-width="15" cx="2628" cy="-672.75" rx="83.3772" ry="83.3772"/>
<text text-anchor="middle" x="2628" y="-647.75" font-family="Times,serif" font-size="100.00">16</text>
</g>
<!-- 17 -->
<g id="node18" class="node"><title>17</title>
<ellipse fill="white" stroke="black" stroke-width="15" cx="2844" cy="2855.25" rx="83.3772" ry="83.3772"/>
<text text-anchor="middle" x="2844" y="2880.25" font-family="Times,serif" font-size="100.00">17</text>
</g>
<!-- 18 -->
<g id="node19" class="node"><title>18</title>
<ellipse fill="white" stroke="black" stroke-width="15" cx="-2340" cy="695.25" rx="83.3772" ry="83.3772"/>
<text text-anchor="middle" x="-2340" y="720.25" font-family="Times,serif" font-size="100.00">18</text>
</g>
<!-- 19 -->
<g id="node20" class="node"><title>19</title>
<ellipse fill="white" stroke="black" stroke-width="15" cx="2988" cy="2783.25" rx="83.3772" ry="83.3772"/>
<text text-anchor="middle" x="2988" y="2808.25" font-family="Times,serif" font-size="100.00">19</text>
</g>
<!-- 20 -->
<g id="node21" class="node"><title>20</title>
<ellipse fill="white" stroke="black" stroke-width="15" cx="-108" cy="-3696.75" rx="83.3772" ry="83.3772"/>
<text text-anchor="middle" x="-108" y="-3671.75" font-family="Times,serif" font-size="100.00">20</text>
</g>
<!-- 21 -->
<g id="node22" class="node"><title>21</title>
<ellipse fill="white" stroke="black" stroke-width="15" cx="3348" cy="1991.25" rx="83.3772" ry="83.3772"/>
<text text-anchor="middle" x="3348" y="2016.25" font-family="Times,serif" font-size="100.00">21</text>
</g>
<!-- 22 -->
<g id="node23" class="node"><title>22</title>
<ellipse fill="white" stroke="black" stroke-width="15" cx="-3348" cy="-24.75" rx="83.3772" ry="83.3772"/>
<text text-anchor="middle" x="-3348" y="0.25" font-family="Times,serif" font-size="100.00">22</text>
</g>
<!-- 23 -->
<g id="node24" class="node"><title>23</title>
<ellipse fill="white" stroke="black" stroke-width="15" cx="-684" cy="2351.25" rx="83.3772" ry="83.3772"/>
<text text-anchor="middle" x="-684" y="2376.25" font-family="Times,serif" font-size="100.00">23</text>
</g>
<!-- 24 -->
<g id="node25" class="node"><title>24</title>
<ellipse fill="white" stroke="black" stroke-width="15" cx="684" cy="-1464.75" rx="83.3772" ry="83.3772"/>
<text text-anchor="middle" x="684" y="-1439.75" font-family="Times,serif" font-size="100.00">24</text>
</g>
<!-- 25 -->
<g id="node26" class="node"><title>25</title>
<ellipse fill="white" stroke="black" stroke-width="15" cx="-3060" cy="-3984.75" rx="83.3772" ry="83.3772"/>
<text text-anchor="middle" x="-3060" y="-3959.75" font-family="Times,serif" font-size="100.00">25</text>
</g>
<!-- 26 -->
<g id="node27" class="node"><title>26</title>
<ellipse fill="white" stroke="black" stroke-width="15" cx="2052" cy="-960.75" rx="83.3772" ry="83.3772"/>
<text text-anchor="middle" x="2052" y="-935.75" font-family="Times,serif" font-size="100.00">26</text>
</g>
<!-- 27 -->
<g id="node28" class="node"><title>27</title>
<ellipse fill="white" stroke="black" stroke-width="15" cx="396" cy="-1968.75" rx="83.3772" ry="83.3772"/>
<text text-anchor="middle" x="396" y="-1943.75" font-family="Times,serif" font-size="100.00">27</text>
</g>
<!-- 28 -->
<g id="node29" class="node"><title>28</title>
<ellipse fill="white" stroke="black" stroke-width="15" cx="-2052" cy="1919.25" rx="83.3772" ry="83.3772"/>
<text text-anchor="middle" x="-2052" y="1944.25" font-family="Times,serif" font-size="100.00">28</text>
</g>
<!-- 29 -->
<g id="node30" class="node"><title>29</title>
<ellipse fill="white" stroke="black" stroke-width="15" cx="-2268" cy="-2040.75" rx="83.3772" ry="83.3772"/>
<text text-anchor="middle" x="-2268" y="-2015.75" font-family="Times,serif" font-size="100.00">29</text>
</g>
<!-- 30 -->
<g id="node31" class="node"><title>30</title>
<ellipse fill="white" stroke="black" stroke-width="15" cx="2412" cy="-1320.75" rx="83.3772" ry="83.3772"/>
<text text-anchor="middle" x="2412" y="-1295.75" font-family="Times,serif" font-size="100.00">30</text>
</g>
<!-- 31 -->
<g id="node32" class="node"><title>31</title>
<ellipse fill="white" stroke="black" stroke-width="15" cx="3348" cy="2639.25" rx="83.3772" ry="83.3772"/>
<text text-anchor="middle" x="3348" y="2664.25" font-family="Times,serif" font-size="100.00">31</text>
</g>
</g>
</svg>
