<?xml version="1.0" encoding="UTF-8" standalone="no"?>
<!DOCTYPE svg PUBLIC "-//W3C//DTD SVG 1.1//EN"
 "http://www.w3.org/Graphics/SVG/1.1/DTD/svg11.dtd">
<!-- Generated by graphviz version 2.38.0 (20140413.2041)
 -->
<!-- Title: g Pages: 1 -->
<svg width="7519pt" height="7398pt"
 viewBox="216.00 216.00 7302.88 7181.88" xmlns="http://www.w3.org/2000/svg" xmlns:xlink="http://www.w3.org/1999/xlink">
<g id="graph0" class="graph" transform="scale(1 1) rotate(0) translate(3622.19 3573.19)">
<title>g</title>
<polygon fill="white" stroke="none" points="-3406.19,3608.69 -3406.19,-3357.19 3680.69,-3357.19 3680.69,3608.69 -3406.19,3608.69"/>
<text text-anchor="middle" x="137.25" y="-3337.99" font-family="Times,serif" font-size="14.00">data05&#45;tabou (cost = 1641)</text>
<!-- 0&#45;&gt;9 -->
<g id="edge1" class="edge"><title>0&#45;&gt;9</title>
<path fill="none" stroke="blue" stroke-width="15" d="M3510,1210.59C3027.68,1172 595.781,977.452 86.7591,936.731"/>
<polygon fill="blue" stroke="blue" stroke-width="15" points="85.4443,949.793 76.5229,935.912 87.5379,923.626 85.4443,949.793"/>
</g>
<!-- 0&#45;&gt;19 -->
<g id="edge32" class="edge"><title>0&#45;&gt;19</title>
<path fill="none" stroke="orange" stroke-width="15" d="M3510.43,1204C3028.9,1126.95 593.449,737.282 85.9808,656.087"/>
<polygon fill="orange" stroke="orange" stroke-width="15" points="83.5781,668.995 75.7774,654.454 87.7255,643.074 83.5781,668.995"/>
</g>
<!-- 0&#45;&gt;25 -->
<g id="edge40" class="edge"><title>0&#45;&gt;25</title>
<path fill="none" stroke="red" stroke-width="15" d="M3546.8,1147.57C3398.52,925.16 2937.18,233.142 2781.31,-0.665188"/>
<polygon fill="red" stroke="red" stroke-width="15" points="2770.3,6.47943 2775.67,-9.12159 2792.14,-8.08157 2770.3,6.47943"/>
</g>
<!-- 0&#45;&gt;37 -->
<g id="edge54" class="edge"><title>0&#45;&gt;37</title>
<path fill="none" stroke="green" stroke-width="15" d="M3511.76,1198.24C2973.43,1072.63 -67.2081,363.143 -635.323,230.583"/>
<polygon fill="green" stroke="green" stroke-width="15" points="-638.353,243.354 -645.109,228.299 -632.388,217.79 -638.353,243.354"/>
</g>
<!-- 0&#45;&gt;38 -->
<g id="edge66" class="edge"><title>0&#45;&gt;38</title>
<path fill="none" stroke="orange" stroke-width="15" d="M3565.63,1138.35C3422.64,729.8 2767.2,-1142.89 2616.3,-1574.05"/>
<polygon fill="orange" stroke="orange" stroke-width="15" points="2603.85,-1569.88 2612.93,-1583.66 2628.62,-1578.56 2603.85,-1569.88"/>
</g>
<!-- 0&#45;&gt;42 -->
<g id="edge8" class="edge"><title>0&#45;&gt;42</title>
<path fill="none" stroke="red" stroke-width="15" d="M3509.5,1217.25C3107.13,1217.25 1374.66,1217.25 951.002,1217.25"/>
<polygon fill="red" stroke="red" stroke-width="15" points="950.939,1230.37 940.939,1217.25 950.939,1204.12 950.939,1230.37"/>
</g>
<!-- 0&#45;&gt;45 -->
<g id="edge46" class="edge"><title>0&#45;&gt;45</title>
<path fill="none" stroke="black" stroke-width="15" d="M3524.4,1169.59C3233.43,968.141 2105.38,187.186 1798.63,-25.1822"/>
<polygon fill="black" stroke="black" stroke-width="15" points="1790.98,-14.5142 1790.23,-30.9976 1805.92,-36.0968 1790.98,-14.5142"/>
</g>
<!-- 0&#45;&gt;53 -->
<g id="edge20" class="edge"><title>0&#45;&gt;53</title>
<path fill="none" stroke="green" stroke-width="15" d="M3519.89,1176.9C3121.11,957.572 1216.47,-89.9766 795.664,-321.422"/>
<polygon fill="green" stroke="green" stroke-width="15" points="789.03,-310.092 786.593,-326.411 801.681,-333.092 789.03,-310.092"/>
</g>
<!-- 0&#45;&gt;61 -->
<g id="edge12" class="edge"><title>0&#45;&gt;61</title>
<path fill="none" stroke="black" stroke-width="15" d="M3518.45,1254.65C3090.94,1468.41 960.185,2533.78 509.195,2759.28"/>
<polygon fill="black" stroke="black" stroke-width="15" points="514.936,2771.08 500.122,2763.81 503.197,2747.6 514.936,2771.08"/>
</g>
<!-- 1&#45;&gt;44 -->
<g id="edge16" class="edge"><title>1&#45;&gt;44</title>
<path fill="none" stroke="black" stroke-width="15" d="M630.309,-2229.53C243.849,-2186.59 -1378.56,-2006.33 -1785.74,-1961.08"/>
<polygon fill="black" stroke="black" stroke-width="15" points="-1784.32,-1948.04 -1795.71,-1959.98 -1787.22,-1974.13 -1784.32,-1948.04"/>
</g>
<!-- 2&#45;&gt;46 -->
<g id="edge59" class="edge"><title>2&#45;&gt;46</title>
<path fill="none" stroke="green" stroke-width="15" d="M-3253.13,1269.74C-3015.55,1459.81 -2201.13,2111.35 -1951.85,2310.77"/>
<polygon fill="green" stroke="green" stroke-width="15" points="-1943.54,2300.61 -1943.93,2317.11 -1959.93,2321.11 -1943.54,2300.61"/>
</g>
<!-- 3&#45;&gt;30 -->
<g id="edge22" class="edge"><title>3&#45;&gt;30</title>
<path fill="none" stroke="green" stroke-width="15" d="M519.061,-577.669C437.937,-685.835 278.534,-898.371 193.62,-1011.59"/>
<polygon fill="green" stroke="green" stroke-width="15" points="182.887,-1004.03 187.387,-1019.9 203.887,-1019.78 182.887,-1004.03"/>
</g>
<!-- 4&#45;&gt;5 -->
<g id="edge4" class="edge"><title>4&#45;&gt;5</title>
<path fill="none" stroke="blue" stroke-width="15" d="M-1383.75,909C-1490.23,882.38 -1676.75,835.75 -1787.91,807.96"/>
<polygon fill="blue" stroke="blue" stroke-width="15" points="-1791.25,820.655 -1797.76,805.496 -1784.88,795.189 -1791.25,820.655"/>
</g>
<!-- 5&#45;&gt;54 -->
<g id="edge5" class="edge"><title>5&#45;&gt;54</title>
<path fill="none" stroke="blue" stroke-width="15" d="M-1878.75,868.8C-1878.75,941.803 -1878.75,1047.68 -1878.75,1123.55"/>
<polygon fill="blue" stroke="blue" stroke-width="15" points="-1865.62,1123.58 -1878.75,1133.58 -1891.87,1123.58 -1865.62,1123.58"/>
</g>
<!-- 6&#45;&gt;0 -->
<g id="edge53" class="edge"><title>6&#45;&gt;0</title>
<path fill="none" stroke="black" stroke-width="15" d="M3364.57,988.575C3411.82,1035.82 3477.91,1101.91 3526.9,1150.9"/>
<polygon fill="black" stroke="black" stroke-width="15" points="3536.21,1141.65 3534,1158 3517.65,1160.21 3536.21,1141.65"/>
</g>
<!-- 7&#45;&gt;36 -->
<g id="edge27" class="edge"><title>7&#45;&gt;36</title>
<path fill="none" stroke="green" stroke-width="15" d="M-3030.75,-2875.11C-3030.75,-2623.95 -3030.75,-1877.48 -3030.75,-1612.97"/>
<polygon fill="green" stroke="green" stroke-width="15" points="-3017.62,-1612.63 -3030.75,-1602.63 -3043.87,-1612.63 -3017.62,-1612.63"/>
</g>
<!-- 8&#45;&gt;0 -->
<g id="edge39" class="edge"><title>8&#45;&gt;0</title>
<path fill="none" stroke="orange" stroke-width="15" d="M-1510.88,2776.85C-911.968,2593.84 2870.02,1438.24 3503.34,1244.72"/>
<polygon fill="orange" stroke="orange" stroke-width="15" points="3499.92,1232.04 3513.32,1241.67 3507.59,1257.15 3499.92,1232.04"/>
</g>
<!-- 9&#45;&gt;34 -->
<g id="edge2" class="edge"><title>9&#45;&gt;34</title>
<path fill="none" stroke="blue" stroke-width="15" d="M-84.4867,898.155C-219.827,844.019 -497.804,732.828 -639.517,676.143"/>
<polygon fill="blue" stroke="blue" stroke-width="15" points="-644.656,688.224 -649.066,672.324 -634.906,663.851 -644.656,688.224"/>
</g>
<!-- 10&#45;&gt;0 -->
<g id="edge65" class="edge"><title>10&#45;&gt;0</title>
<path fill="none" stroke="green" stroke-width="15" d="M2938.42,1741.12C3072.56,1633.8 3378.79,1388.82 3519.75,1276.05"/>
<polygon fill="green" stroke="green" stroke-width="15" points="3511.97,1265.47 3527.97,1269.47 3528.36,1285.97 3511.97,1265.47"/>
</g>
<!-- 11&#45;&gt;15 -->
<g id="edge51" class="edge"><title>11&#45;&gt;15</title>
<path fill="none" stroke="black" stroke-width="15" d="M1470.61,-1012.04C1524.27,-904.712 1622.89,-707.476 1679.09,-595.062"/>
<polygon fill="black" stroke="black" stroke-width="15" points="1691,-600.6 1683.73,-585.786 1667.52,-588.86 1691,-600.6"/>
</g>
<!-- 12&#45;&gt;22 -->
<g id="edge70" class="edge"><title>12&#45;&gt;22</title>
<path fill="none" stroke="orange" stroke-width="15" d="M1799.53,-2844.1C2006.61,-2921.76 2567.82,-3132.21 2785.39,-3213.8"/>
<polygon fill="orange" stroke="orange" stroke-width="15" points="2780.89,-3226.13 2794.87,-3217.36 2790.11,-3201.56 2780.89,-3226.13"/>
</g>
<!-- 13&#45;&gt;41 -->
<g id="edge63" class="edge"><title>13&#45;&gt;41</title>
<path fill="none" stroke="green" stroke-width="15" d="M1516.17,2501.4C1702.48,2474.79 2153.2,2410.4 2348.47,2382.5"/>
<polygon fill="green" stroke="green" stroke-width="15" points="2346.67,2369.5 2358.42,2381.08 2350.38,2395.49 2346.67,2369.5"/>
</g>
<!-- 14&#45;&gt;27 -->
<g id="edge48" class="edge"><title>14&#45;&gt;27</title>
<path fill="none" stroke="black" stroke-width="15" d="M-66.9846,-2094.75C-66.9227,-2094.75 -66.8609,-2094.75 -66.799,-2094.75"/>
<polygon fill="black" stroke="black" stroke-width="15" points="-76.6064,-2107.88 -66.6135,-2094.75 -76.6206,-2081.63 -76.6064,-2107.88"/>
</g>
<!-- 15&#45;&gt;6 -->
<g id="edge52" class="edge"><title>15&#45;&gt;6</title>
<path fill="none" stroke="black" stroke-width="15" d="M1783.34,-454.3C2034.12,-226.323 2971.36,625.711 3235.54,865.875"/>
<polygon fill="black" stroke="black" stroke-width="15" points="3244.59,856.363 3243.16,872.801 3226.93,875.786 3244.59,856.363"/>
</g>
<!-- 16&#45;&gt;60 -->
<g id="edge61" class="edge"><title>16&#45;&gt;60</title>
<path fill="none" stroke="green" stroke-width="15" d="M-1227.83,3483.79C-1188.24,3464 -1139.53,3439.64 -1098.67,3419.21"/>
<polygon fill="green" stroke="green" stroke-width="15" points="-1104.36,3407.38 -1089.54,3414.65 -1092.62,3430.86 -1104.36,3407.38"/>
</g>
<!-- 17&#45;&gt;1 -->
<g id="edge15" class="edge"><title>17&#45;&gt;1</title>
<path fill="none" stroke="black" stroke-width="15" d="M797.848,-2154.15C791.834,-2160.17 785.7,-2166.3 779.619,-2172.38"/>
<polygon fill="black" stroke="black" stroke-width="15" points="770.305,-2163.13 772.515,-2179.48 788.867,-2181.69 770.305,-2163.13"/>
</g>
<!-- 18&#45;&gt;0 -->
<g id="edge72" class="edge"><title>18&#45;&gt;0</title>
<path fill="none" stroke="orange" stroke-width="15" d="M3311.91,-2299.5C3350.5,-1817.18 3545.05,614.719 3585.77,1123.74"/>
<polygon fill="orange" stroke="orange" stroke-width="15" points="3598.87,1122.96 3586.59,1133.98 3572.71,1125.06 3598.87,1122.96"/>
</g>
<!-- 19&#45;&gt;51 -->
<g id="edge33" class="edge"><title>19&#45;&gt;51</title>
<path fill="none" stroke="orange" stroke-width="15" d="M-6.75,557.485C-6.75,557.423 -6.75,557.361 -6.75,557.299"/>
<polygon fill="orange" stroke="orange" stroke-width="15" points="-19.8696,567.121 -6.75,557.114 6.38039,567.106 -19.8696,567.121"/>
</g>
<!-- 20&#45;&gt;62 -->
<g id="edge10" class="edge"><title>20&#45;&gt;62</title>
<path fill="none" stroke="red" stroke-width="15" d="M281.25,557.802C281.25,451.831 281.25,269.493 281.25,158.881"/>
<polygon fill="red" stroke="red" stroke-width="15" points="268.125,158.736 281.25,148.736 294.375,158.736 268.125,158.736"/>
</g>
<!-- 21&#45;&gt;7 -->
<g id="edge26" class="edge"><title>21&#45;&gt;7</title>
<path fill="none" stroke="green" stroke-width="15" d="M-1817.79,-3093.52C-2048.29,-3067.91 -2694.92,-2996.06 -2937.37,-2969.13"/>
<polygon fill="green" stroke="green" stroke-width="15" points="-2936.17,-2956.05 -2947.56,-2967.99 -2939.07,-2982.14 -2936.17,-2956.05"/>
</g>
<!-- 22&#45;&gt;18 -->
<g id="edge71" class="edge"><title>22&#45;&gt;18</title>
<path fill="none" stroke="orange" stroke-width="15" d="M2910.64,-3171.96C2990.9,-3011.45 3179.18,-2634.89 3263.33,-2466.59"/>
<polygon fill="orange" stroke="orange" stroke-width="15" points="3275.14,-2472.33 3267.87,-2457.51 3251.66,-2460.59 3275.14,-2472.33"/>
</g>
<!-- 23&#45;&gt;58 -->
<g id="edge35" class="edge"><title>23&#45;&gt;58</title>
<path fill="none" stroke="orange" stroke-width="15" d="M-662.187,379.729C-998.026,491.675 -2300.25,925.751 -2653.77,1043.59"/>
<polygon fill="orange" stroke="orange" stroke-width="15" points="-2649.81,1056.11 -2663.45,1046.82 -2658.11,1031.2 -2649.81,1056.11"/>
</g>
<!-- 24&#45;&gt;17 -->
<g id="edge14" class="edge"><title>24&#45;&gt;17</title>
<path fill="none" stroke="black" stroke-width="15" d="M-134.815,3007.3C-17.2172,2402.51 714.961,-1362.98 839.31,-2002.49"/>
<polygon fill="black" stroke="black" stroke-width="15" points="826.479,-2005.26 841.272,-2012.58 852.247,-2000.25 826.479,-2005.26"/>
</g>
<!-- 25&#45;&gt;29 -->
<g id="edge41" class="edge"><title>25&#45;&gt;29</title>
<path fill="none" stroke="red" stroke-width="15" d="M2645.48,-78.75C2645.42,-78.75 2645.36,-78.75 2645.3,-78.75"/>
<polygon fill="red" stroke="red" stroke-width="15" points="2655.12,-65.6304 2645.11,-78.75 2655.11,-91.8804 2655.12,-65.6304"/>
</g>
<!-- 26&#45;&gt;21 -->
<g id="edge25" class="edge"><title>26&#45;&gt;21</title>
<path fill="none" stroke="green" stroke-width="15" d="M-954.379,-3102.75C-1116.24,-3102.75 -1471.29,-3102.75 -1640.91,-3102.75"/>
<polygon fill="green" stroke="green" stroke-width="15" points="-1641.07,-3089.63 -1651.07,-3102.75 -1641.08,-3115.88 -1641.07,-3089.63"/>
</g>
<!-- 27&#45;&gt;57 -->
<g id="edge49" class="edge"><title>27&#45;&gt;57</title>
<path fill="none" stroke="black" stroke-width="15" d="M64.0104,-2050.52C267.285,-1923.48 852.034,-1558.01 1065.78,-1424.42"/>
<polygon fill="black" stroke="black" stroke-width="15" points="1072.93,-1435.43 1074.45,-1419 1059.02,-1413.17 1072.93,-1435.43"/>
</g>
<!-- 28&#45;&gt;12 -->
<g id="edge69" class="edge"><title>28&#45;&gt;12</title>
<path fill="none" stroke="orange" stroke-width="15" d="M939.703,-2945.01C1101.51,-2918.04 1459.58,-2858.36 1628.98,-2830.13"/>
<polygon fill="orange" stroke="orange" stroke-width="15" points="1631.17,-2843.07 1638.88,-2828.48 1626.86,-2817.18 1631.17,-2843.07"/>
</g>
<!-- 29&#45;&gt;33 -->
<g id="edge42" class="edge"><title>29&#45;&gt;33</title>
<path fill="none" stroke="red" stroke-width="15" d="M2512.76,-37.3255C2329.9,67.1633 1850.82,340.922 1658.69,450.712"/>
<polygon fill="red" stroke="red" stroke-width="15" points="1664.96,462.249 1649.76,455.815 1651.93,439.458 1664.96,462.249"/>
</g>
<!-- 30&#45;&gt;35 -->
<g id="edge23" class="edge"><title>30&#45;&gt;35</title>
<path fill="none" stroke="green" stroke-width="15" d="M106.245,-1164.26C-27.1164,-1497.67 -551.515,-2808.66 -691.98,-3159.83"/>
<polygon fill="green" stroke="green" stroke-width="15" points="-704.197,-3155.03 -695.725,-3169.19 -679.825,-3164.78 -704.197,-3155.03"/>
</g>
<!-- 31&#45;&gt;50 -->
<g id="edge57" class="edge"><title>31&#45;&gt;50</title>
<path fill="none" stroke="green" stroke-width="15" d="M-1959.75,-387C-2066.23,-413.62 -2252.75,-460.25 -2363.91,-488.04"/>
<polygon fill="green" stroke="green" stroke-width="15" points="-2367.25,-475.345 -2373.76,-490.504 -2360.88,-500.811 -2367.25,-475.345"/>
</g>
<!-- 32&#45;&gt;0 -->
<g id="edge7" class="edge"><title>32&#45;&gt;0</title>
<path fill="none" stroke="blue" stroke-width="15" d="M362.298,2060.11C814.778,1942.07 3025.27,1365.42 3502.37,1240.96"/>
<polygon fill="blue" stroke="blue" stroke-width="15" points="3499.32,1228.19 3512.31,1238.36 3505.95,1253.59 3499.32,1228.19"/>
</g>
<!-- 33&#45;&gt;52 -->
<g id="edge43" class="edge"><title>33&#45;&gt;52</title>
<path fill="none" stroke="red" stroke-width="15" d="M1596.41,578.699C1683.34,948.119 2040.25,2464.98 2131.78,2854"/>
<polygon fill="red" stroke="red" stroke-width="15" points="2144.57,2851.07 2134.09,2863.81 2119.02,2857.08 2144.57,2851.07"/>
</g>
<!-- 34&#45;&gt;4 -->
<g id="edge3" class="edge"><title>34&#45;&gt;4</title>
<path fill="none" stroke="blue" stroke-width="15" d="M-801.461,678.606C-908.788,732.269 -1106.02,830.887 -1218.44,887.094"/>
<polygon fill="blue" stroke="blue" stroke-width="15" points="-1212.9,898.999 -1227.71,891.732 -1224.64,875.521 -1212.9,898.999"/>
</g>
<!-- 35&#45;&gt;26 -->
<g id="edge24" class="edge"><title>35&#45;&gt;26</title>
<path fill="none" stroke="green" stroke-width="15" d="M-786.152,-3187.35C-792.166,-3181.33 -798.3,-3175.2 -804.381,-3169.12"/>
<polygon fill="green" stroke="green" stroke-width="15" points="-795.133,-3159.81 -811.485,-3162.02 -813.695,-3178.37 -795.133,-3159.81"/>
</g>
<!-- 36&#45;&gt;40 -->
<g id="edge28" class="edge"><title>36&#45;&gt;40</title>
<path fill="none" stroke="green" stroke-width="15" d="M-3030.75,-1518.75C-3030.75,-1518.75 -3030.75,-1518.75 -3030.75,-1518.75"/>
<polygon fill="green" stroke="green" stroke-width="15" points="-3007.62,-1515.62 -3030.75,-1518.75 -3033.88,-1541.88 -3007.62,-1515.62"/>
</g>
<!-- 37&#45;&gt;59 -->
<g id="edge55" class="edge"><title>37&#45;&gt;59</title>
<path fill="none" stroke="green" stroke-width="15" d="M-796.358,162.845C-955.549,56.7172 -1345.3,-203.118 -1512.49,-314.58"/>
<polygon fill="green" stroke="green" stroke-width="15" points="-1520.21,-303.951 -1521.25,-320.419 -1505.65,-325.792 -1520.21,-303.951"/>
</g>
<!-- 38&#45;&gt;43 -->
<g id="edge67" class="edge"><title>38&#45;&gt;43</title>
<path fill="none" stroke="orange" stroke-width="15" d="M2516.76,-1710.69C2276.77,-1878.68 1474.74,-2440.11 1222.13,-2616.94"/>
<polygon fill="orange" stroke="orange" stroke-width="15" points="1214.4,-2606.32 1213.73,-2622.81 1229.45,-2627.83 1214.4,-2606.32"/>
</g>
<!-- 39&#45;&gt;48 -->
<g id="edge30" class="edge"><title>39&#45;&gt;48</title>
<path fill="none" stroke="green" stroke-width="15" d="M-2094.57,-1476.64C-1647.78,-1216.02 737.008,175.109 1208.3,450.031"/>
<polygon fill="green" stroke="green" stroke-width="15" points="1215.08,438.787 1217.1,455.163 1201.85,461.461 1215.08,438.787"/>
</g>
<!-- 40&#45;&gt;39 -->
<g id="edge29" class="edge"><title>40&#45;&gt;39</title>
<path fill="none" stroke="green" stroke-width="15" d="M-2947.12,-1518.75C-2785.26,-1518.75 -2430.21,-1518.75 -2260.59,-1518.75"/>
<polygon fill="green" stroke="green" stroke-width="15" points="-2260.42,-1531.88 -2250.43,-1518.75 -2260.43,-1505.63 -2260.42,-1531.88"/>
</g>
<!-- 41&#45;&gt;10 -->
<g id="edge64" class="edge"><title>41&#45;&gt;10</title>
<path fill="none" stroke="green" stroke-width="15" d="M2491.44,2302.33C2572.56,2194.17 2731.97,1981.63 2816.88,1868.41"/>
<polygon fill="green" stroke="green" stroke-width="15" points="2806.61,1860.22 2823.11,1860.1 2827.61,1875.97 2806.61,1860.22"/>
</g>
<!-- 42&#45;&gt;20 -->
<g id="edge9" class="edge"><title>42&#45;&gt;20</title>
<path fill="none" stroke="red" stroke-width="15" d="M798.046,1158.05C689.895,1049.89 461.106,821.106 347.762,707.762"/>
<polygon fill="red" stroke="red" stroke-width="15" points="338.256,716.818 340.466,700.466 356.818,698.256 338.256,716.818"/>
</g>
<!-- 43&#45;&gt;28 -->
<g id="edge68" class="edge"><title>43&#45;&gt;28</title>
<path fill="none" stroke="orange" stroke-width="15" d="M1085.93,-2730.07C1038.68,-2777.32 972.587,-2843.41 923.597,-2892.4"/>
<polygon fill="orange" stroke="orange" stroke-width="15" points="914.288,-2883.15 916.498,-2899.5 932.85,-2901.71 914.288,-2883.15"/>
</g>
<!-- 44&#45;&gt;49 -->
<g id="edge17" class="edge"><title>44&#45;&gt;49</title>
<path fill="none" stroke="black" stroke-width="15" d="M-1855.79,-1870.39C-1802.78,-1684.86 -1672.16,-1227.68 -1616.52,-1032.94"/>
<polygon fill="black" stroke="black" stroke-width="15" points="-1603.89,-1036.53 -1613.77,-1023.31 -1629.13,-1029.32 -1603.89,-1036.53"/>
</g>
<!-- 45&#45;&gt;14 -->
<g id="edge47" class="edge"><title>45&#45;&gt;14</title>
<path fill="none" stroke="black" stroke-width="15" d="M1664.46,-139.91C1390.13,-435.338 203.561,-1713.18 -86.5634,-2025.63"/>
<polygon fill="black" stroke="black" stroke-width="15" points="-96.4725,-2017.01 -93.6591,-2033.27 -77.2366,-2034.87 -96.4725,-2017.01"/>
</g>
<!-- 46&#45;&gt;16 -->
<g id="edge60" class="edge"><title>46&#45;&gt;16</title>
<path fill="none" stroke="green" stroke-width="15" d="M-1841.4,2443.95C-1738.73,2649.28 -1452.72,3221.31 -1344.74,3437.26"/>
<polygon fill="green" stroke="green" stroke-width="15" points="-1332.93,3431.53 -1340.2,3446.35 -1356.41,3443.27 -1332.93,3431.53"/>
</g>
<!-- 47&#45;&gt;8 -->
<g id="edge38" class="edge"><title>47&#45;&gt;8</title>
<path fill="none" stroke="orange" stroke-width="15" d="M-2661.74,3069C-2453.55,3016.95 -1900.84,2878.77 -1681.91,2824.04"/>
<polygon fill="orange" stroke="orange" stroke-width="15" points="-1684.94,2811.27 -1672.05,2821.58 -1678.57,2836.73 -1684.94,2811.27"/>
</g>
<!-- 48&#45;&gt;0 -->
<g id="edge31" class="edge"><title>48&#45;&gt;0</title>
<path fill="none" stroke="green" stroke-width="15" d="M1368.89,522.138C1720.55,632.032 3133.15,1073.47 3503.81,1189.3"/>
<polygon fill="green" stroke="green" stroke-width="15" points="3507.8,1176.79 3513.43,1192.31 3499.97,1201.85 3507.8,1176.79"/>
</g>
<!-- 49&#45;&gt;55 -->
<g id="edge18" class="edge"><title>49&#45;&gt;55</title>
<path fill="none" stroke="black" stroke-width="15" d="M-1553.29,-867.833C-1533.5,-828.244 -1509.14,-779.525 -1488.71,-738.669"/>
<polygon fill="black" stroke="black" stroke-width="15" points="-1476.88,-744.355 -1484.15,-729.541 -1500.36,-732.616 -1476.88,-744.355"/>
</g>
<!-- 50&#45;&gt;2 -->
<g id="edge58" class="edge"><title>50&#45;&gt;2</title>
<path fill="none" stroke="green" stroke-width="15" d="M-2492.15,-435.945C-2632.73,-154.8 -3128.92,837.588 -3276.83,1133.42"/>
<polygon fill="green" stroke="green" stroke-width="15" points="-3265.11,1139.31 -3281.32,1142.39 -3288.59,1127.57 -3265.11,1139.31"/>
</g>
<!-- 51&#45;&gt;23 -->
<g id="edge34" class="edge"><title>51&#45;&gt;23</title>
<path fill="none" stroke="orange" stroke-width="15" d="M-87.7507,477C-194.228,450.38 -380.75,403.75 -491.91,375.96"/>
<polygon fill="orange" stroke="orange" stroke-width="15" points="-495.247,388.655 -501.765,373.496 -488.88,363.189 -495.247,388.655"/>
</g>
<!-- 52&#45;&gt;56 -->
<g id="edge44" class="edge"><title>52&#45;&gt;56</title>
<path fill="none" stroke="red" stroke-width="15" d="M2236.8,2945.25C2309.8,2945.25 2415.68,2945.25 2491.55,2945.25"/>
<polygon fill="red" stroke="red" stroke-width="15" points="2491.58,2932.12 2501.58,2945.25 2491.58,2958.37 2491.58,2932.12"/>
</g>
<!-- 53&#45;&gt;3 -->
<g id="edge21" class="edge"><title>53&#45;&gt;3</title>
<path fill="none" stroke="green" stroke-width="15" d="M653.848,-426.152C647.834,-432.166 641.7,-438.3 635.619,-444.381"/>
<polygon fill="green" stroke="green" stroke-width="15" points="626.305,-435.133 628.515,-451.485 644.867,-453.695 626.305,-435.133"/>
</g>
<!-- 54&#45;&gt;32 -->
<g id="edge6" class="edge"><title>54&#45;&gt;32</title>
<path fill="none" stroke="blue" stroke-width="15" d="M-1801.24,1248.25C-1467.83,1381.62 -156.837,1906.02 194.325,2046.48"/>
<polygon fill="blue" stroke="blue" stroke-width="15" points="199.277,2034.32 203.687,2050.22 189.528,2058.7 199.277,2034.32"/>
</g>
<!-- 55&#45;&gt;0 -->
<g id="edge19" class="edge"><title>55&#45;&gt;0</title>
<path fill="none" stroke="black" stroke-width="15" d="M-1368.34,-625.627C-783.938,-408.563 2886.75,954.834 3504.92,1184.44"/>
<polygon fill="black" stroke="black" stroke-width="15" points="3509.86,1172.28 3514.67,1188.06 3500.72,1196.88 3509.86,1172.28"/>
</g>
<!-- 56&#45;&gt;0 -->
<g id="edge45" class="edge"><title>56&#45;&gt;0</title>
<path fill="none" stroke="red" stroke-width="15" d="M2627.44,2872.93C2789.93,2594.36 3374.73,1591.86 3545.88,1298.46"/>
<polygon fill="red" stroke="red" stroke-width="15" points="3534.69,1291.59 3551.06,1289.57 3557.36,1304.82 3534.69,1291.59"/>
</g>
<!-- 57&#45;&gt;11 -->
<g id="edge50" class="edge"><title>57&#45;&gt;11</title>
<path fill="none" stroke="black" stroke-width="15" d="M1204.57,-1315.43C1251.82,-1268.18 1317.91,-1202.09 1366.9,-1153.1"/>
<polygon fill="black" stroke="black" stroke-width="15" points="1376.21,-1162.35 1374,-1146 1357.65,-1143.79 1376.21,-1162.35"/>
</g>
<!-- 58&#45;&gt;63 -->
<g id="edge36" class="edge"><title>58&#45;&gt;63</title>
<path fill="none" stroke="orange" stroke-width="15" d="M-2742.75,1156.88C-2742.75,1318.74 -2742.75,1673.79 -2742.75,1843.41"/>
<polygon fill="orange" stroke="orange" stroke-width="15" points="-2729.62,1843.58 -2742.75,1853.57 -2755.87,1843.57 -2729.62,1843.58"/>
</g>
<!-- 59&#45;&gt;31 -->
<g id="edge56" class="edge"><title>59&#45;&gt;31</title>
<path fill="none" stroke="green" stroke-width="15" d="M-1674.44,-366.75C-1708.9,-366.75 -1748.99,-366.75 -1784.49,-366.75"/>
<polygon fill="green" stroke="green" stroke-width="15" points="-1784.85,-353.625 -1794.85,-366.75 -1784.85,-379.875 -1784.85,-353.625"/>
</g>
<!-- 60&#45;&gt;13 -->
<g id="edge62" class="edge"><title>60&#45;&gt;13</title>
<path fill="none" stroke="green" stroke-width="15" d="M-935.729,3349.36C-569.681,3220.17 959.636,2680.41 1344.86,2544.45"/>
<polygon fill="green" stroke="green" stroke-width="15" points="1340.5,2532.07 1354.29,2541.12 1349.23,2556.82 1340.5,2532.07"/>
</g>
<!-- 61&#45;&gt;24 -->
<g id="edge13" class="edge"><title>61&#45;&gt;24</title>
<path fill="none" stroke="black" stroke-width="15" d="M350.539,2838.61C243.212,2892.27 45.9765,2990.89 -66.4383,3047.09"/>
<polygon fill="black" stroke="black" stroke-width="15" points="-60.9001,3059 -75.7141,3051.73 -72.6396,3035.52 -60.9001,3059"/>
</g>
<!-- 62&#45;&gt;0 -->
<g id="edge11" class="edge"><title>62&#45;&gt;0</title>
<path fill="none" stroke="red" stroke-width="15" d="M360.258,92.7312C808.86,248.767 3032.15,1022.09 3504.81,1186.49"/>
<polygon fill="red" stroke="red" stroke-width="15" points="3509.19,1174.11 3514.32,1189.8 3500.56,1198.91 3509.19,1174.11"/>
</g>
<!-- 63&#45;&gt;47 -->
<g id="edge37" class="edge"><title>63&#45;&gt;47</title>
<path fill="none" stroke="orange" stroke-width="15" d="M-2742.75,2021.03C-2742.75,2230.5 -2742.75,2775.93 -2742.75,2995.58"/>
<polygon fill="orange" stroke="orange" stroke-width="15" points="-2729.62,2995.79 -2742.75,3005.79 -2755.87,2995.79 -2729.62,2995.79"/>
</g>
<!-- 0 -->
<g id="node1" class="node"><title>0</title>
<ellipse fill="white" stroke="black" stroke-width="15" cx="3593.25" cy="1217.25" rx="83.3772" ry="83.3772"/>
<text text-anchor="middle" x="3593.25" y="1242.25" font-family="Times,serif" font-size="100.00">0</text>
</g>
<!-- 1 -->
<g id="node2" class="node"><title>1</title>
<ellipse fill="white" stroke="black" stroke-width="15" cx="713.25" cy="-2238.75" rx="83.3772" ry="83.3772"/>
<text text-anchor="middle" x="713.25" y="-2213.75" font-family="Times,serif" font-size="100.00">1</text>
</g>
<!-- 2 -->
<g id="node3" class="node"><title>2</title>
<ellipse fill="white" stroke="black" stroke-width="15" cx="-3318.75" cy="1217.25" rx="83.3772" ry="83.3772"/>
<text text-anchor="middle" x="-3318.75" y="1242.25" font-family="Times,serif" font-size="100.00">2</text>
</g>
<!-- 3 -->
<g id="node4" class="node"><title>3</title>
<ellipse fill="white" stroke="black" stroke-width="15" cx="569.25" cy="-510.75" rx="83.3772" ry="83.3772"/>
<text text-anchor="middle" x="569.25" y="-485.75" font-family="Times,serif" font-size="100.00">3</text>
</g>
<!-- 4 -->
<g id="node5" class="node"><title>4</title>
<ellipse fill="white" stroke="black" stroke-width="15" cx="-1302.75" cy="929.25" rx="83.3772" ry="83.3772"/>
<text text-anchor="middle" x="-1302.75" y="954.25" font-family="Times,serif" font-size="100.00">4</text>
</g>
<!-- 5 -->
<g id="node6" class="node"><title>5</title>
<ellipse fill="white" stroke="black" stroke-width="15" cx="-1878.75" cy="785.25" rx="83.3772" ry="83.3772"/>
<text text-anchor="middle" x="-1878.75" y="810.25" font-family="Times,serif" font-size="100.00">5</text>
</g>
<!-- 6 -->
<g id="node7" class="node"><title>6</title>
<ellipse fill="white" stroke="black" stroke-width="15" cx="3305.25" cy="929.25" rx="83.3772" ry="83.3772"/>
<text text-anchor="middle" x="3305.25" y="954.25" font-family="Times,serif" font-size="100.00">6</text>
</g>
<!-- 7 -->
<g id="node8" class="node"><title>7</title>
<ellipse fill="white" stroke="black" stroke-width="15" cx="-3030.75" cy="-2958.75" rx="83.3772" ry="83.3772"/>
<text text-anchor="middle" x="-3030.75" y="-2933.75" font-family="Times,serif" font-size="100.00">7</text>
</g>
<!-- 8 -->
<g id="node9" class="node"><title>8</title>
<ellipse fill="white" stroke="black" stroke-width="15" cx="-1590.75" cy="2801.25" rx="83.3772" ry="83.3772"/>
<text text-anchor="middle" x="-1590.75" y="2826.25" font-family="Times,serif" font-size="100.00">8</text>
</g>
<!-- 9 -->
<g id="node10" class="node"><title>9</title>
<ellipse fill="white" stroke="black" stroke-width="15" cx="-6.75" cy="929.25" rx="83.3772" ry="83.3772"/>
<text text-anchor="middle" x="-6.75" y="954.25" font-family="Times,serif" font-size="100.00">9</text>
</g>
<!-- 10 -->
<g id="node11" class="node"><title>10</title>
<ellipse fill="white" stroke="black" stroke-width="15" cx="2873.25" cy="1793.25" rx="83.3772" ry="83.3772"/>
<text text-anchor="middle" x="2873.25" y="1818.25" font-family="Times,serif" font-size="100.00">10</text>
</g>
<!-- 11 -->
<g id="node12" class="node"><title>11</title>
<ellipse fill="white" stroke="black" stroke-width="15" cx="1433.25" cy="-1086.75" rx="83.3772" ry="83.3772"/>
<text text-anchor="middle" x="1433.25" y="-1061.75" font-family="Times,serif" font-size="100.00">11</text>
</g>
<!-- 12 -->
<g id="node13" class="node"><title>12</title>
<ellipse fill="white" stroke="black" stroke-width="15" cx="1721.25" cy="-2814.75" rx="83.3772" ry="83.3772"/>
<text text-anchor="middle" x="1721.25" y="-2789.75" font-family="Times,serif" font-size="100.00">12</text>
</g>
<!-- 13 -->
<g id="node14" class="node"><title>13</title>
<ellipse fill="white" stroke="black" stroke-width="15" cx="1433.25" cy="2513.25" rx="83.3772" ry="83.3772"/>
<text text-anchor="middle" x="1433.25" y="2538.25" font-family="Times,serif" font-size="100.00">13</text>
</g>
<!-- 14 -->
<g id="node15" class="node"><title>14</title>
<ellipse fill="white" stroke="black" stroke-width="15" cx="-150.75" cy="-2094.75" rx="83.3772" ry="83.3772"/>
<text text-anchor="middle" x="-150.75" y="-2069.75" font-family="Times,serif" font-size="100.00">14</text>
</g>
<!-- 15 -->
<g id="node16" class="node"><title>15</title>
<ellipse fill="white" stroke="black" stroke-width="15" cx="1721.25" cy="-510.75" rx="83.3772" ry="83.3772"/>
<text text-anchor="middle" x="1721.25" y="-485.75" font-family="Times,serif" font-size="100.00">15</text>
</g>
<!-- 16 -->
<g id="node17" class="node"><title>16</title>
<ellipse fill="white" stroke="black" stroke-width="15" cx="-1302.75" cy="3521.25" rx="83.3772" ry="83.3772"/>
<text text-anchor="middle" x="-1302.75" y="3546.25" font-family="Times,serif" font-size="100.00">16</text>
</g>
<!-- 17 -->
<g id="node18" class="node"><title>17</title>
<ellipse fill="white" stroke="black" stroke-width="15" cx="857.25" cy="-2094.75" rx="83.3772" ry="83.3772"/>
<text text-anchor="middle" x="857.25" y="-2069.75" font-family="Times,serif" font-size="100.00">17</text>
</g>
<!-- 18 -->
<g id="node19" class="node"><title>18</title>
<ellipse fill="white" stroke="black" stroke-width="15" cx="3305.25" cy="-2382.75" rx="83.3772" ry="83.3772"/>
<text text-anchor="middle" x="3305.25" y="-2357.75" font-family="Times,serif" font-size="100.00">18</text>
</g>
<!-- 19 -->
<g id="node20" class="node"><title>19</title>
<ellipse fill="white" stroke="black" stroke-width="15" cx="-6.75" cy="641.25" rx="83.3772" ry="83.3772"/>
<text text-anchor="middle" x="-6.75" y="666.25" font-family="Times,serif" font-size="100.00">19</text>
</g>
<!-- 20 -->
<g id="node21" class="node"><title>20</title>
<ellipse fill="white" stroke="black" stroke-width="15" cx="281.25" cy="641.25" rx="83.3772" ry="83.3772"/>
<text text-anchor="middle" x="281.25" y="666.25" font-family="Times,serif" font-size="100.00">20</text>
</g>
<!-- 21 -->
<g id="node22" class="node"><title>21</title>
<ellipse fill="white" stroke="black" stroke-width="15" cx="-1734.75" cy="-3102.75" rx="83.3772" ry="83.3772"/>
<text text-anchor="middle" x="-1734.75" y="-3077.75" font-family="Times,serif" font-size="100.00">21</text>
</g>
<!-- 22 -->
<g id="node23" class="node"><title>22</title>
<ellipse fill="white" stroke="black" stroke-width="15" cx="2873.25" cy="-3246.75" rx="83.3772" ry="83.3772"/>
<text text-anchor="middle" x="2873.25" y="-3221.75" font-family="Times,serif" font-size="100.00">22</text>
</g>
<!-- 23 -->
<g id="node24" class="node"><title>23</title>
<ellipse fill="white" stroke="black" stroke-width="15" cx="-582.75" cy="353.25" rx="83.3772" ry="83.3772"/>
<text text-anchor="middle" x="-582.75" y="378.25" font-family="Times,serif" font-size="100.00">23</text>
</g>
<!-- 24 -->
<g id="node25" class="node"><title>24</title>
<ellipse fill="white" stroke="black" stroke-width="15" cx="-150.75" cy="3089.25" rx="83.3772" ry="83.3772"/>
<text text-anchor="middle" x="-150.75" y="3114.25" font-family="Times,serif" font-size="100.00">24</text>
</g>
<!-- 25 -->
<g id="node26" class="node"><title>25</title>
<ellipse fill="white" stroke="black" stroke-width="15" cx="2729.25" cy="-78.75" rx="83.3772" ry="83.3772"/>
<text text-anchor="middle" x="2729.25" y="-53.75" font-family="Times,serif" font-size="100.00">25</text>
</g>
<!-- 26 -->
<g id="node27" class="node"><title>26</title>
<ellipse fill="white" stroke="black" stroke-width="15" cx="-870.75" cy="-3102.75" rx="83.3772" ry="83.3772"/>
<text text-anchor="middle" x="-870.75" y="-3077.75" font-family="Times,serif" font-size="100.00">26</text>
</g>
<!-- 27 -->
<g id="node28" class="node"><title>27</title>
<ellipse fill="white" stroke="black" stroke-width="15" cx="-6.75" cy="-2094.75" rx="83.3772" ry="83.3772"/>
<text text-anchor="middle" x="-6.75" y="-2069.75" font-family="Times,serif" font-size="100.00">27</text>
</g>
<!-- 28 -->
<g id="node29" class="node"><title>28</title>
<ellipse fill="white" stroke="black" stroke-width="15" cx="857.25" cy="-2958.75" rx="83.3772" ry="83.3772"/>
<text text-anchor="middle" x="857.25" y="-2933.75" font-family="Times,serif" font-size="100.00">28</text>
</g>
<!-- 29 -->
<g id="node30" class="node"><title>29</title>
<ellipse fill="white" stroke="black" stroke-width="15" cx="2585.25" cy="-78.75" rx="83.3772" ry="83.3772"/>
<text text-anchor="middle" x="2585.25" y="-53.75" font-family="Times,serif" font-size="100.00">29</text>
</g>
<!-- 30 -->
<g id="node31" class="node"><title>30</title>
<ellipse fill="white" stroke="black" stroke-width="15" cx="137.25" cy="-1086.75" rx="83.3772" ry="83.3772"/>
<text text-anchor="middle" x="137.25" y="-1061.75" font-family="Times,serif" font-size="100.00">30</text>
</g>
<!-- 31 -->
<g id="node32" class="node"><title>31</title>
<ellipse fill="white" stroke="black" stroke-width="15" cx="-1878.75" cy="-366.75" rx="83.3772" ry="83.3772"/>
<text text-anchor="middle" x="-1878.75" y="-341.75" font-family="Times,serif" font-size="100.00">31</text>
</g>
<!-- 32 -->
<g id="node33" class="node"><title>32</title>
<ellipse fill="white" stroke="black" stroke-width="15" cx="281.25" cy="2081.25" rx="83.3772" ry="83.3772"/>
<text text-anchor="middle" x="281.25" y="2106.25" font-family="Times,serif" font-size="100.00">32</text>
</g>
<!-- 33 -->
<g id="node34" class="node"><title>33</title>
<ellipse fill="white" stroke="black" stroke-width="15" cx="1577.25" cy="497.25" rx="83.3772" ry="83.3772"/>
<text text-anchor="middle" x="1577.25" y="522.25" font-family="Times,serif" font-size="100.00">33</text>
</g>
<!-- 34 -->
<g id="node35" class="node"><title>34</title>
<ellipse fill="white" stroke="black" stroke-width="15" cx="-726.75" cy="641.25" rx="83.3772" ry="83.3772"/>
<text text-anchor="middle" x="-726.75" y="666.25" font-family="Times,serif" font-size="100.00">34</text>
</g>
<!-- 35 -->
<g id="node36" class="node"><title>35</title>
<ellipse fill="white" stroke="black" stroke-width="15" cx="-726.75" cy="-3246.75" rx="83.3772" ry="83.3772"/>
<text text-anchor="middle" x="-726.75" y="-3221.75" font-family="Times,serif" font-size="100.00">35</text>
</g>
<!-- 36 -->
<g id="node37" class="node"><title>36</title>
<ellipse fill="white" stroke="black" stroke-width="15" cx="-3030.75" cy="-1518.75" rx="83.3772" ry="83.3772"/>
<text text-anchor="middle" x="-3030.75" y="-1493.75" font-family="Times,serif" font-size="100.00">36</text>
</g>
<!-- 37 -->
<g id="node38" class="node"><title>37</title>
<ellipse fill="white" stroke="black" stroke-width="15" cx="-726.75" cy="209.25" rx="83.3772" ry="83.3772"/>
<text text-anchor="middle" x="-726.75" y="234.25" font-family="Times,serif" font-size="100.00">37</text>
</g>
<!-- 38 -->
<g id="node39" class="node"><title>38</title>
<ellipse fill="white" stroke="black" stroke-width="15" cx="2585.25" cy="-1662.75" rx="83.3772" ry="83.3772"/>
<text text-anchor="middle" x="2585.25" y="-1637.75" font-family="Times,serif" font-size="100.00">38</text>
</g>
<!-- 39 -->
<g id="node40" class="node"><title>39</title>
<ellipse fill="white" stroke="black" stroke-width="15" cx="-2166.75" cy="-1518.75" rx="83.3772" ry="83.3772"/>
<text text-anchor="middle" x="-2166.75" y="-1493.75" font-family="Times,serif" font-size="100.00">39</text>
</g>
<!-- 40 -->
<g id="node41" class="node"><title>40</title>
<ellipse fill="white" stroke="black" stroke-width="15" cx="-3030.75" cy="-1518.75" rx="83.3772" ry="83.3772"/>
<text text-anchor="middle" x="-3030.75" y="-1493.75" font-family="Times,serif" font-size="100.00">40</text>
</g>
<!-- 41 -->
<g id="node42" class="node"><title>41</title>
<ellipse fill="white" stroke="black" stroke-width="15" cx="2441.25" cy="2369.25" rx="83.3772" ry="83.3772"/>
<text text-anchor="middle" x="2441.25" y="2394.25" font-family="Times,serif" font-size="100.00">41</text>
</g>
<!-- 42 -->
<g id="node43" class="node"><title>42</title>
<ellipse fill="white" stroke="black" stroke-width="15" cx="857.25" cy="1217.25" rx="83.3772" ry="83.3772"/>
<text text-anchor="middle" x="857.25" y="1242.25" font-family="Times,serif" font-size="100.00">42</text>
</g>
<!-- 43 -->
<g id="node44" class="node"><title>43</title>
<ellipse fill="white" stroke="black" stroke-width="15" cx="1145.25" cy="-2670.75" rx="83.3772" ry="83.3772"/>
<text text-anchor="middle" x="1145.25" y="-2645.75" font-family="Times,serif" font-size="100.00">43</text>
</g>
<!-- 44 -->
<g id="node45" class="node"><title>44</title>
<ellipse fill="white" stroke="black" stroke-width="15" cx="-1878.75" cy="-1950.75" rx="83.3772" ry="83.3772"/>
<text text-anchor="middle" x="-1878.75" y="-1925.75" font-family="Times,serif" font-size="100.00">44</text>
</g>
<!-- 45 -->
<g id="node46" class="node"><title>45</title>
<ellipse fill="white" stroke="black" stroke-width="15" cx="1721.25" cy="-78.75" rx="83.3772" ry="83.3772"/>
<text text-anchor="middle" x="1721.25" y="-53.75" font-family="Times,serif" font-size="100.00">45</text>
</g>
<!-- 46 -->
<g id="node47" class="node"><title>46</title>
<ellipse fill="white" stroke="black" stroke-width="15" cx="-1878.75" cy="2369.25" rx="83.3772" ry="83.3772"/>
<text text-anchor="middle" x="-1878.75" y="2394.25" font-family="Times,serif" font-size="100.00">46</text>
</g>
<!-- 47 -->
<g id="node48" class="node"><title>47</title>
<ellipse fill="white" stroke="black" stroke-width="15" cx="-2742.75" cy="3089.25" rx="83.3772" ry="83.3772"/>
<text text-anchor="middle" x="-2742.75" y="3114.25" font-family="Times,serif" font-size="100.00">47</text>
</g>
<!-- 48 -->
<g id="node49" class="node"><title>48</title>
<ellipse fill="white" stroke="black" stroke-width="15" cx="1289.25" cy="497.25" rx="83.3772" ry="83.3772"/>
<text text-anchor="middle" x="1289.25" y="522.25" font-family="Times,serif" font-size="100.00">48</text>
</g>
<!-- 49 -->
<g id="node50" class="node"><title>49</title>
<ellipse fill="white" stroke="black" stroke-width="15" cx="-1590.75" cy="-942.75" rx="83.3772" ry="83.3772"/>
<text text-anchor="middle" x="-1590.75" y="-917.75" font-family="Times,serif" font-size="100.00">49</text>
</g>
<!-- 50 -->
<g id="node51" class="node"><title>50</title>
<ellipse fill="white" stroke="black" stroke-width="15" cx="-2454.75" cy="-510.75" rx="83.3772" ry="83.3772"/>
<text text-anchor="middle" x="-2454.75" y="-485.75" font-family="Times,serif" font-size="100.00">50</text>
</g>
<!-- 51 -->
<g id="node52" class="node"><title>51</title>
<ellipse fill="white" stroke="black" stroke-width="15" cx="-6.75" cy="497.25" rx="83.3772" ry="83.3772"/>
<text text-anchor="middle" x="-6.75" y="522.25" font-family="Times,serif" font-size="100.00">51</text>
</g>
<!-- 52 -->
<g id="node53" class="node"><title>52</title>
<ellipse fill="white" stroke="black" stroke-width="15" cx="2153.25" cy="2945.25" rx="83.3772" ry="83.3772"/>
<text text-anchor="middle" x="2153.25" y="2970.25" font-family="Times,serif" font-size="100.00">52</text>
</g>
<!-- 53 -->
<g id="node54" class="node"><title>53</title>
<ellipse fill="white" stroke="black" stroke-width="15" cx="713.25" cy="-366.75" rx="83.3772" ry="83.3772"/>
<text text-anchor="middle" x="713.25" y="-341.75" font-family="Times,serif" font-size="100.00">53</text>
</g>
<!-- 54 -->
<g id="node55" class="node"><title>54</title>
<ellipse fill="white" stroke="black" stroke-width="15" cx="-1878.75" cy="1217.25" rx="83.3772" ry="83.3772"/>
<text text-anchor="middle" x="-1878.75" y="1242.25" font-family="Times,serif" font-size="100.00">54</text>
</g>
<!-- 55 -->
<g id="node56" class="node"><title>55</title>
<ellipse fill="white" stroke="black" stroke-width="15" cx="-1446.75" cy="-654.75" rx="83.3772" ry="83.3772"/>
<text text-anchor="middle" x="-1446.75" y="-629.75" font-family="Times,serif" font-size="100.00">55</text>
</g>
<!-- 56 -->
<g id="node57" class="node"><title>56</title>
<ellipse fill="white" stroke="black" stroke-width="15" cx="2585.25" cy="2945.25" rx="83.3772" ry="83.3772"/>
<text text-anchor="middle" x="2585.25" y="2970.25" font-family="Times,serif" font-size="100.00">56</text>
</g>
<!-- 57 -->
<g id="node58" class="node"><title>57</title>
<ellipse fill="white" stroke="black" stroke-width="15" cx="1145.25" cy="-1374.75" rx="83.3772" ry="83.3772"/>
<text text-anchor="middle" x="1145.25" y="-1349.75" font-family="Times,serif" font-size="100.00">57</text>
</g>
<!-- 58 -->
<g id="node59" class="node"><title>58</title>
<ellipse fill="white" stroke="black" stroke-width="15" cx="-2742.75" cy="1073.25" rx="83.3772" ry="83.3772"/>
<text text-anchor="middle" x="-2742.75" y="1098.25" font-family="Times,serif" font-size="100.00">58</text>
</g>
<!-- 59 -->
<g id="node60" class="node"><title>59</title>
<ellipse fill="white" stroke="black" stroke-width="15" cx="-1590.75" cy="-366.75" rx="83.3772" ry="83.3772"/>
<text text-anchor="middle" x="-1590.75" y="-341.75" font-family="Times,serif" font-size="100.00">59</text>
</g>
<!-- 60 -->
<g id="node61" class="node"><title>60</title>
<ellipse fill="white" stroke="black" stroke-width="15" cx="-1014.75" cy="3377.25" rx="83.3772" ry="83.3772"/>
<text text-anchor="middle" x="-1014.75" y="3402.25" font-family="Times,serif" font-size="100.00">60</text>
</g>
<!-- 61 -->
<g id="node62" class="node"><title>61</title>
<ellipse fill="white" stroke="black" stroke-width="15" cx="425.25" cy="2801.25" rx="83.3772" ry="83.3772"/>
<text text-anchor="middle" x="425.25" y="2826.25" font-family="Times,serif" font-size="100.00">61</text>
</g>
<!-- 62 -->
<g id="node63" class="node"><title>62</title>
<ellipse fill="white" stroke="black" stroke-width="15" cx="281.25" cy="65.25" rx="83.3772" ry="83.3772"/>
<text text-anchor="middle" x="281.25" y="90.25" font-family="Times,serif" font-size="100.00">62</text>
</g>
<!-- 63 -->
<g id="node64" class="node"><title>63</title>
<ellipse fill="white" stroke="black" stroke-width="15" cx="-2742.75" cy="1937.25" rx="83.3772" ry="83.3772"/>
<text text-anchor="middle" x="-2742.75" y="1962.25" font-family="Times,serif" font-size="100.00">63</text>
</g>
</g>
</svg>
