<?xml version="1.0" encoding="UTF-8" standalone="no"?>
<!DOCTYPE svg PUBLIC "-//W3C//DTD SVG 1.1//EN"
 "http://www.w3.org/Graphics/SVG/1.1/DTD/svg11.dtd">
<!-- Generated by graphviz version 2.38.0 (20140413.2041)
 -->
<!-- Title: g Pages: 1 -->
<svg width="7375pt" height="7254pt"
 viewBox="216.00 216.00 7158.88 7037.88" xmlns="http://www.w3.org/2000/svg" xmlns:xlink="http://www.w3.org/1999/xlink">
<g id="graph0" class="graph" transform="scale(1 1) rotate(0) translate(3627.44 3288.04)">
<title>g</title>
<polygon fill="white" stroke="none" points="-3411.44,3749.84 -3411.44,-3072.04 3531.44,-3072.04 3531.44,3749.84 -3411.44,3749.84"/>
<text text-anchor="middle" x="59.9999" y="-3052.84" font-family="Times,serif" font-size="14.00">data02&#45;tabou (cost = 1601)</text>
<!-- 0&#45;&gt;6 -->
<g id="edge16" class="edge"><title>0&#45;&gt;6</title>
<path fill="none" stroke="black" stroke-width="15" d="M-1464.41,-2590.9C-1526.64,-2176 -1804.45,-323.966 -1870.07,113.554"/>
<polygon fill="black" stroke="black" stroke-width="15" points="-1857.12,115.682 -1871.58,123.624 -1883.08,111.788 -1857.12,115.682"/>
</g>
<!-- 0&#45;&gt;18 -->
<g id="edge55" class="edge"><title>0&#45;&gt;18</title>
<path fill="none" stroke="black" stroke-width="15" d="M-1368.45,-2673.6C-1295.45,-2673.6 -1189.57,-2673.6 -1113.7,-2673.6"/>
<polygon fill="black" stroke="black" stroke-width="15" points="-1113.67,-2686.73 -1103.67,-2673.6 -1113.67,-2660.48 -1113.67,-2686.73"/>
</g>
<!-- 0&#45;&gt;23 -->
<g id="edge50" class="edge"><title>0&#45;&gt;23</title>
<path fill="none" stroke="red" stroke-width="15" d="M-1414.65,-2598.9C-1242.24,-2254.07 -523.915,-817.43 -342.009,-453.618"/>
<polygon fill="red" stroke="red" stroke-width="15" points="-330.159,-459.266 -337.426,-444.452 -353.638,-447.527 -330.159,-459.266"/>
</g>
<!-- 0&#45;&gt;25 -->
<g id="edge1" class="edge"><title>0&#45;&gt;25</title>
<path fill="none" stroke="blue" stroke-width="15" d="M-1504.13,-2608.44C-1611.45,-2474.29 -1856.43,-2168.06 -1969.2,-2027.1"/>
<polygon fill="blue" stroke="blue" stroke-width="15" points="-1959.28,-2018.49 -1975.78,-2018.88 -1979.78,-2034.88 -1959.28,-2018.49"/>
</g>
<!-- 0&#45;&gt;33 -->
<g id="edge41" class="edge"><title>0&#45;&gt;33</title>
<path fill="none" stroke="blue" stroke-width="15" d="M-1371.64,-2696.56C-1186.11,-2749.57 -728.931,-2880.19 -534.193,-2935.83"/>
<polygon fill="blue" stroke="blue" stroke-width="15" points="-537.779,-2948.46 -524.558,-2938.58 -530.567,-2923.22 -537.779,-2948.46"/>
</g>
<!-- 0&#45;&gt;34 -->
<g id="edge8" class="edge"><title>0&#45;&gt;34</title>
<path fill="none" stroke="red" stroke-width="15" d="M-1441.62,-2590.58C-1397.11,-2234.48 -1222.48,-837.434 -1175.62,-462.586"/>
<polygon fill="red" stroke="red" stroke-width="15" points="-1162.59,-464.142 -1174.37,-452.591 -1188.64,-460.886 -1162.59,-464.142"/>
</g>
<!-- 0&#45;&gt;46 -->
<g id="edge32" class="edge"><title>0&#45;&gt;46</title>
<path fill="none" stroke="orange" stroke-width="15" d="M-1502.19,-2606.68C-1652.88,-2405.76 -2100.76,-1808.58 -2259.47,-1596.97"/>
<polygon fill="orange" stroke="orange" stroke-width="15" points="-2249.17,-1588.83 -2265.67,-1588.7 -2270.17,-1604.58 -2249.17,-1588.83"/>
</g>
<!-- 0&#45;&gt;52 -->
<g id="edge63" class="edge"><title>0&#45;&gt;52</title>
<path fill="none" stroke="green" stroke-width="15" d="M-1368.58,-2667.64C-1044.53,-2644.5 129.517,-2560.63 470.524,-2536.28"/>
<polygon fill="green" stroke="green" stroke-width="15" points="471.571,-2549.36 480.611,-2535.56 469.701,-2523.18 471.571,-2549.36"/>
</g>
<!-- 0&#45;&gt;58 -->
<g id="edge25" class="edge"><title>0&#45;&gt;58</title>
<path fill="none" stroke="green" stroke-width="15" d="M-1421.56,-2595.8C-1246.99,-2149.69 -374.475,80.0752 -190.209,550.978"/>
<polygon fill="green" stroke="green" stroke-width="15" points="-177.924,546.355 -186.502,560.45 -202.369,555.921 -177.924,546.355"/>
</g>
<!-- 1&#45;&gt;0 -->
<g id="edge68" class="edge"><title>1&#45;&gt;0</title>
<path fill="none" stroke="green" stroke-width="15" d="M-1027.57,1995.17C-1079.95,1418.92 -1388.24,-1972.25 -1443.52,-2580.28"/>
<polygon fill="green" stroke="green" stroke-width="15" points="-1456.59,-2579.17 -1444.43,-2590.31 -1430.45,-2581.54 -1456.59,-2579.17"/>
</g>
<!-- 2&#45;&gt;22 -->
<g id="edge18" class="edge"><title>2&#45;&gt;22</title>
<path fill="none" stroke="black" stroke-width="15" d="M-1266.49,1287.04C-1088.48,1598.55 -390.261,2820.44 -202.632,3148.79"/>
<polygon fill="black" stroke="black" stroke-width="15" points="-191.061,3142.59 -197.496,3157.78 -213.853,3155.61 -191.061,3142.59"/>
</g>
<!-- 3&#45;&gt;20 -->
<g id="edge5" class="edge"><title>3&#45;&gt;20</title>
<path fill="none" stroke="blue" stroke-width="15" d="M-2869.04,-1889.96C-2816.03,-2075.49 -2685.41,-2532.67 -2629.77,-2727.41"/>
<polygon fill="blue" stroke="blue" stroke-width="15" points="-2642.38,-2731.03 -2627.02,-2737.04 -2617.14,-2723.82 -2642.38,-2731.03"/>
</g>
<!-- 4&#45;&gt;21 -->
<g id="edge34" class="edge"><title>4&#45;&gt;21</title>
<path fill="none" stroke="orange" stroke-width="15" d="M-3264.6,-166.198C-3258.58,-160.184 -3252.45,-154.05 -3246.37,-147.969"/>
<polygon fill="orange" stroke="orange" stroke-width="15" points="-3237.06,-157.217 -3239.27,-140.865 -3255.62,-138.655 -3237.06,-157.217"/>
</g>
<!-- 5&#45;&gt;9 -->
<g id="edge22" class="edge"><title>5&#45;&gt;9</title>
<path fill="none" stroke="black" stroke-width="15" d="M215.669,3369.75C603.25,3348.22 2222.53,3258.26 2630.41,3235.6"/>
<polygon fill="black" stroke="black" stroke-width="15" points="2629.69,3222.49 2640.4,3235.04 2631.14,3248.7 2629.69,3222.49"/>
</g>
<!-- 6&#45;&gt;2 -->
<g id="edge17" class="edge"><title>6&#45;&gt;2</title>
<path fill="none" stroke="black" stroke-width="15" d="M-1842.58,278.893C-1738.09,461.748 -1464.33,940.826 -1354.54,1132.96"/>
<polygon fill="black" stroke="black" stroke-width="15" points="-1343,1126.69 -1349.44,1141.89 -1365.79,1139.72 -1343,1126.69"/>
</g>
<!-- 7&#45;&gt;13 -->
<g id="edge57" class="edge"><title>7&#45;&gt;13</title>
<path fill="none" stroke="black" stroke-width="15" d="M2329.46,-2310.68C2349.25,-2271.09 2373.61,-2222.38 2394.04,-2181.52"/>
<polygon fill="black" stroke="black" stroke-width="15" points="2405.87,-2187.21 2398.6,-2172.39 2382.39,-2175.47 2405.87,-2187.21"/>
</g>
<!-- 8&#45;&gt;26 -->
<g id="edge59" class="edge"><title>8&#45;&gt;26</title>
<path fill="none" stroke="black" stroke-width="15" d="M2447.85,-1870.68C2474.46,-1684.37 2538.85,-1233.65 2566.75,-1038.38"/>
<polygon fill="black" stroke="black" stroke-width="15" points="2579.75,-1040.18 2568.17,-1028.43 2553.76,-1036.47 2579.75,-1040.18"/>
</g>
<!-- 9&#45;&gt;51 -->
<g id="edge23" class="edge"><title>9&#45;&gt;51</title>
<path fill="none" stroke="black" stroke-width="15" d="M2795.67,3273.4C2930.76,3354.46 3222.18,3529.31 3363.67,3614.2"/>
<polygon fill="black" stroke="black" stroke-width="15" points="3370.53,3603.01 3372.35,3619.41 3357.03,3625.52 3370.53,3603.01"/>
</g>
<!-- 10&#45;&gt;54 -->
<g id="edge20" class="edge"><title>10&#45;&gt;54</title>
<path fill="none" stroke="black" stroke-width="15" d="M-96.5983,3433.8C-90.5844,3439.82 -84.4495,3445.95 -78.3685,3452.03"/>
<polygon fill="black" stroke="black" stroke-width="15" points="-69.0555,3442.78 -71.2652,3459.13 -87.6171,3461.34 -69.0555,3442.78"/>
</g>
<!-- 11&#45;&gt;3 -->
<g id="edge4" class="edge"><title>11&#45;&gt;3</title>
<path fill="none" stroke="blue" stroke-width="15" d="M-2892,-741.377C-2892,-950.853 -2892,-1496.28 -2892,-1715.93"/>
<polygon fill="blue" stroke="blue" stroke-width="15" points="-2905.12,-1716.14 -2892,-1726.14 -2878.87,-1716.14 -2905.12,-1716.14"/>
</g>
<!-- 12&#45;&gt;43 -->
<g id="edge14" class="edge"><title>12&#45;&gt;43</title>
<path fill="none" stroke="red" stroke-width="15" d="M3384.77,2019.17C3251.76,1886.16 2930.07,1564.47 2790.48,1424.88"/>
<polygon fill="red" stroke="red" stroke-width="15" points="2780.95,1433.92 2783.16,1417.56 2799.52,1415.35 2780.95,1433.92"/>
</g>
<!-- 13&#45;&gt;8 -->
<g id="edge58" class="edge"><title>13&#45;&gt;8</title>
<path fill="none" stroke="black" stroke-width="15" d="M2436,-2013.83C2436,-2013.77 2436,-2013.71 2436,-2013.65"/>
<polygon fill="black" stroke="black" stroke-width="15" points="2449.13,-2023.46 2436,-2013.46 2422.88,-2023.47 2449.13,-2023.46"/>
</g>
<!-- 14&#45;&gt;41 -->
<g id="edge53" class="edge"><title>14&#45;&gt;41</title>
<path fill="none" stroke="red" stroke-width="15" d="M-761.353,-1887.88C-839.01,-2094.96 -1049.46,-2656.17 -1131.05,-2873.74"/>
<polygon fill="red" stroke="red" stroke-width="15" points="-1143.38,-2869.24 -1134.61,-2883.22 -1118.81,-2878.46 -1143.38,-2869.24"/>
</g>
<!-- 15&#45;&gt;35 -->
<g id="edge61" class="edge"><title>15&#45;&gt;35</title>
<path fill="none" stroke="black" stroke-width="15" d="M1488.35,-945.6C1353.14,-945.6 1087.47,-945.6 945.95,-945.6"/>
<polygon fill="black" stroke="black" stroke-width="15" points="945.562,-932.475 935.562,-945.6 945.562,-958.725 945.562,-932.475"/>
</g>
<!-- 16&#45;&gt;0 -->
<g id="edge7" class="edge"><title>16&#45;&gt;0</title>
<path fill="none" stroke="blue" stroke-width="15" d="M-2233.55,-2803.86C-2071.74,-2776.89 -1713.67,-2717.21 -1544.27,-2688.98"/>
<polygon fill="blue" stroke="blue" stroke-width="15" points="-1542.08,-2701.92 -1534.37,-2687.33 -1546.39,-2676.03 -1542.08,-2701.92"/>
</g>
<!-- 17&#45;&gt;27 -->
<g id="edge47" class="edge"><title>17&#45;&gt;27</title>
<path fill="none" stroke="blue" stroke-width="15" d="M2937.08,-1415.06C2897.49,-1434.85 2848.78,-1459.21 2807.92,-1479.64"/>
<polygon fill="blue" stroke="blue" stroke-width="15" points="2801.87,-1467.99 2798.79,-1484.2 2813.61,-1491.47 2801.87,-1467.99"/>
</g>
<!-- 18&#45;&gt;7 -->
<g id="edge56" class="edge"><title>18&#45;&gt;7</title>
<path fill="none" stroke="black" stroke-width="15" d="M-936.473,-2666.34C-479.243,-2626.58 1717.37,-2435.57 2198.67,-2393.72"/>
<polygon fill="black" stroke="black" stroke-width="15" points="2199.87,-2406.79 2208.7,-2392.84 2197.6,-2380.63 2199.87,-2406.79"/>
</g>
<!-- 19&#45;&gt;0 -->
<g id="edge49" class="edge"><title>19&#45;&gt;0</title>
<path fill="none" stroke="blue" stroke-width="15" d="M628.563,-1980.08C292.724,-2092.03 -1009.5,-2526.1 -1363.02,-2643.94"/>
<polygon fill="blue" stroke="blue" stroke-width="15" points="-1367.36,-2631.55 -1372.7,-2647.17 -1359.06,-2656.46 -1367.36,-2631.55"/>
</g>
<!-- 20&#45;&gt;16 -->
<g id="edge6" class="edge"><title>20&#45;&gt;16</title>
<path fill="none" stroke="blue" stroke-width="15" d="M-2520.31,-2817.6C-2485.85,-2817.6 -2445.76,-2817.6 -2410.26,-2817.6"/>
<polygon fill="blue" stroke="blue" stroke-width="15" points="-2409.9,-2830.73 -2399.9,-2817.6 -2409.9,-2804.48 -2409.9,-2830.73"/>
</g>
<!-- 21&#45;&gt;28 -->
<g id="edge35" class="edge"><title>21&#45;&gt;28</title>
<path fill="none" stroke="orange" stroke-width="15" d="M-3124.44,-19.0912C-2931.79,197.636 -2293.26,915.987 -2090.42,1144.18"/>
<polygon fill="orange" stroke="orange" stroke-width="15" points="-2080.51,1135.57 -2083.68,1151.76 -2100.13,1153.01 -2080.51,1135.57"/>
</g>
<!-- 22&#45;&gt;10 -->
<g id="edge19" class="edge"><title>22&#45;&gt;10</title>
<path fill="none" stroke="black" stroke-width="15" d="M-156,3314.17C-156,3314.23 -156,3314.29 -156,3314.35"/>
<polygon fill="black" stroke="black" stroke-width="15" points="-142.87,3304.54 -156,3314.54 -169.12,3304.53 -142.87,3304.54"/>
</g>
<!-- 23&#45;&gt;47 -->
<g id="edge51" class="edge"><title>23&#45;&gt;47</title>
<path fill="none" stroke="red" stroke-width="15" d="M-320.25,-450.601C-346.87,-557.078 -393.5,-743.6 -421.29,-854.76"/>
<polygon fill="red" stroke="red" stroke-width="15" points="-434.061,-851.73 -423.754,-864.615 -408.595,-858.097 -434.061,-851.73"/>
</g>
<!-- 24&#45;&gt;56 -->
<g id="edge37" class="edge"><title>24&#45;&gt;56</title>
<path fill="none" stroke="orange" stroke-width="15" d="M-793.18,939.651C-311.646,1016.7 2123.8,1406.37 2631.27,1487.56"/>
<polygon fill="orange" stroke="orange" stroke-width="15" points="2633.67,1474.66 2641.47,1489.2 2629.52,1500.58 2633.67,1474.66"/>
</g>
<!-- 25&#45;&gt;40 -->
<g id="edge2" class="edge"><title>25&#45;&gt;40</title>
<path fill="none" stroke="blue" stroke-width="15" d="M-2050.96,-1873.24C-2103.97,-1687.71 -2234.59,-1230.53 -2290.23,-1035.79"/>
<polygon fill="blue" stroke="blue" stroke-width="15" points="-2277.62,-1032.17 -2292.98,-1026.16 -2302.86,-1039.38 -2277.62,-1032.17"/>
</g>
<!-- 26&#45;&gt;15 -->
<g id="edge60" class="edge"><title>26&#45;&gt;15</title>
<path fill="none" stroke="black" stroke-width="15" d="M2496.22,-945.6C2309.76,-945.6 1861.56,-945.6 1665.96,-945.6"/>
<polygon fill="black" stroke="black" stroke-width="15" points="1665.71,-932.475 1655.71,-945.6 1665.71,-958.725 1665.71,-932.475"/>
</g>
<!-- 27&#45;&gt;19 -->
<g id="edge48" class="edge"><title>27&#45;&gt;19</title>
<path fill="none" stroke="blue" stroke-width="15" d="M2642.16,-1539.14C2319.73,-1608.23 1138.35,-1861.38 799.445,-1934"/>
<polygon fill="blue" stroke="blue" stroke-width="15" points="796.694,-1921.17 789.666,-1936.1 802.194,-1946.84 796.694,-1921.17"/>
</g>
<!-- 28&#45;&gt;24 -->
<g id="edge36" class="edge"><title>28&#45;&gt;24</title>
<path fill="none" stroke="orange" stroke-width="15" d="M-1946.99,1194.15C-1738.8,1142.1 -1186.09,1003.92 -967.157,949.189"/>
<polygon fill="orange" stroke="orange" stroke-width="15" points="-970.186,936.418 -957.301,946.725 -963.819,961.884 -970.186,936.418"/>
</g>
<!-- 29&#45;&gt;37 -->
<g id="edge44" class="edge"><title>29&#45;&gt;37</title>
<path fill="none" stroke="blue" stroke-width="15" d="M2657.74,-2210.51C2793.08,-2156.37 3071.05,-2045.18 3212.77,-1988.49"/>
<polygon fill="blue" stroke="blue" stroke-width="15" points="3217.91,-2000.57 3222.32,-1984.67 3208.16,-1976.2 3217.91,-2000.57"/>
</g>
<!-- 30&#45;&gt;53 -->
<g id="edge30" class="edge"><title>30&#45;&gt;53</title>
<path fill="none" stroke="green" stroke-width="15" d="M-3314.77,3003.36C-3289.16,2772.86 -3217.31,2126.23 -3190.38,1883.78"/>
<polygon fill="green" stroke="green" stroke-width="15" points="-3203.39,1882.08 -3189.24,1873.59 -3177.3,1884.98 -3203.39,1882.08"/>
</g>
<!-- 31&#45;&gt;44 -->
<g id="edge10" class="edge"><title>31&#45;&gt;44</title>
<path fill="none" stroke="red" stroke-width="15" d="M-2273,1286.07C-2191.94,1421.16 -2017.09,1712.58 -1932.2,1854.07"/>
<polygon fill="red" stroke="red" stroke-width="15" points="-1920.88,1847.43 -1926.99,1862.75 -1943.39,1860.93 -1920.88,1847.43"/>
</g>
<!-- 32&#45;&gt;12 -->
<g id="edge13" class="edge"><title>32&#45;&gt;12</title>
<path fill="none" stroke="red" stroke-width="15" d="M2644.23,2744.87C2801.78,2613.58 3206.54,2276.29 3371.94,2138.45"/>
<polygon fill="red" stroke="red" stroke-width="15" points="3363.55,2128.36 3379.64,2132.04 3380.36,2148.52 3363.55,2128.36"/>
</g>
<!-- 33&#45;&gt;59 -->
<g id="edge42" class="edge"><title>33&#45;&gt;59</title>
<path fill="none" stroke="blue" stroke-width="15" d="M-361.528,-2947.85C-73.2503,-2899.81 888.261,-2739.56 1191.53,-2689.01"/>
<polygon fill="blue" stroke="blue" stroke-width="15" points="1193.9,-2701.92 1201.61,-2687.33 1189.59,-2676.03 1193.9,-2701.92"/>
</g>
<!-- 34&#45;&gt;31 -->
<g id="edge9" class="edge"><title>34&#45;&gt;31</title>
<path fill="none" stroke="red" stroke-width="15" d="M-1213.13,-302.044C-1399.73,-45.4692 -2063.88,867.733 -2260.67,1138.32"/>
<polygon fill="red" stroke="red" stroke-width="15" points="-2250.14,1146.15 -2266.63,1146.52 -2271.36,1130.71 -2250.14,1146.15"/>
</g>
<!-- 35&#45;&gt;0 -->
<g id="edge62" class="edge"><title>35&#45;&gt;0</title>
<path fill="none" stroke="black" stroke-width="15" d="M785.222,-995.683C452.342,-1245.34 -1025.7,-2353.87 -1376.93,-2617.3"/>
<polygon fill="black" stroke="black" stroke-width="15" points="-1384.89,-2606.86 -1385.02,-2623.36 -1369.14,-2627.86 -1384.89,-2606.86"/>
</g>
<!-- 36&#45;&gt;49 -->
<g id="edge28" class="edge"><title>36&#45;&gt;49</title>
<path fill="none" stroke="green" stroke-width="15" d="M-1378.76,2898.17C-1582.04,2771.13 -2166.78,2405.66 -2380.53,2272.07"/>
<polygon fill="green" stroke="green" stroke-width="15" points="-2387.68,2283.08 -2389.21,2266.65 -2373.77,2260.82 -2387.68,2283.08"/>
</g>
<!-- 37&#45;&gt;57 -->
<g id="edge45" class="edge"><title>37&#45;&gt;57</title>
<path fill="none" stroke="blue" stroke-width="15" d="M3225.08,-1916.14C3185.49,-1896.35 3136.78,-1871.99 3095.92,-1851.56"/>
<polygon fill="blue" stroke="blue" stroke-width="15" points="3101.61,-1839.73 3086.79,-1847 3089.87,-1863.21 3101.61,-1839.73"/>
</g>
<!-- 38&#45;&gt;55 -->
<g id="edge65" class="edge"><title>38&#45;&gt;55</title>
<path fill="none" stroke="green" stroke-width="15" d="M1134.04,-2878.18C1110.9,-2554.13 1027.03,-1380.08 1002.68,-1039.08"/>
<polygon fill="green" stroke="green" stroke-width="15" points="1015.76,-1038.03 1001.96,-1028.99 989.577,-1039.9 1015.76,-1038.03"/>
</g>
<!-- 39&#45;&gt;50 -->
<g id="edge39" class="edge"><title>39&#45;&gt;50</title>
<path fill="none" stroke="orange" stroke-width="15" d="M1200.23,-81.6C1200.17,-81.6 1200.11,-81.6 1200.05,-81.6"/>
<polygon fill="orange" stroke="orange" stroke-width="15" points="1209.87,-68.4804 1199.86,-81.6 1209.86,-94.7304 1209.87,-68.4804"/>
</g>
<!-- 40&#45;&gt;11 -->
<g id="edge3" class="edge"><title>40&#45;&gt;11</title>
<path fill="none" stroke="blue" stroke-width="15" d="M-2390.71,-908.244C-2498.04,-854.581 -2695.27,-755.963 -2807.69,-699.756"/>
<polygon fill="blue" stroke="blue" stroke-width="15" points="-2802.15,-687.851 -2816.96,-695.118 -2813.89,-711.329 -2802.15,-687.851"/>
</g>
<!-- 41&#45;&gt;0 -->
<g id="edge54" class="edge"><title>41&#45;&gt;0</title>
<path fill="none" stroke="red" stroke-width="15" d="M-1223.32,-2902.28C-1270.57,-2855.03 -1336.66,-2788.94 -1385.65,-2739.95"/>
<polygon fill="red" stroke="red" stroke-width="15" points="-1376.4,-2730.64 -1392.75,-2732.85 -1394.96,-2749.2 -1376.4,-2730.64"/>
</g>
<!-- 42&#45;&gt;32 -->
<g id="edge12" class="edge"><title>42&#45;&gt;32</title>
<path fill="none" stroke="red" stroke-width="15" d="M787.839,3349.83C1091.15,3256.51 2170.92,2924.27 2490.36,2825.98"/>
<polygon fill="red" stroke="red" stroke-width="15" points="2486.62,2813.4 2500.04,2823 2494.34,2838.49 2486.62,2813.4"/>
</g>
<!-- 43&#45;&gt;0 -->
<g id="edge15" class="edge"><title>43&#45;&gt;0</title>
<path fill="none" stroke="red" stroke-width="15" d="M2663.76,1300.24C2193.26,845.965 -887.469,-2128.54 -1384.38,-2608.31"/>
<polygon fill="red" stroke="red" stroke-width="15" points="-1393.78,-2599.14 -1391.86,-2615.53 -1375.55,-2618.03 -1393.78,-2599.14"/>
</g>
<!-- 44&#45;&gt;42 -->
<g id="edge11" class="edge"><title>44&#45;&gt;42</title>
<path fill="none" stroke="red" stroke-width="15" d="M-1810.94,1974.99C-1439.82,2181.17 234.289,3111.23 625.885,3328.78"/>
<polygon fill="red" stroke="red" stroke-width="15" points="632.528,3317.46 634.896,3333.79 619.78,3340.4 632.528,3317.46"/>
</g>
<!-- 45&#45;&gt;36 -->
<g id="edge27" class="edge"><title>45&#45;&gt;36</title>
<path fill="none" stroke="green" stroke-width="15" d="M337.528,3216.65C49.2504,3168.61 -912.261,3008.36 -1215.53,2957.81"/>
<polygon fill="green" stroke="green" stroke-width="15" points="-1217.9,2970.72 -1225.61,2956.13 -1213.59,2944.83 -1217.9,2970.72"/>
</g>
<!-- 46&#45;&gt;4 -->
<g id="edge33" class="edge"><title>46&#45;&gt;4</title>
<path fill="none" stroke="orange" stroke-width="15" d="M-2367.37,-1455.55C-2538.26,-1235.84 -3086.91,-530.435 -3266.5,-299.53"/>
<polygon fill="orange" stroke="orange" stroke-width="15" points="-3256.23,-291.353 -3272.73,-291.518 -3276.95,-307.469 -3256.23,-291.353"/>
</g>
<!-- 47&#45;&gt;14 -->
<g id="edge52" class="edge"><title>47&#45;&gt;14</title>
<path fill="none" stroke="red" stroke-width="15" d="M-470.45,-1024.95C-524.229,-1186.29 -645.994,-1551.58 -702.354,-1720.66"/>
<polygon fill="red" stroke="red" stroke-width="15" points="-714.85,-1716.65 -705.561,-1730.28 -689.947,-1724.95 -714.85,-1716.65"/>
</g>
<!-- 48&#45;&gt;1 -->
<g id="edge67" class="edge"><title>48&#45;&gt;1</title>
<path fill="none" stroke="green" stroke-width="15" d="M-220.235,2744.87C-377.784,2613.58 -782.537,2276.29 -947.943,2138.45"/>
<polygon fill="green" stroke="green" stroke-width="15" points="-956.357,2148.52 -955.636,2132.04 -939.552,2128.36 -956.357,2148.52"/>
</g>
<!-- 49&#45;&gt;30 -->
<g id="edge29" class="edge"><title>49&#45;&gt;30</title>
<path fill="none" stroke="green" stroke-width="15" d="M-2519.05,2281.45C-2674.56,2436.96 -3094.66,2857.06 -3257.88,3020.28"/>
<polygon fill="green" stroke="green" stroke-width="15" points="-3248.64,3029.6 -3264.99,3027.39 -3267.2,3011.04 -3248.64,3029.6"/>
</g>
<!-- 50&#45;&gt;0 -->
<g id="edge40" class="edge"><title>50&#45;&gt;0</title>
<path fill="none" stroke="orange" stroke-width="15" d="M1080.99,-140.608C735.613,-485.987 -1021.23,-2242.83 -1385.73,-2607.33"/>
<polygon fill="orange" stroke="orange" stroke-width="15" points="-1395.01,-2598.05 -1392.8,-2614.4 -1376.45,-2616.61 -1395.01,-2598.05"/>
</g>
<!-- 51&#45;&gt;0 -->
<g id="edge24" class="edge"><title>51&#45;&gt;0</title>
<path fill="none" stroke="black" stroke-width="15" d="M3392.94,3596.32C2907.88,2968.6 -880.71,-1934.28 -1394.41,-2599.08"/>
<polygon fill="black" stroke="black" stroke-width="15" points="-1404.94,-2591.23 -1400.67,-2607.17 -1384.17,-2607.28 -1404.94,-2591.23"/>
</g>
<!-- 52&#45;&gt;38 -->
<g id="edge64" class="edge"><title>52&#45;&gt;38</title>
<path fill="none" stroke="green" stroke-width="15" d="M630.919,-2579.79C739.085,-2660.91 951.621,-2820.32 1064.84,-2905.23"/>
<polygon fill="green" stroke="green" stroke-width="15" points="1057.28,-2915.96 1073.15,-2911.46 1073.03,-2894.96 1057.28,-2915.96"/>
</g>
<!-- 53&#45;&gt;0 -->
<g id="edge31" class="edge"><title>53&#45;&gt;0</title>
<path fill="none" stroke="green" stroke-width="15" d="M-3149.82,1712.45C-2940.5,1171.68 -1706.44,-2016.29 -1485.77,-2586.37"/>
<polygon fill="green" stroke="green" stroke-width="15" points="-1497.98,-2591.19 -1482.13,-2595.78 -1473.5,-2581.71 -1497.98,-2591.19"/>
</g>
<!-- 54&#45;&gt;5 -->
<g id="edge21" class="edge"><title>54&#45;&gt;5</title>
<path fill="none" stroke="black" stroke-width="15" d="M47.4017,3459C53.4156,3452.98 59.5505,3446.85 65.6315,3440.77"/>
<polygon fill="black" stroke="black" stroke-width="15" points="56.3829,3431.46 72.7348,3433.67 74.9445,3450.02 56.3829,3431.46"/>
</g>
<!-- 55&#45;&gt;48 -->
<g id="edge66" class="edge"><title>55&#45;&gt;48</title>
<path fill="none" stroke="green" stroke-width="15" d="M971.406,-865.669C821.308,-377.85 29.8431,2194.41 -128.437,2708.82"/>
<polygon fill="green" stroke="green" stroke-width="15" points="-115.906,2712.73 -131.392,2718.42 -140.996,2705.01 -115.906,2712.73"/>
</g>
<!-- 56&#45;&gt;39 -->
<g id="edge38" class="edge"><title>56&#45;&gt;39</title>
<path fill="none" stroke="orange" stroke-width="15" d="M2667.55,1440.31C2439.57,1189.53 1587.54,252.293 1347.37,-11.8879"/>
<polygon fill="orange" stroke="orange" stroke-width="15" points="1337.46,-3.27798 1340.45,-19.5063 1356.89,-20.9357 1337.46,-3.27798"/>
</g>
<!-- 57&#45;&gt;17 -->
<g id="edge46" class="edge"><title>57&#45;&gt;17</title>
<path fill="none" stroke="blue" stroke-width="15" d="M3012,-1726.05C3012,-1653.05 3012,-1547.17 3012,-1471.3"/>
<polygon fill="blue" stroke="blue" stroke-width="15" points="3025.13,-1471.27 3012,-1461.27 2998.88,-1471.27 3025.13,-1471.27"/>
</g>
<!-- 58&#45;&gt;45 -->
<g id="edge26" class="edge"><title>58&#45;&gt;45</title>
<path fill="none" stroke="green" stroke-width="15" d="M-137.89,719.894C-52.4883,1104.2 309.621,2733.69 399.664,3138.89"/>
<polygon fill="green" stroke="green" stroke-width="15" points="412.511,3136.2 401.868,3148.81 386.886,3141.89 412.511,3136.2"/>
</g>
<!-- 59&#45;&gt;29 -->
<g id="edge43" class="edge"><title>59&#45;&gt;29</title>
<path fill="none" stroke="blue" stroke-width="15" d="M1363.61,-2647.06C1592.43,-2570.79 2250.91,-2351.3 2491.03,-2271.26"/>
<polygon fill="blue" stroke="blue" stroke-width="15" points="2495.43,-2283.62 2500.77,-2268.01 2487.13,-2258.72 2495.43,-2283.62"/>
</g>
<!-- 0 -->
<g id="node1" class="node"><title>0</title>
<ellipse fill="white" stroke="black" stroke-width="15" cx="-1452" cy="-2673.6" rx="83.3772" ry="83.3772"/>
<text text-anchor="middle" x="-1452" y="-2648.6" font-family="Times,serif" font-size="100.00">0</text>
</g>
<!-- 1 -->
<g id="node2" class="node"><title>1</title>
<ellipse fill="white" stroke="black" stroke-width="15" cx="-1020" cy="2078.4" rx="83.3772" ry="83.3772"/>
<text text-anchor="middle" x="-1020" y="2103.4" font-family="Times,serif" font-size="100.00">1</text>
</g>
<!-- 2 -->
<g id="node3" class="node"><title>2</title>
<ellipse fill="white" stroke="black" stroke-width="15" cx="-1308" cy="1214.4" rx="83.3772" ry="83.3772"/>
<text text-anchor="middle" x="-1308" y="1239.4" font-family="Times,serif" font-size="100.00">2</text>
</g>
<!-- 3 -->
<g id="node4" class="node"><title>3</title>
<ellipse fill="white" stroke="black" stroke-width="15" cx="-2892" cy="-1809.6" rx="83.3772" ry="83.3772"/>
<text text-anchor="middle" x="-2892" y="-1784.6" font-family="Times,serif" font-size="100.00">3</text>
</g>
<!-- 4 -->
<g id="node5" class="node"><title>4</title>
<ellipse fill="white" stroke="black" stroke-width="15" cx="-3324" cy="-225.6" rx="83.3772" ry="83.3772"/>
<text text-anchor="middle" x="-3324" y="-200.6" font-family="Times,serif" font-size="100.00">4</text>
</g>
<!-- 5 -->
<g id="node6" class="node"><title>5</title>
<ellipse fill="white" stroke="black" stroke-width="15" cx="132" cy="3374.4" rx="83.3772" ry="83.3772"/>
<text text-anchor="middle" x="132" y="3399.4" font-family="Times,serif" font-size="100.00">5</text>
</g>
<!-- 6 -->
<g id="node7" class="node"><title>6</title>
<ellipse fill="white" stroke="black" stroke-width="15" cx="-1884" cy="206.4" rx="83.3772" ry="83.3772"/>
<text text-anchor="middle" x="-1884" y="231.4" font-family="Times,serif" font-size="100.00">6</text>
</g>
<!-- 7 -->
<g id="node8" class="node"><title>7</title>
<ellipse fill="white" stroke="black" stroke-width="15" cx="2292" cy="-2385.6" rx="83.3772" ry="83.3772"/>
<text text-anchor="middle" x="2292" y="-2360.6" font-family="Times,serif" font-size="100.00">7</text>
</g>
<!-- 8 -->
<g id="node9" class="node"><title>8</title>
<ellipse fill="white" stroke="black" stroke-width="15" cx="2436" cy="-1953.6" rx="83.3772" ry="83.3772"/>
<text text-anchor="middle" x="2436" y="-1928.6" font-family="Times,serif" font-size="100.00">8</text>
</g>
<!-- 9 -->
<g id="node10" class="node"><title>9</title>
<ellipse fill="white" stroke="black" stroke-width="15" cx="2724" cy="3230.4" rx="83.3772" ry="83.3772"/>
<text text-anchor="middle" x="2724" y="3255.4" font-family="Times,serif" font-size="100.00">9</text>
</g>
<!-- 10 -->
<g id="node11" class="node"><title>10</title>
<ellipse fill="white" stroke="black" stroke-width="15" cx="-156" cy="3374.4" rx="83.3772" ry="83.3772"/>
<text text-anchor="middle" x="-156" y="3399.4" font-family="Times,serif" font-size="100.00">10</text>
</g>
<!-- 11 -->
<g id="node12" class="node"><title>11</title>
<ellipse fill="white" stroke="black" stroke-width="15" cx="-2892" cy="-657.6" rx="83.3772" ry="83.3772"/>
<text text-anchor="middle" x="-2892" y="-632.6" font-family="Times,serif" font-size="100.00">11</text>
</g>
<!-- 12 -->
<g id="node13" class="node"><title>12</title>
<ellipse fill="white" stroke="black" stroke-width="15" cx="3444" cy="2078.4" rx="83.3772" ry="83.3772"/>
<text text-anchor="middle" x="3444" y="2103.4" font-family="Times,serif" font-size="100.00">12</text>
</g>
<!-- 13 -->
<g id="node14" class="node"><title>13</title>
<ellipse fill="white" stroke="black" stroke-width="15" cx="2436" cy="-2097.6" rx="83.3772" ry="83.3772"/>
<text text-anchor="middle" x="2436" y="-2072.6" font-family="Times,serif" font-size="100.00">13</text>
</g>
<!-- 14 -->
<g id="node15" class="node"><title>14</title>
<ellipse fill="white" stroke="black" stroke-width="15" cx="-732" cy="-1809.6" rx="83.3772" ry="83.3772"/>
<text text-anchor="middle" x="-732" y="-1784.6" font-family="Times,serif" font-size="100.00">14</text>
</g>
<!-- 15 -->
<g id="node16" class="node"><title>15</title>
<ellipse fill="white" stroke="black" stroke-width="15" cx="1572" cy="-945.6" rx="83.3772" ry="83.3772"/>
<text text-anchor="middle" x="1572" y="-920.6" font-family="Times,serif" font-size="100.00">15</text>
</g>
<!-- 16 -->
<g id="node17" class="node"><title>16</title>
<ellipse fill="white" stroke="black" stroke-width="15" cx="-2316" cy="-2817.6" rx="83.3772" ry="83.3772"/>
<text text-anchor="middle" x="-2316" y="-2792.6" font-family="Times,serif" font-size="100.00">16</text>
</g>
<!-- 17 -->
<g id="node18" class="node"><title>17</title>
<ellipse fill="white" stroke="black" stroke-width="15" cx="3012" cy="-1377.6" rx="83.3772" ry="83.3772"/>
<text text-anchor="middle" x="3012" y="-1352.6" font-family="Times,serif" font-size="100.00">17</text>
</g>
<!-- 18 -->
<g id="node19" class="node"><title>18</title>
<ellipse fill="white" stroke="black" stroke-width="15" cx="-1020" cy="-2673.6" rx="83.3772" ry="83.3772"/>
<text text-anchor="middle" x="-1020" y="-2648.6" font-family="Times,serif" font-size="100.00">18</text>
</g>
<!-- 19 -->
<g id="node20" class="node"><title>19</title>
<ellipse fill="white" stroke="black" stroke-width="15" cx="708" cy="-1953.6" rx="83.3772" ry="83.3772"/>
<text text-anchor="middle" x="708" y="-1928.6" font-family="Times,serif" font-size="100.00">19</text>
</g>
<!-- 20 -->
<g id="node21" class="node"><title>20</title>
<ellipse fill="white" stroke="black" stroke-width="15" cx="-2604" cy="-2817.6" rx="83.3772" ry="83.3772"/>
<text text-anchor="middle" x="-2604" y="-2792.6" font-family="Times,serif" font-size="100.00">20</text>
</g>
<!-- 21 -->
<g id="node22" class="node"><title>21</title>
<ellipse fill="white" stroke="black" stroke-width="15" cx="-3180" cy="-81.6" rx="83.3772" ry="83.3772"/>
<text text-anchor="middle" x="-3180" y="-56.6" font-family="Times,serif" font-size="100.00">21</text>
</g>
<!-- 22 -->
<g id="node23" class="node"><title>22</title>
<ellipse fill="white" stroke="black" stroke-width="15" cx="-156" cy="3230.4" rx="83.3772" ry="83.3772"/>
<text text-anchor="middle" x="-156" y="3255.4" font-family="Times,serif" font-size="100.00">22</text>
</g>
<!-- 23 -->
<g id="node24" class="node"><title>23</title>
<ellipse fill="white" stroke="black" stroke-width="15" cx="-300" cy="-369.6" rx="83.3772" ry="83.3772"/>
<text text-anchor="middle" x="-300" y="-344.6" font-family="Times,serif" font-size="100.00">23</text>
</g>
<!-- 24 -->
<g id="node25" class="node"><title>24</title>
<ellipse fill="white" stroke="black" stroke-width="15" cx="-876" cy="926.4" rx="83.3772" ry="83.3772"/>
<text text-anchor="middle" x="-876" y="951.4" font-family="Times,serif" font-size="100.00">24</text>
</g>
<!-- 25 -->
<g id="node26" class="node"><title>25</title>
<ellipse fill="white" stroke="black" stroke-width="15" cx="-2028" cy="-1953.6" rx="83.3772" ry="83.3772"/>
<text text-anchor="middle" x="-2028" y="-1928.6" font-family="Times,serif" font-size="100.00">25</text>
</g>
<!-- 26 -->
<g id="node27" class="node"><title>26</title>
<ellipse fill="white" stroke="black" stroke-width="15" cx="2580" cy="-945.6" rx="83.3772" ry="83.3772"/>
<text text-anchor="middle" x="2580" y="-920.6" font-family="Times,serif" font-size="100.00">26</text>
</g>
<!-- 27 -->
<g id="node28" class="node"><title>27</title>
<ellipse fill="white" stroke="black" stroke-width="15" cx="2724" cy="-1521.6" rx="83.3772" ry="83.3772"/>
<text text-anchor="middle" x="2724" y="-1496.6" font-family="Times,serif" font-size="100.00">27</text>
</g>
<!-- 28 -->
<g id="node29" class="node"><title>28</title>
<ellipse fill="white" stroke="black" stroke-width="15" cx="-2028" cy="1214.4" rx="83.3772" ry="83.3772"/>
<text text-anchor="middle" x="-2028" y="1239.4" font-family="Times,serif" font-size="100.00">28</text>
</g>
<!-- 29 -->
<g id="node30" class="node"><title>29</title>
<ellipse fill="white" stroke="black" stroke-width="15" cx="2580" cy="-2241.6" rx="83.3772" ry="83.3772"/>
<text text-anchor="middle" x="2580" y="-2216.6" font-family="Times,serif" font-size="100.00">29</text>
</g>
<!-- 30 -->
<g id="node31" class="node"><title>30</title>
<ellipse fill="white" stroke="black" stroke-width="15" cx="-3324" cy="3086.4" rx="83.3772" ry="83.3772"/>
<text text-anchor="middle" x="-3324" y="3111.4" font-family="Times,serif" font-size="100.00">30</text>
</g>
<!-- 31 -->
<g id="node32" class="node"><title>31</title>
<ellipse fill="white" stroke="black" stroke-width="15" cx="-2316" cy="1214.4" rx="83.3772" ry="83.3772"/>
<text text-anchor="middle" x="-2316" y="1239.4" font-family="Times,serif" font-size="100.00">31</text>
</g>
<!-- 32 -->
<g id="node33" class="node"><title>32</title>
<ellipse fill="white" stroke="black" stroke-width="15" cx="2580" cy="2798.4" rx="83.3772" ry="83.3772"/>
<text text-anchor="middle" x="2580" y="2823.4" font-family="Times,serif" font-size="100.00">32</text>
</g>
<!-- 33 -->
<g id="node34" class="node"><title>33</title>
<ellipse fill="white" stroke="black" stroke-width="15" cx="-444" cy="-2961.6" rx="83.3772" ry="83.3772"/>
<text text-anchor="middle" x="-444" y="-2936.6" font-family="Times,serif" font-size="100.00">33</text>
</g>
<!-- 34 -->
<g id="node35" class="node"><title>34</title>
<ellipse fill="white" stroke="black" stroke-width="15" cx="-1164" cy="-369.6" rx="83.3772" ry="83.3772"/>
<text text-anchor="middle" x="-1164" y="-344.6" font-family="Times,serif" font-size="100.00">34</text>
</g>
<!-- 35 -->
<g id="node36" class="node"><title>35</title>
<ellipse fill="white" stroke="black" stroke-width="15" cx="852" cy="-945.6" rx="83.3772" ry="83.3772"/>
<text text-anchor="middle" x="852" y="-920.6" font-family="Times,serif" font-size="100.00">35</text>
</g>
<!-- 36 -->
<g id="node37" class="node"><title>36</title>
<ellipse fill="white" stroke="black" stroke-width="15" cx="-1308" cy="2942.4" rx="83.3772" ry="83.3772"/>
<text text-anchor="middle" x="-1308" y="2967.4" font-family="Times,serif" font-size="100.00">36</text>
</g>
<!-- 37 -->
<g id="node38" class="node"><title>37</title>
<ellipse fill="white" stroke="black" stroke-width="15" cx="3300" cy="-1953.6" rx="83.3772" ry="83.3772"/>
<text text-anchor="middle" x="3300" y="-1928.6" font-family="Times,serif" font-size="100.00">37</text>
</g>
<!-- 38 -->
<g id="node39" class="node"><title>38</title>
<ellipse fill="white" stroke="black" stroke-width="15" cx="1140" cy="-2961.6" rx="83.3772" ry="83.3772"/>
<text text-anchor="middle" x="1140" y="-2936.6" font-family="Times,serif" font-size="100.00">38</text>
</g>
<!-- 39 -->
<g id="node40" class="node"><title>39</title>
<ellipse fill="white" stroke="black" stroke-width="15" cx="1284" cy="-81.6" rx="83.3772" ry="83.3772"/>
<text text-anchor="middle" x="1284" y="-56.6" font-family="Times,serif" font-size="100.00">39</text>
</g>
<!-- 40 -->
<g id="node41" class="node"><title>40</title>
<ellipse fill="white" stroke="black" stroke-width="15" cx="-2316" cy="-945.6" rx="83.3772" ry="83.3772"/>
<text text-anchor="middle" x="-2316" y="-920.6" font-family="Times,serif" font-size="100.00">40</text>
</g>
<!-- 41 -->
<g id="node42" class="node"><title>41</title>
<ellipse fill="white" stroke="black" stroke-width="15" cx="-1164" cy="-2961.6" rx="83.3772" ry="83.3772"/>
<text text-anchor="middle" x="-1164" y="-2936.6" font-family="Times,serif" font-size="100.00">41</text>
</g>
<!-- 42 -->
<g id="node43" class="node"><title>42</title>
<ellipse fill="white" stroke="black" stroke-width="15" cx="708" cy="3374.4" rx="83.3772" ry="83.3772"/>
<text text-anchor="middle" x="708" y="3399.4" font-family="Times,serif" font-size="100.00">42</text>
</g>
<!-- 43 -->
<g id="node44" class="node"><title>43</title>
<ellipse fill="white" stroke="black" stroke-width="15" cx="2724" cy="1358.4" rx="83.3772" ry="83.3772"/>
<text text-anchor="middle" x="2724" y="1383.4" font-family="Times,serif" font-size="100.00">43</text>
</g>
<!-- 44 -->
<g id="node45" class="node"><title>44</title>
<ellipse fill="white" stroke="black" stroke-width="15" cx="-1884" cy="1934.4" rx="83.3772" ry="83.3772"/>
<text text-anchor="middle" x="-1884" y="1959.4" font-family="Times,serif" font-size="100.00">44</text>
</g>
<!-- 45 -->
<g id="node46" class="node"><title>45</title>
<ellipse fill="white" stroke="black" stroke-width="15" cx="420" cy="3230.4" rx="83.3772" ry="83.3772"/>
<text text-anchor="middle" x="420" y="3255.4" font-family="Times,serif" font-size="100.00">45</text>
</g>
<!-- 46 -->
<g id="node47" class="node"><title>46</title>
<ellipse fill="white" stroke="black" stroke-width="15" cx="-2316" cy="-1521.6" rx="83.3772" ry="83.3772"/>
<text text-anchor="middle" x="-2316" y="-1496.6" font-family="Times,serif" font-size="100.00">46</text>
</g>
<!-- 47 -->
<g id="node48" class="node"><title>47</title>
<ellipse fill="white" stroke="black" stroke-width="15" cx="-444" cy="-945.6" rx="83.3772" ry="83.3772"/>
<text text-anchor="middle" x="-444" y="-920.6" font-family="Times,serif" font-size="100.00">47</text>
</g>
<!-- 48 -->
<g id="node49" class="node"><title>48</title>
<ellipse fill="white" stroke="black" stroke-width="15" cx="-156" cy="2798.4" rx="83.3772" ry="83.3772"/>
<text text-anchor="middle" x="-156" y="2823.4" font-family="Times,serif" font-size="100.00">48</text>
</g>
<!-- 49 -->
<g id="node50" class="node"><title>49</title>
<ellipse fill="white" stroke="black" stroke-width="15" cx="-2460" cy="2222.4" rx="83.3772" ry="83.3772"/>
<text text-anchor="middle" x="-2460" y="2247.4" font-family="Times,serif" font-size="100.00">49</text>
</g>
<!-- 50 -->
<g id="node51" class="node"><title>50</title>
<ellipse fill="white" stroke="black" stroke-width="15" cx="1140" cy="-81.6" rx="83.3772" ry="83.3772"/>
<text text-anchor="middle" x="1140" y="-56.6" font-family="Times,serif" font-size="100.00">50</text>
</g>
<!-- 51 -->
<g id="node52" class="node"><title>51</title>
<ellipse fill="white" stroke="black" stroke-width="15" cx="3444" cy="3662.4" rx="83.3772" ry="83.3772"/>
<text text-anchor="middle" x="3444" y="3687.4" font-family="Times,serif" font-size="100.00">51</text>
</g>
<!-- 52 -->
<g id="node53" class="node"><title>52</title>
<ellipse fill="white" stroke="black" stroke-width="15" cx="564" cy="-2529.6" rx="83.3772" ry="83.3772"/>
<text text-anchor="middle" x="564" y="-2504.6" font-family="Times,serif" font-size="100.00">52</text>
</g>
<!-- 53 -->
<g id="node54" class="node"><title>53</title>
<ellipse fill="white" stroke="black" stroke-width="15" cx="-3180" cy="1790.4" rx="83.3772" ry="83.3772"/>
<text text-anchor="middle" x="-3180" y="1815.4" font-family="Times,serif" font-size="100.00">53</text>
</g>
<!-- 54 -->
<g id="node55" class="node"><title>54</title>
<ellipse fill="white" stroke="black" stroke-width="15" cx="-12" cy="3518.4" rx="83.3772" ry="83.3772"/>
<text text-anchor="middle" x="-12" y="3543.4" font-family="Times,serif" font-size="100.00">54</text>
</g>
<!-- 55 -->
<g id="node56" class="node"><title>55</title>
<ellipse fill="white" stroke="black" stroke-width="15" cx="996" cy="-945.6" rx="83.3772" ry="83.3772"/>
<text text-anchor="middle" x="996" y="-920.6" font-family="Times,serif" font-size="100.00">55</text>
</g>
<!-- 56 -->
<g id="node57" class="node"><title>56</title>
<ellipse fill="white" stroke="black" stroke-width="15" cx="2724" cy="1502.4" rx="83.3772" ry="83.3772"/>
<text text-anchor="middle" x="2724" y="1527.4" font-family="Times,serif" font-size="100.00">56</text>
</g>
<!-- 57 -->
<g id="node58" class="node"><title>57</title>
<ellipse fill="white" stroke="black" stroke-width="15" cx="3012" cy="-1809.6" rx="83.3772" ry="83.3772"/>
<text text-anchor="middle" x="3012" y="-1784.6" font-family="Times,serif" font-size="100.00">57</text>
</g>
<!-- 58 -->
<g id="node59" class="node"><title>58</title>
<ellipse fill="white" stroke="black" stroke-width="15" cx="-156" cy="638.4" rx="83.3772" ry="83.3772"/>
<text text-anchor="middle" x="-156" y="663.4" font-family="Times,serif" font-size="100.00">58</text>
</g>
<!-- 59 -->
<g id="node60" class="node"><title>59</title>
<ellipse fill="white" stroke="black" stroke-width="15" cx="1284" cy="-2673.6" rx="83.3772" ry="83.3772"/>
<text text-anchor="middle" x="1284" y="-2648.6" font-family="Times,serif" font-size="100.00">59</text>
</g>
</g>
</svg>
