<?xml version="1.0" encoding="UTF-8" standalone="no"?>
<!DOCTYPE svg PUBLIC "-//W3C//DTD SVG 1.1//EN"
 "http://www.w3.org/Graphics/SVG/1.1/DTD/svg11.dtd">
<!-- Generated by graphviz version 2.38.0 (20140413.2041)
 -->
<!-- Title: g Pages: 1 -->
<svg width="7591pt" height="7470pt"
 viewBox="216.00 216.00 7374.88 7253.88" xmlns="http://www.w3.org/2000/svg" xmlns:xlink="http://www.w3.org/1999/xlink">
<g id="graph0" class="graph" transform="scale(1 1) rotate(0) translate(3939.44 4311.19)">
<title>g</title>
<polygon fill="white" stroke="none" points="-3723.44,2942.69 -3723.44,-4095.19 3435.44,-4095.19 3435.44,2942.69 -3723.44,2942.69"/>
<text text-anchor="middle" x="-144" y="-4075.99" font-family="Times,serif" font-size="14.00">data01_gen (cost = 1058)</text>
<!-- 0&#45;&gt;19 -->
<g id="edge17" class="edge"><title>0&#45;&gt;19</title>
<path fill="none" stroke="black" stroke-width="15" d="M2208.44,-2390.19C2300.61,-1778.53 2876.45,2042.97 2973.98,2690.18"/>
<polygon fill="black" stroke="black" stroke-width="15" points="2987,2688.54 2975.51,2700.38 2961.04,2692.45 2987,2688.54"/>
</g>
<!-- 0&#45;&gt;22 -->
<g id="edge1" class="edge"><title>0&#45;&gt;22</title>
<path fill="none" stroke="blue" stroke-width="15" d="M2119.48,-2438.96C1505.43,-2167.82 -2613.29,-349.167 -3262.05,-62.7027"/>
<polygon fill="blue" stroke="blue" stroke-width="15" points="-3256.9,-50.6297 -3271.35,-58.5969 -3267.5,-74.6429 -3256.9,-50.6297"/>
</g>
<!-- 0&#45;&gt;27 -->
<g id="edge10" class="edge"><title>0&#45;&gt;27</title>
<path fill="none" stroke="red" stroke-width="15" d="M2115.45,-2450.2C1820.04,-2367.48 797.094,-2081.06 486.275,-1994.03"/>
<polygon fill="red" stroke="red" stroke-width="15" points="489.572,-1981.32 476.403,-1991.26 482.494,-2006.6 489.572,-1981.32"/>
</g>
<!-- 0&#45;&gt;30 -->
<g id="edge33" class="edge"><title>0&#45;&gt;30</title>
<path fill="none" stroke="orange" stroke-width="15" d="M2211.45,-2390.36C2250.63,-2181.41 2353.67,-1631.86 2394.74,-1412.8"/>
<polygon fill="orange" stroke="orange" stroke-width="15" points="2407.65,-1415.19 2396.59,-1402.94 2381.85,-1410.35 2407.65,-1415.19"/>
</g>
<!-- 0&#45;&gt;31 -->
<g id="edge25" class="edge"><title>0&#45;&gt;31</title>
<path fill="none" stroke="green" stroke-width="15" d="M2214.39,-2391.16C2349.3,-1792.47 3185.06,1916.22 3327.4,2547.84"/>
<polygon fill="green" stroke="green" stroke-width="15" points="3340.25,2545.16 3329.65,2557.8 3314.64,2550.93 3340.25,2545.16"/>
</g>
<!-- 1&#45;&gt;0 -->
<g id="edge32" class="edge"><title>1&#45;&gt;0</title>
<path fill="none" stroke="green" stroke-width="15" d="M3170.46,-245.408C3018.35,-593.097 2393.76,-2020.73 2233.57,-2386.87"/>
<polygon fill="green" stroke="green" stroke-width="15" points="2221.52,-2381.67 2229.54,-2396.1 2245.57,-2392.2 2221.52,-2381.67"/>
</g>
<!-- 2&#45;&gt;28 -->
<g id="edge20" class="edge"><title>2&#45;&gt;28</title>
<path fill="none" stroke="black" stroke-width="15" d="M-186.312,2610.25C-496.496,2495.36 -1637.88,2072.63 -1964.28,1951.74"/>
<polygon fill="black" stroke="black" stroke-width="15" points="-1968.88,1964.03 -1973.7,1948.25 -1959.76,1939.42 -1968.88,1964.03"/>
</g>
<!-- 3&#45;&gt;2 -->
<g id="edge19" class="edge"><title>3&#45;&gt;2</title>
<path fill="none" stroke="black" stroke-width="15" d="M-153.599,2502.45C-148.414,2518.01 -142.942,2534.42 -137.659,2550.27"/>
<polygon fill="black" stroke="black" stroke-width="15" points="-125.109,2546.42 -134.398,2560.06 -150.012,2554.72 -125.109,2546.42"/>
</g>
<!-- 4&#45;&gt;23 -->
<g id="edge6" class="edge"><title>4&#45;&gt;23</title>
<path fill="none" stroke="blue" stroke-width="15" d="M-2688.54,2489.49C-2356.07,2466.57 -1127.17,2381.81 -777.423,2357.69"/>
<polygon fill="blue" stroke="blue" stroke-width="15" points="-778.213,2344.59 -767.334,2357 -776.407,2370.78 -778.213,2344.59"/>
</g>
<!-- 5&#45;&gt;10 -->
<g id="edge12" class="edge"><title>5&#45;&gt;10</title>
<path fill="none" stroke="red" stroke-width="15" d="M-1700.74,-3387.01C-2005.06,-3305.08 -3081.71,-3015.21 -3401.68,-2929.07"/>
<polygon fill="red" stroke="red" stroke-width="15" points="-3398.31,-2916.38 -3411.38,-2926.46 -3405.14,-2941.73 -3398.31,-2916.38"/>
</g>
<!-- 6&#45;&gt;14 -->
<g id="edge30" class="edge"><title>6&#45;&gt;14</title>
<path fill="none" stroke="green" stroke-width="15" d="M476.601,756.109C510.953,424.04 638.203,-806.049 674.361,-1155.57"/>
<polygon fill="green" stroke="green" stroke-width="15" points="661.32,-1157.06 675.404,-1165.66 687.43,-1154.36 661.32,-1157.06"/>
</g>
<!-- 7&#45;&gt;26 -->
<g id="edge8" class="edge"><title>7&#45;&gt;26</title>
<path fill="none" stroke="blue" stroke-width="15" d="M2319.75,110.244C2267.7,-97.9457 2129.52,-650.659 2074.79,-869.593"/>
<polygon fill="blue" stroke="blue" stroke-width="15" points="2062.02,-866.564 2072.33,-879.449 2087.48,-872.931 2062.02,-866.564"/>
</g>
<!-- 8&#45;&gt;11 -->
<g id="edge4" class="edge"><title>8&#45;&gt;11</title>
<path fill="none" stroke="blue" stroke-width="15" d="M-2745.31,1341.73C-2862.41,1523.89 -3174.52,2009.39 -3297.34,2200.44"/>
<polygon fill="blue" stroke="blue" stroke-width="15" points="-3286.42,2207.73 -3302.87,2209.04 -3308.5,2193.53 -3286.42,2207.73"/>
</g>
<!-- 9&#45;&gt;8 -->
<g id="edge3" class="edge"><title>9&#45;&gt;8</title>
<path fill="none" stroke="blue" stroke-width="15" d="M-3511.58,256.779C-3359.41,446.984 -2918.37,998.286 -2758.64,1197.95"/>
<polygon fill="blue" stroke="blue" stroke-width="15" points="-2748.38,1189.76 -2752.39,1205.77 -2768.88,1206.16 -2748.38,1189.76"/>
</g>
<!-- 10&#45;&gt;15 -->
<g id="edge13" class="edge"><title>10&#45;&gt;15</title>
<path fill="none" stroke="red" stroke-width="15" d="M-3501.78,-2821.58C-3527.69,-2601.42 -3597.91,-2004.56 -3625.07,-1773.68"/>
<polygon fill="red" stroke="red" stroke-width="15" points="-3612.05,-1772.03 -3626.25,-1763.63 -3638.12,-1775.09 -3612.05,-1772.03"/>
</g>
<!-- 11&#45;&gt;4 -->
<g id="edge5" class="edge"><title>11&#45;&gt;4</title>
<path fill="none" stroke="blue" stroke-width="15" d="M-3269.72,2308.61C-3162.87,2348.67 -2971.9,2420.29 -2860.14,2462.2"/>
<polygon fill="blue" stroke="blue" stroke-width="15" points="-2855.33,2449.98 -2850.57,2465.79 -2864.54,2474.56 -2855.33,2449.98"/>
</g>
<!-- 12&#45;&gt;0 -->
<g id="edge36" class="edge"><title>12&#45;&gt;0</title>
<path fill="none" stroke="orange" stroke-width="15" d="M3301.59,-814.361C3117.83,-1090 2441.78,-2104.07 2248.15,-2394.53"/>
<polygon fill="orange" stroke="orange" stroke-width="15" points="2237.18,-2387.31 2242.56,-2402.91 2259.03,-2401.87 2237.18,-2387.31"/>
</g>
<!-- 13&#45;&gt;6 -->
<g id="edge29" class="edge"><title>13&#45;&gt;6</title>
<path fill="none" stroke="green" stroke-width="15" d="M2258.06,1183.49C1952.72,1124.77 882.165,918.897 560.247,856.99"/>
<polygon fill="green" stroke="green" stroke-width="15" points="557.369,869.802 550.027,855.024 562.326,844.024 557.369,869.802"/>
</g>
<!-- 14&#45;&gt;1 -->
<g id="edge31" class="edge"><title>14&#45;&gt;1</title>
<path fill="none" stroke="green" stroke-width="15" d="M760.795,-1215.84C1130.83,-1057.25 2728.07,-372.718 3117.93,-205.638"/>
<polygon fill="green" stroke="green" stroke-width="15" points="3123.17,-217.673 3127.19,-201.67 3112.83,-193.545 3123.17,-217.673"/>
</g>
<!-- 15&#45;&gt;29 -->
<g id="edge14" class="edge"><title>15&#45;&gt;29</title>
<path fill="none" stroke="red" stroke-width="15" d="M-3555.28,-1701.99C-3315.81,-1765.01 -2610.4,-1950.65 -2358.6,-2016.91"/>
<polygon fill="red" stroke="red" stroke-width="15" points="-2361.76,-2029.65 -2348.75,-2019.5 -2355.08,-2004.26 -2361.76,-2029.65"/>
</g>
<!-- 16&#45;&gt;12 -->
<g id="edge35" class="edge"><title>16&#45;&gt;12</title>
<path fill="none" stroke="orange" stroke-width="15" d="M2711.3,-681.08C2846.68,-694.618 3113.52,-721.302 3254.94,-735.444"/>
<polygon fill="orange" stroke="orange" stroke-width="15" points="3253.64,-748.505 3264.9,-736.44 3256.25,-722.385 3253.64,-748.505"/>
</g>
<!-- 17&#45;&gt;21 -->
<g id="edge27" class="edge"><title>17&#45;&gt;21</title>
<path fill="none" stroke="green" stroke-width="15" d="M2886.1,2783.07C2979.36,2623.2 3202.82,2240.13 3300.71,2072.32"/>
<polygon fill="green" stroke="green" stroke-width="15" points="3289.46,2065.55 3305.84,2063.53 3312.14,2078.78 3289.46,2065.55"/>
</g>
<!-- 18&#45;&gt;25 -->
<g id="edge22" class="edge"><title>18&#45;&gt;25</title>
<path fill="none" stroke="black" stroke-width="15" d="M-2352.73,612.532C-2440.33,43.1309 -2953.27,-3290.99 -3045.72,-3891.95"/>
<polygon fill="black" stroke="black" stroke-width="15" points="-3058.7,-3889.99 -3047.25,-3901.87 -3032.76,-3893.98 -3058.7,-3889.99"/>
</g>
<!-- 19&#45;&gt;3 -->
<g id="edge18" class="edge"><title>19&#45;&gt;3</title>
<path fill="none" stroke="black" stroke-width="15" d="M2904.89,2773.81C2461.77,2723.45 379.825,2486.87 -86.9649,2433.82"/>
<polygon fill="black" stroke="black" stroke-width="15" points="-88.5781,2446.85 -97.0321,2432.68 -85.614,2420.77 -88.5781,2446.85"/>
</g>
<!-- 20&#45;&gt;0 -->
<g id="edge24" class="edge"><title>20&#45;&gt;0</title>
<path fill="none" stroke="black" stroke-width="15" d="M-34.2746,-3657.58C309.245,-3475.09 1751.39,-2708.95 2113.33,-2516.67"/>
<polygon fill="black" stroke="black" stroke-width="15" points="2119.51,-2528.25 2122.19,-2511.96 2107.2,-2505.06 2119.51,-2528.25"/>
</g>
<!-- 21&#45;&gt;13 -->
<g id="edge28" class="edge"><title>21&#45;&gt;13</title>
<path fill="none" stroke="green" stroke-width="15" d="M3282.25,1939.59C3102.33,1798.23 2602.77,1405.71 2413.75,1257.19"/>
<polygon fill="green" stroke="green" stroke-width="15" points="2405.55,1267.45 2405.8,1250.95 2421.77,1246.8 2405.55,1267.45"/>
</g>
<!-- 22&#45;&gt;9 -->
<g id="edge2" class="edge"><title>22&#45;&gt;9</title>
<path fill="none" stroke="blue" stroke-width="15" d="M-3407.02,34.2729C-3435,62.2546 -3468.55,95.8012 -3497.44,124.686"/>
<polygon fill="blue" stroke="blue" stroke-width="15" points="-3488.32,134.133 -3504.67,131.923 -3506.88,115.572 -3488.32,134.133"/>
</g>
<!-- 23&#45;&gt;7 -->
<g id="edge7" class="edge"><title>23&#45;&gt;7</title>
<path fill="none" stroke="blue" stroke-width="15" d="M-615.88,2302.59C-214.371,2015.8 1840.26,548.207 2263.64,245.793"/>
<polygon fill="blue" stroke="blue" stroke-width="15" points="2256.09,235.059 2271.85,239.927 2271.34,256.42 2256.09,235.059"/>
</g>
<!-- 24&#45;&gt;0 -->
<g id="edge16" class="edge"><title>24&#45;&gt;0</title>
<path fill="none" stroke="red" stroke-width="15" d="M753.894,-1511.35C1004.26,-1678.25 1855.28,-2245.6 2118.06,-2420.79"/>
<polygon fill="red" stroke="red" stroke-width="15" points="2110.81,-2431.73 2126.41,-2426.36 2125.37,-2409.89 2110.81,-2431.73"/>
</g>
<!-- 25&#45;&gt;20 -->
<g id="edge23" class="edge"><title>25&#45;&gt;20</title>
<path fill="none" stroke="black" stroke-width="15" d="M-2976.8,-3976.63C-2554.13,-3935.4 -647.504,-3749.38 -201.52,-3705.87"/>
<polygon fill="black" stroke="black" stroke-width="15" points="-199.936,-3718.91 -191.258,-3704.87 -202.485,-3692.78 -199.936,-3718.91"/>
</g>
<!-- 26&#45;&gt;0 -->
<g id="edge9" class="edge"><title>26&#45;&gt;0</title>
<path fill="none" stroke="blue" stroke-width="15" d="M2059.92,-1043.92C2084.75,-1304.62 2160.95,-2104.72 2187.09,-2379.19"/>
<polygon fill="blue" stroke="blue" stroke-width="15" points="2174.06,-2380.81 2188.07,-2389.52 2200.19,-2378.32 2174.06,-2380.81"/>
</g>
<!-- 27&#45;&gt;5 -->
<g id="edge11" class="edge"><title>27&#45;&gt;5</title>
<path fill="none" stroke="red" stroke-width="15" d="M328.059,-2017.28C22.7128,-2235.38 -1221.71,-3124.26 -1543.66,-3354.22"/>
<polygon fill="red" stroke="red" stroke-width="15" points="-1551.5,-3343.69 -1552.01,-3360.18 -1536.24,-3365.05 -1551.5,-3343.69"/>
</g>
<!-- 28&#45;&gt;18 -->
<g id="edge21" class="edge"><title>28&#45;&gt;18</title>
<path fill="none" stroke="black" stroke-width="15" d="M-2071.12,1837.99C-2122.68,1618.87 -2264.34,1016.81 -2318.53,786.502"/>
<polygon fill="black" stroke="black" stroke-width="15" points="-2331.37,789.22 -2320.89,776.479 -2305.82,783.207 -2331.37,789.22"/>
</g>
<!-- 29&#45;&gt;24 -->
<g id="edge15" class="edge"><title>29&#45;&gt;24</title>
<path fill="none" stroke="red" stroke-width="15" d="M-2185.97,-2024.74C-1765.13,-1942.63 148.808,-1569.18 592.129,-1482.68"/>
<polygon fill="red" stroke="red" stroke-width="15" points="594.712,-1495.54 602.013,-1480.75 589.685,-1469.78 594.712,-1495.54"/>
</g>
<!-- 30&#45;&gt;16 -->
<g id="edge34" class="edge"><title>30&#45;&gt;16</title>
<path fill="none" stroke="orange" stroke-width="15" d="M2438.49,-1241.29C2478.97,-1119.83 2556,-888.763 2598.32,-761.803"/>
<polygon fill="orange" stroke="orange" stroke-width="15" points="2610.84,-765.733 2601.55,-752.096 2585.94,-757.432 2610.84,-765.733"/>
</g>
<!-- 31&#45;&gt;17 -->
<g id="edge26" class="edge"><title>31&#45;&gt;17</title>
<path fill="none" stroke="green" stroke-width="15" d="M3271.18,2672.17C3179.31,2711.55 3025.95,2777.27 2930.14,2818.33"/>
<polygon fill="green" stroke="green" stroke-width="15" points="2935.13,2830.48 2920.76,2822.35 2924.78,2806.35 2935.13,2830.48"/>
</g>
<!-- 0 -->
<g id="node1" class="node"><title>0</title>
<ellipse fill="white" stroke="black" stroke-width="15" cx="2196" cy="-2472.75" rx="83.3772" ry="83.3772"/>
<text text-anchor="middle" x="2196" y="-2447.75" font-family="Times,serif" font-size="100.00">0</text>
</g>
<!-- 1 -->
<g id="node2" class="node"><title>1</title>
<ellipse fill="white" stroke="black" stroke-width="15" cx="3204" cy="-168.75" rx="83.3772" ry="83.3772"/>
<text text-anchor="middle" x="3204" y="-143.75" font-family="Times,serif" font-size="100.00">1</text>
</g>
<!-- 2 -->
<g id="node3" class="node"><title>2</title>
<ellipse fill="white" stroke="black" stroke-width="15" cx="-108" cy="2639.25" rx="83.3772" ry="83.3772"/>
<text text-anchor="middle" x="-108" y="2664.25" font-family="Times,serif" font-size="100.00">2</text>
</g>
<!-- 3 -->
<g id="node4" class="node"><title>3</title>
<ellipse fill="white" stroke="black" stroke-width="15" cx="-180" cy="2423.25" rx="83.3772" ry="83.3772"/>
<text text-anchor="middle" x="-180" y="2448.25" font-family="Times,serif" font-size="100.00">3</text>
</g>
<!-- 4 -->
<g id="node5" class="node"><title>4</title>
<ellipse fill="white" stroke="black" stroke-width="15" cx="-2772" cy="2495.25" rx="83.3772" ry="83.3772"/>
<text text-anchor="middle" x="-2772" y="2520.25" font-family="Times,serif" font-size="100.00">4</text>
</g>
<!-- 5 -->
<g id="node6" class="node"><title>5</title>
<ellipse fill="white" stroke="black" stroke-width="15" cx="-1620" cy="-3408.75" rx="83.3772" ry="83.3772"/>
<text text-anchor="middle" x="-1620" y="-3383.75" font-family="Times,serif" font-size="100.00">5</text>
</g>
<!-- 6 -->
<g id="node7" class="node"><title>6</title>
<ellipse fill="white" stroke="black" stroke-width="15" cx="468" cy="839.25" rx="83.3772" ry="83.3772"/>
<text text-anchor="middle" x="468" y="864.25" font-family="Times,serif" font-size="100.00">6</text>
</g>
<!-- 7 -->
<g id="node8" class="node"><title>7</title>
<ellipse fill="white" stroke="black" stroke-width="15" cx="2340" cy="191.25" rx="83.3772" ry="83.3772"/>
<text text-anchor="middle" x="2340" y="216.25" font-family="Times,serif" font-size="100.00">7</text>
</g>
<!-- 8 -->
<g id="node9" class="node"><title>8</title>
<ellipse fill="white" stroke="black" stroke-width="15" cx="-2700" cy="1271.25" rx="83.3772" ry="83.3772"/>
<text text-anchor="middle" x="-2700" y="1296.25" font-family="Times,serif" font-size="100.00">8</text>
</g>
<!-- 9 -->
<g id="node10" class="node"><title>9</title>
<ellipse fill="white" stroke="black" stroke-width="15" cx="-3564" cy="191.25" rx="83.3772" ry="83.3772"/>
<text text-anchor="middle" x="-3564" y="216.25" font-family="Times,serif" font-size="100.00">9</text>
</g>
<!-- 10 -->
<g id="node11" class="node"><title>10</title>
<ellipse fill="white" stroke="black" stroke-width="15" cx="-3492" cy="-2904.75" rx="83.3772" ry="83.3772"/>
<text text-anchor="middle" x="-3492" y="-2879.75" font-family="Times,serif" font-size="100.00">10</text>
</g>
<!-- 11 -->
<g id="node12" class="node"><title>11</title>
<ellipse fill="white" stroke="black" stroke-width="15" cx="-3348" cy="2279.25" rx="83.3772" ry="83.3772"/>
<text text-anchor="middle" x="-3348" y="2304.25" font-family="Times,serif" font-size="100.00">11</text>
</g>
<!-- 12 -->
<g id="node13" class="node"><title>12</title>
<ellipse fill="white" stroke="black" stroke-width="15" cx="3348" cy="-744.75" rx="83.3772" ry="83.3772"/>
<text text-anchor="middle" x="3348" y="-719.75" font-family="Times,serif" font-size="100.00">12</text>
</g>
<!-- 13 -->
<g id="node14" class="node"><title>13</title>
<ellipse fill="white" stroke="black" stroke-width="15" cx="2340" cy="1199.25" rx="83.3772" ry="83.3772"/>
<text text-anchor="middle" x="2340" y="1224.25" font-family="Times,serif" font-size="100.00">13</text>
</g>
<!-- 14 -->
<g id="node15" class="node"><title>14</title>
<ellipse fill="white" stroke="black" stroke-width="15" cx="684" cy="-1248.75" rx="83.3772" ry="83.3772"/>
<text text-anchor="middle" x="684" y="-1223.75" font-family="Times,serif" font-size="100.00">14</text>
</g>
<!-- 15 -->
<g id="node16" class="node"><title>15</title>
<ellipse fill="white" stroke="black" stroke-width="15" cx="-3636" cy="-1680.75" rx="83.3772" ry="83.3772"/>
<text text-anchor="middle" x="-3636" y="-1655.75" font-family="Times,serif" font-size="100.00">15</text>
</g>
<!-- 16 -->
<g id="node17" class="node"><title>16</title>
<ellipse fill="white" stroke="black" stroke-width="15" cx="2628" cy="-672.75" rx="83.3772" ry="83.3772"/>
<text text-anchor="middle" x="2628" y="-647.75" font-family="Times,serif" font-size="100.00">16</text>
</g>
<!-- 17 -->
<g id="node18" class="node"><title>17</title>
<ellipse fill="white" stroke="black" stroke-width="15" cx="2844" cy="2855.25" rx="83.3772" ry="83.3772"/>
<text text-anchor="middle" x="2844" y="2880.25" font-family="Times,serif" font-size="100.00">17</text>
</g>
<!-- 18 -->
<g id="node19" class="node"><title>18</title>
<ellipse fill="white" stroke="black" stroke-width="15" cx="-2340" cy="695.25" rx="83.3772" ry="83.3772"/>
<text text-anchor="middle" x="-2340" y="720.25" font-family="Times,serif" font-size="100.00">18</text>
</g>
<!-- 19 -->
<g id="node20" class="node"><title>19</title>
<ellipse fill="white" stroke="black" stroke-width="15" cx="2988" cy="2783.25" rx="83.3772" ry="83.3772"/>
<text text-anchor="middle" x="2988" y="2808.25" font-family="Times,serif" font-size="100.00">19</text>
</g>
<!-- 20 -->
<g id="node21" class="node"><title>20</title>
<ellipse fill="white" stroke="black" stroke-width="15" cx="-108" cy="-3696.75" rx="83.3772" ry="83.3772"/>
<text text-anchor="middle" x="-108" y="-3671.75" font-family="Times,serif" font-size="100.00">20</text>
</g>
<!-- 21 -->
<g id="node22" class="node"><title>21</title>
<ellipse fill="white" stroke="black" stroke-width="15" cx="3348" cy="1991.25" rx="83.3772" ry="83.3772"/>
<text text-anchor="middle" x="3348" y="2016.25" font-family="Times,serif" font-size="100.00">21</text>
</g>
<!-- 22 -->
<g id="node23" class="node"><title>22</title>
<ellipse fill="white" stroke="black" stroke-width="15" cx="-3348" cy="-24.75" rx="83.3772" ry="83.3772"/>
<text text-anchor="middle" x="-3348" y="0.25" font-family="Times,serif" font-size="100.00">22</text>
</g>
<!-- 23 -->
<g id="node24" class="node"><title>23</title>
<ellipse fill="white" stroke="black" stroke-width="15" cx="-684" cy="2351.25" rx="83.3772" ry="83.3772"/>
<text text-anchor="middle" x="-684" y="2376.25" font-family="Times,serif" font-size="100.00">23</text>
</g>
<!-- 24 -->
<g id="node25" class="node"><title>24</title>
<ellipse fill="white" stroke="black" stroke-width="15" cx="684" cy="-1464.75" rx="83.3772" ry="83.3772"/>
<text text-anchor="middle" x="684" y="-1439.75" font-family="Times,serif" font-size="100.00">24</text>
</g>
<!-- 25 -->
<g id="node26" class="node"><title>25</title>
<ellipse fill="white" stroke="black" stroke-width="15" cx="-3060" cy="-3984.75" rx="83.3772" ry="83.3772"/>
<text text-anchor="middle" x="-3060" y="-3959.75" font-family="Times,serif" font-size="100.00">25</text>
</g>
<!-- 26 -->
<g id="node27" class="node"><title>26</title>
<ellipse fill="white" stroke="black" stroke-width="15" cx="2052" cy="-960.75" rx="83.3772" ry="83.3772"/>
<text text-anchor="middle" x="2052" y="-935.75" font-family="Times,serif" font-size="100.00">26</text>
</g>
<!-- 27 -->
<g id="node28" class="node"><title>27</title>
<ellipse fill="white" stroke="black" stroke-width="15" cx="396" cy="-1968.75" rx="83.3772" ry="83.3772"/>
<text text-anchor="middle" x="396" y="-1943.75" font-family="Times,serif" font-size="100.00">27</text>
</g>
<!-- 28 -->
<g id="node29" class="node"><title>28</title>
<ellipse fill="white" stroke="black" stroke-width="15" cx="-2052" cy="1919.25" rx="83.3772" ry="83.3772"/>
<text text-anchor="middle" x="-2052" y="1944.25" font-family="Times,serif" font-size="100.00">28</text>
</g>
<!-- 29 -->
<g id="node30" class="node"><title>29</title>
<ellipse fill="white" stroke="black" stroke-width="15" cx="-2268" cy="-2040.75" rx="83.3772" ry="83.3772"/>
<text text-anchor="middle" x="-2268" y="-2015.75" font-family="Times,serif" font-size="100.00">29</text>
</g>
<!-- 30 -->
<g id="node31" class="node"><title>30</title>
<ellipse fill="white" stroke="black" stroke-width="15" cx="2412" cy="-1320.75" rx="83.3772" ry="83.3772"/>
<text text-anchor="middle" x="2412" y="-1295.75" font-family="Times,serif" font-size="100.00">30</text>
</g>
<!-- 31 -->
<g id="node32" class="node"><title>31</title>
<ellipse fill="white" stroke="black" stroke-width="15" cx="3348" cy="2639.25" rx="83.3772" ry="83.3772"/>
<text text-anchor="middle" x="3348" y="2664.25" font-family="Times,serif" font-size="100.00">31</text>
</g>
</g>
</svg>
