<?xml version="1.0" encoding="UTF-8" standalone="no"?>
<!DOCTYPE svg PUBLIC "-//W3C//DTD SVG 1.1//EN"
 "http://www.w3.org/Graphics/SVG/1.1/DTD/svg11.dtd">
<!-- Generated by graphviz version 2.38.0 (20140413.2041)
 -->
<!-- Title: g Pages: 1 -->
<svg width="7591pt" height="7470pt"
 viewBox="216.00 216.00 7374.88 7253.88" xmlns="http://www.w3.org/2000/svg" xmlns:xlink="http://www.w3.org/1999/xlink">
<g id="graph0" class="graph" transform="scale(1 1) rotate(0) translate(3939.44 4311.19)">
<title>g</title>
<polygon fill="white" stroke="none" points="-3723.44,2942.69 -3723.44,-4095.19 3435.44,-4095.19 3435.44,2942.69 -3723.44,2942.69"/>
<text text-anchor="middle" x="-144" y="-4075.99" font-family="Times,serif" font-size="14.00">data01&#45;tabou (cost = 859)</text>
<!-- 0&#45;&gt;13 -->
<g id="edge6" class="edge"><title>0&#45;&gt;13</title>
<path fill="none" stroke="red" stroke-width="15" d="M2199.28,-2389.16C2218.47,-1899.74 2316.12,590.343 2336.33,1105.79"/>
<polygon fill="red" stroke="red" stroke-width="15" points="2349.45,1105.28 2336.73,1115.79 2323.22,1106.31 2349.45,1105.28"/>
</g>
<!-- 0&#45;&gt;20 -->
<g id="edge1" class="edge"><title>0&#45;&gt;20</title>
<path fill="none" stroke="blue" stroke-width="15" d="M2122.27,-2511.92C1778.75,-2694.41 336.613,-3460.55 -25.3275,-3652.83"/>
<polygon fill="blue" stroke="blue" stroke-width="15" points="-31.5144,-3641.25 -34.1878,-3657.54 -19.1989,-3664.44 -31.5144,-3641.25"/>
</g>
<!-- 0&#45;&gt;28 -->
<g id="edge13" class="edge"><title>0&#45;&gt;28</title>
<path fill="none" stroke="black" stroke-width="15" d="M2137.97,-2412.75C1669.33,-1928.23 -1491.95,1340.21 -1986.88,1851.92"/>
<polygon fill="black" stroke="black" stroke-width="15" points="-1977.58,1861.19 -1993.97,1859.25 -1996.45,1842.94 -1977.58,1861.19"/>
</g>
<!-- 0&#45;&gt;29 -->
<g id="edge22" class="edge"><title>0&#45;&gt;29</title>
<path fill="none" stroke="green" stroke-width="15" d="M2112.77,-2464.7C1558.8,-2411.09 -1590.84,-2106.28 -2174.84,-2049.77"/>
<polygon fill="green" stroke="green" stroke-width="15" points="-2173.68,-2036.69 -2184.9,-2048.79 -2176.21,-2062.82 -2173.68,-2036.69"/>
</g>
<!-- 0&#45;&gt;30 -->
<g id="edge33" class="edge"><title>0&#45;&gt;30</title>
<path fill="none" stroke="orange" stroke-width="15" d="M2211.45,-2390.36C2250.63,-2181.41 2353.67,-1631.86 2394.74,-1412.8"/>
<polygon fill="orange" stroke="orange" stroke-width="15" points="2407.65,-1415.19 2396.59,-1402.94 2381.85,-1410.35 2407.65,-1415.19"/>
</g>
<!-- 1&#45;&gt;0 -->
<g id="edge12" class="edge"><title>1&#45;&gt;0</title>
<path fill="none" stroke="red" stroke-width="15" d="M3170.46,-245.408C3018.35,-593.097 2393.76,-2020.73 2233.57,-2386.87"/>
<polygon fill="red" stroke="red" stroke-width="15" points="2221.52,-2381.67 2229.54,-2396.1 2245.57,-2392.2 2221.52,-2381.67"/>
</g>
<!-- 2&#45;&gt;6 -->
<g id="edge18" class="edge"><title>2&#45;&gt;6</title>
<path fill="none" stroke="black" stroke-width="15" d="M-82.5068,2559.58C11.75,2265.03 340.2,1238.62 439.407,928.604"/>
<polygon fill="black" stroke="black" stroke-width="15" points="427.009,924.283 442.557,918.759 452.01,932.284 427.009,924.283"/>
</g>
<!-- 3&#45;&gt;2 -->
<g id="edge17" class="edge"><title>3&#45;&gt;2</title>
<path fill="none" stroke="black" stroke-width="15" d="M-153.599,2502.45C-148.414,2518.01 -142.942,2534.42 -137.659,2550.27"/>
<polygon fill="black" stroke="black" stroke-width="15" points="-125.109,2546.42 -134.398,2560.06 -150.012,2554.72 -125.109,2546.42"/>
</g>
<!-- 4&#45;&gt;23 -->
<g id="edge15" class="edge"><title>4&#45;&gt;23</title>
<path fill="none" stroke="black" stroke-width="15" d="M-2688.54,2489.49C-2356.07,2466.57 -1127.17,2381.81 -777.423,2357.69"/>
<polygon fill="black" stroke="black" stroke-width="15" points="-778.213,2344.59 -767.334,2357 -776.407,2370.78 -778.213,2344.59"/>
</g>
<!-- 5&#45;&gt;27 -->
<g id="edge3" class="edge"><title>5&#45;&gt;27</title>
<path fill="none" stroke="blue" stroke-width="15" d="M-1552.06,-3360.22C-1246.71,-3142.12 -2.29295,-2253.24 319.662,-2023.28"/>
<polygon fill="blue" stroke="blue" stroke-width="15" points="327.499,-2033.81 328.008,-2017.32 312.242,-2012.45 327.499,-2033.81"/>
</g>
<!-- 6&#45;&gt;7 -->
<g id="edge19" class="edge"><title>6&#45;&gt;7</title>
<path fill="none" stroke="black" stroke-width="15" d="M546.944,811.923C849.32,707.255 1932.74,332.223 2251.3,221.952"/>
<polygon fill="black" stroke="black" stroke-width="15" points="2247.21,209.479 2260.96,218.611 2255.8,234.285 2247.21,209.479"/>
</g>
<!-- 7&#45;&gt;26 -->
<g id="edge20" class="edge"><title>7&#45;&gt;26</title>
<path fill="none" stroke="black" stroke-width="15" d="M2319.75,110.244C2267.7,-97.9457 2129.52,-650.659 2074.79,-869.593"/>
<polygon fill="black" stroke="black" stroke-width="15" points="2062.02,-866.564 2072.33,-879.449 2087.48,-872.931 2062.02,-866.564"/>
</g>
<!-- 8&#45;&gt;18 -->
<g id="edge30" class="edge"><title>8&#45;&gt;18</title>
<path fill="none" stroke="green" stroke-width="15" d="M-2655.68,1200.33C-2588.27,1092.48 -2460.4,887.887 -2389.85,775.007"/>
<polygon fill="green" stroke="green" stroke-width="15" points="-2400.88,767.899 -2384.45,766.375 -2378.62,781.812 -2400.88,767.899"/>
</g>
<!-- 9&#45;&gt;11 -->
<g id="edge28" class="edge"><title>9&#45;&gt;11</title>
<path fill="none" stroke="green" stroke-width="15" d="M-3555.4,274.391C-3521.05,606.46 -3393.8,1836.55 -3357.64,2186.07"/>
<polygon fill="green" stroke="green" stroke-width="15" points="-3344.57,2184.86 -3356.6,2196.16 -3370.68,2187.56 -3344.57,2184.86"/>
</g>
<!-- 10&#45;&gt;15 -->
<g id="edge25" class="edge"><title>10&#45;&gt;15</title>
<path fill="none" stroke="green" stroke-width="15" d="M-3501.78,-2821.58C-3527.69,-2601.42 -3597.91,-2004.56 -3625.07,-1773.68"/>
<polygon fill="green" stroke="green" stroke-width="15" points="-3612.05,-1772.03 -3626.25,-1763.63 -3638.12,-1775.09 -3612.05,-1772.03"/>
</g>
<!-- 11&#45;&gt;8 -->
<g id="edge29" class="edge"><title>11&#45;&gt;8</title>
<path fill="none" stroke="green" stroke-width="15" d="M-3302.69,2208.77C-3185.59,2026.61 -2873.48,1541.11 -2750.66,1350.06"/>
<polygon fill="green" stroke="green" stroke-width="15" points="-2761.58,1342.77 -2745.13,1341.46 -2739.5,1356.97 -2761.58,1342.77"/>
</g>
<!-- 12&#45;&gt;0 -->
<g id="edge36" class="edge"><title>12&#45;&gt;0</title>
<path fill="none" stroke="orange" stroke-width="15" d="M3301.59,-814.361C3117.83,-1090 2441.78,-2104.07 2248.15,-2394.53"/>
<polygon fill="orange" stroke="orange" stroke-width="15" points="2237.18,-2387.31 2242.56,-2402.91 2259.03,-2401.87 2237.18,-2387.31"/>
</g>
<!-- 13&#45;&gt;17 -->
<g id="edge7" class="edge"><title>13&#45;&gt;17</title>
<path fill="none" stroke="red" stroke-width="15" d="M2364.31,1279.12C2448.59,1556.05 2727.95,2473.94 2816.69,2765.52"/>
<polygon fill="red" stroke="red" stroke-width="15" points="2829.29,2761.82 2819.64,2775.21 2804.17,2769.47 2829.29,2761.82"/>
</g>
<!-- 14&#45;&gt;0 -->
<g id="edge32" class="edge"><title>14&#45;&gt;0</title>
<path fill="none" stroke="green" stroke-width="15" d="M748.969,-1301.34C994.428,-1500.05 1864.44,-2204.35 2123.01,-2413.66"/>
<polygon fill="green" stroke="green" stroke-width="15" points="2114.82,-2423.92 2130.85,-2420.01 2131.34,-2403.52 2114.82,-2423.92"/>
</g>
<!-- 15&#45;&gt;22 -->
<g id="edge26" class="edge"><title>15&#45;&gt;22</title>
<path fill="none" stroke="green" stroke-width="15" d="M-3621.67,-1598.35C-3573.15,-1319.37 -3415.26,-411.485 -3364.13,-117.519"/>
<polygon fill="green" stroke="green" stroke-width="15" points="-3351.14,-119.424 -3362.36,-107.323 -3377,-114.926 -3351.14,-119.424"/>
</g>
<!-- 16&#45;&gt;12 -->
<g id="edge35" class="edge"><title>16&#45;&gt;12</title>
<path fill="none" stroke="orange" stroke-width="15" d="M2711.3,-681.08C2846.68,-694.618 3113.52,-721.302 3254.94,-735.444"/>
<polygon fill="orange" stroke="orange" stroke-width="15" points="3253.64,-748.505 3264.9,-736.44 3256.25,-722.385 3253.64,-748.505"/>
</g>
<!-- 17&#45;&gt;19 -->
<g id="edge8" class="edge"><title>17&#45;&gt;19</title>
<path fill="none" stroke="red" stroke-width="15" d="M2918.95,2817.77C2919.02,2817.74 2919.09,2817.71 2919.16,2817.67"/>
<polygon fill="red" stroke="red" stroke-width="15" points="2904.54,2810.3 2919.36,2817.57 2916.29,2833.78 2904.54,2810.3"/>
</g>
<!-- 18&#45;&gt;14 -->
<g id="edge31" class="edge"><title>18&#45;&gt;14</title>
<path fill="none" stroke="green" stroke-width="15" d="M-2269.7,650.058C-1863.79,389.117 177.025,-922.838 605.145,-1198.06"/>
<polygon fill="green" stroke="green" stroke-width="15" points="598.246,-1209.23 613.755,-1203.59 612.441,-1187.14 598.246,-1209.23"/>
</g>
<!-- 19&#45;&gt;31 -->
<g id="edge9" class="edge"><title>19&#45;&gt;31</title>
<path fill="none" stroke="red" stroke-width="15" d="M3065.67,2752.18C3123.16,2729.19 3201.5,2697.85 3261.07,2674.02"/>
<polygon fill="red" stroke="red" stroke-width="15" points="3256.31,2661.79 3270.47,2670.26 3266.06,2686.16 3256.31,2661.79"/>
</g>
<!-- 20&#45;&gt;5 -->
<g id="edge2" class="edge"><title>20&#45;&gt;5</title>
<path fill="none" stroke="blue" stroke-width="15" d="M-190.096,-3681.11C-450.179,-3631.57 -1254.81,-3478.31 -1528.09,-3426.26"/>
<polygon fill="blue" stroke="blue" stroke-width="15" points="-1525.7,-3413.35 -1537.98,-3424.37 -1530.61,-3439.14 -1525.7,-3413.35"/>
</g>
<!-- 21&#45;&gt;1 -->
<g id="edge11" class="edge"><title>21&#45;&gt;1</title>
<path fill="none" stroke="red" stroke-width="15" d="M3342.44,1907.9C3319.74,1567.42 3234.13,283.251 3210.23,-75.2755"/>
<polygon fill="red" stroke="red" stroke-width="15" points="3197.13,-74.5057 3209.56,-85.3568 3223.32,-76.2521 3197.13,-74.5057"/>
</g>
<!-- 22&#45;&gt;9 -->
<g id="edge27" class="edge"><title>22&#45;&gt;9</title>
<path fill="none" stroke="green" stroke-width="15" d="M-3407.02,34.2729C-3435,62.2546 -3468.55,95.8012 -3497.44,124.686"/>
<polygon fill="green" stroke="green" stroke-width="15" points="-3488.32,134.133 -3504.67,131.923 -3506.88,115.572 -3488.32,134.133"/>
</g>
<!-- 23&#45;&gt;3 -->
<g id="edge16" class="edge"><title>23&#45;&gt;3</title>
<path fill="none" stroke="black" stroke-width="15" d="M-601.339,2363.06C-511.074,2375.95 -366.86,2396.56 -272.785,2410"/>
<polygon fill="black" stroke="black" stroke-width="15" points="-270.749,2397.03 -262.706,2411.43 -274.462,2423.01 -270.749,2397.03"/>
</g>
<!-- 24&#45;&gt;0 -->
<g id="edge5" class="edge"><title>24&#45;&gt;0</title>
<path fill="none" stroke="blue" stroke-width="15" d="M753.894,-1511.35C1004.26,-1678.25 1855.28,-2245.6 2118.06,-2420.79"/>
<polygon fill="blue" stroke="blue" stroke-width="15" points="2110.81,-2431.73 2126.41,-2426.36 2125.37,-2409.89 2110.81,-2431.73"/>
</g>
<!-- 25&#45;&gt;10 -->
<g id="edge24" class="edge"><title>25&#45;&gt;10</title>
<path fill="none" stroke="green" stroke-width="15" d="M-3091.07,-3907.08C-3169.43,-3711.16 -3374.75,-3197.87 -3457.1,-2992.01"/>
<polygon fill="green" stroke="green" stroke-width="15" points="-3445.02,-2986.85 -3460.92,-2982.44 -3469.4,-2996.6 -3445.02,-2986.85"/>
</g>
<!-- 26&#45;&gt;0 -->
<g id="edge21" class="edge"><title>26&#45;&gt;0</title>
<path fill="none" stroke="black" stroke-width="15" d="M2059.92,-1043.92C2084.75,-1304.62 2160.95,-2104.72 2187.09,-2379.19"/>
<polygon fill="black" stroke="black" stroke-width="15" points="2174.06,-2380.81 2188.07,-2389.52 2200.19,-2378.32 2174.06,-2380.81"/>
</g>
<!-- 27&#45;&gt;24 -->
<g id="edge4" class="edge"><title>27&#45;&gt;24</title>
<path fill="none" stroke="blue" stroke-width="15" d="M437.417,-1896.27C490.398,-1803.55 581.913,-1643.4 637.314,-1546.45"/>
<polygon fill="blue" stroke="blue" stroke-width="15" points="648.828,-1552.75 642.394,-1537.56 626.037,-1539.73 648.828,-1552.75"/>
</g>
<!-- 28&#45;&gt;4 -->
<g id="edge14" class="edge"><title>28&#45;&gt;4</title>
<path fill="none" stroke="black" stroke-width="15" d="M-2117.17,1971.38C-2251.31,2078.7 -2557.54,2323.68 -2698.5,2436.45"/>
<polygon fill="black" stroke="black" stroke-width="15" points="-2690.72,2447.03 -2706.72,2443.03 -2707.11,2426.53 -2690.72,2447.03"/>
</g>
<!-- 29&#45;&gt;25 -->
<g id="edge23" class="edge"><title>29&#45;&gt;25</title>
<path fill="none" stroke="green" stroke-width="15" d="M-2299.54,-2118.16C-2425.49,-2427.32 -2892.08,-3572.58 -3024.66,-3898"/>
<polygon fill="green" stroke="green" stroke-width="15" points="-3036.86,-3893.17 -3028.48,-3907.39 -3012.55,-3903.08 -3036.86,-3893.17"/>
</g>
<!-- 30&#45;&gt;16 -->
<g id="edge34" class="edge"><title>30&#45;&gt;16</title>
<path fill="none" stroke="orange" stroke-width="15" d="M2438.49,-1241.29C2478.97,-1119.83 2556,-888.763 2598.32,-761.803"/>
<polygon fill="orange" stroke="orange" stroke-width="15" points="2610.84,-765.733 2601.55,-752.096 2585.94,-757.432 2610.84,-765.733"/>
</g>
<!-- 31&#45;&gt;21 -->
<g id="edge10" class="edge"><title>31&#45;&gt;21</title>
<path fill="none" stroke="red" stroke-width="15" d="M3348,2555.53C3348,2434.44 3348,2211.14 3348,2084.78"/>
<polygon fill="red" stroke="red" stroke-width="15" points="3334.88,2084.73 3348,2074.73 3361.13,2084.73 3334.88,2084.73"/>
</g>
<!-- 0 -->
<g id="node1" class="node"><title>0</title>
<ellipse fill="white" stroke="black" stroke-width="15" cx="2196" cy="-2472.75" rx="83.3772" ry="83.3772"/>
<text text-anchor="middle" x="2196" y="-2447.75" font-family="Times,serif" font-size="100.00">0</text>
</g>
<!-- 1 -->
<g id="node2" class="node"><title>1</title>
<ellipse fill="white" stroke="black" stroke-width="15" cx="3204" cy="-168.75" rx="83.3772" ry="83.3772"/>
<text text-anchor="middle" x="3204" y="-143.75" font-family="Times,serif" font-size="100.00">1</text>
</g>
<!-- 2 -->
<g id="node3" class="node"><title>2</title>
<ellipse fill="white" stroke="black" stroke-width="15" cx="-108" cy="2639.25" rx="83.3772" ry="83.3772"/>
<text text-anchor="middle" x="-108" y="2664.25" font-family="Times,serif" font-size="100.00">2</text>
</g>
<!-- 3 -->
<g id="node4" class="node"><title>3</title>
<ellipse fill="white" stroke="black" stroke-width="15" cx="-180" cy="2423.25" rx="83.3772" ry="83.3772"/>
<text text-anchor="middle" x="-180" y="2448.25" font-family="Times,serif" font-size="100.00">3</text>
</g>
<!-- 4 -->
<g id="node5" class="node"><title>4</title>
<ellipse fill="white" stroke="black" stroke-width="15" cx="-2772" cy="2495.25" rx="83.3772" ry="83.3772"/>
<text text-anchor="middle" x="-2772" y="2520.25" font-family="Times,serif" font-size="100.00">4</text>
</g>
<!-- 5 -->
<g id="node6" class="node"><title>5</title>
<ellipse fill="white" stroke="black" stroke-width="15" cx="-1620" cy="-3408.75" rx="83.3772" ry="83.3772"/>
<text text-anchor="middle" x="-1620" y="-3383.75" font-family="Times,serif" font-size="100.00">5</text>
</g>
<!-- 6 -->
<g id="node7" class="node"><title>6</title>
<ellipse fill="white" stroke="black" stroke-width="15" cx="468" cy="839.25" rx="83.3772" ry="83.3772"/>
<text text-anchor="middle" x="468" y="864.25" font-family="Times,serif" font-size="100.00">6</text>
</g>
<!-- 7 -->
<g id="node8" class="node"><title>7</title>
<ellipse fill="white" stroke="black" stroke-width="15" cx="2340" cy="191.25" rx="83.3772" ry="83.3772"/>
<text text-anchor="middle" x="2340" y="216.25" font-family="Times,serif" font-size="100.00">7</text>
</g>
<!-- 8 -->
<g id="node9" class="node"><title>8</title>
<ellipse fill="white" stroke="black" stroke-width="15" cx="-2700" cy="1271.25" rx="83.3772" ry="83.3772"/>
<text text-anchor="middle" x="-2700" y="1296.25" font-family="Times,serif" font-size="100.00">8</text>
</g>
<!-- 9 -->
<g id="node10" class="node"><title>9</title>
<ellipse fill="white" stroke="black" stroke-width="15" cx="-3564" cy="191.25" rx="83.3772" ry="83.3772"/>
<text text-anchor="middle" x="-3564" y="216.25" font-family="Times,serif" font-size="100.00">9</text>
</g>
<!-- 10 -->
<g id="node11" class="node"><title>10</title>
<ellipse fill="white" stroke="black" stroke-width="15" cx="-3492" cy="-2904.75" rx="83.3772" ry="83.3772"/>
<text text-anchor="middle" x="-3492" y="-2879.75" font-family="Times,serif" font-size="100.00">10</text>
</g>
<!-- 11 -->
<g id="node12" class="node"><title>11</title>
<ellipse fill="white" stroke="black" stroke-width="15" cx="-3348" cy="2279.25" rx="83.3772" ry="83.3772"/>
<text text-anchor="middle" x="-3348" y="2304.25" font-family="Times,serif" font-size="100.00">11</text>
</g>
<!-- 12 -->
<g id="node13" class="node"><title>12</title>
<ellipse fill="white" stroke="black" stroke-width="15" cx="3348" cy="-744.75" rx="83.3772" ry="83.3772"/>
<text text-anchor="middle" x="3348" y="-719.75" font-family="Times,serif" font-size="100.00">12</text>
</g>
<!-- 13 -->
<g id="node14" class="node"><title>13</title>
<ellipse fill="white" stroke="black" stroke-width="15" cx="2340" cy="1199.25" rx="83.3772" ry="83.3772"/>
<text text-anchor="middle" x="2340" y="1224.25" font-family="Times,serif" font-size="100.00">13</text>
</g>
<!-- 14 -->
<g id="node15" class="node"><title>14</title>
<ellipse fill="white" stroke="black" stroke-width="15" cx="684" cy="-1248.75" rx="83.3772" ry="83.3772"/>
<text text-anchor="middle" x="684" y="-1223.75" font-family="Times,serif" font-size="100.00">14</text>
</g>
<!-- 15 -->
<g id="node16" class="node"><title>15</title>
<ellipse fill="white" stroke="black" stroke-width="15" cx="-3636" cy="-1680.75" rx="83.3772" ry="83.3772"/>
<text text-anchor="middle" x="-3636" y="-1655.75" font-family="Times,serif" font-size="100.00">15</text>
</g>
<!-- 16 -->
<g id="node17" class="node"><title>16</title>
<ellipse fill="white" stroke="black" stroke-width="15" cx="2628" cy="-672.75" rx="83.3772" ry="83.3772"/>
<text text-anchor="middle" x="2628" y="-647.75" font-family="Times,serif" font-size="100.00">16</text>
</g>
<!-- 17 -->
<g id="node18" class="node"><title>17</title>
<ellipse fill="white" stroke="black" stroke-width="15" cx="2844" cy="2855.25" rx="83.3772" ry="83.3772"/>
<text text-anchor="middle" x="2844" y="2880.25" font-family="Times,serif" font-size="100.00">17</text>
</g>
<!-- 18 -->
<g id="node19" class="node"><title>18</title>
<ellipse fill="white" stroke="black" stroke-width="15" cx="-2340" cy="695.25" rx="83.3772" ry="83.3772"/>
<text text-anchor="middle" x="-2340" y="720.25" font-family="Times,serif" font-size="100.00">18</text>
</g>
<!-- 19 -->
<g id="node20" class="node"><title>19</title>
<ellipse fill="white" stroke="black" stroke-width="15" cx="2988" cy="2783.25" rx="83.3772" ry="83.3772"/>
<text text-anchor="middle" x="2988" y="2808.25" font-family="Times,serif" font-size="100.00">19</text>
</g>
<!-- 20 -->
<g id="node21" class="node"><title>20</title>
<ellipse fill="white" stroke="black" stroke-width="15" cx="-108" cy="-3696.75" rx="83.3772" ry="83.3772"/>
<text text-anchor="middle" x="-108" y="-3671.75" font-family="Times,serif" font-size="100.00">20</text>
</g>
<!-- 21 -->
<g id="node22" class="node"><title>21</title>
<ellipse fill="white" stroke="black" stroke-width="15" cx="3348" cy="1991.25" rx="83.3772" ry="83.3772"/>
<text text-anchor="middle" x="3348" y="2016.25" font-family="Times,serif" font-size="100.00">21</text>
</g>
<!-- 22 -->
<g id="node23" class="node"><title>22</title>
<ellipse fill="white" stroke="black" stroke-width="15" cx="-3348" cy="-24.75" rx="83.3772" ry="83.3772"/>
<text text-anchor="middle" x="-3348" y="0.25" font-family="Times,serif" font-size="100.00">22</text>
</g>
<!-- 23 -->
<g id="node24" class="node"><title>23</title>
<ellipse fill="white" stroke="black" stroke-width="15" cx="-684" cy="2351.25" rx="83.3772" ry="83.3772"/>
<text text-anchor="middle" x="-684" y="2376.25" font-family="Times,serif" font-size="100.00">23</text>
</g>
<!-- 24 -->
<g id="node25" class="node"><title>24</title>
<ellipse fill="white" stroke="black" stroke-width="15" cx="684" cy="-1464.75" rx="83.3772" ry="83.3772"/>
<text text-anchor="middle" x="684" y="-1439.75" font-family="Times,serif" font-size="100.00">24</text>
</g>
<!-- 25 -->
<g id="node26" class="node"><title>25</title>
<ellipse fill="white" stroke="black" stroke-width="15" cx="-3060" cy="-3984.75" rx="83.3772" ry="83.3772"/>
<text text-anchor="middle" x="-3060" y="-3959.75" font-family="Times,serif" font-size="100.00">25</text>
</g>
<!-- 26 -->
<g id="node27" class="node"><title>26</title>
<ellipse fill="white" stroke="black" stroke-width="15" cx="2052" cy="-960.75" rx="83.3772" ry="83.3772"/>
<text text-anchor="middle" x="2052" y="-935.75" font-family="Times,serif" font-size="100.00">26</text>
</g>
<!-- 27 -->
<g id="node28" class="node"><title>27</title>
<ellipse fill="white" stroke="black" stroke-width="15" cx="396" cy="-1968.75" rx="83.3772" ry="83.3772"/>
<text text-anchor="middle" x="396" y="-1943.75" font-family="Times,serif" font-size="100.00">27</text>
</g>
<!-- 28 -->
<g id="node29" class="node"><title>28</title>
<ellipse fill="white" stroke="black" stroke-width="15" cx="-2052" cy="1919.25" rx="83.3772" ry="83.3772"/>
<text text-anchor="middle" x="-2052" y="1944.25" font-family="Times,serif" font-size="100.00">28</text>
</g>
<!-- 29 -->
<g id="node30" class="node"><title>29</title>
<ellipse fill="white" stroke="black" stroke-width="15" cx="-2268" cy="-2040.75" rx="83.3772" ry="83.3772"/>
<text text-anchor="middle" x="-2268" y="-2015.75" font-family="Times,serif" font-size="100.00">29</text>
</g>
<!-- 30 -->
<g id="node31" class="node"><title>30</title>
<ellipse fill="white" stroke="black" stroke-width="15" cx="2412" cy="-1320.75" rx="83.3772" ry="83.3772"/>
<text text-anchor="middle" x="2412" y="-1295.75" font-family="Times,serif" font-size="100.00">30</text>
</g>
<!-- 31 -->
<g id="node32" class="node"><title>31</title>
<ellipse fill="white" stroke="black" stroke-width="15" cx="3348" cy="2639.25" rx="83.3772" ry="83.3772"/>
<text text-anchor="middle" x="3348" y="2664.25" font-family="Times,serif" font-size="100.00">31</text>
</g>
</g>
</svg>
