<?xml version="1.0" encoding="UTF-8" standalone="no"?>
<!DOCTYPE svg PUBLIC "-//W3C//DTD SVG 1.1//EN"
 "http://www.w3.org/Graphics/SVG/1.1/DTD/svg11.dtd">
<!-- Generated by graphviz version 2.38.0 (20140413.2041)
 -->
<!-- Title: g Pages: 1 -->
<svg width="7375pt" height="7254pt"
 viewBox="216.00 216.00 7158.88 7037.88" xmlns="http://www.w3.org/2000/svg" xmlns:xlink="http://www.w3.org/1999/xlink">
<g id="graph0" class="graph" transform="scale(1 1) rotate(0) translate(3627.44 3288.04)">
<title>g</title>
<polygon fill="white" stroke="none" points="-3411.44,3749.84 -3411.44,-3072.04 3531.44,-3072.04 3531.44,3749.84 -3411.44,3749.84"/>
<text text-anchor="middle" x="59.9999" y="-3052.84" font-family="Times,serif" font-size="14.00">data02&#45;tabou (cost = 1523)</text>
<!-- 0&#45;&gt;6 -->
<g id="edge29" class="edge"><title>0&#45;&gt;6</title>
<path fill="none" stroke="orange" stroke-width="15" d="M-1464.41,-2590.9C-1526.64,-2176 -1804.45,-323.966 -1870.07,113.554"/>
<polygon fill="orange" stroke="orange" stroke-width="15" points="-1857.12,115.682 -1871.58,123.624 -1883.08,111.788 -1857.12,115.682"/>
</g>
<!-- 0&#45;&gt;15 -->
<g id="edge53" class="edge"><title>0&#45;&gt;15</title>
<path fill="none" stroke="black" stroke-width="15" d="M-1379.49,-2632.17C-969.256,-2397.75 1057.75,-1239.46 1490.59,-992.12"/>
<polygon fill="black" stroke="black" stroke-width="15" points="1497.13,-1003.5 1499.3,-987.143 1484.11,-980.709 1497.13,-1003.5"/>
</g>
<!-- 0&#45;&gt;16 -->
<g id="edge37" class="edge"><title>0&#45;&gt;16</title>
<path fill="none" stroke="blue" stroke-width="15" d="M-1534.45,-2687.34C-1696.26,-2714.31 -2054.33,-2773.99 -2223.73,-2802.22"/>
<polygon fill="blue" stroke="blue" stroke-width="15" points="-2225.92,-2789.28 -2233.63,-2803.87 -2221.61,-2815.17 -2225.92,-2789.28"/>
</g>
<!-- 0&#45;&gt;19 -->
<g id="edge15" class="edge"><title>0&#45;&gt;19</title>
<path fill="none" stroke="black" stroke-width="15" d="M-1372.56,-2647.12C-1036.72,-2535.17 265.504,-2101.1 619.018,-1983.26"/>
<polygon fill="black" stroke="black" stroke-width="15" points="623.362,-1995.65 628.698,-1980.03 615.061,-1970.74 623.362,-1995.65"/>
</g>
<!-- 0&#45;&gt;24 -->
<g id="edge61" class="edge"><title>0&#45;&gt;24</title>
<path fill="none" stroke="green" stroke-width="15" d="M-1438.75,-2590.78C-1361.7,-2109.25 -972.032,326.201 -890.837,833.669"/>
<polygon fill="green" stroke="green" stroke-width="15" points="-877.824,831.924 -889.204,843.873 -903.745,836.072 -877.824,831.924"/>
</g>
<!-- 0&#45;&gt;25 -->
<g id="edge1" class="edge"><title>0&#45;&gt;25</title>
<path fill="none" stroke="blue" stroke-width="15" d="M-1504.13,-2608.44C-1611.45,-2474.29 -1856.43,-2168.06 -1969.2,-2027.1"/>
<polygon fill="blue" stroke="blue" stroke-width="15" points="-1959.28,-2018.49 -1975.78,-2018.88 -1979.78,-2034.88 -1959.28,-2018.49"/>
</g>
<!-- 0&#45;&gt;41 -->
<g id="edge48" class="edge"><title>0&#45;&gt;41</title>
<path fill="none" stroke="red" stroke-width="15" d="M-1392.68,-2732.92C-1345.43,-2780.17 -1279.34,-2846.26 -1230.35,-2895.25"/>
<polygon fill="red" stroke="red" stroke-width="15" points="-1239.6,-2904.56 -1223.25,-2902.35 -1221.04,-2886 -1239.6,-2904.56"/>
</g>
<!-- 0&#45;&gt;46 -->
<g id="edge8" class="edge"><title>0&#45;&gt;46</title>
<path fill="none" stroke="red" stroke-width="15" d="M-1502.19,-2606.68C-1652.88,-2405.76 -2100.76,-1808.58 -2259.47,-1596.97"/>
<polygon fill="red" stroke="red" stroke-width="15" points="-2249.17,-1588.83 -2265.67,-1588.7 -2270.17,-1604.58 -2249.17,-1588.83"/>
</g>
<!-- 0&#45;&gt;47 -->
<g id="edge22" class="edge"><title>0&#45;&gt;47</title>
<path fill="none" stroke="green" stroke-width="15" d="M-1409.81,-2601.28C-1247.32,-2322.71 -662.522,-1320.21 -491.371,-1026.81"/>
<polygon fill="green" stroke="green" stroke-width="15" points="-479.888,-1033.17 -486.186,-1017.92 -502.562,-1019.94 -479.888,-1033.17"/>
</g>
<!-- 1&#45;&gt;10 -->
<g id="edge4" class="edge"><title>1&#45;&gt;10</title>
<path fill="none" stroke="blue" stroke-width="15" d="M-973.548,2148.08C-825.274,2370.49 -363.928,3062.51 -208.057,3296.32"/>
<polygon fill="blue" stroke="blue" stroke-width="15" points="-197.045,3289.17 -202.419,3304.77 -218.887,3303.73 -197.045,3289.17"/>
</g>
<!-- 2&#45;&gt;1 -->
<g id="edge3" class="edge"><title>2&#45;&gt;1</title>
<path fill="none" stroke="blue" stroke-width="15" d="M-1281.55,1293.75C-1227.77,1455.09 -1106.01,1820.38 -1049.65,1989.46"/>
<polygon fill="blue" stroke="blue" stroke-width="15" points="-1037.15,1985.45 -1046.44,1999.08 -1062.05,1993.75 -1037.15,1985.45"/>
</g>
<!-- 3&#45;&gt;31 -->
<g id="edge40" class="edge"><title>3&#45;&gt;31</title>
<path fill="none" stroke="blue" stroke-width="15" d="M-2876.37,-1727.54C-2794.91,-1299.87 -2419.46,671.227 -2333.55,1122.28"/>
<polygon fill="blue" stroke="blue" stroke-width="15" points="-2320.61,1120.05 -2331.63,1132.33 -2346.4,1124.96 -2320.61,1120.05"/>
</g>
<!-- 4&#45;&gt;11 -->
<g id="edge46" class="edge"><title>4&#45;&gt;11</title>
<path fill="none" stroke="blue" stroke-width="15" d="M-3264.84,-284.762C-3184.68,-364.922 -3041.99,-507.607 -2958.3,-591.297"/>
<polygon fill="blue" stroke="blue" stroke-width="15" points="-2967.49,-600.671 -2951.14,-598.461 -2948.93,-582.109 -2967.49,-600.671"/>
</g>
<!-- 5&#45;&gt;42 -->
<g id="edge33" class="edge"><title>5&#45;&gt;42</title>
<path fill="none" stroke="orange" stroke-width="15" d="M215.448,3374.4C321.419,3374.4 503.757,3374.4 614.369,3374.4"/>
<polygon fill="orange" stroke="orange" stroke-width="15" points="614.514,3361.27 624.514,3374.4 614.514,3387.52 614.514,3361.27"/>
</g>
<!-- 6&#45;&gt;22 -->
<g id="edge30" class="edge"><title>6&#45;&gt;22</title>
<path fill="none" stroke="orange" stroke-width="15" d="M-1842.57,278.909C-1608.15,689.144 -449.856,2716.15 -202.52,3148.99"/>
<polygon fill="orange" stroke="orange" stroke-width="15" points="-191.109,3142.5 -197.543,3157.7 -213.9,3155.53 -191.109,3142.5"/>
</g>
<!-- 7&#45;&gt;59 -->
<g id="edge19" class="edge"><title>7&#45;&gt;59</title>
<path fill="none" stroke="black" stroke-width="15" d="M2211.64,-2408.56C2026.11,-2461.57 1568.93,-2592.19 1374.19,-2647.83"/>
<polygon fill="black" stroke="black" stroke-width="15" points="1370.57,-2635.22 1364.56,-2650.58 1377.78,-2660.46 1370.57,-2635.22"/>
</g>
<!-- 8&#45;&gt;13 -->
<g id="edge17" class="edge"><title>8&#45;&gt;13</title>
<path fill="none" stroke="black" stroke-width="15" d="M2436,-2037.37C2436,-2037.43 2436,-2037.49 2436,-2037.55"/>
<polygon fill="black" stroke="black" stroke-width="15" points="2422.88,-2027.73 2436,-2037.74 2449.13,-2027.74 2422.88,-2027.73"/>
</g>
<!-- 9&#45;&gt;51 -->
<g id="edge65" class="edge"><title>9&#45;&gt;51</title>
<path fill="none" stroke="green" stroke-width="15" d="M2795.67,3273.4C2930.76,3354.46 3222.18,3529.31 3363.67,3614.2"/>
<polygon fill="green" stroke="green" stroke-width="15" points="3370.53,3603.01 3372.35,3619.41 3357.03,3625.52 3370.53,3603.01"/>
</g>
<!-- 10&#45;&gt;45 -->
<g id="edge5" class="edge"><title>10&#45;&gt;45</title>
<path fill="none" stroke="blue" stroke-width="15" d="M-74.9993,3354.15C31.4783,3327.53 218,3280.9 329.16,3253.11"/>
<polygon fill="blue" stroke="blue" stroke-width="15" points="326.13,3240.34 339.015,3250.65 332.497,3265.8 326.13,3240.34"/>
</g>
<!-- 11&#45;&gt;0 -->
<g id="edge47" class="edge"><title>11&#45;&gt;0</title>
<path fill="none" stroke="blue" stroke-width="15" d="M-2843.47,-725.541C-2625.37,-1030.89 -1736.49,-2275.31 -1506.53,-2597.26"/>
<polygon fill="blue" stroke="blue" stroke-width="15" points="-1517.06,-2605.1 -1500.57,-2605.61 -1495.7,-2589.84 -1517.06,-2605.1"/>
</g>
<!-- 12&#45;&gt;14 -->
<g id="edge67" class="edge"><title>12&#45;&gt;14</title>
<path fill="none" stroke="green" stroke-width="15" d="M3382.54,2021.18C2908.32,1579.67 -163.447,-1280.26 -663.3,-1745.64"/>
<polygon fill="green" stroke="green" stroke-width="15" points="-672.447,-1736.22 -670.822,-1752.64 -654.559,-1755.43 -672.447,-1736.22"/>
</g>
<!-- 13&#45;&gt;7 -->
<g id="edge18" class="edge"><title>13&#45;&gt;7</title>
<path fill="none" stroke="black" stroke-width="15" d="M2398.54,-2172.52C2378.75,-2212.11 2354.39,-2260.82 2333.96,-2301.68"/>
<polygon fill="black" stroke="black" stroke-width="15" points="2322.13,-2295.99 2329.4,-2310.81 2345.61,-2307.73 2322.13,-2295.99"/>
</g>
<!-- 14&#45;&gt;0 -->
<g id="edge68" class="edge"><title>14&#45;&gt;0</title>
<path fill="none" stroke="green" stroke-width="15" d="M-785.529,-1873.83C-916.82,-2031.38 -1254.11,-2436.14 -1391.95,-2601.54"/>
<polygon fill="green" stroke="green" stroke-width="15" points="-1402.04,-2593.15 -1398.36,-2609.24 -1381.88,-2609.96 -1402.04,-2593.15"/>
</g>
<!-- 15&#45;&gt;26 -->
<g id="edge54" class="edge"><title>15&#45;&gt;26</title>
<path fill="none" stroke="black" stroke-width="15" d="M1655.78,-945.6C1842.24,-945.6 2290.44,-945.6 2486.04,-945.6"/>
<polygon fill="black" stroke="black" stroke-width="15" points="2486.29,-958.725 2496.29,-945.6 2486.29,-932.475 2486.29,-958.725"/>
</g>
<!-- 16&#45;&gt;20 -->
<g id="edge38" class="edge"><title>16&#45;&gt;20</title>
<path fill="none" stroke="blue" stroke-width="15" d="M-2399.69,-2817.6C-2434.15,-2817.6 -2474.24,-2817.6 -2509.74,-2817.6"/>
<polygon fill="blue" stroke="blue" stroke-width="15" points="-2510.1,-2804.48 -2520.1,-2817.6 -2510.1,-2830.73 -2510.1,-2804.48"/>
</g>
<!-- 17&#45;&gt;57 -->
<g id="edge57" class="edge"><title>17&#45;&gt;57</title>
<path fill="none" stroke="black" stroke-width="15" d="M3012,-1461.15C3012,-1534.15 3012,-1640.03 3012,-1715.9"/>
<polygon fill="black" stroke="black" stroke-width="15" points="2998.88,-1715.93 3012,-1725.93 3025.13,-1715.93 2998.88,-1715.93"/>
</g>
<!-- 18&#45;&gt;0 -->
<g id="edge21" class="edge"><title>18&#45;&gt;0</title>
<path fill="none" stroke="black" stroke-width="15" d="M-1103.55,-2673.6C-1176.55,-2673.6 -1282.43,-2673.6 -1358.3,-2673.6"/>
<polygon fill="black" stroke="black" stroke-width="15" points="-1358.33,-2660.48 -1368.33,-2673.6 -1358.33,-2686.73 -1358.33,-2660.48"/>
</g>
<!-- 19&#45;&gt;8 -->
<g id="edge16" class="edge"><title>19&#45;&gt;8</title>
<path fill="none" stroke="black" stroke-width="15" d="M791.637,-1953.6C1080.98,-1953.6 2038.32,-1953.6 2342.42,-1953.6"/>
<polygon fill="black" stroke="black" stroke-width="15" points="2342.53,-1966.73 2352.53,-1953.6 2342.53,-1940.48 2342.53,-1966.73"/>
</g>
<!-- 20&#45;&gt;3 -->
<g id="edge39" class="edge"><title>20&#45;&gt;3</title>
<path fill="none" stroke="blue" stroke-width="15" d="M-2626.96,-2737.24C-2679.97,-2551.71 -2810.59,-2094.53 -2866.23,-1899.79"/>
<polygon fill="blue" stroke="blue" stroke-width="15" points="-2853.62,-1896.17 -2868.98,-1890.16 -2878.86,-1903.38 -2853.62,-1896.17"/>
</g>
<!-- 21&#45;&gt;4 -->
<g id="edge45" class="edge"><title>21&#45;&gt;4</title>
<path fill="none" stroke="blue" stroke-width="15" d="M-3239.4,-141.002C-3245.42,-147.016 -3251.55,-153.15 -3257.63,-159.231"/>
<polygon fill="blue" stroke="blue" stroke-width="15" points="-3266.94,-149.983 -3264.73,-166.335 -3248.38,-168.545 -3266.94,-149.983"/>
</g>
<!-- 22&#45;&gt;54 -->
<g id="edge31" class="edge"><title>22&#45;&gt;54</title>
<path fill="none" stroke="orange" stroke-width="15" d="M-118.542,3305.32C-98.7471,3344.91 -74.3877,3393.62 -53.9595,3434.48"/>
<polygon fill="orange" stroke="orange" stroke-width="15" points="-42.1285,3428.79 -49.3957,3443.61 -65.6073,3440.53 -42.1285,3428.79"/>
</g>
<!-- 23&#45;&gt;56 -->
<g id="edge24" class="edge"><title>23&#45;&gt;56</title>
<path fill="none" stroke="green" stroke-width="15" d="M-228.968,-325.628C178.353,-73.4769 2214.23,1186.83 2644.18,1452.99"/>
<polygon fill="green" stroke="green" stroke-width="15" points="2651.23,1441.92 2652.83,1458.34 2637.42,1464.24 2651.23,1441.92"/>
</g>
<!-- 24&#45;&gt;58 -->
<g id="edge62" class="edge"><title>24&#45;&gt;58</title>
<path fill="none" stroke="green" stroke-width="15" d="M-798.263,895.305C-662.923,841.169 -384.946,729.978 -243.233,673.293"/>
<polygon fill="green" stroke="green" stroke-width="15" points="-247.844,661.001 -233.684,669.474 -238.094,685.374 -247.844,661.001"/>
</g>
<!-- 25&#45;&gt;2 -->
<g id="edge2" class="edge"><title>25&#45;&gt;2</title>
<path fill="none" stroke="blue" stroke-width="15" d="M-2009.48,-1872.11C-1909.46,-1432.03 -1434.46,657.993 -1328.84,1122.7"/>
<polygon fill="blue" stroke="blue" stroke-width="15" points="-1315.98,1120.06 -1326.56,1132.72 -1341.58,1125.88 -1315.98,1120.06"/>
</g>
<!-- 26&#45;&gt;27 -->
<g id="edge55" class="edge"><title>26&#45;&gt;27</title>
<path fill="none" stroke="black" stroke-width="15" d="M2600.25,-1026.6C2626.87,-1133.08 2673.5,-1319.6 2701.29,-1430.76"/>
<polygon fill="black" stroke="black" stroke-width="15" points="2688.6,-1434.1 2703.75,-1440.61 2714.06,-1427.73 2688.6,-1434.1"/>
</g>
<!-- 27&#45;&gt;17 -->
<g id="edge56" class="edge"><title>27&#45;&gt;17</title>
<path fill="none" stroke="black" stroke-width="15" d="M2798.92,-1484.14C2838.51,-1464.35 2887.22,-1439.99 2928.08,-1419.56"/>
<polygon fill="black" stroke="black" stroke-width="15" points="2934.13,-1431.21 2937.21,-1415 2922.39,-1407.73 2934.13,-1431.21"/>
</g>
<!-- 28&#45;&gt;44 -->
<g id="edge11" class="edge"><title>28&#45;&gt;44</title>
<path fill="none" stroke="red" stroke-width="15" d="M-2011.62,1296.29C-1984.57,1431.54 -1930.74,1700.68 -1902.41,1842.33"/>
<polygon fill="red" stroke="red" stroke-width="15" points="-1889.51,1839.93 -1900.42,1852.31 -1915.25,1845.08 -1889.51,1839.93"/>
</g>
<!-- 29&#45;&gt;0 -->
<g id="edge60" class="edge"><title>29&#45;&gt;0</title>
<path fill="none" stroke="black" stroke-width="15" d="M2496.71,-2250.52C1977.44,-2306.16 -811.566,-2604.98 -1358.8,-2663.61"/>
<polygon fill="black" stroke="black" stroke-width="15" points="-1360.46,-2650.59 -1369.01,-2664.71 -1357.67,-2676.69 -1360.46,-2650.59"/>
</g>
<!-- 30&#45;&gt;53 -->
<g id="edge43" class="edge"><title>30&#45;&gt;53</title>
<path fill="none" stroke="blue" stroke-width="15" d="M-3314.77,3003.36C-3289.16,2772.86 -3217.31,2126.23 -3190.38,1883.78"/>
<polygon fill="blue" stroke="blue" stroke-width="15" points="-3203.39,1882.08 -3189.24,1873.59 -3177.3,1884.98 -3203.39,1882.08"/>
</g>
<!-- 31&#45;&gt;49 -->
<g id="edge41" class="edge"><title>31&#45;&gt;49</title>
<path fill="none" stroke="blue" stroke-width="15" d="M-2327.85,1297.32C-2354.46,1483.63 -2418.85,1934.35 -2446.75,2129.62"/>
<polygon fill="blue" stroke="blue" stroke-width="15" points="-2433.76,2131.53 -2448.17,2139.57 -2459.75,2127.82 -2433.76,2131.53"/>
</g>
<!-- 32&#45;&gt;9 -->
<g id="edge64" class="edge"><title>32&#45;&gt;9</title>
<path fill="none" stroke="green" stroke-width="15" d="M2606.41,2877.64C2631.25,2952.15 2668.39,3063.56 2694.26,3141.17"/>
<polygon fill="green" stroke="green" stroke-width="15" points="2706.8,3137.3 2697.51,3150.94 2681.9,3145.6 2706.8,3137.3"/>
</g>
<!-- 33&#45;&gt;38 -->
<g id="edge50" class="edge"><title>33&#45;&gt;38</title>
<path fill="none" stroke="red" stroke-width="15" d="M-360.512,-2961.6C-89.9602,-2961.6 761.566,-2961.6 1046.25,-2961.6"/>
<polygon fill="red" stroke="red" stroke-width="15" points="1046.55,-2974.73 1056.55,-2961.6 1046.55,-2948.48 1046.55,-2974.73"/>
</g>
<!-- 34&#45;&gt;0 -->
<g id="edge7" class="edge"><title>34&#45;&gt;0</title>
<path fill="none" stroke="blue" stroke-width="15" d="M-1174.38,-452.62C-1218.89,-808.718 -1393.52,-2205.77 -1440.38,-2580.61"/>
<polygon fill="blue" stroke="blue" stroke-width="15" points="-1453.41,-2579.06 -1441.63,-2590.61 -1427.36,-2582.31 -1453.41,-2579.06"/>
</g>
<!-- 35&#45;&gt;0 -->
<g id="edge28" class="edge"><title>35&#45;&gt;0</title>
<path fill="none" stroke="green" stroke-width="15" d="M785.222,-995.683C452.342,-1245.34 -1025.7,-2353.87 -1376.93,-2617.3"/>
<polygon fill="green" stroke="green" stroke-width="15" points="-1384.89,-2606.86 -1385.02,-2623.36 -1369.14,-2627.86 -1384.89,-2606.86"/>
</g>
<!-- 36&#45;&gt;48 -->
<g id="edge13" class="edge"><title>36&#45;&gt;48</title>
<path fill="none" stroke="red" stroke-width="15" d="M-1225.15,2932.04C-1016.17,2905.92 -468.656,2837.48 -249.076,2810.03"/>
<polygon fill="red" stroke="red" stroke-width="15" points="-250.422,2796.98 -238.871,2808.76 -247.165,2823.02 -250.422,2796.98"/>
</g>
<!-- 37&#45;&gt;29 -->
<g id="edge59" class="edge"><title>37&#45;&gt;29</title>
<path fill="none" stroke="black" stroke-width="15" d="M3222.26,-1984.69C3086.92,-2038.83 2808.95,-2150.02 2667.23,-2206.71"/>
<polygon fill="black" stroke="black" stroke-width="15" points="2662.09,-2194.63 2657.68,-2210.53 2671.84,-2219 2662.09,-2194.63"/>
</g>
<!-- 38&#45;&gt;52 -->
<g id="edge51" class="edge"><title>38&#45;&gt;52</title>
<path fill="none" stroke="red" stroke-width="15" d="M1073.08,-2911.41C964.915,-2830.29 752.379,-2670.88 639.16,-2585.97"/>
<polygon fill="red" stroke="red" stroke-width="15" points="646.725,-2575.24 630.85,-2579.74 630.975,-2596.24 646.725,-2575.24"/>
</g>
<!-- 39&#45;&gt;50 -->
<g id="edge35" class="edge"><title>39&#45;&gt;50</title>
<path fill="none" stroke="orange" stroke-width="15" d="M1200.23,-81.6C1200.17,-81.6 1200.11,-81.6 1200.05,-81.6"/>
<polygon fill="orange" stroke="orange" stroke-width="15" points="1209.87,-68.4804 1199.86,-81.6 1209.86,-94.7304 1209.87,-68.4804"/>
</g>
<!-- 40&#45;&gt;28 -->
<g id="edge10" class="edge"><title>40&#45;&gt;28</title>
<path fill="none" stroke="red" stroke-width="15" d="M-2304.93,-862.578C-2259.58,-522.422 -2088.1,763.614 -2040.39,1121.48"/>
<polygon fill="red" stroke="red" stroke-width="15" points="-2027.36,1119.9 -2039.05,1131.54 -2053.38,1123.37 -2027.36,1119.9"/>
</g>
<!-- 41&#45;&gt;33 -->
<g id="edge49" class="edge"><title>41&#45;&gt;33</title>
<path fill="none" stroke="red" stroke-width="15" d="M-1080.35,-2961.6C-945.144,-2961.6 -679.474,-2961.6 -537.95,-2961.6"/>
<polygon fill="red" stroke="red" stroke-width="15" points="-537.562,-2974.73 -527.562,-2961.6 -537.562,-2948.48 -537.562,-2974.73"/>
</g>
<!-- 42&#45;&gt;39 -->
<g id="edge34" class="edge"><title>42&#45;&gt;39</title>
<path fill="none" stroke="orange" stroke-width="15" d="M721.741,3291.96C799.758,2823.85 1186.42,503.891 1268.62,10.6836"/>
<polygon fill="orange" stroke="orange" stroke-width="15" points="1255.68,8.46628 1270.27,0.760185 1281.58,12.782 1255.68,8.46628"/>
</g>
<!-- 43&#45;&gt;55 -->
<g id="edge26" class="edge"><title>43&#45;&gt;55</title>
<path fill="none" stroke="green" stroke-width="15" d="M2673.92,1291.62C2424.26,958.742 1315.73,-519.299 1052.3,-870.532"/>
<polygon fill="green" stroke="green" stroke-width="15" points="1041.74,-862.743 1046.24,-878.618 1062.74,-878.493 1041.74,-862.743"/>
</g>
<!-- 44&#45;&gt;36 -->
<g id="edge12" class="edge"><title>44&#45;&gt;36</title>
<path fill="none" stroke="red" stroke-width="15" d="M-1842.58,2006.89C-1738.09,2189.75 -1464.33,2668.83 -1354.54,2860.96"/>
<polygon fill="red" stroke="red" stroke-width="15" points="-1343,2854.69 -1349.44,2869.89 -1365.79,2867.72 -1343,2854.69"/>
</g>
<!-- 45&#45;&gt;34 -->
<g id="edge6" class="edge"><title>45&#45;&gt;34</title>
<path fill="none" stroke="blue" stroke-width="15" d="M386.367,3153.96C180.396,2685.85 -908.923,210.12 -1126.26,-283.82"/>
<polygon fill="blue" stroke="blue" stroke-width="15" points="-1138.3,-278.603 -1130.31,-293.042 -1114.27,-289.175 -1138.3,-278.603"/>
</g>
<!-- 46&#45;&gt;40 -->
<g id="edge9" class="edge"><title>46&#45;&gt;40</title>
<path fill="none" stroke="red" stroke-width="15" d="M-2316,-1438.15C-2316,-1332.18 -2316,-1149.84 -2316,-1039.23"/>
<polygon fill="red" stroke="red" stroke-width="15" points="-2302.87,-1039.09 -2316,-1029.09 -2329.12,-1039.09 -2302.87,-1039.09"/>
</g>
<!-- 47&#45;&gt;23 -->
<g id="edge23" class="edge"><title>47&#45;&gt;23</title>
<path fill="none" stroke="green" stroke-width="15" d="M-423.75,-864.599C-397.13,-758.122 -350.5,-571.6 -322.71,-460.44"/>
<polygon fill="green" stroke="green" stroke-width="15" points="-309.939,-463.47 -320.246,-450.585 -335.405,-457.103 -309.939,-463.47"/>
</g>
<!-- 48&#45;&gt;0 -->
<g id="edge14" class="edge"><title>48&#45;&gt;0</title>
<path fill="none" stroke="red" stroke-width="15" d="M-175.263,2717.07C-322.952,2093.49 -1274.17,-1922.78 -1430.32,-2582.08"/>
<polygon fill="red" stroke="red" stroke-width="15" points="-1443.14,-2579.25 -1432.68,-2592.01 -1417.6,-2585.3 -1443.14,-2579.25"/>
</g>
<!-- 49&#45;&gt;30 -->
<g id="edge42" class="edge"><title>49&#45;&gt;30</title>
<path fill="none" stroke="blue" stroke-width="15" d="M-2519.05,2281.45C-2674.56,2436.96 -3094.66,2857.06 -3257.88,3020.28"/>
<polygon fill="blue" stroke="blue" stroke-width="15" points="-3248.64,3029.6 -3264.99,3027.39 -3267.2,3011.04 -3248.64,3029.6"/>
</g>
<!-- 50&#45;&gt;0 -->
<g id="edge36" class="edge"><title>50&#45;&gt;0</title>
<path fill="none" stroke="orange" stroke-width="15" d="M1080.99,-140.608C735.613,-485.987 -1021.23,-2242.83 -1385.73,-2607.33"/>
<polygon fill="orange" stroke="orange" stroke-width="15" points="-1395.01,-2598.05 -1392.8,-2614.4 -1376.45,-2616.61 -1395.01,-2598.05"/>
</g>
<!-- 51&#45;&gt;12 -->
<g id="edge66" class="edge"><title>51&#45;&gt;12</title>
<path fill="none" stroke="green" stroke-width="15" d="M3444,3578.91C3444,3308.36 3444,2456.83 3444,2172.15"/>
<polygon fill="green" stroke="green" stroke-width="15" points="3430.88,2171.85 3444,2161.85 3457.13,2171.85 3430.88,2171.85"/>
</g>
<!-- 52&#45;&gt;0 -->
<g id="edge52" class="edge"><title>52&#45;&gt;0</title>
<path fill="none" stroke="red" stroke-width="15" d="M480.578,-2535.56C156.531,-2558.71 -1017.52,-2642.57 -1358.52,-2666.92"/>
<polygon fill="red" stroke="red" stroke-width="15" points="-1359.57,-2653.84 -1368.61,-2667.64 -1357.7,-2680.02 -1359.57,-2653.84"/>
</g>
<!-- 53&#45;&gt;21 -->
<g id="edge44" class="edge"><title>53&#45;&gt;21</title>
<path fill="none" stroke="blue" stroke-width="15" d="M-3180,1706.94C-3180,1400.12 -3180,335.755 -3180,12.3358"/>
<polygon fill="blue" stroke="blue" stroke-width="15" points="-3193.12,12.0641 -3180,2.06398 -3166.87,12.0638 -3193.12,12.0641"/>
</g>
<!-- 54&#45;&gt;5 -->
<g id="edge32" class="edge"><title>54&#45;&gt;5</title>
<path fill="none" stroke="orange" stroke-width="15" d="M47.4017,3459C53.4156,3452.98 59.5505,3446.85 65.6315,3440.77"/>
<polygon fill="orange" stroke="orange" stroke-width="15" points="56.3829,3431.46 72.7348,3433.67 74.9445,3450.02 56.3829,3431.46"/>
</g>
<!-- 55&#45;&gt;35 -->
<g id="edge27" class="edge"><title>55&#45;&gt;35</title>
<path fill="none" stroke="green" stroke-width="15" d="M912.235,-945.6C912.173,-945.6 912.111,-945.6 912.049,-945.6"/>
<polygon fill="green" stroke="green" stroke-width="15" points="921.871,-932.48 911.863,-945.6 921.856,-958.73 921.871,-932.48"/>
</g>
<!-- 56&#45;&gt;43 -->
<g id="edge25" class="edge"><title>56&#45;&gt;43</title>
<path fill="none" stroke="green" stroke-width="15" d="M2724,1418.63C2724,1418.57 2724,1418.51 2724,1418.45"/>
<polygon fill="green" stroke="green" stroke-width="15" points="2710.88,1428.27 2724,1418.26 2737.13,1428.26 2710.88,1428.27"/>
</g>
<!-- 57&#45;&gt;37 -->
<g id="edge58" class="edge"><title>57&#45;&gt;37</title>
<path fill="none" stroke="black" stroke-width="15" d="M3086.92,-1847.06C3126.51,-1866.85 3175.22,-1891.21 3216.08,-1911.64"/>
<polygon fill="black" stroke="black" stroke-width="15" points="3210.39,-1923.47 3225.21,-1916.2 3222.13,-1899.99 3210.39,-1923.47"/>
</g>
<!-- 58&#45;&gt;32 -->
<g id="edge63" class="edge"><title>58&#45;&gt;32</title>
<path fill="none" stroke="green" stroke-width="15" d="M-90.3969,690.192C280.769,983.217 2114.73,2431.08 2506.34,2740.25"/>
<polygon fill="green" stroke="green" stroke-width="15" points="2514.51,2729.97 2514.22,2746.47 2498.24,2750.58 2514.51,2729.97"/>
</g>
<!-- 59&#45;&gt;18 -->
<g id="edge20" class="edge"><title>59&#45;&gt;18</title>
<path fill="none" stroke="black" stroke-width="15" d="M1200.3,-2673.6C843.268,-2673.6 -551.084,-2673.6 -926.482,-2673.6"/>
<polygon fill="black" stroke="black" stroke-width="15" points="-926.492,-2660.48 -936.492,-2673.6 -926.492,-2686.73 -926.492,-2660.48"/>
</g>
<!-- 0 -->
<g id="node1" class="node"><title>0</title>
<ellipse fill="white" stroke="black" stroke-width="15" cx="-1452" cy="-2673.6" rx="83.3772" ry="83.3772"/>
<text text-anchor="middle" x="-1452" y="-2648.6" font-family="Times,serif" font-size="100.00">0</text>
</g>
<!-- 1 -->
<g id="node2" class="node"><title>1</title>
<ellipse fill="white" stroke="black" stroke-width="15" cx="-1020" cy="2078.4" rx="83.3772" ry="83.3772"/>
<text text-anchor="middle" x="-1020" y="2103.4" font-family="Times,serif" font-size="100.00">1</text>
</g>
<!-- 2 -->
<g id="node3" class="node"><title>2</title>
<ellipse fill="white" stroke="black" stroke-width="15" cx="-1308" cy="1214.4" rx="83.3772" ry="83.3772"/>
<text text-anchor="middle" x="-1308" y="1239.4" font-family="Times,serif" font-size="100.00">2</text>
</g>
<!-- 3 -->
<g id="node4" class="node"><title>3</title>
<ellipse fill="white" stroke="black" stroke-width="15" cx="-2892" cy="-1809.6" rx="83.3772" ry="83.3772"/>
<text text-anchor="middle" x="-2892" y="-1784.6" font-family="Times,serif" font-size="100.00">3</text>
</g>
<!-- 4 -->
<g id="node5" class="node"><title>4</title>
<ellipse fill="white" stroke="black" stroke-width="15" cx="-3324" cy="-225.6" rx="83.3772" ry="83.3772"/>
<text text-anchor="middle" x="-3324" y="-200.6" font-family="Times,serif" font-size="100.00">4</text>
</g>
<!-- 5 -->
<g id="node6" class="node"><title>5</title>
<ellipse fill="white" stroke="black" stroke-width="15" cx="132" cy="3374.4" rx="83.3772" ry="83.3772"/>
<text text-anchor="middle" x="132" y="3399.4" font-family="Times,serif" font-size="100.00">5</text>
</g>
<!-- 6 -->
<g id="node7" class="node"><title>6</title>
<ellipse fill="white" stroke="black" stroke-width="15" cx="-1884" cy="206.4" rx="83.3772" ry="83.3772"/>
<text text-anchor="middle" x="-1884" y="231.4" font-family="Times,serif" font-size="100.00">6</text>
</g>
<!-- 7 -->
<g id="node8" class="node"><title>7</title>
<ellipse fill="white" stroke="black" stroke-width="15" cx="2292" cy="-2385.6" rx="83.3772" ry="83.3772"/>
<text text-anchor="middle" x="2292" y="-2360.6" font-family="Times,serif" font-size="100.00">7</text>
</g>
<!-- 8 -->
<g id="node9" class="node"><title>8</title>
<ellipse fill="white" stroke="black" stroke-width="15" cx="2436" cy="-1953.6" rx="83.3772" ry="83.3772"/>
<text text-anchor="middle" x="2436" y="-1928.6" font-family="Times,serif" font-size="100.00">8</text>
</g>
<!-- 9 -->
<g id="node10" class="node"><title>9</title>
<ellipse fill="white" stroke="black" stroke-width="15" cx="2724" cy="3230.4" rx="83.3772" ry="83.3772"/>
<text text-anchor="middle" x="2724" y="3255.4" font-family="Times,serif" font-size="100.00">9</text>
</g>
<!-- 10 -->
<g id="node11" class="node"><title>10</title>
<ellipse fill="white" stroke="black" stroke-width="15" cx="-156" cy="3374.4" rx="83.3772" ry="83.3772"/>
<text text-anchor="middle" x="-156" y="3399.4" font-family="Times,serif" font-size="100.00">10</text>
</g>
<!-- 11 -->
<g id="node12" class="node"><title>11</title>
<ellipse fill="white" stroke="black" stroke-width="15" cx="-2892" cy="-657.6" rx="83.3772" ry="83.3772"/>
<text text-anchor="middle" x="-2892" y="-632.6" font-family="Times,serif" font-size="100.00">11</text>
</g>
<!-- 12 -->
<g id="node13" class="node"><title>12</title>
<ellipse fill="white" stroke="black" stroke-width="15" cx="3444" cy="2078.4" rx="83.3772" ry="83.3772"/>
<text text-anchor="middle" x="3444" y="2103.4" font-family="Times,serif" font-size="100.00">12</text>
</g>
<!-- 13 -->
<g id="node14" class="node"><title>13</title>
<ellipse fill="white" stroke="black" stroke-width="15" cx="2436" cy="-2097.6" rx="83.3772" ry="83.3772"/>
<text text-anchor="middle" x="2436" y="-2072.6" font-family="Times,serif" font-size="100.00">13</text>
</g>
<!-- 14 -->
<g id="node15" class="node"><title>14</title>
<ellipse fill="white" stroke="black" stroke-width="15" cx="-732" cy="-1809.6" rx="83.3772" ry="83.3772"/>
<text text-anchor="middle" x="-732" y="-1784.6" font-family="Times,serif" font-size="100.00">14</text>
</g>
<!-- 15 -->
<g id="node16" class="node"><title>15</title>
<ellipse fill="white" stroke="black" stroke-width="15" cx="1572" cy="-945.6" rx="83.3772" ry="83.3772"/>
<text text-anchor="middle" x="1572" y="-920.6" font-family="Times,serif" font-size="100.00">15</text>
</g>
<!-- 16 -->
<g id="node17" class="node"><title>16</title>
<ellipse fill="white" stroke="black" stroke-width="15" cx="-2316" cy="-2817.6" rx="83.3772" ry="83.3772"/>
<text text-anchor="middle" x="-2316" y="-2792.6" font-family="Times,serif" font-size="100.00">16</text>
</g>
<!-- 17 -->
<g id="node18" class="node"><title>17</title>
<ellipse fill="white" stroke="black" stroke-width="15" cx="3012" cy="-1377.6" rx="83.3772" ry="83.3772"/>
<text text-anchor="middle" x="3012" y="-1352.6" font-family="Times,serif" font-size="100.00">17</text>
</g>
<!-- 18 -->
<g id="node19" class="node"><title>18</title>
<ellipse fill="white" stroke="black" stroke-width="15" cx="-1020" cy="-2673.6" rx="83.3772" ry="83.3772"/>
<text text-anchor="middle" x="-1020" y="-2648.6" font-family="Times,serif" font-size="100.00">18</text>
</g>
<!-- 19 -->
<g id="node20" class="node"><title>19</title>
<ellipse fill="white" stroke="black" stroke-width="15" cx="708" cy="-1953.6" rx="83.3772" ry="83.3772"/>
<text text-anchor="middle" x="708" y="-1928.6" font-family="Times,serif" font-size="100.00">19</text>
</g>
<!-- 20 -->
<g id="node21" class="node"><title>20</title>
<ellipse fill="white" stroke="black" stroke-width="15" cx="-2604" cy="-2817.6" rx="83.3772" ry="83.3772"/>
<text text-anchor="middle" x="-2604" y="-2792.6" font-family="Times,serif" font-size="100.00">20</text>
</g>
<!-- 21 -->
<g id="node22" class="node"><title>21</title>
<ellipse fill="white" stroke="black" stroke-width="15" cx="-3180" cy="-81.6" rx="83.3772" ry="83.3772"/>
<text text-anchor="middle" x="-3180" y="-56.6" font-family="Times,serif" font-size="100.00">21</text>
</g>
<!-- 22 -->
<g id="node23" class="node"><title>22</title>
<ellipse fill="white" stroke="black" stroke-width="15" cx="-156" cy="3230.4" rx="83.3772" ry="83.3772"/>
<text text-anchor="middle" x="-156" y="3255.4" font-family="Times,serif" font-size="100.00">22</text>
</g>
<!-- 23 -->
<g id="node24" class="node"><title>23</title>
<ellipse fill="white" stroke="black" stroke-width="15" cx="-300" cy="-369.6" rx="83.3772" ry="83.3772"/>
<text text-anchor="middle" x="-300" y="-344.6" font-family="Times,serif" font-size="100.00">23</text>
</g>
<!-- 24 -->
<g id="node25" class="node"><title>24</title>
<ellipse fill="white" stroke="black" stroke-width="15" cx="-876" cy="926.4" rx="83.3772" ry="83.3772"/>
<text text-anchor="middle" x="-876" y="951.4" font-family="Times,serif" font-size="100.00">24</text>
</g>
<!-- 25 -->
<g id="node26" class="node"><title>25</title>
<ellipse fill="white" stroke="black" stroke-width="15" cx="-2028" cy="-1953.6" rx="83.3772" ry="83.3772"/>
<text text-anchor="middle" x="-2028" y="-1928.6" font-family="Times,serif" font-size="100.00">25</text>
</g>
<!-- 26 -->
<g id="node27" class="node"><title>26</title>
<ellipse fill="white" stroke="black" stroke-width="15" cx="2580" cy="-945.6" rx="83.3772" ry="83.3772"/>
<text text-anchor="middle" x="2580" y="-920.6" font-family="Times,serif" font-size="100.00">26</text>
</g>
<!-- 27 -->
<g id="node28" class="node"><title>27</title>
<ellipse fill="white" stroke="black" stroke-width="15" cx="2724" cy="-1521.6" rx="83.3772" ry="83.3772"/>
<text text-anchor="middle" x="2724" y="-1496.6" font-family="Times,serif" font-size="100.00">27</text>
</g>
<!-- 28 -->
<g id="node29" class="node"><title>28</title>
<ellipse fill="white" stroke="black" stroke-width="15" cx="-2028" cy="1214.4" rx="83.3772" ry="83.3772"/>
<text text-anchor="middle" x="-2028" y="1239.4" font-family="Times,serif" font-size="100.00">28</text>
</g>
<!-- 29 -->
<g id="node30" class="node"><title>29</title>
<ellipse fill="white" stroke="black" stroke-width="15" cx="2580" cy="-2241.6" rx="83.3772" ry="83.3772"/>
<text text-anchor="middle" x="2580" y="-2216.6" font-family="Times,serif" font-size="100.00">29</text>
</g>
<!-- 30 -->
<g id="node31" class="node"><title>30</title>
<ellipse fill="white" stroke="black" stroke-width="15" cx="-3324" cy="3086.4" rx="83.3772" ry="83.3772"/>
<text text-anchor="middle" x="-3324" y="3111.4" font-family="Times,serif" font-size="100.00">30</text>
</g>
<!-- 31 -->
<g id="node32" class="node"><title>31</title>
<ellipse fill="white" stroke="black" stroke-width="15" cx="-2316" cy="1214.4" rx="83.3772" ry="83.3772"/>
<text text-anchor="middle" x="-2316" y="1239.4" font-family="Times,serif" font-size="100.00">31</text>
</g>
<!-- 32 -->
<g id="node33" class="node"><title>32</title>
<ellipse fill="white" stroke="black" stroke-width="15" cx="2580" cy="2798.4" rx="83.3772" ry="83.3772"/>
<text text-anchor="middle" x="2580" y="2823.4" font-family="Times,serif" font-size="100.00">32</text>
</g>
<!-- 33 -->
<g id="node34" class="node"><title>33</title>
<ellipse fill="white" stroke="black" stroke-width="15" cx="-444" cy="-2961.6" rx="83.3772" ry="83.3772"/>
<text text-anchor="middle" x="-444" y="-2936.6" font-family="Times,serif" font-size="100.00">33</text>
</g>
<!-- 34 -->
<g id="node35" class="node"><title>34</title>
<ellipse fill="white" stroke="black" stroke-width="15" cx="-1164" cy="-369.6" rx="83.3772" ry="83.3772"/>
<text text-anchor="middle" x="-1164" y="-344.6" font-family="Times,serif" font-size="100.00">34</text>
</g>
<!-- 35 -->
<g id="node36" class="node"><title>35</title>
<ellipse fill="white" stroke="black" stroke-width="15" cx="852" cy="-945.6" rx="83.3772" ry="83.3772"/>
<text text-anchor="middle" x="852" y="-920.6" font-family="Times,serif" font-size="100.00">35</text>
</g>
<!-- 36 -->
<g id="node37" class="node"><title>36</title>
<ellipse fill="white" stroke="black" stroke-width="15" cx="-1308" cy="2942.4" rx="83.3772" ry="83.3772"/>
<text text-anchor="middle" x="-1308" y="2967.4" font-family="Times,serif" font-size="100.00">36</text>
</g>
<!-- 37 -->
<g id="node38" class="node"><title>37</title>
<ellipse fill="white" stroke="black" stroke-width="15" cx="3300" cy="-1953.6" rx="83.3772" ry="83.3772"/>
<text text-anchor="middle" x="3300" y="-1928.6" font-family="Times,serif" font-size="100.00">37</text>
</g>
<!-- 38 -->
<g id="node39" class="node"><title>38</title>
<ellipse fill="white" stroke="black" stroke-width="15" cx="1140" cy="-2961.6" rx="83.3772" ry="83.3772"/>
<text text-anchor="middle" x="1140" y="-2936.6" font-family="Times,serif" font-size="100.00">38</text>
</g>
<!-- 39 -->
<g id="node40" class="node"><title>39</title>
<ellipse fill="white" stroke="black" stroke-width="15" cx="1284" cy="-81.6" rx="83.3772" ry="83.3772"/>
<text text-anchor="middle" x="1284" y="-56.6" font-family="Times,serif" font-size="100.00">39</text>
</g>
<!-- 40 -->
<g id="node41" class="node"><title>40</title>
<ellipse fill="white" stroke="black" stroke-width="15" cx="-2316" cy="-945.6" rx="83.3772" ry="83.3772"/>
<text text-anchor="middle" x="-2316" y="-920.6" font-family="Times,serif" font-size="100.00">40</text>
</g>
<!-- 41 -->
<g id="node42" class="node"><title>41</title>
<ellipse fill="white" stroke="black" stroke-width="15" cx="-1164" cy="-2961.6" rx="83.3772" ry="83.3772"/>
<text text-anchor="middle" x="-1164" y="-2936.6" font-family="Times,serif" font-size="100.00">41</text>
</g>
<!-- 42 -->
<g id="node43" class="node"><title>42</title>
<ellipse fill="white" stroke="black" stroke-width="15" cx="708" cy="3374.4" rx="83.3772" ry="83.3772"/>
<text text-anchor="middle" x="708" y="3399.4" font-family="Times,serif" font-size="100.00">42</text>
</g>
<!-- 43 -->
<g id="node44" class="node"><title>43</title>
<ellipse fill="white" stroke="black" stroke-width="15" cx="2724" cy="1358.4" rx="83.3772" ry="83.3772"/>
<text text-anchor="middle" x="2724" y="1383.4" font-family="Times,serif" font-size="100.00">43</text>
</g>
<!-- 44 -->
<g id="node45" class="node"><title>44</title>
<ellipse fill="white" stroke="black" stroke-width="15" cx="-1884" cy="1934.4" rx="83.3772" ry="83.3772"/>
<text text-anchor="middle" x="-1884" y="1959.4" font-family="Times,serif" font-size="100.00">44</text>
</g>
<!-- 45 -->
<g id="node46" class="node"><title>45</title>
<ellipse fill="white" stroke="black" stroke-width="15" cx="420" cy="3230.4" rx="83.3772" ry="83.3772"/>
<text text-anchor="middle" x="420" y="3255.4" font-family="Times,serif" font-size="100.00">45</text>
</g>
<!-- 46 -->
<g id="node47" class="node"><title>46</title>
<ellipse fill="white" stroke="black" stroke-width="15" cx="-2316" cy="-1521.6" rx="83.3772" ry="83.3772"/>
<text text-anchor="middle" x="-2316" y="-1496.6" font-family="Times,serif" font-size="100.00">46</text>
</g>
<!-- 47 -->
<g id="node48" class="node"><title>47</title>
<ellipse fill="white" stroke="black" stroke-width="15" cx="-444" cy="-945.6" rx="83.3772" ry="83.3772"/>
<text text-anchor="middle" x="-444" y="-920.6" font-family="Times,serif" font-size="100.00">47</text>
</g>
<!-- 48 -->
<g id="node49" class="node"><title>48</title>
<ellipse fill="white" stroke="black" stroke-width="15" cx="-156" cy="2798.4" rx="83.3772" ry="83.3772"/>
<text text-anchor="middle" x="-156" y="2823.4" font-family="Times,serif" font-size="100.00">48</text>
</g>
<!-- 49 -->
<g id="node50" class="node"><title>49</title>
<ellipse fill="white" stroke="black" stroke-width="15" cx="-2460" cy="2222.4" rx="83.3772" ry="83.3772"/>
<text text-anchor="middle" x="-2460" y="2247.4" font-family="Times,serif" font-size="100.00">49</text>
</g>
<!-- 50 -->
<g id="node51" class="node"><title>50</title>
<ellipse fill="white" stroke="black" stroke-width="15" cx="1140" cy="-81.6" rx="83.3772" ry="83.3772"/>
<text text-anchor="middle" x="1140" y="-56.6" font-family="Times,serif" font-size="100.00">50</text>
</g>
<!-- 51 -->
<g id="node52" class="node"><title>51</title>
<ellipse fill="white" stroke="black" stroke-width="15" cx="3444" cy="3662.4" rx="83.3772" ry="83.3772"/>
<text text-anchor="middle" x="3444" y="3687.4" font-family="Times,serif" font-size="100.00">51</text>
</g>
<!-- 52 -->
<g id="node53" class="node"><title>52</title>
<ellipse fill="white" stroke="black" stroke-width="15" cx="564" cy="-2529.6" rx="83.3772" ry="83.3772"/>
<text text-anchor="middle" x="564" y="-2504.6" font-family="Times,serif" font-size="100.00">52</text>
</g>
<!-- 53 -->
<g id="node54" class="node"><title>53</title>
<ellipse fill="white" stroke="black" stroke-width="15" cx="-3180" cy="1790.4" rx="83.3772" ry="83.3772"/>
<text text-anchor="middle" x="-3180" y="1815.4" font-family="Times,serif" font-size="100.00">53</text>
</g>
<!-- 54 -->
<g id="node55" class="node"><title>54</title>
<ellipse fill="white" stroke="black" stroke-width="15" cx="-12" cy="3518.4" rx="83.3772" ry="83.3772"/>
<text text-anchor="middle" x="-12" y="3543.4" font-family="Times,serif" font-size="100.00">54</text>
</g>
<!-- 55 -->
<g id="node56" class="node"><title>55</title>
<ellipse fill="white" stroke="black" stroke-width="15" cx="996" cy="-945.6" rx="83.3772" ry="83.3772"/>
<text text-anchor="middle" x="996" y="-920.6" font-family="Times,serif" font-size="100.00">55</text>
</g>
<!-- 56 -->
<g id="node57" class="node"><title>56</title>
<ellipse fill="white" stroke="black" stroke-width="15" cx="2724" cy="1502.4" rx="83.3772" ry="83.3772"/>
<text text-anchor="middle" x="2724" y="1527.4" font-family="Times,serif" font-size="100.00">56</text>
</g>
<!-- 57 -->
<g id="node58" class="node"><title>57</title>
<ellipse fill="white" stroke="black" stroke-width="15" cx="3012" cy="-1809.6" rx="83.3772" ry="83.3772"/>
<text text-anchor="middle" x="3012" y="-1784.6" font-family="Times,serif" font-size="100.00">57</text>
</g>
<!-- 58 -->
<g id="node59" class="node"><title>58</title>
<ellipse fill="white" stroke="black" stroke-width="15" cx="-156" cy="638.4" rx="83.3772" ry="83.3772"/>
<text text-anchor="middle" x="-156" y="663.4" font-family="Times,serif" font-size="100.00">58</text>
</g>
<!-- 59 -->
<g id="node60" class="node"><title>59</title>
<ellipse fill="white" stroke="black" stroke-width="15" cx="1284" cy="-2673.6" rx="83.3772" ry="83.3772"/>
<text text-anchor="middle" x="1284" y="-2648.6" font-family="Times,serif" font-size="100.00">59</text>
</g>
</g>
</svg>
