<?xml version="1.0" encoding="UTF-8" standalone="no"?>
<!DOCTYPE svg PUBLIC "-//W3C//DTD SVG 1.1//EN"
 "http://www.w3.org/Graphics/SVG/1.1/DTD/svg11.dtd">
<!-- Generated by graphviz version 2.38.0 (20140413.2041)
 -->
<!-- Title: g Pages: 1 -->
<svg width="7375pt" height="7254pt"
 viewBox="216.00 216.00 7158.88 7037.88" xmlns="http://www.w3.org/2000/svg" xmlns:xlink="http://www.w3.org/1999/xlink">
<g id="graph0" class="graph" transform="scale(1 1) rotate(0) translate(3627.44 3288.04)">
<title>g</title>
<polygon fill="white" stroke="none" points="-3411.44,3749.84 -3411.44,-3072.04 3531.44,-3072.04 3531.44,3749.84 -3411.44,3749.84"/>
<text text-anchor="middle" x="59.9999" y="-3052.84" font-family="Times,serif" font-size="14.00">data02&#45;tabou (cost = 1546)</text>
<!-- 0&#45;&gt;14 -->
<g id="edge1" class="edge"><title>0&#45;&gt;14</title>
<path fill="none" stroke="blue" stroke-width="15" d="M-1398.47,-2609.37C-1267.18,-2451.82 -929.885,-2047.06 -792.048,-1881.66"/>
<polygon fill="blue" stroke="blue" stroke-width="15" points="-781.955,-1890.05 -785.636,-1873.96 -802.121,-1873.24 -781.955,-1890.05"/>
</g>
<!-- 0&#45;&gt;16 -->
<g id="edge21" class="edge"><title>0&#45;&gt;16</title>
<path fill="none" stroke="black" stroke-width="15" d="M-1534.45,-2687.34C-1696.26,-2714.31 -2054.33,-2773.99 -2223.73,-2802.22"/>
<polygon fill="black" stroke="black" stroke-width="15" points="-2225.92,-2789.28 -2233.63,-2803.87 -2221.61,-2815.17 -2225.92,-2789.28"/>
</g>
<!-- 0&#45;&gt;18 -->
<g id="edge62" class="edge"><title>0&#45;&gt;18</title>
<path fill="none" stroke="green" stroke-width="15" d="M-1368.45,-2673.6C-1295.45,-2673.6 -1189.57,-2673.6 -1113.7,-2673.6"/>
<polygon fill="green" stroke="green" stroke-width="15" points="-1113.67,-2686.73 -1103.67,-2673.6 -1113.67,-2660.48 -1113.67,-2686.73"/>
</g>
<!-- 0&#45;&gt;19 -->
<g id="edge29" class="edge"><title>0&#45;&gt;19</title>
<path fill="none" stroke="green" stroke-width="15" d="M-1372.56,-2647.12C-1036.72,-2535.17 265.504,-2101.1 619.018,-1983.26"/>
<polygon fill="green" stroke="green" stroke-width="15" points="623.362,-1995.65 628.698,-1980.03 615.061,-1970.74 623.362,-1995.65"/>
</g>
<!-- 0&#45;&gt;24 -->
<g id="edge41" class="edge"><title>0&#45;&gt;24</title>
<path fill="none" stroke="blue" stroke-width="15" d="M-1438.75,-2590.78C-1361.7,-2109.25 -972.032,326.201 -890.837,833.669"/>
<polygon fill="blue" stroke="blue" stroke-width="15" points="-877.824,831.924 -889.204,843.873 -903.745,836.072 -877.824,831.924"/>
</g>
<!-- 0&#45;&gt;35 -->
<g id="edge11" class="edge"><title>0&#45;&gt;35</title>
<path fill="none" stroke="red" stroke-width="15" d="M-1385.22,-2623.52C-1052.34,-2373.86 425.699,-1265.33 776.932,-1001.9"/>
<polygon fill="red" stroke="red" stroke-width="15" points="784.893,-1012.34 785.018,-995.836 769.143,-991.336 784.893,-1012.34"/>
</g>
<!-- 0&#45;&gt;41 -->
<g id="edge37" class="edge"><title>0&#45;&gt;41</title>
<path fill="none" stroke="orange" stroke-width="15" d="M-1392.68,-2732.92C-1345.43,-2780.17 -1279.34,-2846.26 -1230.35,-2895.25"/>
<polygon fill="orange" stroke="orange" stroke-width="15" points="-1239.6,-2904.56 -1223.25,-2902.35 -1221.04,-2886 -1239.6,-2904.56"/>
</g>
<!-- 0&#45;&gt;46 -->
<g id="edge49" class="edge"><title>0&#45;&gt;46</title>
<path fill="none" stroke="red" stroke-width="15" d="M-1502.19,-2606.68C-1652.88,-2405.76 -2100.76,-1808.58 -2259.47,-1596.97"/>
<polygon fill="red" stroke="red" stroke-width="15" points="-2249.17,-1588.83 -2265.67,-1588.7 -2270.17,-1604.58 -2249.17,-1588.83"/>
</g>
<!-- 0&#45;&gt;47 -->
<g id="edge56" class="edge"><title>0&#45;&gt;47</title>
<path fill="none" stroke="black" stroke-width="15" d="M-1409.81,-2601.28C-1247.32,-2322.71 -662.522,-1320.21 -491.371,-1026.81"/>
<polygon fill="black" stroke="black" stroke-width="15" points="-479.888,-1033.17 -486.186,-1017.92 -502.562,-1019.94 -479.888,-1033.17"/>
</g>
<!-- 1&#45;&gt;45 -->
<g id="edge54" class="edge"><title>1&#45;&gt;45</title>
<path fill="none" stroke="red" stroke-width="15" d="M-954.384,2130.89C-716.799,2320.96 97.6243,2972.5 346.905,3171.92"/>
<polygon fill="red" stroke="red" stroke-width="15" points="355.215,3161.76 354.824,3178.26 338.816,3182.26 355.215,3161.76"/>
</g>
<!-- 2&#45;&gt;48 -->
<g id="edge27" class="edge"><title>2&#45;&gt;48</title>
<path fill="none" stroke="black" stroke-width="15" d="M-1258.87,1281.96C-1072.27,1538.53 -408.121,2451.73 -211.333,2722.32"/>
<polygon fill="black" stroke="black" stroke-width="15" points="-200.635,2714.71 -205.368,2730.52 -221.865,2730.15 -200.635,2714.71"/>
</g>
<!-- 3&#45;&gt;11 -->
<g id="edge24" class="edge"><title>3&#45;&gt;11</title>
<path fill="none" stroke="black" stroke-width="15" d="M-2892,-1725.82C-2892,-1516.35 -2892,-970.922 -2892,-751.273"/>
<polygon fill="black" stroke="black" stroke-width="15" points="-2878.87,-751.063 -2892,-741.063 -2905.12,-751.063 -2878.87,-751.063"/>
</g>
<!-- 4&#45;&gt;21 -->
<g id="edge51" class="edge"><title>4&#45;&gt;21</title>
<path fill="none" stroke="red" stroke-width="15" d="M-3264.6,-166.198C-3258.58,-160.184 -3252.45,-154.05 -3246.37,-147.969"/>
<polygon fill="red" stroke="red" stroke-width="15" points="-3237.06,-157.217 -3239.27,-140.865 -3255.62,-138.655 -3237.06,-157.217"/>
</g>
<!-- 5&#45;&gt;42 -->
<g id="edge47" class="edge"><title>5&#45;&gt;42</title>
<path fill="none" stroke="blue" stroke-width="15" d="M215.448,3374.4C321.419,3374.4 503.757,3374.4 614.369,3374.4"/>
<polygon fill="blue" stroke="blue" stroke-width="15" points="614.514,3361.27 624.514,3374.4 614.514,3387.52 614.514,3361.27"/>
</g>
<!-- 6&#45;&gt;2 -->
<g id="edge26" class="edge"><title>6&#45;&gt;2</title>
<path fill="none" stroke="black" stroke-width="15" d="M-1842.58,278.893C-1738.09,461.748 -1464.33,940.826 -1354.54,1132.96"/>
<polygon fill="black" stroke="black" stroke-width="15" points="-1343,1126.69 -1349.44,1141.89 -1365.79,1139.72 -1343,1126.69"/>
</g>
<!-- 7&#45;&gt;29 -->
<g id="edge66" class="edge"><title>7&#45;&gt;29</title>
<path fill="none" stroke="green" stroke-width="15" d="M2366.92,-2348.14C2406.51,-2328.35 2455.22,-2303.99 2496.08,-2283.56"/>
<polygon fill="green" stroke="green" stroke-width="15" points="2502.13,-2295.21 2505.21,-2279 2490.39,-2271.73 2502.13,-2295.21"/>
</g>
<!-- 8&#45;&gt;0 -->
<g id="edge36" class="edge"><title>8&#45;&gt;0</title>
<path fill="none" stroke="green" stroke-width="15" d="M2353.9,-1968.8C1849.35,-2062.24 -827.027,-2557.86 -1359.74,-2656.52"/>
<polygon fill="green" stroke="green" stroke-width="15" points="-1362.24,-2643.63 -1369.69,-2658.36 -1357.46,-2669.44 -1362.24,-2643.63"/>
</g>
<!-- 9&#45;&gt;51 -->
<g id="edge5" class="edge"><title>9&#45;&gt;51</title>
<path fill="none" stroke="blue" stroke-width="15" d="M2795.67,3273.4C2930.76,3354.46 3222.18,3529.31 3363.67,3614.2"/>
<polygon fill="blue" stroke="blue" stroke-width="15" points="3370.53,3603.01 3372.35,3619.41 3357.03,3625.52 3370.53,3603.01"/>
</g>
<!-- 10&#45;&gt;54 -->
<g id="edge45" class="edge"><title>10&#45;&gt;54</title>
<path fill="none" stroke="blue" stroke-width="15" d="M-96.5983,3433.8C-90.5844,3439.82 -84.4495,3445.95 -78.3685,3452.03"/>
<polygon fill="blue" stroke="blue" stroke-width="15" points="-69.0555,3442.78 -71.2652,3459.13 -87.6171,3461.34 -69.0555,3442.78"/>
</g>
<!-- 11&#45;&gt;6 -->
<g id="edge25" class="edge"><title>11&#45;&gt;6</title>
<path fill="none" stroke="black" stroke-width="15" d="M-2828.56,-603.226C-2649.86,-450.053 -2143.11,-15.6976 -1955.24,145.34"/>
<polygon fill="black" stroke="black" stroke-width="15" points="-1946.66,135.404 -1947.61,151.877 -1963.74,155.335 -1946.66,135.404"/>
</g>
<!-- 12&#45;&gt;15 -->
<g id="edge7" class="edge"><title>12&#45;&gt;15</title>
<path fill="none" stroke="blue" stroke-width="15" d="M3400.03,2007.37C3147.88,1600.05 1887.57,-435.825 1621.41,-865.78"/>
<polygon fill="blue" stroke="blue" stroke-width="15" points="1610.16,-859.017 1616.06,-874.428 1632.48,-872.834 1610.16,-859.017"/>
</g>
<!-- 13&#45;&gt;0 -->
<g id="edge68" class="edge"><title>13&#45;&gt;0</title>
<path fill="none" stroke="green" stroke-width="15" d="M2353.45,-2109.83C1847.88,-2184.73 -825.903,-2580.84 -1359.36,-2659.88"/>
<polygon fill="green" stroke="green" stroke-width="15" points="-1361.35,-2646.9 -1369.32,-2661.35 -1357.5,-2672.87 -1361.35,-2646.9"/>
</g>
<!-- 14&#45;&gt;50 -->
<g id="edge2" class="edge"><title>14&#45;&gt;50</title>
<path fill="none" stroke="blue" stroke-width="15" d="M-670.514,-1752.84C-389.282,-1493.24 773.537,-419.873 1070.64,-145.628"/>
<polygon fill="blue" stroke="blue" stroke-width="15" points="1079.89,-154.95 1078.33,-138.523 1062.08,-135.661 1079.89,-154.95"/>
</g>
<!-- 15&#45;&gt;52 -->
<g id="edge8" class="edge"><title>15&#45;&gt;52</title>
<path fill="none" stroke="blue" stroke-width="15" d="M1527.06,-1016.22C1361.8,-1275.91 788.402,-2176.97 614.432,-2450.35"/>
<polygon fill="blue" stroke="blue" stroke-width="15" points="603.202,-2443.55 608.907,-2459.03 625.348,-2457.64 603.202,-2443.55"/>
</g>
<!-- 16&#45;&gt;20 -->
<g id="edge22" class="edge"><title>16&#45;&gt;20</title>
<path fill="none" stroke="black" stroke-width="15" d="M-2399.69,-2817.6C-2434.15,-2817.6 -2474.24,-2817.6 -2509.74,-2817.6"/>
<polygon fill="black" stroke="black" stroke-width="15" points="-2510.1,-2804.48 -2520.1,-2817.6 -2510.1,-2830.73 -2510.1,-2804.48"/>
</g>
<!-- 17&#45;&gt;37 -->
<g id="edge33" class="edge"><title>17&#45;&gt;37</title>
<path fill="none" stroke="green" stroke-width="15" d="M3049.36,-1452.31C3103.02,-1559.64 3201.64,-1756.87 3257.84,-1869.29"/>
<polygon fill="green" stroke="green" stroke-width="15" points="3246.27,-1875.49 3262.48,-1878.56 3269.75,-1863.75 3246.27,-1875.49"/>
</g>
<!-- 18&#45;&gt;38 -->
<g id="edge63" class="edge"><title>18&#45;&gt;38</title>
<path fill="none" stroke="green" stroke-width="15" d="M-936.978,-2684.67C-596.822,-2730.02 689.214,-2901.5 1047.08,-2949.21"/>
<polygon fill="green" stroke="green" stroke-width="15" points="1045.5,-2962.24 1057.14,-2950.55 1048.97,-2936.22 1045.5,-2962.24"/>
</g>
<!-- 19&#45;&gt;26 -->
<g id="edge30" class="edge"><title>19&#45;&gt;26</title>
<path fill="none" stroke="green" stroke-width="15" d="M781.673,-1913.93C1078.4,-1754.15 2184.98,-1158.3 2497.39,-990.081"/>
<polygon fill="green" stroke="green" stroke-width="15" points="2503.82,-1001.53 2506.4,-985.23 2491.37,-978.415 2503.82,-1001.53"/>
</g>
<!-- 20&#45;&gt;3 -->
<g id="edge23" class="edge"><title>20&#45;&gt;3</title>
<path fill="none" stroke="black" stroke-width="15" d="M-2626.96,-2737.24C-2679.97,-2551.71 -2810.59,-2094.53 -2866.23,-1899.79"/>
<polygon fill="black" stroke="black" stroke-width="15" points="-2853.62,-1896.17 -2868.98,-1890.16 -2878.86,-1903.38 -2853.62,-1896.17"/>
</g>
<!-- 21&#45;&gt;28 -->
<g id="edge52" class="edge"><title>21&#45;&gt;28</title>
<path fill="none" stroke="red" stroke-width="15" d="M-3124.44,-19.0912C-2931.79,197.636 -2293.26,915.987 -2090.42,1144.18"/>
<polygon fill="red" stroke="red" stroke-width="15" points="-2080.51,1135.57 -2083.68,1151.76 -2100.13,1153.01 -2080.51,1135.57"/>
</g>
<!-- 22&#45;&gt;10 -->
<g id="edge44" class="edge"><title>22&#45;&gt;10</title>
<path fill="none" stroke="blue" stroke-width="15" d="M-156,3314.17C-156,3314.23 -156,3314.29 -156,3314.35"/>
<polygon fill="blue" stroke="blue" stroke-width="15" points="-142.87,3304.54 -156,3314.54 -169.12,3304.53 -142.87,3304.54"/>
</g>
<!-- 23&#45;&gt;56 -->
<g id="edge58" class="edge"><title>23&#45;&gt;56</title>
<path fill="none" stroke="black" stroke-width="15" d="M-228.968,-325.628C178.353,-73.4769 2214.23,1186.83 2644.18,1452.99"/>
<polygon fill="black" stroke="black" stroke-width="15" points="2651.23,1441.92 2652.83,1458.34 2637.42,1464.24 2651.23,1441.92"/>
</g>
<!-- 24&#45;&gt;36 -->
<g id="edge42" class="edge"><title>24&#45;&gt;36</title>
<path fill="none" stroke="blue" stroke-width="15" d="M-893.537,1008.24C-962.63,1330.67 -1215.78,2512.05 -1288.4,2850.95"/>
<polygon fill="blue" stroke="blue" stroke-width="15" points="-1275.57,2853.71 -1290.5,2860.73 -1301.24,2848.21 -1275.57,2853.71"/>
</g>
<!-- 25&#45;&gt;0 -->
<g id="edge40" class="edge"><title>25&#45;&gt;0</title>
<path fill="none" stroke="orange" stroke-width="15" d="M-1975.87,-2018.77C-1868.55,-2152.91 -1623.57,-2459.14 -1510.8,-2600.1"/>
<polygon fill="orange" stroke="orange" stroke-width="15" points="-1520.72,-2608.71 -1504.22,-2608.32 -1500.22,-2592.32 -1520.72,-2608.71"/>
</g>
<!-- 26&#45;&gt;27 -->
<g id="edge31" class="edge"><title>26&#45;&gt;27</title>
<path fill="none" stroke="green" stroke-width="15" d="M2600.25,-1026.6C2626.87,-1133.08 2673.5,-1319.6 2701.29,-1430.76"/>
<polygon fill="green" stroke="green" stroke-width="15" points="2688.6,-1434.1 2703.75,-1440.61 2714.06,-1427.73 2688.6,-1434.1"/>
</g>
<!-- 27&#45;&gt;17 -->
<g id="edge32" class="edge"><title>27&#45;&gt;17</title>
<path fill="none" stroke="green" stroke-width="15" d="M2798.92,-1484.14C2838.51,-1464.35 2887.22,-1439.99 2928.08,-1419.56"/>
<polygon fill="green" stroke="green" stroke-width="15" points="2934.13,-1431.21 2937.21,-1415 2922.39,-1407.73 2934.13,-1431.21"/>
</g>
<!-- 28&#45;&gt;1 -->
<g id="edge53" class="edge"><title>28&#45;&gt;1</title>
<path fill="none" stroke="red" stroke-width="15" d="M-1964.56,1268.77C-1785.86,1421.95 -1279.11,1856.3 -1091.24,2017.34"/>
<polygon fill="red" stroke="red" stroke-width="15" points="-1082.66,2007.4 -1083.61,2023.88 -1099.74,2027.33 -1082.66,2007.4"/>
</g>
<!-- 29&#45;&gt;13 -->
<g id="edge67" class="edge"><title>29&#45;&gt;13</title>
<path fill="none" stroke="green" stroke-width="15" d="M2520.6,-2182.2C2514.58,-2176.18 2508.45,-2170.05 2502.37,-2163.97"/>
<polygon fill="green" stroke="green" stroke-width="15" points="2511.62,-2154.66 2495.27,-2156.87 2493.06,-2173.22 2511.62,-2154.66"/>
</g>
<!-- 30&#45;&gt;53 -->
<g id="edge17" class="edge"><title>30&#45;&gt;53</title>
<path fill="none" stroke="red" stroke-width="15" d="M-3314.77,3003.36C-3289.16,2772.86 -3217.31,2126.23 -3190.38,1883.78"/>
<polygon fill="red" stroke="red" stroke-width="15" points="-3203.39,1882.08 -3189.24,1873.59 -3177.3,1884.98 -3203.39,1882.08"/>
</g>
<!-- 31&#45;&gt;34 -->
<g id="edge19" class="edge"><title>31&#45;&gt;34</title>
<path fill="none" stroke="red" stroke-width="15" d="M-2266.87,1146.84C-2080.27,890.269 -1416.12,-22.9332 -1219.33,-293.517"/>
<polygon fill="red" stroke="red" stroke-width="15" points="-1229.86,-301.351 -1213.37,-301.719 -1208.64,-285.912 -1229.86,-301.351"/>
</g>
<!-- 32&#45;&gt;9 -->
<g id="edge4" class="edge"><title>32&#45;&gt;9</title>
<path fill="none" stroke="blue" stroke-width="15" d="M2606.41,2877.64C2631.25,2952.15 2668.39,3063.56 2694.26,3141.17"/>
<polygon fill="blue" stroke="blue" stroke-width="15" points="2706.8,3137.3 2697.51,3150.94 2681.9,3145.6 2706.8,3137.3"/>
</g>
<!-- 33&#45;&gt;0 -->
<g id="edge10" class="edge"><title>33&#45;&gt;0</title>
<path fill="none" stroke="blue" stroke-width="15" d="M-524.361,-2938.64C-709.894,-2885.63 -1167.07,-2755.01 -1361.81,-2699.37"/>
<polygon fill="blue" stroke="blue" stroke-width="15" points="-1358.22,-2686.74 -1371.44,-2696.62 -1365.43,-2711.98 -1358.22,-2686.74"/>
</g>
<!-- 34&#45;&gt;0 -->
<g id="edge20" class="edge"><title>34&#45;&gt;0</title>
<path fill="none" stroke="red" stroke-width="15" d="M-1174.38,-452.62C-1218.89,-808.718 -1393.52,-2205.77 -1440.38,-2580.61"/>
<polygon fill="red" stroke="red" stroke-width="15" points="-1453.41,-2579.06 -1441.63,-2590.61 -1427.36,-2582.31 -1453.41,-2579.06"/>
</g>
<!-- 35&#45;&gt;55 -->
<g id="edge12" class="edge"><title>35&#45;&gt;55</title>
<path fill="none" stroke="red" stroke-width="15" d="M935.765,-945.6C935.827,-945.6 935.889,-945.6 935.951,-945.6"/>
<polygon fill="red" stroke="red" stroke-width="15" points="926.144,-958.73 936.136,-945.6 926.129,-932.48 926.144,-958.73"/>
</g>
<!-- 36&#45;&gt;22 -->
<g id="edge43" class="edge"><title>36&#45;&gt;22</title>
<path fill="none" stroke="blue" stroke-width="15" d="M-1226.99,2962.65C-1018.8,3014.7 -466.091,3152.88 -247.157,3207.61"/>
<polygon fill="blue" stroke="blue" stroke-width="15" points="-243.819,3194.92 -237.301,3210.07 -250.186,3220.38 -243.819,3194.92"/>
</g>
<!-- 37&#45;&gt;57 -->
<g id="edge34" class="edge"><title>37&#45;&gt;57</title>
<path fill="none" stroke="green" stroke-width="15" d="M3225.08,-1916.14C3185.49,-1896.35 3136.78,-1871.99 3095.92,-1851.56"/>
<polygon fill="green" stroke="green" stroke-width="15" points="3101.61,-1839.73 3086.79,-1847 3089.87,-1863.21 3101.61,-1839.73"/>
</g>
<!-- 38&#45;&gt;59 -->
<g id="edge64" class="edge"><title>38&#45;&gt;59</title>
<path fill="none" stroke="green" stroke-width="15" d="M1177.46,-2886.68C1197.25,-2847.09 1221.61,-2798.38 1242.04,-2757.52"/>
<polygon fill="green" stroke="green" stroke-width="15" points="1253.87,-2763.21 1246.6,-2748.39 1230.39,-2751.47 1253.87,-2763.21"/>
</g>
<!-- 39&#45;&gt;0 -->
<g id="edge61" class="edge"><title>39&#45;&gt;0</title>
<path fill="none" stroke="black" stroke-width="15" d="M1223.34,-139.065C862.177,-481.221 -1002.19,-2247.46 -1383.74,-2608.93"/>
<polygon fill="black" stroke="black" stroke-width="15" points="-1392.9,-2599.53 -1391.14,-2615.94 -1374.85,-2618.59 -1392.9,-2599.53"/>
</g>
<!-- 40&#45;&gt;25 -->
<g id="edge39" class="edge"><title>40&#45;&gt;25</title>
<path fill="none" stroke="orange" stroke-width="15" d="M-2293.04,-1025.96C-2240.03,-1211.49 -2109.41,-1668.67 -2053.77,-1863.41"/>
<polygon fill="orange" stroke="orange" stroke-width="15" points="-2066.38,-1867.03 -2051.02,-1873.04 -2041.14,-1859.82 -2066.38,-1867.03"/>
</g>
<!-- 41&#45;&gt;40 -->
<g id="edge38" class="edge"><title>41&#45;&gt;40</title>
<path fill="none" stroke="orange" stroke-width="15" d="M-1205.51,-2888.96C-1383.52,-2577.45 -2081.74,-1355.56 -2269.37,-1027.21"/>
<polygon fill="orange" stroke="orange" stroke-width="15" points="-2258.15,-1020.39 -2274.5,-1018.22 -2280.94,-1033.41 -2258.15,-1020.39"/>
</g>
<!-- 42&#45;&gt;0 -->
<g id="edge48" class="edge"><title>42&#45;&gt;0</title>
<path fill="none" stroke="blue" stroke-width="15" d="M679.9,3295.72C446.128,2641.16 -1173.43,-1893.6 -1420.44,-2585.23"/>
<polygon fill="blue" stroke="blue" stroke-width="15" points="-1432.89,-2581.06 -1423.89,-2594.89 -1408.16,-2589.89 -1432.89,-2581.06"/>
</g>
<!-- 43&#45;&gt;39 -->
<g id="edge60" class="edge"><title>43&#45;&gt;39</title>
<path fill="none" stroke="black" stroke-width="15" d="M2664.87,1299.27C2434,1068.4 1594.13,228.528 1350.6,-14.9953"/>
<polygon fill="black" stroke="black" stroke-width="15" points="1341.02,-6.0188 1343.23,-22.3707 1359.58,-24.5804 1341.02,-6.0188"/>
</g>
<!-- 44&#45;&gt;49 -->
<g id="edge15" class="edge"><title>44&#45;&gt;49</title>
<path fill="none" stroke="red" stroke-width="15" d="M-1958.71,1971.76C-2066.04,2025.42 -2263.27,2124.04 -2375.69,2180.24"/>
<polygon fill="red" stroke="red" stroke-width="15" points="-2370.15,2192.15 -2384.96,2184.88 -2381.89,2168.67 -2370.15,2192.15"/>
</g>
<!-- 45&#45;&gt;0 -->
<g id="edge55" class="edge"><title>45&#45;&gt;0</title>
<path fill="none" stroke="red" stroke-width="15" d="M394.777,3150.85C189.37,2503.03 -1206.76,-1900.16 -1423.7,-2584.33"/>
<polygon fill="red" stroke="red" stroke-width="15" points="-1436.22,-2580.4 -1426.73,-2593.9 -1411.19,-2588.33 -1436.22,-2580.4"/>
</g>
<!-- 46&#45;&gt;4 -->
<g id="edge50" class="edge"><title>46&#45;&gt;4</title>
<path fill="none" stroke="red" stroke-width="15" d="M-2367.37,-1455.55C-2538.26,-1235.84 -3086.91,-530.435 -3266.5,-299.53"/>
<polygon fill="red" stroke="red" stroke-width="15" points="-3256.23,-291.353 -3272.73,-291.518 -3276.95,-307.469 -3256.23,-291.353"/>
</g>
<!-- 47&#45;&gt;23 -->
<g id="edge57" class="edge"><title>47&#45;&gt;23</title>
<path fill="none" stroke="black" stroke-width="15" d="M-423.75,-864.599C-397.13,-758.122 -350.5,-571.6 -322.71,-460.44"/>
<polygon fill="black" stroke="black" stroke-width="15" points="-309.939,-463.47 -320.246,-450.585 -335.405,-457.103 -309.939,-463.47"/>
</g>
<!-- 48&#45;&gt;0 -->
<g id="edge28" class="edge"><title>48&#45;&gt;0</title>
<path fill="none" stroke="black" stroke-width="15" d="M-175.263,2717.07C-322.952,2093.49 -1274.17,-1922.78 -1430.32,-2582.08"/>
<polygon fill="black" stroke="black" stroke-width="15" points="-1443.14,-2579.25 -1432.68,-2592.01 -1417.6,-2585.3 -1443.14,-2579.25"/>
</g>
<!-- 49&#45;&gt;30 -->
<g id="edge16" class="edge"><title>49&#45;&gt;30</title>
<path fill="none" stroke="red" stroke-width="15" d="M-2519.05,2281.45C-2674.56,2436.96 -3094.66,2857.06 -3257.88,3020.28"/>
<polygon fill="red" stroke="red" stroke-width="15" points="-3248.64,3029.6 -3264.99,3027.39 -3267.2,3011.04 -3248.64,3029.6"/>
</g>
<!-- 50&#45;&gt;32 -->
<g id="edge3" class="edge"><title>50&#45;&gt;32</title>
<path fill="none" stroke="blue" stroke-width="15" d="M1177.41,-6.78255C1378.14,394.676 2326.31,2291.02 2538.01,2714.43"/>
<polygon fill="blue" stroke="blue" stroke-width="15" points="2549.85,2708.75 2542.58,2723.56 2526.37,2720.49 2549.85,2708.75"/>
</g>
<!-- 51&#45;&gt;12 -->
<g id="edge6" class="edge"><title>51&#45;&gt;12</title>
<path fill="none" stroke="blue" stroke-width="15" d="M3444,3578.91C3444,3308.36 3444,2456.83 3444,2172.15"/>
<polygon fill="blue" stroke="blue" stroke-width="15" points="3430.88,2171.85 3444,2161.85 3457.13,2171.85 3430.88,2171.85"/>
</g>
<!-- 52&#45;&gt;33 -->
<g id="edge9" class="edge"><title>52&#45;&gt;33</title>
<path fill="none" stroke="blue" stroke-width="15" d="M486.994,-2562.6C302.361,-2641.73 -164.522,-2841.82 -357.983,-2924.74"/>
<polygon fill="blue" stroke="blue" stroke-width="15" points="-363.244,-2912.71 -367.265,-2928.71 -352.903,-2936.84 -363.244,-2912.71"/>
</g>
<!-- 53&#45;&gt;31 -->
<g id="edge18" class="edge"><title>53&#45;&gt;31</title>
<path fill="none" stroke="red" stroke-width="15" d="M-3110.39,1743.99C-2951.2,1637.87 -2561.45,1378.03 -2394.26,1266.57"/>
<polygon fill="red" stroke="red" stroke-width="15" points="-2401.1,1255.36 -2385.5,1260.73 -2386.54,1277.2 -2401.1,1255.36"/>
</g>
<!-- 54&#45;&gt;5 -->
<g id="edge46" class="edge"><title>54&#45;&gt;5</title>
<path fill="none" stroke="blue" stroke-width="15" d="M47.4017,3459C53.4156,3452.98 59.5505,3446.85 65.6315,3440.77"/>
<polygon fill="blue" stroke="blue" stroke-width="15" points="56.3829,3431.46 72.7348,3433.67 74.9445,3450.02 56.3829,3431.46"/>
</g>
<!-- 55&#45;&gt;58 -->
<g id="edge13" class="edge"><title>55&#45;&gt;58</title>
<path fill="none" stroke="red" stroke-width="15" d="M946.869,-878.044C760.268,-621.469 96.1213,291.733 -100.667,562.317"/>
<polygon fill="red" stroke="red" stroke-width="15" points="-90.1354,570.151 -106.632,570.519 -111.365,554.712 -90.1354,570.151"/>
</g>
<!-- 56&#45;&gt;43 -->
<g id="edge59" class="edge"><title>56&#45;&gt;43</title>
<path fill="none" stroke="black" stroke-width="15" d="M2724,1418.63C2724,1418.57 2724,1418.51 2724,1418.45"/>
<polygon fill="black" stroke="black" stroke-width="15" points="2710.88,1428.27 2724,1418.26 2737.13,1428.26 2710.88,1428.27"/>
</g>
<!-- 57&#45;&gt;8 -->
<g id="edge35" class="edge"><title>57&#45;&gt;8</title>
<path fill="none" stroke="green" stroke-width="15" d="M2931,-1829.85C2824.52,-1856.47 2638,-1903.1 2526.84,-1930.89"/>
<polygon fill="green" stroke="green" stroke-width="15" points="2523.5,-1918.2 2516.99,-1933.35 2529.87,-1943.66 2523.5,-1918.2"/>
</g>
<!-- 58&#45;&gt;44 -->
<g id="edge14" class="edge"><title>58&#45;&gt;44</title>
<path fill="none" stroke="red" stroke-width="15" d="M-222.945,688.609C-495.596,893.097 -1521.5,1662.53 -1808.8,1878"/>
<polygon fill="red" stroke="red" stroke-width="15" points="-1801.21,1888.72 -1817.09,1884.22 -1816.96,1867.72 -1801.21,1888.72"/>
</g>
<!-- 59&#45;&gt;7 -->
<g id="edge65" class="edge"><title>59&#45;&gt;7</title>
<path fill="none" stroke="green" stroke-width="15" d="M1364.36,-2650.64C1549.89,-2597.63 2007.07,-2467.01 2201.81,-2411.37"/>
<polygon fill="green" stroke="green" stroke-width="15" points="2205.43,-2423.98 2211.44,-2408.62 2198.22,-2398.74 2205.43,-2423.98"/>
</g>
<!-- 0 -->
<g id="node1" class="node"><title>0</title>
<ellipse fill="white" stroke="black" stroke-width="15" cx="-1452" cy="-2673.6" rx="83.3772" ry="83.3772"/>
<text text-anchor="middle" x="-1452" y="-2648.6" font-family="Times,serif" font-size="100.00">0</text>
</g>
<!-- 1 -->
<g id="node2" class="node"><title>1</title>
<ellipse fill="white" stroke="black" stroke-width="15" cx="-1020" cy="2078.4" rx="83.3772" ry="83.3772"/>
<text text-anchor="middle" x="-1020" y="2103.4" font-family="Times,serif" font-size="100.00">1</text>
</g>
<!-- 2 -->
<g id="node3" class="node"><title>2</title>
<ellipse fill="white" stroke="black" stroke-width="15" cx="-1308" cy="1214.4" rx="83.3772" ry="83.3772"/>
<text text-anchor="middle" x="-1308" y="1239.4" font-family="Times,serif" font-size="100.00">2</text>
</g>
<!-- 3 -->
<g id="node4" class="node"><title>3</title>
<ellipse fill="white" stroke="black" stroke-width="15" cx="-2892" cy="-1809.6" rx="83.3772" ry="83.3772"/>
<text text-anchor="middle" x="-2892" y="-1784.6" font-family="Times,serif" font-size="100.00">3</text>
</g>
<!-- 4 -->
<g id="node5" class="node"><title>4</title>
<ellipse fill="white" stroke="black" stroke-width="15" cx="-3324" cy="-225.6" rx="83.3772" ry="83.3772"/>
<text text-anchor="middle" x="-3324" y="-200.6" font-family="Times,serif" font-size="100.00">4</text>
</g>
<!-- 5 -->
<g id="node6" class="node"><title>5</title>
<ellipse fill="white" stroke="black" stroke-width="15" cx="132" cy="3374.4" rx="83.3772" ry="83.3772"/>
<text text-anchor="middle" x="132" y="3399.4" font-family="Times,serif" font-size="100.00">5</text>
</g>
<!-- 6 -->
<g id="node7" class="node"><title>6</title>
<ellipse fill="white" stroke="black" stroke-width="15" cx="-1884" cy="206.4" rx="83.3772" ry="83.3772"/>
<text text-anchor="middle" x="-1884" y="231.4" font-family="Times,serif" font-size="100.00">6</text>
</g>
<!-- 7 -->
<g id="node8" class="node"><title>7</title>
<ellipse fill="white" stroke="black" stroke-width="15" cx="2292" cy="-2385.6" rx="83.3772" ry="83.3772"/>
<text text-anchor="middle" x="2292" y="-2360.6" font-family="Times,serif" font-size="100.00">7</text>
</g>
<!-- 8 -->
<g id="node9" class="node"><title>8</title>
<ellipse fill="white" stroke="black" stroke-width="15" cx="2436" cy="-1953.6" rx="83.3772" ry="83.3772"/>
<text text-anchor="middle" x="2436" y="-1928.6" font-family="Times,serif" font-size="100.00">8</text>
</g>
<!-- 9 -->
<g id="node10" class="node"><title>9</title>
<ellipse fill="white" stroke="black" stroke-width="15" cx="2724" cy="3230.4" rx="83.3772" ry="83.3772"/>
<text text-anchor="middle" x="2724" y="3255.4" font-family="Times,serif" font-size="100.00">9</text>
</g>
<!-- 10 -->
<g id="node11" class="node"><title>10</title>
<ellipse fill="white" stroke="black" stroke-width="15" cx="-156" cy="3374.4" rx="83.3772" ry="83.3772"/>
<text text-anchor="middle" x="-156" y="3399.4" font-family="Times,serif" font-size="100.00">10</text>
</g>
<!-- 11 -->
<g id="node12" class="node"><title>11</title>
<ellipse fill="white" stroke="black" stroke-width="15" cx="-2892" cy="-657.6" rx="83.3772" ry="83.3772"/>
<text text-anchor="middle" x="-2892" y="-632.6" font-family="Times,serif" font-size="100.00">11</text>
</g>
<!-- 12 -->
<g id="node13" class="node"><title>12</title>
<ellipse fill="white" stroke="black" stroke-width="15" cx="3444" cy="2078.4" rx="83.3772" ry="83.3772"/>
<text text-anchor="middle" x="3444" y="2103.4" font-family="Times,serif" font-size="100.00">12</text>
</g>
<!-- 13 -->
<g id="node14" class="node"><title>13</title>
<ellipse fill="white" stroke="black" stroke-width="15" cx="2436" cy="-2097.6" rx="83.3772" ry="83.3772"/>
<text text-anchor="middle" x="2436" y="-2072.6" font-family="Times,serif" font-size="100.00">13</text>
</g>
<!-- 14 -->
<g id="node15" class="node"><title>14</title>
<ellipse fill="white" stroke="black" stroke-width="15" cx="-732" cy="-1809.6" rx="83.3772" ry="83.3772"/>
<text text-anchor="middle" x="-732" y="-1784.6" font-family="Times,serif" font-size="100.00">14</text>
</g>
<!-- 15 -->
<g id="node16" class="node"><title>15</title>
<ellipse fill="white" stroke="black" stroke-width="15" cx="1572" cy="-945.6" rx="83.3772" ry="83.3772"/>
<text text-anchor="middle" x="1572" y="-920.6" font-family="Times,serif" font-size="100.00">15</text>
</g>
<!-- 16 -->
<g id="node17" class="node"><title>16</title>
<ellipse fill="white" stroke="black" stroke-width="15" cx="-2316" cy="-2817.6" rx="83.3772" ry="83.3772"/>
<text text-anchor="middle" x="-2316" y="-2792.6" font-family="Times,serif" font-size="100.00">16</text>
</g>
<!-- 17 -->
<g id="node18" class="node"><title>17</title>
<ellipse fill="white" stroke="black" stroke-width="15" cx="3012" cy="-1377.6" rx="83.3772" ry="83.3772"/>
<text text-anchor="middle" x="3012" y="-1352.6" font-family="Times,serif" font-size="100.00">17</text>
</g>
<!-- 18 -->
<g id="node19" class="node"><title>18</title>
<ellipse fill="white" stroke="black" stroke-width="15" cx="-1020" cy="-2673.6" rx="83.3772" ry="83.3772"/>
<text text-anchor="middle" x="-1020" y="-2648.6" font-family="Times,serif" font-size="100.00">18</text>
</g>
<!-- 19 -->
<g id="node20" class="node"><title>19</title>
<ellipse fill="white" stroke="black" stroke-width="15" cx="708" cy="-1953.6" rx="83.3772" ry="83.3772"/>
<text text-anchor="middle" x="708" y="-1928.6" font-family="Times,serif" font-size="100.00">19</text>
</g>
<!-- 20 -->
<g id="node21" class="node"><title>20</title>
<ellipse fill="white" stroke="black" stroke-width="15" cx="-2604" cy="-2817.6" rx="83.3772" ry="83.3772"/>
<text text-anchor="middle" x="-2604" y="-2792.6" font-family="Times,serif" font-size="100.00">20</text>
</g>
<!-- 21 -->
<g id="node22" class="node"><title>21</title>
<ellipse fill="white" stroke="black" stroke-width="15" cx="-3180" cy="-81.6" rx="83.3772" ry="83.3772"/>
<text text-anchor="middle" x="-3180" y="-56.6" font-family="Times,serif" font-size="100.00">21</text>
</g>
<!-- 22 -->
<g id="node23" class="node"><title>22</title>
<ellipse fill="white" stroke="black" stroke-width="15" cx="-156" cy="3230.4" rx="83.3772" ry="83.3772"/>
<text text-anchor="middle" x="-156" y="3255.4" font-family="Times,serif" font-size="100.00">22</text>
</g>
<!-- 23 -->
<g id="node24" class="node"><title>23</title>
<ellipse fill="white" stroke="black" stroke-width="15" cx="-300" cy="-369.6" rx="83.3772" ry="83.3772"/>
<text text-anchor="middle" x="-300" y="-344.6" font-family="Times,serif" font-size="100.00">23</text>
</g>
<!-- 24 -->
<g id="node25" class="node"><title>24</title>
<ellipse fill="white" stroke="black" stroke-width="15" cx="-876" cy="926.4" rx="83.3772" ry="83.3772"/>
<text text-anchor="middle" x="-876" y="951.4" font-family="Times,serif" font-size="100.00">24</text>
</g>
<!-- 25 -->
<g id="node26" class="node"><title>25</title>
<ellipse fill="white" stroke="black" stroke-width="15" cx="-2028" cy="-1953.6" rx="83.3772" ry="83.3772"/>
<text text-anchor="middle" x="-2028" y="-1928.6" font-family="Times,serif" font-size="100.00">25</text>
</g>
<!-- 26 -->
<g id="node27" class="node"><title>26</title>
<ellipse fill="white" stroke="black" stroke-width="15" cx="2580" cy="-945.6" rx="83.3772" ry="83.3772"/>
<text text-anchor="middle" x="2580" y="-920.6" font-family="Times,serif" font-size="100.00">26</text>
</g>
<!-- 27 -->
<g id="node28" class="node"><title>27</title>
<ellipse fill="white" stroke="black" stroke-width="15" cx="2724" cy="-1521.6" rx="83.3772" ry="83.3772"/>
<text text-anchor="middle" x="2724" y="-1496.6" font-family="Times,serif" font-size="100.00">27</text>
</g>
<!-- 28 -->
<g id="node29" class="node"><title>28</title>
<ellipse fill="white" stroke="black" stroke-width="15" cx="-2028" cy="1214.4" rx="83.3772" ry="83.3772"/>
<text text-anchor="middle" x="-2028" y="1239.4" font-family="Times,serif" font-size="100.00">28</text>
</g>
<!-- 29 -->
<g id="node30" class="node"><title>29</title>
<ellipse fill="white" stroke="black" stroke-width="15" cx="2580" cy="-2241.6" rx="83.3772" ry="83.3772"/>
<text text-anchor="middle" x="2580" y="-2216.6" font-family="Times,serif" font-size="100.00">29</text>
</g>
<!-- 30 -->
<g id="node31" class="node"><title>30</title>
<ellipse fill="white" stroke="black" stroke-width="15" cx="-3324" cy="3086.4" rx="83.3772" ry="83.3772"/>
<text text-anchor="middle" x="-3324" y="3111.4" font-family="Times,serif" font-size="100.00">30</text>
</g>
<!-- 31 -->
<g id="node32" class="node"><title>31</title>
<ellipse fill="white" stroke="black" stroke-width="15" cx="-2316" cy="1214.4" rx="83.3772" ry="83.3772"/>
<text text-anchor="middle" x="-2316" y="1239.4" font-family="Times,serif" font-size="100.00">31</text>
</g>
<!-- 32 -->
<g id="node33" class="node"><title>32</title>
<ellipse fill="white" stroke="black" stroke-width="15" cx="2580" cy="2798.4" rx="83.3772" ry="83.3772"/>
<text text-anchor="middle" x="2580" y="2823.4" font-family="Times,serif" font-size="100.00">32</text>
</g>
<!-- 33 -->
<g id="node34" class="node"><title>33</title>
<ellipse fill="white" stroke="black" stroke-width="15" cx="-444" cy="-2961.6" rx="83.3772" ry="83.3772"/>
<text text-anchor="middle" x="-444" y="-2936.6" font-family="Times,serif" font-size="100.00">33</text>
</g>
<!-- 34 -->
<g id="node35" class="node"><title>34</title>
<ellipse fill="white" stroke="black" stroke-width="15" cx="-1164" cy="-369.6" rx="83.3772" ry="83.3772"/>
<text text-anchor="middle" x="-1164" y="-344.6" font-family="Times,serif" font-size="100.00">34</text>
</g>
<!-- 35 -->
<g id="node36" class="node"><title>35</title>
<ellipse fill="white" stroke="black" stroke-width="15" cx="852" cy="-945.6" rx="83.3772" ry="83.3772"/>
<text text-anchor="middle" x="852" y="-920.6" font-family="Times,serif" font-size="100.00">35</text>
</g>
<!-- 36 -->
<g id="node37" class="node"><title>36</title>
<ellipse fill="white" stroke="black" stroke-width="15" cx="-1308" cy="2942.4" rx="83.3772" ry="83.3772"/>
<text text-anchor="middle" x="-1308" y="2967.4" font-family="Times,serif" font-size="100.00">36</text>
</g>
<!-- 37 -->
<g id="node38" class="node"><title>37</title>
<ellipse fill="white" stroke="black" stroke-width="15" cx="3300" cy="-1953.6" rx="83.3772" ry="83.3772"/>
<text text-anchor="middle" x="3300" y="-1928.6" font-family="Times,serif" font-size="100.00">37</text>
</g>
<!-- 38 -->
<g id="node39" class="node"><title>38</title>
<ellipse fill="white" stroke="black" stroke-width="15" cx="1140" cy="-2961.6" rx="83.3772" ry="83.3772"/>
<text text-anchor="middle" x="1140" y="-2936.6" font-family="Times,serif" font-size="100.00">38</text>
</g>
<!-- 39 -->
<g id="node40" class="node"><title>39</title>
<ellipse fill="white" stroke="black" stroke-width="15" cx="1284" cy="-81.6" rx="83.3772" ry="83.3772"/>
<text text-anchor="middle" x="1284" y="-56.6" font-family="Times,serif" font-size="100.00">39</text>
</g>
<!-- 40 -->
<g id="node41" class="node"><title>40</title>
<ellipse fill="white" stroke="black" stroke-width="15" cx="-2316" cy="-945.6" rx="83.3772" ry="83.3772"/>
<text text-anchor="middle" x="-2316" y="-920.6" font-family="Times,serif" font-size="100.00">40</text>
</g>
<!-- 41 -->
<g id="node42" class="node"><title>41</title>
<ellipse fill="white" stroke="black" stroke-width="15" cx="-1164" cy="-2961.6" rx="83.3772" ry="83.3772"/>
<text text-anchor="middle" x="-1164" y="-2936.6" font-family="Times,serif" font-size="100.00">41</text>
</g>
<!-- 42 -->
<g id="node43" class="node"><title>42</title>
<ellipse fill="white" stroke="black" stroke-width="15" cx="708" cy="3374.4" rx="83.3772" ry="83.3772"/>
<text text-anchor="middle" x="708" y="3399.4" font-family="Times,serif" font-size="100.00">42</text>
</g>
<!-- 43 -->
<g id="node44" class="node"><title>43</title>
<ellipse fill="white" stroke="black" stroke-width="15" cx="2724" cy="1358.4" rx="83.3772" ry="83.3772"/>
<text text-anchor="middle" x="2724" y="1383.4" font-family="Times,serif" font-size="100.00">43</text>
</g>
<!-- 44 -->
<g id="node45" class="node"><title>44</title>
<ellipse fill="white" stroke="black" stroke-width="15" cx="-1884" cy="1934.4" rx="83.3772" ry="83.3772"/>
<text text-anchor="middle" x="-1884" y="1959.4" font-family="Times,serif" font-size="100.00">44</text>
</g>
<!-- 45 -->
<g id="node46" class="node"><title>45</title>
<ellipse fill="white" stroke="black" stroke-width="15" cx="420" cy="3230.4" rx="83.3772" ry="83.3772"/>
<text text-anchor="middle" x="420" y="3255.4" font-family="Times,serif" font-size="100.00">45</text>
</g>
<!-- 46 -->
<g id="node47" class="node"><title>46</title>
<ellipse fill="white" stroke="black" stroke-width="15" cx="-2316" cy="-1521.6" rx="83.3772" ry="83.3772"/>
<text text-anchor="middle" x="-2316" y="-1496.6" font-family="Times,serif" font-size="100.00">46</text>
</g>
<!-- 47 -->
<g id="node48" class="node"><title>47</title>
<ellipse fill="white" stroke="black" stroke-width="15" cx="-444" cy="-945.6" rx="83.3772" ry="83.3772"/>
<text text-anchor="middle" x="-444" y="-920.6" font-family="Times,serif" font-size="100.00">47</text>
</g>
<!-- 48 -->
<g id="node49" class="node"><title>48</title>
<ellipse fill="white" stroke="black" stroke-width="15" cx="-156" cy="2798.4" rx="83.3772" ry="83.3772"/>
<text text-anchor="middle" x="-156" y="2823.4" font-family="Times,serif" font-size="100.00">48</text>
</g>
<!-- 49 -->
<g id="node50" class="node"><title>49</title>
<ellipse fill="white" stroke="black" stroke-width="15" cx="-2460" cy="2222.4" rx="83.3772" ry="83.3772"/>
<text text-anchor="middle" x="-2460" y="2247.4" font-family="Times,serif" font-size="100.00">49</text>
</g>
<!-- 50 -->
<g id="node51" class="node"><title>50</title>
<ellipse fill="white" stroke="black" stroke-width="15" cx="1140" cy="-81.6" rx="83.3772" ry="83.3772"/>
<text text-anchor="middle" x="1140" y="-56.6" font-family="Times,serif" font-size="100.00">50</text>
</g>
<!-- 51 -->
<g id="node52" class="node"><title>51</title>
<ellipse fill="white" stroke="black" stroke-width="15" cx="3444" cy="3662.4" rx="83.3772" ry="83.3772"/>
<text text-anchor="middle" x="3444" y="3687.4" font-family="Times,serif" font-size="100.00">51</text>
</g>
<!-- 52 -->
<g id="node53" class="node"><title>52</title>
<ellipse fill="white" stroke="black" stroke-width="15" cx="564" cy="-2529.6" rx="83.3772" ry="83.3772"/>
<text text-anchor="middle" x="564" y="-2504.6" font-family="Times,serif" font-size="100.00">52</text>
</g>
<!-- 53 -->
<g id="node54" class="node"><title>53</title>
<ellipse fill="white" stroke="black" stroke-width="15" cx="-3180" cy="1790.4" rx="83.3772" ry="83.3772"/>
<text text-anchor="middle" x="-3180" y="1815.4" font-family="Times,serif" font-size="100.00">53</text>
</g>
<!-- 54 -->
<g id="node55" class="node"><title>54</title>
<ellipse fill="white" stroke="black" stroke-width="15" cx="-12" cy="3518.4" rx="83.3772" ry="83.3772"/>
<text text-anchor="middle" x="-12" y="3543.4" font-family="Times,serif" font-size="100.00">54</text>
</g>
<!-- 55 -->
<g id="node56" class="node"><title>55</title>
<ellipse fill="white" stroke="black" stroke-width="15" cx="996" cy="-945.6" rx="83.3772" ry="83.3772"/>
<text text-anchor="middle" x="996" y="-920.6" font-family="Times,serif" font-size="100.00">55</text>
</g>
<!-- 56 -->
<g id="node57" class="node"><title>56</title>
<ellipse fill="white" stroke="black" stroke-width="15" cx="2724" cy="1502.4" rx="83.3772" ry="83.3772"/>
<text text-anchor="middle" x="2724" y="1527.4" font-family="Times,serif" font-size="100.00">56</text>
</g>
<!-- 57 -->
<g id="node58" class="node"><title>57</title>
<ellipse fill="white" stroke="black" stroke-width="15" cx="3012" cy="-1809.6" rx="83.3772" ry="83.3772"/>
<text text-anchor="middle" x="3012" y="-1784.6" font-family="Times,serif" font-size="100.00">57</text>
</g>
<!-- 58 -->
<g id="node59" class="node"><title>58</title>
<ellipse fill="white" stroke="black" stroke-width="15" cx="-156" cy="638.4" rx="83.3772" ry="83.3772"/>
<text text-anchor="middle" x="-156" y="663.4" font-family="Times,serif" font-size="100.00">58</text>
</g>
<!-- 59 -->
<g id="node60" class="node"><title>59</title>
<ellipse fill="white" stroke="black" stroke-width="15" cx="1284" cy="-2673.6" rx="83.3772" ry="83.3772"/>
<text text-anchor="middle" x="1284" y="-2648.6" font-family="Times,serif" font-size="100.00">59</text>
</g>
</g>
</svg>
