<?xml version="1.0" encoding="UTF-8" standalone="no"?>
<!DOCTYPE svg PUBLIC "-//W3C//DTD SVG 1.1//EN"
 "http://www.w3.org/Graphics/SVG/1.1/DTD/svg11.dtd">
<!-- Generated by graphviz version 2.38.0 (20140413.2041)
 -->
<!-- Title: g Pages: 1 -->
<svg width="7375pt" height="7254pt"
 viewBox="216.00 216.00 7158.88 7037.88" xmlns="http://www.w3.org/2000/svg" xmlns:xlink="http://www.w3.org/1999/xlink">
<g id="graph0" class="graph" transform="scale(1 1) rotate(0) translate(3627.44 3288.04)">
<title>g</title>
<polygon fill="white" stroke="none" points="-3411.44,3749.84 -3411.44,-3072.04 3531.44,-3072.04 3531.44,3749.84 -3411.44,3749.84"/>
<text text-anchor="middle" x="59.9999" y="-3052.84" font-family="Times,serif" font-size="14.00">data02&#45;tabou (cost = 1644)</text>
<!-- 0&#45;&gt;6 -->
<g id="edge29" class="edge"><title>0&#45;&gt;6</title>
<path fill="none" stroke="orange" stroke-width="15" d="M-1464.41,-2590.9C-1526.64,-2176 -1804.45,-323.966 -1870.07,113.554"/>
<polygon fill="orange" stroke="orange" stroke-width="15" points="-1857.12,115.682 -1871.58,123.624 -1883.08,111.788 -1857.12,115.682"/>
</g>
<!-- 0&#45;&gt;16 -->
<g id="edge51" class="edge"><title>0&#45;&gt;16</title>
<path fill="none" stroke="black" stroke-width="15" d="M-1534.45,-2687.34C-1696.26,-2714.31 -2054.33,-2773.99 -2223.73,-2802.22"/>
<polygon fill="black" stroke="black" stroke-width="15" points="-2225.92,-2789.28 -2233.63,-2803.87 -2221.61,-2815.17 -2225.92,-2789.28"/>
</g>
<!-- 0&#45;&gt;18 -->
<g id="edge61" class="edge"><title>0&#45;&gt;18</title>
<path fill="none" stroke="green" stroke-width="15" d="M-1368.45,-2673.6C-1295.45,-2673.6 -1189.57,-2673.6 -1113.7,-2673.6"/>
<polygon fill="green" stroke="green" stroke-width="15" points="-1113.67,-2686.73 -1103.67,-2673.6 -1113.67,-2660.48 -1113.67,-2686.73"/>
</g>
<!-- 0&#45;&gt;19 -->
<g id="edge38" class="edge"><title>0&#45;&gt;19</title>
<path fill="none" stroke="blue" stroke-width="15" d="M-1372.56,-2647.12C-1036.72,-2535.17 265.504,-2101.1 619.018,-1983.26"/>
<polygon fill="blue" stroke="blue" stroke-width="15" points="623.362,-1995.65 628.698,-1980.03 615.061,-1970.74 623.362,-1995.65"/>
</g>
<!-- 0&#45;&gt;31 -->
<g id="edge46" class="edge"><title>0&#45;&gt;31</title>
<path fill="none" stroke="red" stroke-width="15" d="M-1470.15,-2591.95C-1582.07,-2088.28 -2177.69,591.998 -2295.68,1122.95"/>
<polygon fill="red" stroke="red" stroke-width="15" points="-2282.9,1125.95 -2297.88,1132.86 -2308.52,1120.26 -2282.9,1125.95"/>
</g>
<!-- 0&#45;&gt;34 -->
<g id="edge1" class="edge"><title>0&#45;&gt;34</title>
<path fill="none" stroke="blue" stroke-width="15" d="M-1441.62,-2590.58C-1397.11,-2234.48 -1222.48,-837.434 -1175.62,-462.586"/>
<polygon fill="blue" stroke="blue" stroke-width="15" points="-1162.59,-464.142 -1174.37,-452.591 -1188.64,-460.886 -1162.59,-464.142"/>
</g>
<!-- 0&#45;&gt;45 -->
<g id="edge10" class="edge"><title>0&#45;&gt;45</title>
<path fill="none" stroke="red" stroke-width="15" d="M-1426.78,-2594.05C-1221.37,-1946.23 174.762,2456.96 391.696,3141.13"/>
<polygon fill="red" stroke="red" stroke-width="15" points="404.217,3137.2 394.728,3150.7 379.194,3145.13 404.217,3137.2"/>
</g>
<!-- 0&#45;&gt;52 -->
<g id="edge24" class="edge"><title>0&#45;&gt;52</title>
<path fill="none" stroke="green" stroke-width="15" d="M-1368.58,-2667.64C-1044.53,-2644.5 129.517,-2560.63 470.524,-2536.28"/>
<polygon fill="green" stroke="green" stroke-width="15" points="471.571,-2549.36 480.611,-2535.56 469.701,-2523.18 471.571,-2549.36"/>
</g>
<!-- 0&#45;&gt;58 -->
<g id="edge15" class="edge"><title>0&#45;&gt;58</title>
<path fill="none" stroke="black" stroke-width="15" d="M-1421.56,-2595.8C-1246.99,-2149.69 -374.475,80.0752 -190.209,550.978"/>
<polygon fill="black" stroke="black" stroke-width="15" points="-177.924,546.355 -186.502,560.45 -202.369,555.921 -177.924,546.355"/>
</g>
<!-- 1&#45;&gt;36 -->
<g id="edge4" class="edge"><title>1&#45;&gt;36</title>
<path fill="none" stroke="blue" stroke-width="15" d="M-1046.45,2157.75C-1100.23,2319.09 -1221.99,2684.38 -1278.35,2853.46"/>
<polygon fill="blue" stroke="blue" stroke-width="15" points="-1265.95,2857.75 -1281.56,2863.08 -1290.85,2849.45 -1265.95,2857.75"/>
</g>
<!-- 2&#45;&gt;1 -->
<g id="edge3" class="edge"><title>2&#45;&gt;1</title>
<path fill="none" stroke="blue" stroke-width="15" d="M-1281.55,1293.75C-1227.77,1455.09 -1106.01,1820.38 -1049.65,1989.46"/>
<polygon fill="blue" stroke="blue" stroke-width="15" points="-1037.15,1985.45 -1046.44,1999.08 -1062.05,1993.75 -1037.15,1985.45"/>
</g>
<!-- 3&#45;&gt;11 -->
<g id="edge54" class="edge"><title>3&#45;&gt;11</title>
<path fill="none" stroke="black" stroke-width="15" d="M-2892,-1725.82C-2892,-1516.35 -2892,-970.922 -2892,-751.273"/>
<polygon fill="black" stroke="black" stroke-width="15" points="-2878.87,-751.063 -2892,-741.063 -2905.12,-751.063 -2878.87,-751.063"/>
</g>
<!-- 4&#45;&gt;21 -->
<g id="edge56" class="edge"><title>4&#45;&gt;21</title>
<path fill="none" stroke="black" stroke-width="15" d="M-3264.6,-166.198C-3258.58,-160.184 -3252.45,-154.05 -3246.37,-147.969"/>
<polygon fill="black" stroke="black" stroke-width="15" points="-3237.06,-157.217 -3239.27,-140.865 -3255.62,-138.655 -3237.06,-157.217"/>
</g>
<!-- 5&#45;&gt;12 -->
<g id="edge19" class="edge"><title>5&#45;&gt;12</title>
<path fill="none" stroke="black" stroke-width="15" d="M209.796,3343.96C655.91,3169.39 2885.68,2296.87 3356.58,2112.61"/>
<polygon fill="black" stroke="black" stroke-width="15" points="3351.95,2100.32 3366.05,2108.9 3361.52,2124.77 3351.95,2100.32"/>
</g>
<!-- 6&#45;&gt;28 -->
<g id="edge30" class="edge"><title>6&#45;&gt;28</title>
<path fill="none" stroke="orange" stroke-width="15" d="M-1895.85,289.317C-1922.46,475.632 -1986.85,926.349 -2014.75,1121.62"/>
<polygon fill="orange" stroke="orange" stroke-width="15" points="-2001.76,1123.53 -2016.17,1131.57 -2027.75,1119.82 -2001.76,1123.53"/>
</g>
<!-- 7&#45;&gt;0 -->
<g id="edge23" class="edge"><title>7&#45;&gt;0</title>
<path fill="none" stroke="black" stroke-width="15" d="M2208.55,-2392.02C1713.23,-2430.12 -836.78,-2626.28 -1358.64,-2666.42"/>
<polygon fill="black" stroke="black" stroke-width="15" points="-1359.79,-2653.34 -1368.76,-2667.2 -1357.78,-2679.52 -1359.79,-2653.34"/>
</g>
<!-- 8&#45;&gt;55 -->
<g id="edge41" class="edge"><title>8&#45;&gt;55</title>
<path fill="none" stroke="blue" stroke-width="15" d="M2367.51,-1905.66C2127.52,-1737.67 1325.49,-1176.24 1072.88,-999.415"/>
<polygon fill="blue" stroke="blue" stroke-width="15" points="1080.2,-988.522 1064.48,-993.539 1065.15,-1010.03 1080.2,-988.522"/>
</g>
<!-- 9&#45;&gt;32 -->
<g id="edge8" class="edge"><title>9&#45;&gt;32</title>
<path fill="none" stroke="blue" stroke-width="15" d="M2697.59,3151.16C2672.75,3076.65 2635.61,2965.24 2609.74,2887.63"/>
<polygon fill="blue" stroke="blue" stroke-width="15" points="2597.2,2891.5 2606.49,2877.86 2622.1,2883.2 2597.2,2891.5"/>
</g>
<!-- 10&#45;&gt;54 -->
<g id="edge17" class="edge"><title>10&#45;&gt;54</title>
<path fill="none" stroke="black" stroke-width="15" d="M-96.5983,3433.8C-90.5844,3439.82 -84.4495,3445.95 -78.3685,3452.03"/>
<polygon fill="black" stroke="black" stroke-width="15" points="-69.0555,3442.78 -71.2652,3459.13 -87.6171,3461.34 -69.0555,3442.78"/>
</g>
<!-- 11&#45;&gt;4 -->
<g id="edge55" class="edge"><title>11&#45;&gt;4</title>
<path fill="none" stroke="black" stroke-width="15" d="M-2951.16,-598.438C-3031.32,-518.278 -3174.01,-375.593 -3257.7,-291.903"/>
<polygon fill="black" stroke="black" stroke-width="15" points="-3248.51,-282.529 -3264.86,-284.739 -3267.07,-301.091 -3248.51,-282.529"/>
</g>
<!-- 12&#45;&gt;27 -->
<g id="edge20" class="edge"><title>12&#45;&gt;27</title>
<path fill="none" stroke="black" stroke-width="15" d="M3427.61,1996.45C3331.67,1516.74 2843.63,-923.432 2742.4,-1429.6"/>
<polygon fill="black" stroke="black" stroke-width="15" points="2729.46,-1427.39 2740.37,-1439.77 2755.2,-1432.54 2729.46,-1427.39"/>
</g>
<!-- 13&#45;&gt;8 -->
<g id="edge40" class="edge"><title>13&#45;&gt;8</title>
<path fill="none" stroke="blue" stroke-width="15" d="M2436,-2013.83C2436,-2013.77 2436,-2013.71 2436,-2013.65"/>
<polygon fill="blue" stroke="blue" stroke-width="15" points="2449.13,-2023.46 2436,-2013.46 2422.88,-2023.47 2449.13,-2023.46"/>
</g>
<!-- 14&#45;&gt;0 -->
<g id="edge14" class="edge"><title>14&#45;&gt;0</title>
<path fill="none" stroke="red" stroke-width="15" d="M-785.529,-1873.83C-916.82,-2031.38 -1254.11,-2436.14 -1391.95,-2601.54"/>
<polygon fill="red" stroke="red" stroke-width="15" points="-1402.04,-2593.15 -1398.36,-2609.24 -1381.88,-2609.96 -1402.04,-2593.15"/>
</g>
<!-- 15&#45;&gt;0 -->
<g id="edge68" class="edge"><title>15&#45;&gt;0</title>
<path fill="none" stroke="green" stroke-width="15" d="M1499.49,-987.034C1089.26,-1221.45 -937.752,-2379.74 -1370.59,-2627.08"/>
<polygon fill="green" stroke="green" stroke-width="15" points="-1377.13,-2615.7 -1379.3,-2632.06 -1364.1,-2638.49 -1377.13,-2615.7"/>
</g>
<!-- 16&#45;&gt;20 -->
<g id="edge52" class="edge"><title>16&#45;&gt;20</title>
<path fill="none" stroke="black" stroke-width="15" d="M-2399.69,-2817.6C-2434.15,-2817.6 -2474.24,-2817.6 -2509.74,-2817.6"/>
<polygon fill="black" stroke="black" stroke-width="15" points="-2510.1,-2804.48 -2520.1,-2817.6 -2510.1,-2830.73 -2510.1,-2804.48"/>
</g>
<!-- 17&#45;&gt;26 -->
<g id="edge66" class="edge"><title>17&#45;&gt;26</title>
<path fill="none" stroke="green" stroke-width="15" d="M2952.84,-1318.44C2872.68,-1238.28 2729.99,-1095.59 2646.3,-1011.9"/>
<polygon fill="green" stroke="green" stroke-width="15" points="2655.49,-1002.53 2639.14,-1004.74 2636.93,-1021.09 2655.49,-1002.53"/>
</g>
<!-- 18&#45;&gt;59 -->
<g id="edge62" class="edge"><title>18&#45;&gt;59</title>
<path fill="none" stroke="green" stroke-width="15" d="M-936.296,-2673.6C-579.268,-2673.6 815.085,-2673.6 1190.48,-2673.6"/>
<polygon fill="green" stroke="green" stroke-width="15" points="1190.49,-2686.73 1200.49,-2673.6 1190.49,-2660.48 1190.49,-2686.73"/>
</g>
<!-- 19&#45;&gt;13 -->
<g id="edge39" class="edge"><title>19&#45;&gt;13</title>
<path fill="none" stroke="blue" stroke-width="15" d="M791.345,-1960.55C1080.4,-1984.63 2038.67,-2064.49 2342.63,-2089.82"/>
<polygon fill="blue" stroke="blue" stroke-width="15" points="2341.68,-2102.91 2352.73,-2090.66 2343.86,-2076.75 2341.68,-2102.91"/>
</g>
<!-- 20&#45;&gt;3 -->
<g id="edge53" class="edge"><title>20&#45;&gt;3</title>
<path fill="none" stroke="black" stroke-width="15" d="M-2626.96,-2737.24C-2679.97,-2551.71 -2810.59,-2094.53 -2866.23,-1899.79"/>
<polygon fill="black" stroke="black" stroke-width="15" points="-2853.62,-1896.17 -2868.98,-1890.16 -2878.86,-1903.38 -2853.62,-1896.17"/>
</g>
<!-- 21&#45;&gt;56 -->
<g id="edge57" class="edge"><title>21&#45;&gt;56</title>
<path fill="none" stroke="black" stroke-width="15" d="M-3099.34,-59.9604C-2448.02,114.786 1945.62,1293.57 2633.49,1478.12"/>
<polygon fill="black" stroke="black" stroke-width="15" points="2637.09,1465.49 2643.35,1480.76 2630.29,1490.85 2637.09,1465.49"/>
</g>
<!-- 22&#45;&gt;51 -->
<g id="edge6" class="edge"><title>22&#45;&gt;51</title>
<path fill="none" stroke="blue" stroke-width="15" d="M-72.7466,3240.39C409.7,3298.28 2842.79,3590.25 3350.9,3651.23"/>
<polygon fill="blue" stroke="blue" stroke-width="15" points="3352.76,3638.23 3361.12,3652.45 3349.63,3664.29 3352.76,3638.23"/>
</g>
<!-- 23&#45;&gt;47 -->
<g id="edge44" class="edge"><title>23&#45;&gt;47</title>
<path fill="none" stroke="blue" stroke-width="15" d="M-320.25,-450.601C-346.87,-557.078 -393.5,-743.6 -421.29,-854.76"/>
<polygon fill="blue" stroke="blue" stroke-width="15" points="-434.061,-851.73 -423.754,-864.615 -408.595,-858.097 -434.061,-851.73"/>
</g>
<!-- 24&#45;&gt;0 -->
<g id="edge50" class="edge"><title>24&#45;&gt;0</title>
<path fill="none" stroke="red" stroke-width="15" d="M-889.251,843.58C-966.297,362.046 -1355.97,-2073.4 -1437.16,-2580.87"/>
<polygon fill="red" stroke="red" stroke-width="15" points="-1450.18,-2579.12 -1438.8,-2591.07 -1424.26,-2583.27 -1450.18,-2579.12"/>
</g>
<!-- 25&#45;&gt;0 -->
<g id="edge37" class="edge"><title>25&#45;&gt;0</title>
<path fill="none" stroke="orange" stroke-width="15" d="M-1975.87,-2018.77C-1868.55,-2152.91 -1623.57,-2459.14 -1510.8,-2600.1"/>
<polygon fill="orange" stroke="orange" stroke-width="15" points="-1520.72,-2608.71 -1504.22,-2608.32 -1500.22,-2592.32 -1520.72,-2608.71"/>
</g>
<!-- 26&#45;&gt;15 -->
<g id="edge67" class="edge"><title>26&#45;&gt;15</title>
<path fill="none" stroke="green" stroke-width="15" d="M2496.22,-945.6C2309.76,-945.6 1861.56,-945.6 1665.96,-945.6"/>
<polygon fill="green" stroke="green" stroke-width="15" points="1665.71,-932.475 1655.71,-945.6 1665.71,-958.725 1665.71,-932.475"/>
</g>
<!-- 27&#45;&gt;29 -->
<g id="edge21" class="edge"><title>27&#45;&gt;29</title>
<path fill="none" stroke="black" stroke-width="15" d="M2707.62,-1603.49C2680.57,-1738.74 2626.74,-2007.88 2598.41,-2149.53"/>
<polygon fill="black" stroke="black" stroke-width="15" points="2585.51,-2147.13 2596.42,-2159.51 2611.25,-2152.28 2585.51,-2147.13"/>
</g>
<!-- 28&#45;&gt;49 -->
<g id="edge31" class="edge"><title>28&#45;&gt;49</title>
<path fill="none" stroke="orange" stroke-width="15" d="M-2061,1291.41C-2140.13,1476.04 -2340.22,1942.92 -2423.14,2136.38"/>
<polygon fill="orange" stroke="orange" stroke-width="15" points="-2411.11,2141.64 -2427.11,2145.67 -2435.24,2131.3 -2411.11,2141.64"/>
</g>
<!-- 29&#45;&gt;7 -->
<g id="edge22" class="edge"><title>29&#45;&gt;7</title>
<path fill="none" stroke="black" stroke-width="15" d="M2505.08,-2279.06C2465.49,-2298.85 2416.78,-2323.21 2375.92,-2343.64"/>
<polygon fill="black" stroke="black" stroke-width="15" points="2369.87,-2331.99 2366.79,-2348.2 2381.61,-2355.47 2369.87,-2331.99"/>
</g>
<!-- 30&#45;&gt;53 -->
<g id="edge33" class="edge"><title>30&#45;&gt;53</title>
<path fill="none" stroke="orange" stroke-width="15" d="M-3314.77,3003.36C-3289.16,2772.86 -3217.31,2126.23 -3190.38,1883.78"/>
<polygon fill="orange" stroke="orange" stroke-width="15" points="-3203.39,1882.08 -3189.24,1873.59 -3177.3,1884.98 -3203.39,1882.08"/>
</g>
<!-- 31&#45;&gt;44 -->
<g id="edge47" class="edge"><title>31&#45;&gt;44</title>
<path fill="none" stroke="red" stroke-width="15" d="M-2273,1286.07C-2191.94,1421.16 -2017.09,1712.58 -1932.2,1854.07"/>
<polygon fill="red" stroke="red" stroke-width="15" points="-1920.88,1847.43 -1926.99,1862.75 -1943.39,1860.93 -1920.88,1847.43"/>
</g>
<!-- 32&#45;&gt;0 -->
<g id="edge9" class="edge"><title>32&#45;&gt;0</title>
<path fill="none" stroke="blue" stroke-width="15" d="M2530.48,2731.19C2103.91,2152.28 -945.042,-1985.59 -1396.26,-2597.95"/>
<polygon fill="blue" stroke="blue" stroke-width="15" points="-1407.03,-2590.44 -1402.4,-2606.28 -1385.9,-2606.01 -1407.03,-2590.44"/>
</g>
<!-- 33&#45;&gt;41 -->
<g id="edge27" class="edge"><title>33&#45;&gt;41</title>
<path fill="none" stroke="green" stroke-width="15" d="M-527.649,-2961.6C-662.856,-2961.6 -928.526,-2961.6 -1070.05,-2961.6"/>
<polygon fill="green" stroke="green" stroke-width="15" points="-1070.44,-2948.48 -1080.44,-2961.6 -1070.44,-2974.73 -1070.44,-2948.48"/>
</g>
<!-- 34&#45;&gt;2 -->
<g id="edge2" class="edge"><title>34&#45;&gt;2</title>
<path fill="none" stroke="blue" stroke-width="15" d="M-1171.56,-286.39C-1196.13,-16.1594 -1273.58,835.769 -1299.47,1120.6"/>
<polygon fill="blue" stroke="blue" stroke-width="15" points="-1286.43,1122.13 -1300.41,1130.9 -1312.57,1119.75 -1286.43,1122.13"/>
</g>
<!-- 35&#45;&gt;23 -->
<g id="edge43" class="edge"><title>35&#45;&gt;23</title>
<path fill="none" stroke="blue" stroke-width="15" d="M777.302,-908.251C571.966,-805.583 -0.0568176,-519.572 -216.014,-411.593"/>
<polygon fill="blue" stroke="blue" stroke-width="15" points="-210.283,-399.784 -225.097,-407.051 -222.023,-423.263 -210.283,-399.784"/>
</g>
<!-- 36&#45;&gt;22 -->
<g id="edge5" class="edge"><title>36&#45;&gt;22</title>
<path fill="none" stroke="blue" stroke-width="15" d="M-1226.99,2962.65C-1018.8,3014.7 -466.091,3152.88 -247.157,3207.61"/>
<polygon fill="blue" stroke="blue" stroke-width="15" points="-243.819,3194.92 -237.301,3210.07 -250.186,3220.38 -243.819,3194.92"/>
</g>
<!-- 37&#45;&gt;57 -->
<g id="edge64" class="edge"><title>37&#45;&gt;57</title>
<path fill="none" stroke="green" stroke-width="15" d="M3225.08,-1916.14C3185.49,-1896.35 3136.78,-1871.99 3095.92,-1851.56"/>
<polygon fill="green" stroke="green" stroke-width="15" points="3101.61,-1839.73 3086.79,-1847 3089.87,-1863.21 3101.61,-1839.73"/>
</g>
<!-- 38&#45;&gt;33 -->
<g id="edge26" class="edge"><title>38&#45;&gt;33</title>
<path fill="none" stroke="green" stroke-width="15" d="M1056.51,-2961.6C785.96,-2961.6 -65.5663,-2961.6 -350.254,-2961.6"/>
<polygon fill="green" stroke="green" stroke-width="15" points="-350.547,-2948.48 -360.547,-2961.6 -350.547,-2974.73 -350.547,-2948.48"/>
</g>
<!-- 39&#45;&gt;14 -->
<g id="edge13" class="edge"><title>39&#45;&gt;14</title>
<path fill="none" stroke="red" stroke-width="15" d="M1220.62,-135.929C921.792,-392.064 -344.971,-1477.86 -660.563,-1748.37"/>
<polygon fill="red" stroke="red" stroke-width="15" points="-669.236,-1738.52 -668.287,-1754.99 -652.152,-1758.45 -669.236,-1738.52"/>
</g>
<!-- 40&#45;&gt;46 -->
<g id="edge35" class="edge"><title>40&#45;&gt;46</title>
<path fill="none" stroke="orange" stroke-width="15" d="M-2316,-1029.05C-2316,-1135.02 -2316,-1317.36 -2316,-1427.97"/>
<polygon fill="orange" stroke="orange" stroke-width="15" points="-2329.12,-1428.11 -2316,-1438.11 -2302.87,-1428.11 -2329.12,-1428.11"/>
</g>
<!-- 41&#45;&gt;0 -->
<g id="edge28" class="edge"><title>41&#45;&gt;0</title>
<path fill="none" stroke="green" stroke-width="15" d="M-1223.32,-2902.28C-1270.57,-2855.03 -1336.66,-2788.94 -1385.65,-2739.95"/>
<polygon fill="green" stroke="green" stroke-width="15" points="-1376.4,-2730.64 -1392.75,-2732.85 -1394.96,-2749.2 -1376.4,-2730.64"/>
</g>
<!-- 42&#45;&gt;39 -->
<g id="edge12" class="edge"><title>42&#45;&gt;39</title>
<path fill="none" stroke="red" stroke-width="15" d="M721.741,3291.96C799.758,2823.85 1186.42,503.891 1268.62,10.6836"/>
<polygon fill="red" stroke="red" stroke-width="15" points="1255.68,8.46628 1270.27,0.760185 1281.58,12.782 1255.68,8.46628"/>
</g>
<!-- 43&#45;&gt;50 -->
<g id="edge59" class="edge"><title>43&#45;&gt;50</title>
<path fill="none" stroke="black" stroke-width="15" d="M2661.91,1301.95C2411.13,1073.97 1473.89,221.939 1209.71,-18.2254"/>
<polygon fill="black" stroke="black" stroke-width="15" points="1200.66,-8.71265 1202.09,-25.1512 1218.32,-28.1361 1200.66,-8.71265"/>
</g>
<!-- 44&#45;&gt;48 -->
<g id="edge48" class="edge"><title>44&#45;&gt;48</title>
<path fill="none" stroke="red" stroke-width="15" d="M-1809.2,1971.8C-1528.05,2112.38 -535.662,2608.57 -239.832,2756.48"/>
<polygon fill="red" stroke="red" stroke-width="15" points="-233.938,2744.76 -230.864,2760.97 -245.678,2768.24 -233.938,2744.76"/>
</g>
<!-- 45&#45;&gt;42 -->
<g id="edge11" class="edge"><title>45&#45;&gt;42</title>
<path fill="none" stroke="red" stroke-width="15" d="M494.917,3267.86C534.506,3287.65 583.225,3312.01 624.081,3332.44"/>
<polygon fill="red" stroke="red" stroke-width="15" points="630.134,3320.79 633.209,3337 618.395,3344.27 630.134,3320.79"/>
</g>
<!-- 46&#45;&gt;25 -->
<g id="edge36" class="edge"><title>46&#45;&gt;25</title>
<path fill="none" stroke="orange" stroke-width="15" d="M-2269.41,-1591.49C-2217.57,-1669.25 -2134.02,-1794.57 -2080.06,-1875.5"/>
<polygon fill="orange" stroke="orange" stroke-width="15" points="-2090.75,-1883.13 -2074.29,-1884.17 -2068.91,-1868.57 -2090.75,-1883.13"/>
</g>
<!-- 47&#45;&gt;0 -->
<g id="edge45" class="edge"><title>47&#45;&gt;0</title>
<path fill="none" stroke="blue" stroke-width="15" d="M-486.189,-1017.92C-648.683,-1296.49 -1233.48,-2298.99 -1404.63,-2592.39"/>
<polygon fill="blue" stroke="blue" stroke-width="15" points="-1416.11,-2586.03 -1409.81,-2601.28 -1393.44,-2599.26 -1416.11,-2586.03"/>
</g>
<!-- 48&#45;&gt;24 -->
<g id="edge49" class="edge"><title>48&#45;&gt;24</title>
<path fill="none" stroke="red" stroke-width="15" d="M-186.021,2720.35C-301.956,2418.91 -720.069,1331.82 -842.249,1014.15"/>
<polygon fill="red" stroke="red" stroke-width="15" points="-854.611,1018.57 -845.951,1004.53 -830.111,1009.15 -854.611,1018.57"/>
</g>
<!-- 49&#45;&gt;30 -->
<g id="edge32" class="edge"><title>49&#45;&gt;30</title>
<path fill="none" stroke="orange" stroke-width="15" d="M-2519.05,2281.45C-2674.56,2436.96 -3094.66,2857.06 -3257.88,3020.28"/>
<polygon fill="orange" stroke="orange" stroke-width="15" points="-3248.64,3029.6 -3264.99,3027.39 -3267.2,3011.04 -3248.64,3029.6"/>
</g>
<!-- 50&#45;&gt;0 -->
<g id="edge60" class="edge"><title>50&#45;&gt;0</title>
<path fill="none" stroke="black" stroke-width="15" d="M1080.99,-140.608C735.613,-485.987 -1021.23,-2242.83 -1385.73,-2607.33"/>
<polygon fill="black" stroke="black" stroke-width="15" points="-1395.01,-2598.05 -1392.8,-2614.4 -1376.45,-2616.61 -1395.01,-2598.05"/>
</g>
<!-- 51&#45;&gt;9 -->
<g id="edge7" class="edge"><title>51&#45;&gt;9</title>
<path fill="none" stroke="blue" stroke-width="15" d="M3372.33,3619.4C3237.24,3538.34 2945.82,3363.49 2804.33,3278.6"/>
<polygon fill="blue" stroke="blue" stroke-width="15" points="2797.47,3289.79 2795.65,3273.39 2810.97,3267.28 2797.47,3289.79"/>
</g>
<!-- 52&#45;&gt;38 -->
<g id="edge25" class="edge"><title>52&#45;&gt;38</title>
<path fill="none" stroke="green" stroke-width="15" d="M630.919,-2579.79C739.085,-2660.91 951.621,-2820.32 1064.84,-2905.23"/>
<polygon fill="green" stroke="green" stroke-width="15" points="1057.28,-2915.96 1073.15,-2911.46 1073.03,-2894.96 1057.28,-2915.96"/>
</g>
<!-- 53&#45;&gt;40 -->
<g id="edge34" class="edge"><title>53&#45;&gt;40</title>
<path fill="none" stroke="orange" stroke-width="15" d="M-3154.84,1710.73C-3029.82,1314.82 -2476.09,-438.661 -2344.24,-856.159"/>
<polygon fill="orange" stroke="orange" stroke-width="15" points="-2356.74,-860.188 -2341.21,-865.771 -2331.7,-852.283 -2356.74,-860.188"/>
</g>
<!-- 54&#45;&gt;5 -->
<g id="edge18" class="edge"><title>54&#45;&gt;5</title>
<path fill="none" stroke="black" stroke-width="15" d="M47.4017,3459C53.4156,3452.98 59.5505,3446.85 65.6315,3440.77"/>
<polygon fill="black" stroke="black" stroke-width="15" points="56.3829,3431.46 72.7348,3433.67 74.9445,3450.02 56.3829,3431.46"/>
</g>
<!-- 55&#45;&gt;35 -->
<g id="edge42" class="edge"><title>55&#45;&gt;35</title>
<path fill="none" stroke="blue" stroke-width="15" d="M912.235,-945.6C912.173,-945.6 912.111,-945.6 912.049,-945.6"/>
<polygon fill="blue" stroke="blue" stroke-width="15" points="921.871,-932.48 911.863,-945.6 921.856,-958.73 921.871,-932.48"/>
</g>
<!-- 56&#45;&gt;43 -->
<g id="edge58" class="edge"><title>56&#45;&gt;43</title>
<path fill="none" stroke="black" stroke-width="15" d="M2724,1418.63C2724,1418.57 2724,1418.51 2724,1418.45"/>
<polygon fill="black" stroke="black" stroke-width="15" points="2710.88,1428.27 2724,1418.26 2737.13,1428.26 2710.88,1428.27"/>
</g>
<!-- 57&#45;&gt;17 -->
<g id="edge65" class="edge"><title>57&#45;&gt;17</title>
<path fill="none" stroke="green" stroke-width="15" d="M3012,-1726.05C3012,-1653.05 3012,-1547.17 3012,-1471.3"/>
<polygon fill="green" stroke="green" stroke-width="15" points="3025.13,-1471.27 3012,-1461.27 2998.88,-1471.27 3025.13,-1471.27"/>
</g>
<!-- 58&#45;&gt;10 -->
<g id="edge16" class="edge"><title>58&#45;&gt;10</title>
<path fill="none" stroke="black" stroke-width="15" d="M-156,722.152C-156,1124.52 -156,2856.99 -156,3280.65"/>
<polygon fill="black" stroke="black" stroke-width="15" points="-142.875,3280.71 -156,3290.71 -169.125,3280.71 -142.875,3280.71"/>
</g>
<!-- 59&#45;&gt;37 -->
<g id="edge63" class="edge"><title>59&#45;&gt;37</title>
<path fill="none" stroke="green" stroke-width="15" d="M1362.72,-2645.49C1681.5,-2531.64 2875.5,-2105.21 3211.51,-1985.2"/>
<polygon fill="green" stroke="green" stroke-width="15" points="3216.2,-1997.47 3221.2,-1981.74 3207.37,-1972.74 3216.2,-1997.47"/>
</g>
<!-- 0 -->
<g id="node1" class="node"><title>0</title>
<ellipse fill="white" stroke="black" stroke-width="15" cx="-1452" cy="-2673.6" rx="83.3772" ry="83.3772"/>
<text text-anchor="middle" x="-1452" y="-2648.6" font-family="Times,serif" font-size="100.00">0</text>
</g>
<!-- 1 -->
<g id="node2" class="node"><title>1</title>
<ellipse fill="white" stroke="black" stroke-width="15" cx="-1020" cy="2078.4" rx="83.3772" ry="83.3772"/>
<text text-anchor="middle" x="-1020" y="2103.4" font-family="Times,serif" font-size="100.00">1</text>
</g>
<!-- 2 -->
<g id="node3" class="node"><title>2</title>
<ellipse fill="white" stroke="black" stroke-width="15" cx="-1308" cy="1214.4" rx="83.3772" ry="83.3772"/>
<text text-anchor="middle" x="-1308" y="1239.4" font-family="Times,serif" font-size="100.00">2</text>
</g>
<!-- 3 -->
<g id="node4" class="node"><title>3</title>
<ellipse fill="white" stroke="black" stroke-width="15" cx="-2892" cy="-1809.6" rx="83.3772" ry="83.3772"/>
<text text-anchor="middle" x="-2892" y="-1784.6" font-family="Times,serif" font-size="100.00">3</text>
</g>
<!-- 4 -->
<g id="node5" class="node"><title>4</title>
<ellipse fill="white" stroke="black" stroke-width="15" cx="-3324" cy="-225.6" rx="83.3772" ry="83.3772"/>
<text text-anchor="middle" x="-3324" y="-200.6" font-family="Times,serif" font-size="100.00">4</text>
</g>
<!-- 5 -->
<g id="node6" class="node"><title>5</title>
<ellipse fill="white" stroke="black" stroke-width="15" cx="132" cy="3374.4" rx="83.3772" ry="83.3772"/>
<text text-anchor="middle" x="132" y="3399.4" font-family="Times,serif" font-size="100.00">5</text>
</g>
<!-- 6 -->
<g id="node7" class="node"><title>6</title>
<ellipse fill="white" stroke="black" stroke-width="15" cx="-1884" cy="206.4" rx="83.3772" ry="83.3772"/>
<text text-anchor="middle" x="-1884" y="231.4" font-family="Times,serif" font-size="100.00">6</text>
</g>
<!-- 7 -->
<g id="node8" class="node"><title>7</title>
<ellipse fill="white" stroke="black" stroke-width="15" cx="2292" cy="-2385.6" rx="83.3772" ry="83.3772"/>
<text text-anchor="middle" x="2292" y="-2360.6" font-family="Times,serif" font-size="100.00">7</text>
</g>
<!-- 8 -->
<g id="node9" class="node"><title>8</title>
<ellipse fill="white" stroke="black" stroke-width="15" cx="2436" cy="-1953.6" rx="83.3772" ry="83.3772"/>
<text text-anchor="middle" x="2436" y="-1928.6" font-family="Times,serif" font-size="100.00">8</text>
</g>
<!-- 9 -->
<g id="node10" class="node"><title>9</title>
<ellipse fill="white" stroke="black" stroke-width="15" cx="2724" cy="3230.4" rx="83.3772" ry="83.3772"/>
<text text-anchor="middle" x="2724" y="3255.4" font-family="Times,serif" font-size="100.00">9</text>
</g>
<!-- 10 -->
<g id="node11" class="node"><title>10</title>
<ellipse fill="white" stroke="black" stroke-width="15" cx="-156" cy="3374.4" rx="83.3772" ry="83.3772"/>
<text text-anchor="middle" x="-156" y="3399.4" font-family="Times,serif" font-size="100.00">10</text>
</g>
<!-- 11 -->
<g id="node12" class="node"><title>11</title>
<ellipse fill="white" stroke="black" stroke-width="15" cx="-2892" cy="-657.6" rx="83.3772" ry="83.3772"/>
<text text-anchor="middle" x="-2892" y="-632.6" font-family="Times,serif" font-size="100.00">11</text>
</g>
<!-- 12 -->
<g id="node13" class="node"><title>12</title>
<ellipse fill="white" stroke="black" stroke-width="15" cx="3444" cy="2078.4" rx="83.3772" ry="83.3772"/>
<text text-anchor="middle" x="3444" y="2103.4" font-family="Times,serif" font-size="100.00">12</text>
</g>
<!-- 13 -->
<g id="node14" class="node"><title>13</title>
<ellipse fill="white" stroke="black" stroke-width="15" cx="2436" cy="-2097.6" rx="83.3772" ry="83.3772"/>
<text text-anchor="middle" x="2436" y="-2072.6" font-family="Times,serif" font-size="100.00">13</text>
</g>
<!-- 14 -->
<g id="node15" class="node"><title>14</title>
<ellipse fill="white" stroke="black" stroke-width="15" cx="-732" cy="-1809.6" rx="83.3772" ry="83.3772"/>
<text text-anchor="middle" x="-732" y="-1784.6" font-family="Times,serif" font-size="100.00">14</text>
</g>
<!-- 15 -->
<g id="node16" class="node"><title>15</title>
<ellipse fill="white" stroke="black" stroke-width="15" cx="1572" cy="-945.6" rx="83.3772" ry="83.3772"/>
<text text-anchor="middle" x="1572" y="-920.6" font-family="Times,serif" font-size="100.00">15</text>
</g>
<!-- 16 -->
<g id="node17" class="node"><title>16</title>
<ellipse fill="white" stroke="black" stroke-width="15" cx="-2316" cy="-2817.6" rx="83.3772" ry="83.3772"/>
<text text-anchor="middle" x="-2316" y="-2792.6" font-family="Times,serif" font-size="100.00">16</text>
</g>
<!-- 17 -->
<g id="node18" class="node"><title>17</title>
<ellipse fill="white" stroke="black" stroke-width="15" cx="3012" cy="-1377.6" rx="83.3772" ry="83.3772"/>
<text text-anchor="middle" x="3012" y="-1352.6" font-family="Times,serif" font-size="100.00">17</text>
</g>
<!-- 18 -->
<g id="node19" class="node"><title>18</title>
<ellipse fill="white" stroke="black" stroke-width="15" cx="-1020" cy="-2673.6" rx="83.3772" ry="83.3772"/>
<text text-anchor="middle" x="-1020" y="-2648.6" font-family="Times,serif" font-size="100.00">18</text>
</g>
<!-- 19 -->
<g id="node20" class="node"><title>19</title>
<ellipse fill="white" stroke="black" stroke-width="15" cx="708" cy="-1953.6" rx="83.3772" ry="83.3772"/>
<text text-anchor="middle" x="708" y="-1928.6" font-family="Times,serif" font-size="100.00">19</text>
</g>
<!-- 20 -->
<g id="node21" class="node"><title>20</title>
<ellipse fill="white" stroke="black" stroke-width="15" cx="-2604" cy="-2817.6" rx="83.3772" ry="83.3772"/>
<text text-anchor="middle" x="-2604" y="-2792.6" font-family="Times,serif" font-size="100.00">20</text>
</g>
<!-- 21 -->
<g id="node22" class="node"><title>21</title>
<ellipse fill="white" stroke="black" stroke-width="15" cx="-3180" cy="-81.6" rx="83.3772" ry="83.3772"/>
<text text-anchor="middle" x="-3180" y="-56.6" font-family="Times,serif" font-size="100.00">21</text>
</g>
<!-- 22 -->
<g id="node23" class="node"><title>22</title>
<ellipse fill="white" stroke="black" stroke-width="15" cx="-156" cy="3230.4" rx="83.3772" ry="83.3772"/>
<text text-anchor="middle" x="-156" y="3255.4" font-family="Times,serif" font-size="100.00">22</text>
</g>
<!-- 23 -->
<g id="node24" class="node"><title>23</title>
<ellipse fill="white" stroke="black" stroke-width="15" cx="-300" cy="-369.6" rx="83.3772" ry="83.3772"/>
<text text-anchor="middle" x="-300" y="-344.6" font-family="Times,serif" font-size="100.00">23</text>
</g>
<!-- 24 -->
<g id="node25" class="node"><title>24</title>
<ellipse fill="white" stroke="black" stroke-width="15" cx="-876" cy="926.4" rx="83.3772" ry="83.3772"/>
<text text-anchor="middle" x="-876" y="951.4" font-family="Times,serif" font-size="100.00">24</text>
</g>
<!-- 25 -->
<g id="node26" class="node"><title>25</title>
<ellipse fill="white" stroke="black" stroke-width="15" cx="-2028" cy="-1953.6" rx="83.3772" ry="83.3772"/>
<text text-anchor="middle" x="-2028" y="-1928.6" font-family="Times,serif" font-size="100.00">25</text>
</g>
<!-- 26 -->
<g id="node27" class="node"><title>26</title>
<ellipse fill="white" stroke="black" stroke-width="15" cx="2580" cy="-945.6" rx="83.3772" ry="83.3772"/>
<text text-anchor="middle" x="2580" y="-920.6" font-family="Times,serif" font-size="100.00">26</text>
</g>
<!-- 27 -->
<g id="node28" class="node"><title>27</title>
<ellipse fill="white" stroke="black" stroke-width="15" cx="2724" cy="-1521.6" rx="83.3772" ry="83.3772"/>
<text text-anchor="middle" x="2724" y="-1496.6" font-family="Times,serif" font-size="100.00">27</text>
</g>
<!-- 28 -->
<g id="node29" class="node"><title>28</title>
<ellipse fill="white" stroke="black" stroke-width="15" cx="-2028" cy="1214.4" rx="83.3772" ry="83.3772"/>
<text text-anchor="middle" x="-2028" y="1239.4" font-family="Times,serif" font-size="100.00">28</text>
</g>
<!-- 29 -->
<g id="node30" class="node"><title>29</title>
<ellipse fill="white" stroke="black" stroke-width="15" cx="2580" cy="-2241.6" rx="83.3772" ry="83.3772"/>
<text text-anchor="middle" x="2580" y="-2216.6" font-family="Times,serif" font-size="100.00">29</text>
</g>
<!-- 30 -->
<g id="node31" class="node"><title>30</title>
<ellipse fill="white" stroke="black" stroke-width="15" cx="-3324" cy="3086.4" rx="83.3772" ry="83.3772"/>
<text text-anchor="middle" x="-3324" y="3111.4" font-family="Times,serif" font-size="100.00">30</text>
</g>
<!-- 31 -->
<g id="node32" class="node"><title>31</title>
<ellipse fill="white" stroke="black" stroke-width="15" cx="-2316" cy="1214.4" rx="83.3772" ry="83.3772"/>
<text text-anchor="middle" x="-2316" y="1239.4" font-family="Times,serif" font-size="100.00">31</text>
</g>
<!-- 32 -->
<g id="node33" class="node"><title>32</title>
<ellipse fill="white" stroke="black" stroke-width="15" cx="2580" cy="2798.4" rx="83.3772" ry="83.3772"/>
<text text-anchor="middle" x="2580" y="2823.4" font-family="Times,serif" font-size="100.00">32</text>
</g>
<!-- 33 -->
<g id="node34" class="node"><title>33</title>
<ellipse fill="white" stroke="black" stroke-width="15" cx="-444" cy="-2961.6" rx="83.3772" ry="83.3772"/>
<text text-anchor="middle" x="-444" y="-2936.6" font-family="Times,serif" font-size="100.00">33</text>
</g>
<!-- 34 -->
<g id="node35" class="node"><title>34</title>
<ellipse fill="white" stroke="black" stroke-width="15" cx="-1164" cy="-369.6" rx="83.3772" ry="83.3772"/>
<text text-anchor="middle" x="-1164" y="-344.6" font-family="Times,serif" font-size="100.00">34</text>
</g>
<!-- 35 -->
<g id="node36" class="node"><title>35</title>
<ellipse fill="white" stroke="black" stroke-width="15" cx="852" cy="-945.6" rx="83.3772" ry="83.3772"/>
<text text-anchor="middle" x="852" y="-920.6" font-family="Times,serif" font-size="100.00">35</text>
</g>
<!-- 36 -->
<g id="node37" class="node"><title>36</title>
<ellipse fill="white" stroke="black" stroke-width="15" cx="-1308" cy="2942.4" rx="83.3772" ry="83.3772"/>
<text text-anchor="middle" x="-1308" y="2967.4" font-family="Times,serif" font-size="100.00">36</text>
</g>
<!-- 37 -->
<g id="node38" class="node"><title>37</title>
<ellipse fill="white" stroke="black" stroke-width="15" cx="3300" cy="-1953.6" rx="83.3772" ry="83.3772"/>
<text text-anchor="middle" x="3300" y="-1928.6" font-family="Times,serif" font-size="100.00">37</text>
</g>
<!-- 38 -->
<g id="node39" class="node"><title>38</title>
<ellipse fill="white" stroke="black" stroke-width="15" cx="1140" cy="-2961.6" rx="83.3772" ry="83.3772"/>
<text text-anchor="middle" x="1140" y="-2936.6" font-family="Times,serif" font-size="100.00">38</text>
</g>
<!-- 39 -->
<g id="node40" class="node"><title>39</title>
<ellipse fill="white" stroke="black" stroke-width="15" cx="1284" cy="-81.6" rx="83.3772" ry="83.3772"/>
<text text-anchor="middle" x="1284" y="-56.6" font-family="Times,serif" font-size="100.00">39</text>
</g>
<!-- 40 -->
<g id="node41" class="node"><title>40</title>
<ellipse fill="white" stroke="black" stroke-width="15" cx="-2316" cy="-945.6" rx="83.3772" ry="83.3772"/>
<text text-anchor="middle" x="-2316" y="-920.6" font-family="Times,serif" font-size="100.00">40</text>
</g>
<!-- 41 -->
<g id="node42" class="node"><title>41</title>
<ellipse fill="white" stroke="black" stroke-width="15" cx="-1164" cy="-2961.6" rx="83.3772" ry="83.3772"/>
<text text-anchor="middle" x="-1164" y="-2936.6" font-family="Times,serif" font-size="100.00">41</text>
</g>
<!-- 42 -->
<g id="node43" class="node"><title>42</title>
<ellipse fill="white" stroke="black" stroke-width="15" cx="708" cy="3374.4" rx="83.3772" ry="83.3772"/>
<text text-anchor="middle" x="708" y="3399.4" font-family="Times,serif" font-size="100.00">42</text>
</g>
<!-- 43 -->
<g id="node44" class="node"><title>43</title>
<ellipse fill="white" stroke="black" stroke-width="15" cx="2724" cy="1358.4" rx="83.3772" ry="83.3772"/>
<text text-anchor="middle" x="2724" y="1383.4" font-family="Times,serif" font-size="100.00">43</text>
</g>
<!-- 44 -->
<g id="node45" class="node"><title>44</title>
<ellipse fill="white" stroke="black" stroke-width="15" cx="-1884" cy="1934.4" rx="83.3772" ry="83.3772"/>
<text text-anchor="middle" x="-1884" y="1959.4" font-family="Times,serif" font-size="100.00">44</text>
</g>
<!-- 45 -->
<g id="node46" class="node"><title>45</title>
<ellipse fill="white" stroke="black" stroke-width="15" cx="420" cy="3230.4" rx="83.3772" ry="83.3772"/>
<text text-anchor="middle" x="420" y="3255.4" font-family="Times,serif" font-size="100.00">45</text>
</g>
<!-- 46 -->
<g id="node47" class="node"><title>46</title>
<ellipse fill="white" stroke="black" stroke-width="15" cx="-2316" cy="-1521.6" rx="83.3772" ry="83.3772"/>
<text text-anchor="middle" x="-2316" y="-1496.6" font-family="Times,serif" font-size="100.00">46</text>
</g>
<!-- 47 -->
<g id="node48" class="node"><title>47</title>
<ellipse fill="white" stroke="black" stroke-width="15" cx="-444" cy="-945.6" rx="83.3772" ry="83.3772"/>
<text text-anchor="middle" x="-444" y="-920.6" font-family="Times,serif" font-size="100.00">47</text>
</g>
<!-- 48 -->
<g id="node49" class="node"><title>48</title>
<ellipse fill="white" stroke="black" stroke-width="15" cx="-156" cy="2798.4" rx="83.3772" ry="83.3772"/>
<text text-anchor="middle" x="-156" y="2823.4" font-family="Times,serif" font-size="100.00">48</text>
</g>
<!-- 49 -->
<g id="node50" class="node"><title>49</title>
<ellipse fill="white" stroke="black" stroke-width="15" cx="-2460" cy="2222.4" rx="83.3772" ry="83.3772"/>
<text text-anchor="middle" x="-2460" y="2247.4" font-family="Times,serif" font-size="100.00">49</text>
</g>
<!-- 50 -->
<g id="node51" class="node"><title>50</title>
<ellipse fill="white" stroke="black" stroke-width="15" cx="1140" cy="-81.6" rx="83.3772" ry="83.3772"/>
<text text-anchor="middle" x="1140" y="-56.6" font-family="Times,serif" font-size="100.00">50</text>
</g>
<!-- 51 -->
<g id="node52" class="node"><title>51</title>
<ellipse fill="white" stroke="black" stroke-width="15" cx="3444" cy="3662.4" rx="83.3772" ry="83.3772"/>
<text text-anchor="middle" x="3444" y="3687.4" font-family="Times,serif" font-size="100.00">51</text>
</g>
<!-- 52 -->
<g id="node53" class="node"><title>52</title>
<ellipse fill="white" stroke="black" stroke-width="15" cx="564" cy="-2529.6" rx="83.3772" ry="83.3772"/>
<text text-anchor="middle" x="564" y="-2504.6" font-family="Times,serif" font-size="100.00">52</text>
</g>
<!-- 53 -->
<g id="node54" class="node"><title>53</title>
<ellipse fill="white" stroke="black" stroke-width="15" cx="-3180" cy="1790.4" rx="83.3772" ry="83.3772"/>
<text text-anchor="middle" x="-3180" y="1815.4" font-family="Times,serif" font-size="100.00">53</text>
</g>
<!-- 54 -->
<g id="node55" class="node"><title>54</title>
<ellipse fill="white" stroke="black" stroke-width="15" cx="-12" cy="3518.4" rx="83.3772" ry="83.3772"/>
<text text-anchor="middle" x="-12" y="3543.4" font-family="Times,serif" font-size="100.00">54</text>
</g>
<!-- 55 -->
<g id="node56" class="node"><title>55</title>
<ellipse fill="white" stroke="black" stroke-width="15" cx="996" cy="-945.6" rx="83.3772" ry="83.3772"/>
<text text-anchor="middle" x="996" y="-920.6" font-family="Times,serif" font-size="100.00">55</text>
</g>
<!-- 56 -->
<g id="node57" class="node"><title>56</title>
<ellipse fill="white" stroke="black" stroke-width="15" cx="2724" cy="1502.4" rx="83.3772" ry="83.3772"/>
<text text-anchor="middle" x="2724" y="1527.4" font-family="Times,serif" font-size="100.00">56</text>
</g>
<!-- 57 -->
<g id="node58" class="node"><title>57</title>
<ellipse fill="white" stroke="black" stroke-width="15" cx="3012" cy="-1809.6" rx="83.3772" ry="83.3772"/>
<text text-anchor="middle" x="3012" y="-1784.6" font-family="Times,serif" font-size="100.00">57</text>
</g>
<!-- 58 -->
<g id="node59" class="node"><title>58</title>
<ellipse fill="white" stroke="black" stroke-width="15" cx="-156" cy="638.4" rx="83.3772" ry="83.3772"/>
<text text-anchor="middle" x="-156" y="663.4" font-family="Times,serif" font-size="100.00">58</text>
</g>
<!-- 59 -->
<g id="node60" class="node"><title>59</title>
<ellipse fill="white" stroke="black" stroke-width="15" cx="1284" cy="-2673.6" rx="83.3772" ry="83.3772"/>
<text text-anchor="middle" x="1284" y="-2648.6" font-family="Times,serif" font-size="100.00">59</text>
</g>
</g>
</svg>
