<?xml version="1.0" encoding="UTF-8" standalone="no"?>
<!DOCTYPE svg PUBLIC "-//W3C//DTD SVG 1.1//EN"
 "http://www.w3.org/Graphics/SVG/1.1/DTD/svg11.dtd">
<!-- Generated by graphviz version 2.40.1 (20161225.0304)
 -->
<!-- Title: g Pages: 1 -->
<svg width="7605pt" height="7486pt"
 viewBox="216.00 216.00 7389.02 7269.82" xmlns="http://www.w3.org/2000/svg" xmlns:xlink="http://www.w3.org/1999/xlink">
<g id="graph0" class="graph" transform="scale(1 1) rotate(0) translate(220 7265.8193)">
<title>g</title>
<polygon fill="#ffffff" stroke="transparent" points="-4,4 -4,-7049.8193 7169.0193,-7049.8193 7169.0193,4 -4,4"/>
<text text-anchor="middle" x="3582.5097" y="-7029.2193" font-family="Times,serif" font-size="14.00" fill="#000000">data01_gen (cost = 1582)</text>
<!-- 0&#45;&gt;3 -->
<g id="edge1" class="edge">
<title>0&#45;&gt;3</title>
<path fill="none" stroke="#0000ff" stroke-width="15" d="M5882.8839,-5336.8566C5599.9237,-4753.7872 3888.7427,-1227.7172 3590.7469,-613.6652"/>
<polygon fill="#0000ff" stroke="#0000ff" stroke-width="15" points="3602.4269,-607.6709 3586.2529,-604.4047 3578.8109,-619.1317 3602.4269,-607.6709"/>
</g>
<!-- 0&#45;&gt;23 -->
<g id="edge10" class="edge">
<title>0&#45;&gt;23</title>
<path fill="none" stroke="#ff0000" stroke-width="15" d="M5876.1052,-5340.7823C5537.62,-4773.8194 3451.8452,-1280.1468 3094.5595,-681.6931"/>
<polygon fill="#ff0000" stroke="#ff0000" stroke-width="15" points="3105.5696,-674.5306 3089.174,-672.6724 3083.0307,-687.9867 3105.5696,-674.5306"/>
</g>
<!-- 0&#45;&gt;27 -->
<g id="edge27" class="edge">
<title>0&#45;&gt;27</title>
<path fill="none" stroke="#00ff00" stroke-width="15" d="M5835.0836,-5394.0304C5533.2446,-5309.5154 4536.1315,-5030.3238 4219.7424,-4941.7348"/>
<polygon fill="#00ff00" stroke="#00ff00" stroke-width="15" points="4222.8467,-4928.9743 4209.6781,-4938.9168 4215.7688,-4954.2521 4222.8467,-4928.9743"/>
</g>
<!-- 0&#45;&gt;30 -->
<g id="edge33" class="edge">
<title>0&#45;&gt;30</title>
<path fill="none" stroke="#ffa500" stroke-width="15" d="M5939.2791,-5329.0727C5978.9864,-5117.3002 6078.5206,-4586.4511 6119.9563,-4365.4612"/>
<polygon fill="#ffa500" stroke="#ffa500" stroke-width="15" points="6132.8824,-4367.7412 6121.8252,-4355.4936 6107.082,-4362.9034 6132.8824,-4367.7412"/>
</g>
<!-- 0&#45;&gt;31 -->
<g id="edge20" class="edge">
<title>0&#45;&gt;31</title>
<path fill="none" stroke="#000000" stroke-width="15" d="M5942.4441,-5330.0508C6081.5596,-4712.7256 6906.0013,-1054.2656 7052.3149,-404.999"/>
<polygon fill="#000000" stroke="#000000" stroke-width="15" points="7065.1281,-407.8427 7054.5227,-395.2019 7039.5203,-402.0717 7065.1281,-407.8427"/>
</g>
<!-- 1&#45;&gt;8 -->
<g id="edge16" class="edge">
<title>1&#45;&gt;8</title>
<path fill="none" stroke="#ff0000" stroke-width="15" d="M6842.4682,-3093.0361C6168.4526,-2928.6421 1833.2082,-1871.2654 1124.442,-1698.3956"/>
<polygon fill="#ff0000" stroke="#ff0000" stroke-width="15" points="1127.3459,-1685.5942 1114.5206,-1695.9757 1121.1256,-1711.0966 1127.3459,-1685.5942"/>
</g>
<!-- 2&#45;&gt;20 -->
<g id="edge12" class="edge">
<title>2&#45;&gt;20</title>
<path fill="none" stroke="#ff0000" stroke-width="15" d="M3618.5097,-397.2947C3618.5097,-1109.6109 3618.5097,-5792.614 3618.5097,-6541.5657"/>
<polygon fill="#ff0000" stroke="#ff0000" stroke-width="15" points="3605.3848,-6541.7794 3618.5097,-6551.7795 3631.6348,-6541.7797 3605.3848,-6541.7794"/>
</g>
<!-- 3&#45;&gt;28 -->
<g id="edge2" class="edge">
<title>3&#45;&gt;28</title>
<path fill="none" stroke="#0000ff" stroke-width="15" d="M3459.0417,-546.0587C3148.2304,-629.7387 2098.2819,-912.4171 1772.0509,-1000.2486"/>
<polygon fill="#0000ff" stroke="#0000ff" stroke-width="15" points="1768.3901,-987.6417 1762.1462,-1002.9152 1775.2146,-1012.9891 1768.3901,-987.6417"/>
</g>
<!-- 4&#45;&gt;6 -->
<g id="edge7" class="edge">
<title>4&#45;&gt;6</title>
<path fill="none" stroke="#0000ff" stroke-width="15" d="M1035.4083,-491.8579C1481.3357,-719.7763 3636.2618,-1821.183 4104.5713,-2060.5411"/>
<polygon fill="#0000ff" stroke="#0000ff" stroke-width="15" points="4098.7922,-2072.3274 4113.6699,-2065.1916 4110.739,-2048.9534 4098.7922,-2072.3274"/>
</g>
<!-- 5&#45;&gt;10 -->
<g id="edge18" class="edge">
<title>5&#45;&gt;10</title>
<path fill="none" stroke="#ff0000" stroke-width="15" d="M2019.0417,-6330.9606C1708.2304,-6247.2806 658.2819,-5964.6022 332.0509,-5876.7708"/>
<polygon fill="#ff0000" stroke="#ff0000" stroke-width="15" points="335.2146,-5864.0302 322.1462,-5874.1041 328.3901,-5889.3776 335.2146,-5864.0302"/>
</g>
<!-- 6&#45;&gt;15 -->
<g id="edge8" class="edge">
<title>6&#45;&gt;15</title>
<path fill="none" stroke="#0000ff" stroke-width="15" d="M4117.0944,-2154.0454C3605.4196,-2468.2317 714.1067,-4243.5992 176.5358,-4573.6866"/>
<polygon fill="#0000ff" stroke="#0000ff" stroke-width="15" points="169.3088,-4562.7223 167.655,-4579.1398 183.0446,-4585.0918 169.3088,-4562.7223"/>
</g>
<!-- 7&#45;&gt;0 -->
<g id="edge36" class="edge">
<title>7&#45;&gt;0</title>
<path fill="none" stroke="#ffa500" stroke-width="15" d="M6061.6153,-2845.0557C6039.7282,-3249.9664 5950.8977,-4893.3314 5927.9441,-5317.9718"/>
<polygon fill="#ffa500" stroke="#ffa500" stroke-width="15" points="5914.8319,-5317.3822 5927.398,-5328.0762 5941.0437,-5318.7993 5914.8319,-5317.3822"/>
</g>
<!-- 8&#45;&gt;5 -->
<g id="edge17" class="edge">
<title>8&#45;&gt;5</title>
<path fill="none" stroke="#ff0000" stroke-width="15" d="M1046.8821,-1762.7902C1181.4973,-2346.1228 1941.9976,-5641.624 2083.7574,-6255.9164"/>
<polygon fill="#ff0000" stroke="#ff0000" stroke-width="15" points="2071.0619,-6259.273 2086.0995,-6266.0656 2096.6397,-6253.3703 2071.0619,-6259.273"/>
</g>
<!-- 9&#45;&gt;18 -->
<g id="edge14" class="edge">
<title>9&#45;&gt;18</title>
<path fill="none" stroke="#ff0000" stroke-width="15" d="M246.6401,-2719.8677C467.455,-2628.9439 1062.4146,-2383.9606 1293.2156,-2288.9249"/>
<polygon fill="#ff0000" stroke="#ff0000" stroke-width="15" points="1298.352,-2301.0041 1302.6014,-2285.0601 1288.3572,-2276.7313 1298.352,-2301.0041"/>
</g>
<!-- 10&#45;&gt;0 -->
<g id="edge19" class="edge">
<title>10&#45;&gt;0</title>
<path fill="none" stroke="#ff0000" stroke-width="15" d="M325.003,-5843.6368C990.6539,-5793.081 5122.9562,-5479.2352 5822.0835,-5426.137"/>
<polygon fill="#ff0000" stroke="#ff0000" stroke-width="15" points="5823.1489,-5439.219 5832.1261,-5425.3742 5821.1607,-5413.0443 5823.1489,-5439.219"/>
</g>
<!-- 11&#45;&gt;4 -->
<g id="edge6" class="edge">
<title>11&#45;&gt;4</title>
<path fill="none" stroke="#0000ff" stroke-width="15" d="M463.5005,-634.6381C569.4706,-594.8993 750.0499,-527.1821 860.1924,-485.8787"/>
<polygon fill="#0000ff" stroke="#0000ff" stroke-width="15" points="864.8851,-498.1365 869.6398,-482.3359 855.668,-473.5578 864.8851,-498.1365"/>
</g>
<!-- 12&#45;&gt;26 -->
<g id="edge25" class="edge">
<title>12&#45;&gt;26</title>
<path fill="none" stroke="#000000" stroke-width="15" d="M6985.1748,-3705.3988C6751.4329,-3744.3558 6123.0063,-3849.0936 5878.1234,-3889.9074"/>
<polygon fill="#000000" stroke="#000000" stroke-width="15" points="5875.8694,-3876.9769 5868.1633,-3891.5674 5880.1851,-3902.8697 5875.8694,-3876.9769"/>
</g>
<!-- 13&#45;&gt;0 -->
<g id="edge32" class="edge">
<title>13&#45;&gt;0</title>
<path fill="none" stroke="#00ff00" stroke-width="15" d="M6062.9501,-1837.2787C6043.1964,-2340.9981 5947.1893,-4789.1799 5926.4601,-5317.7725"/>
<polygon fill="#00ff00" stroke="#00ff00" stroke-width="15" points="5913.3345,-5317.5335 5926.0575,-5328.0403 5939.5644,-5318.5624 5913.3345,-5317.5335"/>
</g>
<!-- 14&#45;&gt;24 -->
<g id="edge30" class="edge">
<title>14&#45;&gt;24</title>
<path fill="none" stroke="#00ff00" stroke-width="15" d="M4410.5097,-4285.1743C4410.5097,-4293.2107 4410.5097,-4301.3786 4410.5097,-4309.4938"/>
<polygon fill="#00ff00" stroke="#00ff00" stroke-width="15" points="4397.3848,-4309.7307 4410.5097,-4319.7308 4423.6348,-4309.731 4397.3848,-4309.7307"/>
</g>
<!-- 15&#45;&gt;0 -->
<g id="edge9" class="edge">
<title>15&#45;&gt;0</title>
<path fill="none" stroke="#0000ff" stroke-width="15" d="M180.3635,-4638.712C854.5527,-4730.2686 5114.0981,-5308.7254 5822.664,-5404.9504"/>
<polygon fill="#0000ff" stroke="#0000ff" stroke-width="15" points="5820.9125,-5417.9579 5832.5878,-5406.2981 5824.4451,-5391.9467 5820.9125,-5417.9579"/>
</g>
<!-- 16&#45;&gt;12 -->
<g id="edge24" class="edge">
<title>16&#45;&gt;12</title>
<path fill="none" stroke="#000000" stroke-width="15" d="M6444.6055,-3627.5192C6579.5209,-3641.0108 6833.1961,-3666.3783 6973.9645,-3680.4552"/>
<polygon fill="#000000" stroke="#000000" stroke-width="15" points="6973.0605,-3693.5551 6984.317,-3681.4904 6975.6727,-3667.4354 6973.0605,-3693.5551"/>
</g>
<!-- 17&#45;&gt;16 -->
<g id="edge23" class="edge">
<title>17&#45;&gt;16</title>
<path fill="none" stroke="#000000" stroke-width="15" d="M6564.9532,-181.2645C6534.9176,-671.8463 6392.1582,-3003.5835 6360.6662,-3517.9531"/>
<polygon fill="#000000" stroke="#000000" stroke-width="15" points="6347.5648,-3517.1678 6360.0541,-3527.9513 6373.7657,-3518.7722 6347.5648,-3517.1678"/>
</g>
<!-- 18&#45;&gt;1 -->
<g id="edge15" class="edge">
<title>18&#45;&gt;1</title>
<path fill="none" stroke="#ff0000" stroke-width="15" d="M1476.1208,-2264.475C2128.7572,-2366.1846 6144.7905,-2992.0599 6830.8661,-3098.9808"/>
<polygon fill="#ff0000" stroke="#ff0000" stroke-width="15" points="6829.0636,-3111.9833 6840.9655,-3100.5547 6833.1059,-3086.0463 6829.0636,-3111.9833"/>
</g>
<!-- 19&#45;&gt;17 -->
<g id="edge22" class="edge">
<title>19&#45;&gt;17</title>
<path fill="none" stroke="#000000" stroke-width="15" d="M6633.2513,-121.8805C6633.1875,-121.8486 6633.1237,-121.8167 6633.0599,-121.7848"/>
<polygon fill="#000000" stroke="#000000" stroke-width="15" points="6647.6864,-114.4239 6632.8686,-121.6891 6635.9403,-137.9039 6647.6864,-114.4239"/>
</g>
<!-- 20&#45;&gt;9 -->
<g id="edge13" class="edge">
<title>20&#45;&gt;9</title>
<path fill="none" stroke="#ff0000" stroke-width="15" d="M3558.1592,-6574.6154C3139.4008,-6103.5122 670.1812,-3325.6401 229.7181,-2830.1191"/>
<polygon fill="#ff0000" stroke="#ff0000" stroke-width="15" points="239.214,-2821.0462 222.7606,-2822.2919 219.5945,-2838.4859 239.214,-2821.0462"/>
</g>
<!-- 21&#45;&gt;7 -->
<g id="edge35" class="edge">
<title>21&#45;&gt;7</title>
<path fill="none" stroke="#ffa500" stroke-width="15" d="M7030.2233,-1033.5924C6865.468,-1327.7983 6288.5971,-2357.925 6115.791,-2666.5073"/>
<polygon fill="#ffa500" stroke="#ffa500" stroke-width="15" points="6104.2315,-2660.287 6110.7971,-2675.425 6127.1348,-2673.113 6104.2315,-2660.287"/>
</g>
<!-- 22&#45;&gt;11 -->
<g id="edge5" class="edge">
<title>22&#45;&gt;11</title>
<path fill="none" stroke="#0000ff" stroke-width="15" d="M378.5097,-2879.8356C378.5097,-2514.3596 378.5097,-1150.6753 378.5097,-767.3293"/>
<polygon fill="#0000ff" stroke="#0000ff" stroke-width="15" points="391.6348,-767.0919 378.5097,-757.092 365.3848,-767.0921 391.6348,-767.0919"/>
</g>
<!-- 23&#45;&gt;2 -->
<g id="edge11" class="edge">
<title>23&#45;&gt;2</title>
<path fill="none" stroke="#ff0000" stroke-width="15" d="M3123.5104,-554.0093C3230.2022,-500.6634 3417.2603,-407.1343 3528.3398,-351.5946"/>
<polygon fill="#ff0000" stroke="#ff0000" stroke-width="15" points="3534.4498,-363.2139 3537.5244,-347.0023 3522.7103,-339.7351 3534.4498,-363.2139"/>
</g>
<!-- 24&#45;&gt;13 -->
<g id="edge31" class="edge">
<title>24&#45;&gt;13</title>
<path fill="none" stroke="#00ff00" stroke-width="15" d="M4458.5062,-4333.2979C4697.9477,-3948.1094 5761.7373,-2236.7956 6013.1347,-1832.3738"/>
<polygon fill="#00ff00" stroke="#00ff00" stroke-width="15" points="6024.4335,-1839.0585 6018.566,-1823.6365 6002.1397,-1825.2001 6024.4335,-1839.0585"/>
</g>
<!-- 25&#45;&gt;14 -->
<g id="edge29" class="edge">
<title>25&#45;&gt;14</title>
<path fill="none" stroke="#00ff00" stroke-width="15" d="M739.6187,-6877.0838C1212.2657,-6531.688 3832.0835,-4617.2057 4329.0994,-4254.0018"/>
<polygon fill="#00ff00" stroke="#00ff00" stroke-width="15" points="4336.9855,-4264.495 4337.3154,-4247.9978 4321.4974,-4243.301 4336.9855,-4264.495"/>
</g>
<!-- 26&#45;&gt;0 -->
<g id="edge26" class="edge">
<title>26&#45;&gt;0</title>
<path fill="none" stroke="#000000" stroke-width="15" d="M5787.113,-3996.8443C5812.4092,-4262.4551 5886.4272,-5039.6441 5912.9312,-5317.9357"/>
<polygon fill="#000000" stroke="#000000" stroke-width="15" points="5899.8778,-5319.312 5913.8918,-5328.0225 5926.0095,-5316.8231 5899.8778,-5319.312"/>
</g>
<!-- 27&#45;&gt;25 -->
<g id="edge28" class="edge">
<title>27&#45;&gt;25</title>
<path fill="none" stroke="#00ff00" stroke-width="15" d="M4044.2463,-4960.1633C3584.2703,-5228.4827 1236.3142,-6598.1237 753.4128,-6879.8162"/>
<polygon fill="#00ff00" stroke="#00ff00" stroke-width="15" points="746.7526,-6868.5063 744.7282,-6884.8822 759.9793,-6891.1806 746.7526,-6868.5063"/>
</g>
<!-- 28&#45;&gt;29 -->
<g id="edge3" class="edge">
<title>28&#45;&gt;29</title>
<path fill="none" stroke="#0000ff" stroke-width="15" d="M1669.5665,-1117.1351C1640.715,-1646.0783 1494.3169,-4330.0446 1464.0069,-4885.7272"/>
<polygon fill="#0000ff" stroke="#0000ff" stroke-width="15" points="1450.8795,-4885.4149 1463.4403,-4896.115 1477.0905,-4886.8448 1450.8795,-4885.4149"/>
</g>
<!-- 29&#45;&gt;22 -->
<g id="edge4" class="edge">
<title>29&#45;&gt;22</title>
<path fill="none" stroke="#0000ff" stroke-width="15" d="M1415.673,-4906.5479C1244.034,-4586.1551 606.6234,-3396.322 426.3094,-3059.7357"/>
<polygon fill="#0000ff" stroke="#0000ff" stroke-width="15" points="437.6566,-3053.1229 421.3649,-3050.506 414.5177,-3065.5188 437.6566,-3053.1229"/>
</g>
<!-- 30&#45;&gt;21 -->
<g id="edge34" class="edge">
<title>30&#45;&gt;21</title>
<path fill="none" stroke="#ffa500" stroke-width="15" d="M6163.1842,-4179.1999C6294.3596,-3715.0408 6909.1237,-1539.7214 7047.0135,-1051.8037"/>
<polygon fill="#ffa500" stroke="#ffa500" stroke-width="15" points="7059.7034,-1055.1622 7049.7927,-1041.9696 7034.4428,-1048.0232 7059.7034,-1055.1622"/>
</g>
<!-- 31&#45;&gt;19 -->
<g id="edge21" class="edge">
<title>31&#45;&gt;19</title>
<path fill="none" stroke="#000000" stroke-width="15" d="M6990.1057,-272.7481C6935.5888,-250.9413 6864.5903,-222.5419 6808.31,-200.0298"/>
<polygon fill="#000000" stroke="#000000" stroke-width="15" points="6812.8555,-187.712 6798.6962,-196.1843 6803.1064,-212.0845 6812.8555,-187.712"/>
</g>
<!-- 0 -->
<g id="node1" class="node">
<title>0</title>
<ellipse fill="#ffffff" stroke="#000000" stroke-width="15" cx="5922.5097" cy="-5418.5097" rx="90.5193" ry="90.5193"/>
<text text-anchor="middle" x="5922.5097" y="-5388.5097" font-family="Times,serif" font-size="100.00" fill="#000000">0</text>
</g>
<!-- 1 -->
<g id="node2" class="node">
<title>1</title>
<ellipse fill="#ffffff" stroke="#000000" stroke-width="15" cx="6930.5097" cy="-3114.5097" rx="90.5193" ry="90.5193"/>
<text text-anchor="middle" x="6930.5097" y="-3084.5097" font-family="Times,serif" font-size="100.00" fill="#000000">1</text>
</g>
<!-- 2 -->
<g id="node3" class="node">
<title>2</title>
<ellipse fill="#ffffff" stroke="#000000" stroke-width="15" cx="3618.5097" cy="-306.5097" rx="90.5193" ry="90.5193"/>
<text text-anchor="middle" x="3618.5097" y="-276.5097" font-family="Times,serif" font-size="100.00" fill="#000000">2</text>
</g>
<!-- 3 -->
<g id="node4" class="node">
<title>3</title>
<ellipse fill="#ffffff" stroke="#000000" stroke-width="15" cx="3546.5097" cy="-522.5097" rx="90.5193" ry="90.5193"/>
<text text-anchor="middle" x="3546.5097" y="-492.5097" font-family="Times,serif" font-size="100.00" fill="#000000">3</text>
</g>
<!-- 4 -->
<g id="node5" class="node">
<title>4</title>
<ellipse fill="#ffffff" stroke="#000000" stroke-width="15" cx="954.5097" cy="-450.5097" rx="90.5193" ry="90.5193"/>
<text text-anchor="middle" x="954.5097" y="-420.5097" font-family="Times,serif" font-size="100.00" fill="#000000">4</text>
</g>
<!-- 5 -->
<g id="node6" class="node">
<title>5</title>
<ellipse fill="#ffffff" stroke="#000000" stroke-width="15" cx="2106.5097" cy="-6354.5097" rx="90.5193" ry="90.5193"/>
<text text-anchor="middle" x="2106.5097" y="-6324.5097" font-family="Times,serif" font-size="100.00" fill="#000000">5</text>
</g>
<!-- 6 -->
<g id="node7" class="node">
<title>6</title>
<ellipse fill="#ffffff" stroke="#000000" stroke-width="15" cx="4194.5097" cy="-2106.5097" rx="90.5193" ry="90.5193"/>
<text text-anchor="middle" x="4194.5097" y="-2076.5097" font-family="Times,serif" font-size="100.00" fill="#000000">6</text>
</g>
<!-- 7 -->
<g id="node8" class="node">
<title>7</title>
<ellipse fill="#ffffff" stroke="#000000" stroke-width="15" cx="6066.5097" cy="-2754.5097" rx="90.5193" ry="90.5193"/>
<text text-anchor="middle" x="6066.5097" y="-2724.5097" font-family="Times,serif" font-size="100.00" fill="#000000">7</text>
</g>
<!-- 8 -->
<g id="node9" class="node">
<title>8</title>
<ellipse fill="#ffffff" stroke="#000000" stroke-width="15" cx="1026.5097" cy="-1674.5097" rx="90.5193" ry="90.5193"/>
<text text-anchor="middle" x="1026.5097" y="-1644.5097" font-family="Times,serif" font-size="100.00" fill="#000000">8</text>
</g>
<!-- 9 -->
<g id="node10" class="node">
<title>9</title>
<ellipse fill="#ffffff" stroke="#000000" stroke-width="15" cx="162.5097" cy="-2754.5097" rx="90.5193" ry="90.5193"/>
<text text-anchor="middle" x="162.5097" y="-2724.5097" font-family="Times,serif" font-size="100.00" fill="#000000">9</text>
</g>
<!-- 10 -->
<g id="node11" class="node">
<title>10</title>
<ellipse fill="#ffffff" stroke="#000000" stroke-width="15" cx="234.5097" cy="-5850.5097" rx="90.5193" ry="90.5193"/>
<text text-anchor="middle" x="234.5097" y="-5820.5097" font-family="Times,serif" font-size="100.00" fill="#000000">10</text>
</g>
<!-- 11 -->
<g id="node12" class="node">
<title>11</title>
<ellipse fill="#ffffff" stroke="#000000" stroke-width="15" cx="378.5097" cy="-666.5097" rx="90.5193" ry="90.5193"/>
<text text-anchor="middle" x="378.5097" y="-636.5097" font-family="Times,serif" font-size="100.00" fill="#000000">11</text>
</g>
<!-- 12 -->
<g id="node13" class="node">
<title>12</title>
<ellipse fill="#ffffff" stroke="#000000" stroke-width="15" cx="7074.5097" cy="-3690.5097" rx="90.5193" ry="90.5193"/>
<text text-anchor="middle" x="7074.5097" y="-3660.5097" font-family="Times,serif" font-size="100.00" fill="#000000">12</text>
</g>
<!-- 13 -->
<g id="node14" class="node">
<title>13</title>
<ellipse fill="#ffffff" stroke="#000000" stroke-width="15" cx="6066.5097" cy="-1746.5097" rx="90.5193" ry="90.5193"/>
<text text-anchor="middle" x="6066.5097" y="-1716.5097" font-family="Times,serif" font-size="100.00" fill="#000000">13</text>
</g>
<!-- 14 -->
<g id="node15" class="node">
<title>14</title>
<ellipse fill="#ffffff" stroke="#000000" stroke-width="15" cx="4410.5097" cy="-4194.5097" rx="90.5193" ry="90.5193"/>
<text text-anchor="middle" x="4410.5097" y="-4164.5097" font-family="Times,serif" font-size="100.00" fill="#000000">14</text>
</g>
<!-- 15 -->
<g id="node16" class="node">
<title>15</title>
<ellipse fill="#ffffff" stroke="#000000" stroke-width="15" cx="90.5097" cy="-4626.5097" rx="90.5193" ry="90.5193"/>
<text text-anchor="middle" x="90.5097" y="-4596.5097" font-family="Times,serif" font-size="100.00" fill="#000000">15</text>
</g>
<!-- 16 -->
<g id="node17" class="node">
<title>16</title>
<ellipse fill="#ffffff" stroke="#000000" stroke-width="15" cx="6354.5097" cy="-3618.5097" rx="90.5193" ry="90.5193"/>
<text text-anchor="middle" x="6354.5097" y="-3588.5097" font-family="Times,serif" font-size="100.00" fill="#000000">16</text>
</g>
<!-- 17 -->
<g id="node18" class="node">
<title>17</title>
<ellipse fill="#ffffff" stroke="#000000" stroke-width="15" cx="6570.5097" cy="-90.5097" rx="90.5193" ry="90.5193"/>
<text text-anchor="middle" x="6570.5097" y="-60.5097" font-family="Times,serif" font-size="100.00" fill="#000000">17</text>
</g>
<!-- 18 -->
<g id="node19" class="node">
<title>18</title>
<ellipse fill="#ffffff" stroke="#000000" stroke-width="15" cx="1386.5097" cy="-2250.5097" rx="90.5193" ry="90.5193"/>
<text text-anchor="middle" x="1386.5097" y="-2220.5097" font-family="Times,serif" font-size="100.00" fill="#000000">18</text>
</g>
<!-- 19 -->
<g id="node20" class="node">
<title>19</title>
<ellipse fill="#ffffff" stroke="#000000" stroke-width="15" cx="6714.5097" cy="-162.5097" rx="90.5193" ry="90.5193"/>
<text text-anchor="middle" x="6714.5097" y="-132.5097" font-family="Times,serif" font-size="100.00" fill="#000000">19</text>
</g>
<!-- 20 -->
<g id="node21" class="node">
<title>20</title>
<ellipse fill="#ffffff" stroke="#000000" stroke-width="15" cx="3618.5097" cy="-6642.5097" rx="90.5193" ry="90.5193"/>
<text text-anchor="middle" x="3618.5097" y="-6612.5097" font-family="Times,serif" font-size="100.00" fill="#000000">20</text>
</g>
<!-- 21 -->
<g id="node22" class="node">
<title>21</title>
<ellipse fill="#ffffff" stroke="#000000" stroke-width="15" cx="7074.5097" cy="-954.5097" rx="90.5193" ry="90.5193"/>
<text text-anchor="middle" x="7074.5097" y="-924.5097" font-family="Times,serif" font-size="100.00" fill="#000000">21</text>
</g>
<!-- 22 -->
<g id="node23" class="node">
<title>22</title>
<ellipse fill="#ffffff" stroke="#000000" stroke-width="15" cx="378.5097" cy="-2970.5097" rx="90.5193" ry="90.5193"/>
<text text-anchor="middle" x="378.5097" y="-2940.5097" font-family="Times,serif" font-size="100.00" fill="#000000">22</text>
</g>
<!-- 23 -->
<g id="node24" class="node">
<title>23</title>
<ellipse fill="#ffffff" stroke="#000000" stroke-width="15" cx="3042.5097" cy="-594.5097" rx="90.5193" ry="90.5193"/>
<text text-anchor="middle" x="3042.5097" y="-564.5097" font-family="Times,serif" font-size="100.00" fill="#000000">23</text>
</g>
<!-- 24 -->
<g id="node25" class="node">
<title>24</title>
<ellipse fill="#ffffff" stroke="#000000" stroke-width="15" cx="4410.5097" cy="-4410.5097" rx="90.5193" ry="90.5193"/>
<text text-anchor="middle" x="4410.5097" y="-4380.5097" font-family="Times,serif" font-size="100.00" fill="#000000">24</text>
</g>
<!-- 25 -->
<g id="node26" class="node">
<title>25</title>
<ellipse fill="#ffffff" stroke="#000000" stroke-width="15" cx="666.5097" cy="-6930.5097" rx="90.5193" ry="90.5193"/>
<text text-anchor="middle" x="666.5097" y="-6900.5097" font-family="Times,serif" font-size="100.00" fill="#000000">25</text>
</g>
<!-- 26 -->
<g id="node27" class="node">
<title>26</title>
<ellipse fill="#ffffff" stroke="#000000" stroke-width="15" cx="5778.5097" cy="-3906.5097" rx="90.5193" ry="90.5193"/>
<text text-anchor="middle" x="5778.5097" y="-3876.5097" font-family="Times,serif" font-size="100.00" fill="#000000">26</text>
</g>
<!-- 27 -->
<g id="node28" class="node">
<title>27</title>
<ellipse fill="#ffffff" stroke="#000000" stroke-width="15" cx="4122.5097" cy="-4914.5097" rx="90.5193" ry="90.5193"/>
<text text-anchor="middle" x="4122.5097" y="-4884.5097" font-family="Times,serif" font-size="100.00" fill="#000000">27</text>
</g>
<!-- 28 -->
<g id="node29" class="node">
<title>28</title>
<ellipse fill="#ffffff" stroke="#000000" stroke-width="15" cx="1674.5097" cy="-1026.5097" rx="90.5193" ry="90.5193"/>
<text text-anchor="middle" x="1674.5097" y="-996.5097" font-family="Times,serif" font-size="100.00" fill="#000000">28</text>
</g>
<!-- 29 -->
<g id="node30" class="node">
<title>29</title>
<ellipse fill="#ffffff" stroke="#000000" stroke-width="15" cx="1458.5097" cy="-4986.5097" rx="90.5193" ry="90.5193"/>
<text text-anchor="middle" x="1458.5097" y="-4956.5097" font-family="Times,serif" font-size="100.00" fill="#000000">29</text>
</g>
<!-- 30 -->
<g id="node31" class="node">
<title>30</title>
<ellipse fill="#ffffff" stroke="#000000" stroke-width="15" cx="6138.5097" cy="-4266.5097" rx="90.5193" ry="90.5193"/>
<text text-anchor="middle" x="6138.5097" y="-4236.5097" font-family="Times,serif" font-size="100.00" fill="#000000">30</text>
</g>
<!-- 31 -->
<g id="node32" class="node">
<title>31</title>
<ellipse fill="#ffffff" stroke="#000000" stroke-width="15" cx="7074.5097" cy="-306.5097" rx="90.5193" ry="90.5193"/>
<text text-anchor="middle" x="7074.5097" y="-276.5097" font-family="Times,serif" font-size="100.00" fill="#000000">31</text>
</g>
</g>
</svg>
