<?xml version="1.0" encoding="UTF-8" standalone="no"?>
<!DOCTYPE svg PUBLIC "-//W3C//DTD SVG 1.1//EN"
 "http://www.w3.org/Graphics/SVG/1.1/DTD/svg11.dtd">
<!-- Generated by graphviz version 2.38.0 (20140413.2041)
 -->
<!-- Title: g Pages: 1 -->
<svg width="7375pt" height="7254pt"
 viewBox="216.00 216.00 7158.88 7037.88" xmlns="http://www.w3.org/2000/svg" xmlns:xlink="http://www.w3.org/1999/xlink">
<g id="graph0" class="graph" transform="scale(1 1) rotate(0) translate(3627.44 3288.04)">
<title>g</title>
<polygon fill="white" stroke="none" points="-3411.44,3749.84 -3411.44,-3072.04 3531.44,-3072.04 3531.44,3749.84 -3411.44,3749.84"/>
<text text-anchor="middle" x="59.9999" y="-3052.84" font-family="Times,serif" font-size="14.00">data02&#45;tabou (cost = 1552)</text>
<!-- 0&#45;&gt;3 -->
<g id="edge34" class="edge"><title>0&#45;&gt;3</title>
<path fill="none" stroke="orange" stroke-width="15" d="M-1523.9,-2630.46C-1766.79,-2484.72 -2555.88,-2011.27 -2811.37,-1857.98"/>
<polygon fill="orange" stroke="orange" stroke-width="15" points="-2804.91,-1846.55 -2820.24,-1852.66 -2818.41,-1869.06 -2804.91,-1846.55"/>
</g>
<!-- 0&#45;&gt;6 -->
<g id="edge52" class="edge"><title>0&#45;&gt;6</title>
<path fill="none" stroke="red" stroke-width="15" d="M-1464.41,-2590.9C-1526.64,-2176 -1804.45,-323.966 -1870.07,113.554"/>
<polygon fill="red" stroke="red" stroke-width="15" points="-1857.12,115.682 -1871.58,123.624 -1883.08,111.788 -1857.12,115.682"/>
</g>
<!-- 0&#45;&gt;14 -->
<g id="edge60" class="edge"><title>0&#45;&gt;14</title>
<path fill="none" stroke="black" stroke-width="15" d="M-1398.47,-2609.37C-1267.18,-2451.82 -929.885,-2047.06 -792.048,-1881.66"/>
<polygon fill="black" stroke="black" stroke-width="15" points="-781.955,-1890.05 -785.636,-1873.96 -802.121,-1873.24 -781.955,-1890.05"/>
</g>
<!-- 0&#45;&gt;16 -->
<g id="edge43" class="edge"><title>0&#45;&gt;16</title>
<path fill="none" stroke="blue" stroke-width="15" d="M-1534.45,-2687.34C-1696.26,-2714.31 -2054.33,-2773.99 -2223.73,-2802.22"/>
<polygon fill="blue" stroke="blue" stroke-width="15" points="-2225.92,-2789.28 -2233.63,-2803.87 -2221.61,-2815.17 -2225.92,-2789.28"/>
</g>
<!-- 0&#45;&gt;18 -->
<g id="edge12" class="edge"><title>0&#45;&gt;18</title>
<path fill="none" stroke="red" stroke-width="15" d="M-1368.45,-2673.6C-1295.45,-2673.6 -1189.57,-2673.6 -1113.7,-2673.6"/>
<polygon fill="red" stroke="red" stroke-width="15" points="-1113.67,-2686.73 -1103.67,-2673.6 -1113.67,-2660.48 -1113.67,-2686.73"/>
</g>
<!-- 0&#45;&gt;19 -->
<g id="edge25" class="edge"><title>0&#45;&gt;19</title>
<path fill="none" stroke="green" stroke-width="15" d="M-1372.56,-2647.12C-1036.72,-2535.17 265.504,-2101.1 619.018,-1983.26"/>
<polygon fill="green" stroke="green" stroke-width="15" points="623.362,-1995.65 628.698,-1980.03 615.061,-1970.74 623.362,-1995.65"/>
</g>
<!-- 0&#45;&gt;22 -->
<g id="edge64" class="edge"><title>0&#45;&gt;22</title>
<path fill="none" stroke="green" stroke-width="15" d="M-1434.05,-2591.83C-1290.29,-1936.93 -327.707,2448.18 -176.087,3138.89"/>
<polygon fill="green" stroke="green" stroke-width="15" points="-163.239,3136.21 -173.914,3148.79 -188.878,3141.84 -163.239,3136.21"/>
</g>
<!-- 0&#45;&gt;41 -->
<g id="edge1" class="edge"><title>0&#45;&gt;41</title>
<path fill="none" stroke="blue" stroke-width="15" d="M-1392.68,-2732.92C-1345.43,-2780.17 -1279.34,-2846.26 -1230.35,-2895.25"/>
<polygon fill="blue" stroke="blue" stroke-width="15" points="-1239.6,-2904.56 -1223.25,-2902.35 -1221.04,-2886 -1239.6,-2904.56"/>
</g>
<!-- 0&#45;&gt;43 -->
<g id="edge19" class="edge"><title>0&#45;&gt;43</title>
<path fill="none" stroke="black" stroke-width="15" d="M-1391.76,-2615.44C-921.264,-2161.17 2159.47,813.336 2656.38,1293.11"/>
<polygon fill="black" stroke="black" stroke-width="15" points="2665.78,1283.94 2663.86,1300.33 2647.55,1302.83 2665.78,1283.94"/>
</g>
<!-- 1&#45;&gt;48 -->
<g id="edge49" class="edge"><title>1&#45;&gt;48</title>
<path fill="none" stroke="blue" stroke-width="15" d="M-955.765,2131.93C-798.216,2263.22 -393.463,2600.51 -228.057,2738.35"/>
<polygon fill="blue" stroke="blue" stroke-width="15" points="-219.643,2728.28 -220.364,2744.76 -236.448,2748.44 -219.643,2728.28"/>
</g>
<!-- 2&#45;&gt;1 -->
<g id="edge48" class="edge"><title>2&#45;&gt;1</title>
<path fill="none" stroke="blue" stroke-width="15" d="M-1281.55,1293.75C-1227.77,1455.09 -1106.01,1820.38 -1049.65,1989.46"/>
<polygon fill="blue" stroke="blue" stroke-width="15" points="-1037.15,1985.45 -1046.44,1999.08 -1062.05,1993.75 -1037.15,1985.45"/>
</g>
<!-- 3&#45;&gt;4 -->
<g id="edge35" class="edge"><title>3&#45;&gt;4</title>
<path fill="none" stroke="orange" stroke-width="15" d="M-2914.02,-1728.87C-2987.25,-1460.33 -3222.39,-598.176 -3299.36,-315.959"/>
<polygon fill="orange" stroke="orange" stroke-width="15" points="-3286.73,-312.36 -3302.03,-306.166 -3312.06,-319.267 -3286.73,-312.36"/>
</g>
<!-- 4&#45;&gt;21 -->
<g id="edge36" class="edge"><title>4&#45;&gt;21</title>
<path fill="none" stroke="orange" stroke-width="15" d="M-3264.6,-166.198C-3258.58,-160.184 -3252.45,-154.05 -3246.37,-147.969"/>
<polygon fill="orange" stroke="orange" stroke-width="15" points="-3237.06,-157.217 -3239.27,-140.865 -3255.62,-138.655 -3237.06,-157.217"/>
</g>
<!-- 5&#45;&gt;45 -->
<g id="edge66" class="edge"><title>5&#45;&gt;45</title>
<path fill="none" stroke="green" stroke-width="15" d="M206.917,3336.94C246.506,3317.15 295.225,3292.79 336.081,3272.36"/>
<polygon fill="green" stroke="green" stroke-width="15" points="330.395,3260.53 345.209,3267.8 342.134,3284.01 330.395,3260.53"/>
</g>
<!-- 6&#45;&gt;24 -->
<g id="edge53" class="edge"><title>6&#45;&gt;24</title>
<path fill="none" stroke="red" stroke-width="15" d="M-1815.9,255.04C-1634.83,384.376 -1142.35,736.148 -952.271,871.921"/>
<polygon fill="red" stroke="red" stroke-width="15" points="-944.505,861.339 -943.996,877.831 -959.762,882.699 -944.505,861.339"/>
</g>
<!-- 7&#45;&gt;29 -->
<g id="edge16" class="edge"><title>7&#45;&gt;29</title>
<path fill="none" stroke="red" stroke-width="15" d="M2366.92,-2348.14C2406.51,-2328.35 2455.22,-2303.99 2496.08,-2283.56"/>
<polygon fill="red" stroke="red" stroke-width="15" points="2502.13,-2295.21 2505.21,-2279 2490.39,-2271.73 2502.13,-2295.21"/>
</g>
<!-- 8&#45;&gt;52 -->
<g id="edge31" class="edge"><title>8&#45;&gt;52</title>
<path fill="none" stroke="green" stroke-width="15" d="M2356.16,-1978.17C2052.85,-2071.49 973.082,-2403.73 653.643,-2502.02"/>
<polygon fill="green" stroke="green" stroke-width="15" points="649.659,-2489.51 643.961,-2505 657.379,-2514.6 649.659,-2489.51"/>
</g>
<!-- 9&#45;&gt;54 -->
<g id="edge5" class="edge"><title>9&#45;&gt;54</title>
<path fill="none" stroke="blue" stroke-width="15" d="M2641,3239.14C2239.85,3281.36 504.025,3464.08 81.1474,3508.59"/>
<polygon fill="blue" stroke="blue" stroke-width="15" points="82.4239,3521.66 71.1048,3509.65 79.6757,3495.55 82.4239,3521.66"/>
</g>
<!-- 10&#45;&gt;36 -->
<g id="edge7" class="edge"><title>10&#45;&gt;36</title>
<path fill="none" stroke="blue" stroke-width="15" d="M-234.276,3345.05C-441.36,3267.39 -1002.57,3056.94 -1220.14,2975.35"/>
<polygon fill="blue" stroke="blue" stroke-width="15" points="-1224.86,2987.59 -1229.62,2971.79 -1215.64,2963.02 -1224.86,2987.59"/>
</g>
<!-- 11&#45;&gt;40 -->
<g id="edge10" class="edge"><title>11&#45;&gt;40</title>
<path fill="none" stroke="blue" stroke-width="15" d="M-2817.29,-694.956C-2709.96,-748.619 -2512.73,-847.237 -2400.31,-903.444"/>
<polygon fill="blue" stroke="blue" stroke-width="15" points="-2405.85,-915.349 -2391.04,-908.082 -2394.11,-891.87 -2405.85,-915.349"/>
</g>
<!-- 12&#45;&gt;26 -->
<g id="edge23" class="edge"><title>12&#45;&gt;26</title>
<path fill="none" stroke="black" stroke-width="15" d="M3421,1997.91C3299.56,1572.88 2733.68,-407.704 2605.75,-855.467"/>
<polygon fill="black" stroke="black" stroke-width="15" points="2593.12,-851.906 2602.99,-865.127 2618.36,-859.118 2593.12,-851.906"/>
</g>
<!-- 13&#45;&gt;0 -->
<g id="edge18" class="edge"><title>13&#45;&gt;0</title>
<path fill="none" stroke="red" stroke-width="15" d="M2353.45,-2109.83C1847.88,-2184.73 -825.903,-2580.84 -1359.36,-2659.88"/>
<polygon fill="red" stroke="red" stroke-width="15" points="-1361.35,-2646.9 -1369.32,-2661.35 -1357.5,-2672.87 -1361.35,-2646.9"/>
</g>
<!-- 14&#45;&gt;23 -->
<g id="edge61" class="edge"><title>14&#45;&gt;23</title>
<path fill="none" stroke="black" stroke-width="15" d="M-708.004,-1729.61C-633.351,-1480.77 -405.52,-721.334 -326.963,-459.477"/>
<polygon fill="black" stroke="black" stroke-width="15" points="-314.31,-462.975 -324.008,-449.625 -339.453,-455.432 -314.31,-462.975"/>
</g>
<!-- 15&#45;&gt;32 -->
<g id="edge3" class="edge"><title>15&#45;&gt;32</title>
<path fill="none" stroke="blue" stroke-width="15" d="M1593.75,-864.796C1725.58,-375.146 2416.47,2190.99 2555.58,2707.7"/>
<polygon fill="blue" stroke="blue" stroke-width="15" points="2568.35,2704.64 2558.28,2717.71 2543,2711.47 2568.35,2704.64"/>
</g>
<!-- 16&#45;&gt;20 -->
<g id="edge44" class="edge"><title>16&#45;&gt;20</title>
<path fill="none" stroke="blue" stroke-width="15" d="M-2399.69,-2817.6C-2434.15,-2817.6 -2474.24,-2817.6 -2509.74,-2817.6"/>
<polygon fill="blue" stroke="blue" stroke-width="15" points="-2510.1,-2804.48 -2520.1,-2817.6 -2510.1,-2830.73 -2510.1,-2804.48"/>
</g>
<!-- 17&#45;&gt;37 -->
<g id="edge28" class="edge"><title>17&#45;&gt;37</title>
<path fill="none" stroke="green" stroke-width="15" d="M3049.36,-1452.31C3103.02,-1559.64 3201.64,-1756.87 3257.84,-1869.29"/>
<polygon fill="green" stroke="green" stroke-width="15" points="3246.27,-1875.49 3262.48,-1878.56 3269.75,-1863.75 3246.27,-1875.49"/>
</g>
<!-- 18&#45;&gt;38 -->
<g id="edge13" class="edge"><title>18&#45;&gt;38</title>
<path fill="none" stroke="red" stroke-width="15" d="M-936.978,-2684.67C-596.822,-2730.02 689.214,-2901.5 1047.08,-2949.21"/>
<polygon fill="red" stroke="red" stroke-width="15" points="1045.5,-2962.24 1057.14,-2950.55 1048.97,-2936.22 1045.5,-2962.24"/>
</g>
<!-- 19&#45;&gt;27 -->
<g id="edge26" class="edge"><title>19&#45;&gt;27</title>
<path fill="none" stroke="green" stroke-width="15" d="M789.841,-1936.06C1112.27,-1866.97 2293.65,-1613.82 2632.55,-1541.2"/>
<polygon fill="green" stroke="green" stroke-width="15" points="2635.31,-1554.03 2642.33,-1539.1 2629.81,-1528.36 2635.31,-1554.03"/>
</g>
<!-- 20&#45;&gt;25 -->
<g id="edge45" class="edge"><title>20&#45;&gt;25</title>
<path fill="none" stroke="blue" stroke-width="15" d="M-2557.59,-2747.99C-2451.47,-2588.8 -2191.63,-2199.05 -2080.17,-2031.86"/>
<polygon fill="blue" stroke="blue" stroke-width="15" points="-2068.96,-2038.7 -2074.33,-2023.1 -2090.8,-2024.14 -2068.96,-2038.7"/>
</g>
<!-- 21&#45;&gt;31 -->
<g id="edge37" class="edge"><title>21&#45;&gt;31</title>
<path fill="none" stroke="orange" stroke-width="15" d="M-3133.55,-11.9214C-2985.27,210.49 -2523.93,902.508 -2368.06,1136.32"/>
<polygon fill="orange" stroke="orange" stroke-width="15" points="-2357.05,1129.17 -2362.42,1144.77 -2378.89,1143.73 -2357.05,1129.17"/>
</g>
<!-- 22&#45;&gt;5 -->
<g id="edge65" class="edge"><title>22&#45;&gt;5</title>
<path fill="none" stroke="green" stroke-width="15" d="M-81.0832,3267.86C-41.4941,3287.65 7.22464,3312.01 48.0809,3332.44"/>
<polygon fill="green" stroke="green" stroke-width="15" points="54.134,3320.79 57.2085,3337 42.3945,3344.27 54.134,3320.79"/>
</g>
<!-- 23&#45;&gt;47 -->
<g id="edge62" class="edge"><title>23&#45;&gt;47</title>
<path fill="none" stroke="black" stroke-width="15" d="M-320.25,-450.601C-346.87,-557.078 -393.5,-743.6 -421.29,-854.76"/>
<polygon fill="black" stroke="black" stroke-width="15" points="-434.061,-851.73 -423.754,-864.615 -408.595,-858.097 -434.061,-851.73"/>
</g>
<!-- 24&#45;&gt;58 -->
<g id="edge54" class="edge"><title>24&#45;&gt;58</title>
<path fill="none" stroke="red" stroke-width="15" d="M-798.263,895.305C-662.923,841.169 -384.946,729.978 -243.233,673.293"/>
<polygon fill="red" stroke="red" stroke-width="15" points="-247.844,661.001 -233.684,669.474 -238.094,685.374 -247.844,661.001"/>
</g>
<!-- 25&#45;&gt;46 -->
<g id="edge46" class="edge"><title>25&#45;&gt;46</title>
<path fill="none" stroke="blue" stroke-width="15" d="M-2074.59,-1883.71C-2126.43,-1805.95 -2209.98,-1680.63 -2263.94,-1599.7"/>
<polygon fill="blue" stroke="blue" stroke-width="15" points="-2253.25,-1592.07 -2269.71,-1591.03 -2275.09,-1606.63 -2253.25,-1592.07"/>
</g>
<!-- 26&#45;&gt;0 -->
<g id="edge24" class="edge"><title>26&#45;&gt;0</title>
<path fill="none" stroke="black" stroke-width="15" d="M2503.06,-978.576C1998.54,-1194.8 -832.623,-2408.15 -1365.51,-2636.53"/>
<polygon fill="black" stroke="black" stroke-width="15" points="-1371.04,-2624.63 -1375.07,-2640.63 -1360.7,-2648.75 -1371.04,-2624.63"/>
</g>
<!-- 27&#45;&gt;17 -->
<g id="edge27" class="edge"><title>27&#45;&gt;17</title>
<path fill="none" stroke="green" stroke-width="15" d="M2798.92,-1484.14C2838.51,-1464.35 2887.22,-1439.99 2928.08,-1419.56"/>
<polygon fill="green" stroke="green" stroke-width="15" points="2934.13,-1431.21 2937.21,-1415 2922.39,-1407.73 2934.13,-1431.21"/>
</g>
<!-- 28&#45;&gt;44 -->
<g id="edge39" class="edge"><title>28&#45;&gt;44</title>
<path fill="none" stroke="orange" stroke-width="15" d="M-2011.62,1296.29C-1984.57,1431.54 -1930.74,1700.68 -1902.41,1842.33"/>
<polygon fill="orange" stroke="orange" stroke-width="15" points="-1889.51,1839.93 -1900.42,1852.31 -1915.25,1845.08 -1889.51,1839.93"/>
</g>
<!-- 29&#45;&gt;13 -->
<g id="edge17" class="edge"><title>29&#45;&gt;13</title>
<path fill="none" stroke="red" stroke-width="15" d="M2520.6,-2182.2C2514.58,-2176.18 2508.45,-2170.05 2502.37,-2163.97"/>
<polygon fill="red" stroke="red" stroke-width="15" points="2511.62,-2154.66 2495.27,-2156.87 2493.06,-2173.22 2511.62,-2154.66"/>
</g>
<!-- 30&#45;&gt;53 -->
<g id="edge41" class="edge"><title>30&#45;&gt;53</title>
<path fill="none" stroke="orange" stroke-width="15" d="M-3314.77,3003.36C-3289.16,2772.86 -3217.31,2126.23 -3190.38,1883.78"/>
<polygon fill="orange" stroke="orange" stroke-width="15" points="-3203.39,1882.08 -3189.24,1873.59 -3177.3,1884.98 -3203.39,1882.08"/>
</g>
<!-- 31&#45;&gt;28 -->
<g id="edge38" class="edge"><title>31&#45;&gt;28</title>
<path fill="none" stroke="orange" stroke-width="15" d="M-2232.31,1214.4C-2197.85,1214.4 -2157.76,1214.4 -2122.26,1214.4"/>
<polygon fill="orange" stroke="orange" stroke-width="15" points="-2121.9,1201.27 -2111.9,1214.4 -2121.9,1227.52 -2121.9,1201.27"/>
</g>
<!-- 32&#45;&gt;9 -->
<g id="edge4" class="edge"><title>32&#45;&gt;9</title>
<path fill="none" stroke="blue" stroke-width="15" d="M2606.41,2877.64C2631.25,2952.15 2668.39,3063.56 2694.26,3141.17"/>
<polygon fill="blue" stroke="blue" stroke-width="15" points="2706.8,3137.3 2697.51,3150.94 2681.9,3145.6 2706.8,3137.3"/>
</g>
<!-- 33&#45;&gt;0 -->
<g id="edge33" class="edge"><title>33&#45;&gt;0</title>
<path fill="none" stroke="green" stroke-width="15" d="M-524.361,-2938.64C-709.894,-2885.63 -1167.07,-2755.01 -1361.81,-2699.37"/>
<polygon fill="green" stroke="green" stroke-width="15" points="-1358.22,-2686.74 -1371.44,-2696.62 -1365.43,-2711.98 -1358.22,-2686.74"/>
</g>
<!-- 34&#45;&gt;0 -->
<g id="edge51" class="edge"><title>34&#45;&gt;0</title>
<path fill="none" stroke="blue" stroke-width="15" d="M-1174.38,-452.62C-1218.89,-808.718 -1393.52,-2205.77 -1440.38,-2580.61"/>
<polygon fill="blue" stroke="blue" stroke-width="15" points="-1453.41,-2579.06 -1441.63,-2590.61 -1427.36,-2582.31 -1453.41,-2579.06"/>
</g>
<!-- 35&#45;&gt;0 -->
<g id="edge59" class="edge"><title>35&#45;&gt;0</title>
<path fill="none" stroke="red" stroke-width="15" d="M785.222,-995.683C452.342,-1245.34 -1025.7,-2353.87 -1376.93,-2617.3"/>
<polygon fill="red" stroke="red" stroke-width="15" points="-1384.89,-2606.86 -1385.02,-2623.36 -1369.14,-2627.86 -1384.89,-2606.86"/>
</g>
<!-- 36&#45;&gt;49 -->
<g id="edge8" class="edge"><title>36&#45;&gt;49</title>
<path fill="none" stroke="blue" stroke-width="15" d="M-1378.76,2898.17C-1582.04,2771.13 -2166.78,2405.66 -2380.53,2272.07"/>
<polygon fill="blue" stroke="blue" stroke-width="15" points="-2387.68,2283.08 -2389.21,2266.65 -2373.77,2260.82 -2387.68,2283.08"/>
</g>
<!-- 37&#45;&gt;57 -->
<g id="edge29" class="edge"><title>37&#45;&gt;57</title>
<path fill="none" stroke="green" stroke-width="15" d="M3225.08,-1916.14C3185.49,-1896.35 3136.78,-1871.99 3095.92,-1851.56"/>
<polygon fill="green" stroke="green" stroke-width="15" points="3101.61,-1839.73 3086.79,-1847 3089.87,-1863.21 3101.61,-1839.73"/>
</g>
<!-- 38&#45;&gt;59 -->
<g id="edge14" class="edge"><title>38&#45;&gt;59</title>
<path fill="none" stroke="red" stroke-width="15" d="M1177.46,-2886.68C1197.25,-2847.09 1221.61,-2798.38 1242.04,-2757.52"/>
<polygon fill="red" stroke="red" stroke-width="15" points="1253.87,-2763.21 1246.6,-2748.39 1230.39,-2751.47 1253.87,-2763.21"/>
</g>
<!-- 39&#45;&gt;55 -->
<g id="edge57" class="edge"><title>39&#45;&gt;55</title>
<path fill="none" stroke="red" stroke-width="15" d="M1257.55,-160.949C1203.77,-322.286 1082.01,-687.582 1025.65,-856.661"/>
<polygon fill="red" stroke="red" stroke-width="15" points="1013.15,-852.645 1022.44,-866.283 1038.05,-860.946 1013.15,-852.645"/>
</g>
<!-- 40&#45;&gt;0 -->
<g id="edge11" class="edge"><title>40&#45;&gt;0</title>
<path fill="none" stroke="blue" stroke-width="15" d="M-2278.6,-1020.4C-2138.02,-1301.55 -1641.83,-2293.94 -1493.92,-2589.77"/>
<polygon fill="blue" stroke="blue" stroke-width="15" points="-1505.64,-2595.66 -1489.43,-2598.74 -1482.16,-2583.92 -1505.64,-2595.66"/>
</g>
<!-- 41&#45;&gt;15 -->
<g id="edge2" class="edge"><title>41&#45;&gt;15</title>
<path fill="none" stroke="blue" stroke-width="15" d="M-1096.71,-2912.02C-722.348,-2636.17 1101.05,-1292.61 1496.32,-1001.36"/>
<polygon fill="blue" stroke="blue" stroke-width="15" points="1504.29,-1011.79 1504.56,-995.295 1488.72,-990.661 1504.29,-1011.79"/>
</g>
<!-- 42&#45;&gt;0 -->
<g id="edge68" class="edge"><title>42&#45;&gt;0</title>
<path fill="none" stroke="green" stroke-width="15" d="M679.9,3295.72C446.128,2641.16 -1173.43,-1893.6 -1420.44,-2585.23"/>
<polygon fill="green" stroke="green" stroke-width="15" points="-1432.89,-2581.06 -1423.89,-2594.89 -1408.16,-2589.89 -1432.89,-2581.06"/>
</g>
<!-- 43&#45;&gt;56 -->
<g id="edge20" class="edge"><title>43&#45;&gt;56</title>
<path fill="none" stroke="black" stroke-width="15" d="M2724,1442.17C2724,1442.23 2724,1442.29 2724,1442.35"/>
<polygon fill="black" stroke="black" stroke-width="15" points="2737.13,1432.54 2724,1442.54 2710.88,1432.53 2737.13,1432.54"/>
</g>
<!-- 44&#45;&gt;30 -->
<g id="edge40" class="edge"><title>44&#45;&gt;30</title>
<path fill="none" stroke="orange" stroke-width="15" d="M-1949.62,1986.89C-2187.2,2176.96 -3001.62,2828.5 -3250.9,3027.92"/>
<polygon fill="orange" stroke="orange" stroke-width="15" points="-3242.82,3038.26 -3258.82,3034.26 -3259.21,3017.76 -3242.82,3038.26"/>
</g>
<!-- 45&#45;&gt;42 -->
<g id="edge67" class="edge"><title>45&#45;&gt;42</title>
<path fill="none" stroke="green" stroke-width="15" d="M494.917,3267.86C534.506,3287.65 583.225,3312.01 624.081,3332.44"/>
<polygon fill="green" stroke="green" stroke-width="15" points="630.134,3320.79 633.209,3337 618.395,3344.27 630.134,3320.79"/>
</g>
<!-- 46&#45;&gt;2 -->
<g id="edge47" class="edge"><title>46&#45;&gt;2</title>
<path fill="none" stroke="blue" stroke-width="15" d="M-2287.05,-1443.03C-2141.8,-1048.77 -1493.27,711.521 -1340.37,1126.54"/>
<polygon fill="blue" stroke="blue" stroke-width="15" points="-1327.99,1122.17 -1336.85,1136.09 -1352.62,1131.24 -1327.99,1122.17"/>
</g>
<!-- 47&#45;&gt;0 -->
<g id="edge63" class="edge"><title>47&#45;&gt;0</title>
<path fill="none" stroke="black" stroke-width="15" d="M-486.189,-1017.92C-648.683,-1296.49 -1233.48,-2298.99 -1404.63,-2592.39"/>
<polygon fill="black" stroke="black" stroke-width="15" points="-1416.11,-2586.03 -1409.81,-2601.28 -1393.44,-2599.26 -1416.11,-2586.03"/>
</g>
<!-- 48&#45;&gt;34 -->
<g id="edge50" class="edge"><title>48&#45;&gt;34</title>
<path fill="none" stroke="blue" stroke-width="15" d="M-181.421,2718.5C-320.578,2281.15 -989.113,180.045 -1135.59,-280.324"/>
<polygon fill="blue" stroke="blue" stroke-width="15" points="-1148.12,-276.412 -1138.65,-289.921 -1123.11,-284.371 -1148.12,-276.412"/>
</g>
<!-- 49&#45;&gt;11 -->
<g id="edge9" class="edge"><title>49&#45;&gt;11</title>
<path fill="none" stroke="blue" stroke-width="15" d="M-2472.41,2139.7C-2534.64,1724.8 -2812.45,-127.234 -2878.07,-564.754"/>
<polygon fill="blue" stroke="blue" stroke-width="15" points="-2891.08,-562.988 -2879.58,-574.824 -2865.12,-566.882 -2891.08,-562.988"/>
</g>
<!-- 50&#45;&gt;39 -->
<g id="edge56" class="edge"><title>50&#45;&gt;39</title>
<path fill="none" stroke="red" stroke-width="15" d="M1223.77,-81.6C1223.83,-81.6 1223.89,-81.6 1223.95,-81.6"/>
<polygon fill="red" stroke="red" stroke-width="15" points="1214.14,-94.7304 1224.14,-81.6 1214.13,-68.4804 1214.14,-94.7304"/>
</g>
<!-- 51&#45;&gt;12 -->
<g id="edge22" class="edge"><title>51&#45;&gt;12</title>
<path fill="none" stroke="black" stroke-width="15" d="M3444,3578.91C3444,3308.36 3444,2456.83 3444,2172.15"/>
<polygon fill="black" stroke="black" stroke-width="15" points="3430.88,2171.85 3444,2161.85 3457.13,2171.85 3430.88,2171.85"/>
</g>
<!-- 52&#45;&gt;33 -->
<g id="edge32" class="edge"><title>52&#45;&gt;33</title>
<path fill="none" stroke="green" stroke-width="15" d="M486.994,-2562.6C302.361,-2641.73 -164.522,-2841.82 -357.983,-2924.74"/>
<polygon fill="green" stroke="green" stroke-width="15" points="-363.244,-2912.71 -367.265,-2928.71 -352.903,-2936.84 -363.244,-2912.71"/>
</g>
<!-- 53&#45;&gt;0 -->
<g id="edge42" class="edge"><title>53&#45;&gt;0</title>
<path fill="none" stroke="orange" stroke-width="15" d="M-3149.82,1712.45C-2940.5,1171.68 -1706.44,-2016.29 -1485.77,-2586.37"/>
<polygon fill="orange" stroke="orange" stroke-width="15" points="-1497.98,-2591.19 -1482.13,-2595.78 -1473.5,-2581.71 -1497.98,-2591.19"/>
</g>
<!-- 54&#45;&gt;10 -->
<g id="edge6" class="edge"><title>54&#45;&gt;10</title>
<path fill="none" stroke="blue" stroke-width="15" d="M-71.4017,3459C-77.4156,3452.98 -83.5505,3446.85 -89.6315,3440.77"/>
<polygon fill="blue" stroke="blue" stroke-width="15" points="-98.9445,3450.02 -96.7348,3433.67 -80.3829,3431.46 -98.9445,3450.02"/>
</g>
<!-- 55&#45;&gt;35 -->
<g id="edge58" class="edge"><title>55&#45;&gt;35</title>
<path fill="none" stroke="red" stroke-width="15" d="M912.235,-945.6C912.173,-945.6 912.111,-945.6 912.049,-945.6"/>
<polygon fill="red" stroke="red" stroke-width="15" points="921.871,-932.48 911.863,-945.6 921.856,-958.73 921.871,-932.48"/>
</g>
<!-- 56&#45;&gt;51 -->
<g id="edge21" class="edge"><title>56&#45;&gt;51</title>
<path fill="none" stroke="black" stroke-width="15" d="M2750.48,1581.84C2862.43,1917.68 3296.5,3219.9 3414.34,3573.42"/>
<polygon fill="black" stroke="black" stroke-width="15" points="3426.86,3569.46 3417.57,3583.1 3401.95,3577.76 3426.86,3569.46"/>
</g>
<!-- 57&#45;&gt;8 -->
<g id="edge30" class="edge"><title>57&#45;&gt;8</title>
<path fill="none" stroke="green" stroke-width="15" d="M2931,-1829.85C2824.52,-1856.47 2638,-1903.1 2526.84,-1930.89"/>
<polygon fill="green" stroke="green" stroke-width="15" points="2523.5,-1918.2 2516.99,-1933.35 2529.87,-1943.66 2523.5,-1918.2"/>
</g>
<!-- 58&#45;&gt;50 -->
<g id="edge55" class="edge"><title>58&#45;&gt;50</title>
<path fill="none" stroke="red" stroke-width="15" d="M-82.6081,597.627C142.474,472.581 822.038,95.0456 1058.13,-36.1153"/>
<polygon fill="red" stroke="red" stroke-width="15" points="1051.9,-47.6685 1067.01,-41.0516 1064.65,-24.7218 1051.9,-47.6685"/>
</g>
<!-- 59&#45;&gt;7 -->
<g id="edge15" class="edge"><title>59&#45;&gt;7</title>
<path fill="none" stroke="red" stroke-width="15" d="M1364.36,-2650.64C1549.89,-2597.63 2007.07,-2467.01 2201.81,-2411.37"/>
<polygon fill="red" stroke="red" stroke-width="15" points="2205.43,-2423.98 2211.44,-2408.62 2198.22,-2398.74 2205.43,-2423.98"/>
</g>
<!-- 0 -->
<g id="node1" class="node"><title>0</title>
<ellipse fill="white" stroke="black" stroke-width="15" cx="-1452" cy="-2673.6" rx="83.3772" ry="83.3772"/>
<text text-anchor="middle" x="-1452" y="-2648.6" font-family="Times,serif" font-size="100.00">0</text>
</g>
<!-- 1 -->
<g id="node2" class="node"><title>1</title>
<ellipse fill="white" stroke="black" stroke-width="15" cx="-1020" cy="2078.4" rx="83.3772" ry="83.3772"/>
<text text-anchor="middle" x="-1020" y="2103.4" font-family="Times,serif" font-size="100.00">1</text>
</g>
<!-- 2 -->
<g id="node3" class="node"><title>2</title>
<ellipse fill="white" stroke="black" stroke-width="15" cx="-1308" cy="1214.4" rx="83.3772" ry="83.3772"/>
<text text-anchor="middle" x="-1308" y="1239.4" font-family="Times,serif" font-size="100.00">2</text>
</g>
<!-- 3 -->
<g id="node4" class="node"><title>3</title>
<ellipse fill="white" stroke="black" stroke-width="15" cx="-2892" cy="-1809.6" rx="83.3772" ry="83.3772"/>
<text text-anchor="middle" x="-2892" y="-1784.6" font-family="Times,serif" font-size="100.00">3</text>
</g>
<!-- 4 -->
<g id="node5" class="node"><title>4</title>
<ellipse fill="white" stroke="black" stroke-width="15" cx="-3324" cy="-225.6" rx="83.3772" ry="83.3772"/>
<text text-anchor="middle" x="-3324" y="-200.6" font-family="Times,serif" font-size="100.00">4</text>
</g>
<!-- 5 -->
<g id="node6" class="node"><title>5</title>
<ellipse fill="white" stroke="black" stroke-width="15" cx="132" cy="3374.4" rx="83.3772" ry="83.3772"/>
<text text-anchor="middle" x="132" y="3399.4" font-family="Times,serif" font-size="100.00">5</text>
</g>
<!-- 6 -->
<g id="node7" class="node"><title>6</title>
<ellipse fill="white" stroke="black" stroke-width="15" cx="-1884" cy="206.4" rx="83.3772" ry="83.3772"/>
<text text-anchor="middle" x="-1884" y="231.4" font-family="Times,serif" font-size="100.00">6</text>
</g>
<!-- 7 -->
<g id="node8" class="node"><title>7</title>
<ellipse fill="white" stroke="black" stroke-width="15" cx="2292" cy="-2385.6" rx="83.3772" ry="83.3772"/>
<text text-anchor="middle" x="2292" y="-2360.6" font-family="Times,serif" font-size="100.00">7</text>
</g>
<!-- 8 -->
<g id="node9" class="node"><title>8</title>
<ellipse fill="white" stroke="black" stroke-width="15" cx="2436" cy="-1953.6" rx="83.3772" ry="83.3772"/>
<text text-anchor="middle" x="2436" y="-1928.6" font-family="Times,serif" font-size="100.00">8</text>
</g>
<!-- 9 -->
<g id="node10" class="node"><title>9</title>
<ellipse fill="white" stroke="black" stroke-width="15" cx="2724" cy="3230.4" rx="83.3772" ry="83.3772"/>
<text text-anchor="middle" x="2724" y="3255.4" font-family="Times,serif" font-size="100.00">9</text>
</g>
<!-- 10 -->
<g id="node11" class="node"><title>10</title>
<ellipse fill="white" stroke="black" stroke-width="15" cx="-156" cy="3374.4" rx="83.3772" ry="83.3772"/>
<text text-anchor="middle" x="-156" y="3399.4" font-family="Times,serif" font-size="100.00">10</text>
</g>
<!-- 11 -->
<g id="node12" class="node"><title>11</title>
<ellipse fill="white" stroke="black" stroke-width="15" cx="-2892" cy="-657.6" rx="83.3772" ry="83.3772"/>
<text text-anchor="middle" x="-2892" y="-632.6" font-family="Times,serif" font-size="100.00">11</text>
</g>
<!-- 12 -->
<g id="node13" class="node"><title>12</title>
<ellipse fill="white" stroke="black" stroke-width="15" cx="3444" cy="2078.4" rx="83.3772" ry="83.3772"/>
<text text-anchor="middle" x="3444" y="2103.4" font-family="Times,serif" font-size="100.00">12</text>
</g>
<!-- 13 -->
<g id="node14" class="node"><title>13</title>
<ellipse fill="white" stroke="black" stroke-width="15" cx="2436" cy="-2097.6" rx="83.3772" ry="83.3772"/>
<text text-anchor="middle" x="2436" y="-2072.6" font-family="Times,serif" font-size="100.00">13</text>
</g>
<!-- 14 -->
<g id="node15" class="node"><title>14</title>
<ellipse fill="white" stroke="black" stroke-width="15" cx="-732" cy="-1809.6" rx="83.3772" ry="83.3772"/>
<text text-anchor="middle" x="-732" y="-1784.6" font-family="Times,serif" font-size="100.00">14</text>
</g>
<!-- 15 -->
<g id="node16" class="node"><title>15</title>
<ellipse fill="white" stroke="black" stroke-width="15" cx="1572" cy="-945.6" rx="83.3772" ry="83.3772"/>
<text text-anchor="middle" x="1572" y="-920.6" font-family="Times,serif" font-size="100.00">15</text>
</g>
<!-- 16 -->
<g id="node17" class="node"><title>16</title>
<ellipse fill="white" stroke="black" stroke-width="15" cx="-2316" cy="-2817.6" rx="83.3772" ry="83.3772"/>
<text text-anchor="middle" x="-2316" y="-2792.6" font-family="Times,serif" font-size="100.00">16</text>
</g>
<!-- 17 -->
<g id="node18" class="node"><title>17</title>
<ellipse fill="white" stroke="black" stroke-width="15" cx="3012" cy="-1377.6" rx="83.3772" ry="83.3772"/>
<text text-anchor="middle" x="3012" y="-1352.6" font-family="Times,serif" font-size="100.00">17</text>
</g>
<!-- 18 -->
<g id="node19" class="node"><title>18</title>
<ellipse fill="white" stroke="black" stroke-width="15" cx="-1020" cy="-2673.6" rx="83.3772" ry="83.3772"/>
<text text-anchor="middle" x="-1020" y="-2648.6" font-family="Times,serif" font-size="100.00">18</text>
</g>
<!-- 19 -->
<g id="node20" class="node"><title>19</title>
<ellipse fill="white" stroke="black" stroke-width="15" cx="708" cy="-1953.6" rx="83.3772" ry="83.3772"/>
<text text-anchor="middle" x="708" y="-1928.6" font-family="Times,serif" font-size="100.00">19</text>
</g>
<!-- 20 -->
<g id="node21" class="node"><title>20</title>
<ellipse fill="white" stroke="black" stroke-width="15" cx="-2604" cy="-2817.6" rx="83.3772" ry="83.3772"/>
<text text-anchor="middle" x="-2604" y="-2792.6" font-family="Times,serif" font-size="100.00">20</text>
</g>
<!-- 21 -->
<g id="node22" class="node"><title>21</title>
<ellipse fill="white" stroke="black" stroke-width="15" cx="-3180" cy="-81.6" rx="83.3772" ry="83.3772"/>
<text text-anchor="middle" x="-3180" y="-56.6" font-family="Times,serif" font-size="100.00">21</text>
</g>
<!-- 22 -->
<g id="node23" class="node"><title>22</title>
<ellipse fill="white" stroke="black" stroke-width="15" cx="-156" cy="3230.4" rx="83.3772" ry="83.3772"/>
<text text-anchor="middle" x="-156" y="3255.4" font-family="Times,serif" font-size="100.00">22</text>
</g>
<!-- 23 -->
<g id="node24" class="node"><title>23</title>
<ellipse fill="white" stroke="black" stroke-width="15" cx="-300" cy="-369.6" rx="83.3772" ry="83.3772"/>
<text text-anchor="middle" x="-300" y="-344.6" font-family="Times,serif" font-size="100.00">23</text>
</g>
<!-- 24 -->
<g id="node25" class="node"><title>24</title>
<ellipse fill="white" stroke="black" stroke-width="15" cx="-876" cy="926.4" rx="83.3772" ry="83.3772"/>
<text text-anchor="middle" x="-876" y="951.4" font-family="Times,serif" font-size="100.00">24</text>
</g>
<!-- 25 -->
<g id="node26" class="node"><title>25</title>
<ellipse fill="white" stroke="black" stroke-width="15" cx="-2028" cy="-1953.6" rx="83.3772" ry="83.3772"/>
<text text-anchor="middle" x="-2028" y="-1928.6" font-family="Times,serif" font-size="100.00">25</text>
</g>
<!-- 26 -->
<g id="node27" class="node"><title>26</title>
<ellipse fill="white" stroke="black" stroke-width="15" cx="2580" cy="-945.6" rx="83.3772" ry="83.3772"/>
<text text-anchor="middle" x="2580" y="-920.6" font-family="Times,serif" font-size="100.00">26</text>
</g>
<!-- 27 -->
<g id="node28" class="node"><title>27</title>
<ellipse fill="white" stroke="black" stroke-width="15" cx="2724" cy="-1521.6" rx="83.3772" ry="83.3772"/>
<text text-anchor="middle" x="2724" y="-1496.6" font-family="Times,serif" font-size="100.00">27</text>
</g>
<!-- 28 -->
<g id="node29" class="node"><title>28</title>
<ellipse fill="white" stroke="black" stroke-width="15" cx="-2028" cy="1214.4" rx="83.3772" ry="83.3772"/>
<text text-anchor="middle" x="-2028" y="1239.4" font-family="Times,serif" font-size="100.00">28</text>
</g>
<!-- 29 -->
<g id="node30" class="node"><title>29</title>
<ellipse fill="white" stroke="black" stroke-width="15" cx="2580" cy="-2241.6" rx="83.3772" ry="83.3772"/>
<text text-anchor="middle" x="2580" y="-2216.6" font-family="Times,serif" font-size="100.00">29</text>
</g>
<!-- 30 -->
<g id="node31" class="node"><title>30</title>
<ellipse fill="white" stroke="black" stroke-width="15" cx="-3324" cy="3086.4" rx="83.3772" ry="83.3772"/>
<text text-anchor="middle" x="-3324" y="3111.4" font-family="Times,serif" font-size="100.00">30</text>
</g>
<!-- 31 -->
<g id="node32" class="node"><title>31</title>
<ellipse fill="white" stroke="black" stroke-width="15" cx="-2316" cy="1214.4" rx="83.3772" ry="83.3772"/>
<text text-anchor="middle" x="-2316" y="1239.4" font-family="Times,serif" font-size="100.00">31</text>
</g>
<!-- 32 -->
<g id="node33" class="node"><title>32</title>
<ellipse fill="white" stroke="black" stroke-width="15" cx="2580" cy="2798.4" rx="83.3772" ry="83.3772"/>
<text text-anchor="middle" x="2580" y="2823.4" font-family="Times,serif" font-size="100.00">32</text>
</g>
<!-- 33 -->
<g id="node34" class="node"><title>33</title>
<ellipse fill="white" stroke="black" stroke-width="15" cx="-444" cy="-2961.6" rx="83.3772" ry="83.3772"/>
<text text-anchor="middle" x="-444" y="-2936.6" font-family="Times,serif" font-size="100.00">33</text>
</g>
<!-- 34 -->
<g id="node35" class="node"><title>34</title>
<ellipse fill="white" stroke="black" stroke-width="15" cx="-1164" cy="-369.6" rx="83.3772" ry="83.3772"/>
<text text-anchor="middle" x="-1164" y="-344.6" font-family="Times,serif" font-size="100.00">34</text>
</g>
<!-- 35 -->
<g id="node36" class="node"><title>35</title>
<ellipse fill="white" stroke="black" stroke-width="15" cx="852" cy="-945.6" rx="83.3772" ry="83.3772"/>
<text text-anchor="middle" x="852" y="-920.6" font-family="Times,serif" font-size="100.00">35</text>
</g>
<!-- 36 -->
<g id="node37" class="node"><title>36</title>
<ellipse fill="white" stroke="black" stroke-width="15" cx="-1308" cy="2942.4" rx="83.3772" ry="83.3772"/>
<text text-anchor="middle" x="-1308" y="2967.4" font-family="Times,serif" font-size="100.00">36</text>
</g>
<!-- 37 -->
<g id="node38" class="node"><title>37</title>
<ellipse fill="white" stroke="black" stroke-width="15" cx="3300" cy="-1953.6" rx="83.3772" ry="83.3772"/>
<text text-anchor="middle" x="3300" y="-1928.6" font-family="Times,serif" font-size="100.00">37</text>
</g>
<!-- 38 -->
<g id="node39" class="node"><title>38</title>
<ellipse fill="white" stroke="black" stroke-width="15" cx="1140" cy="-2961.6" rx="83.3772" ry="83.3772"/>
<text text-anchor="middle" x="1140" y="-2936.6" font-family="Times,serif" font-size="100.00">38</text>
</g>
<!-- 39 -->
<g id="node40" class="node"><title>39</title>
<ellipse fill="white" stroke="black" stroke-width="15" cx="1284" cy="-81.6" rx="83.3772" ry="83.3772"/>
<text text-anchor="middle" x="1284" y="-56.6" font-family="Times,serif" font-size="100.00">39</text>
</g>
<!-- 40 -->
<g id="node41" class="node"><title>40</title>
<ellipse fill="white" stroke="black" stroke-width="15" cx="-2316" cy="-945.6" rx="83.3772" ry="83.3772"/>
<text text-anchor="middle" x="-2316" y="-920.6" font-family="Times,serif" font-size="100.00">40</text>
</g>
<!-- 41 -->
<g id="node42" class="node"><title>41</title>
<ellipse fill="white" stroke="black" stroke-width="15" cx="-1164" cy="-2961.6" rx="83.3772" ry="83.3772"/>
<text text-anchor="middle" x="-1164" y="-2936.6" font-family="Times,serif" font-size="100.00">41</text>
</g>
<!-- 42 -->
<g id="node43" class="node"><title>42</title>
<ellipse fill="white" stroke="black" stroke-width="15" cx="708" cy="3374.4" rx="83.3772" ry="83.3772"/>
<text text-anchor="middle" x="708" y="3399.4" font-family="Times,serif" font-size="100.00">42</text>
</g>
<!-- 43 -->
<g id="node44" class="node"><title>43</title>
<ellipse fill="white" stroke="black" stroke-width="15" cx="2724" cy="1358.4" rx="83.3772" ry="83.3772"/>
<text text-anchor="middle" x="2724" y="1383.4" font-family="Times,serif" font-size="100.00">43</text>
</g>
<!-- 44 -->
<g id="node45" class="node"><title>44</title>
<ellipse fill="white" stroke="black" stroke-width="15" cx="-1884" cy="1934.4" rx="83.3772" ry="83.3772"/>
<text text-anchor="middle" x="-1884" y="1959.4" font-family="Times,serif" font-size="100.00">44</text>
</g>
<!-- 45 -->
<g id="node46" class="node"><title>45</title>
<ellipse fill="white" stroke="black" stroke-width="15" cx="420" cy="3230.4" rx="83.3772" ry="83.3772"/>
<text text-anchor="middle" x="420" y="3255.4" font-family="Times,serif" font-size="100.00">45</text>
</g>
<!-- 46 -->
<g id="node47" class="node"><title>46</title>
<ellipse fill="white" stroke="black" stroke-width="15" cx="-2316" cy="-1521.6" rx="83.3772" ry="83.3772"/>
<text text-anchor="middle" x="-2316" y="-1496.6" font-family="Times,serif" font-size="100.00">46</text>
</g>
<!-- 47 -->
<g id="node48" class="node"><title>47</title>
<ellipse fill="white" stroke="black" stroke-width="15" cx="-444" cy="-945.6" rx="83.3772" ry="83.3772"/>
<text text-anchor="middle" x="-444" y="-920.6" font-family="Times,serif" font-size="100.00">47</text>
</g>
<!-- 48 -->
<g id="node49" class="node"><title>48</title>
<ellipse fill="white" stroke="black" stroke-width="15" cx="-156" cy="2798.4" rx="83.3772" ry="83.3772"/>
<text text-anchor="middle" x="-156" y="2823.4" font-family="Times,serif" font-size="100.00">48</text>
</g>
<!-- 49 -->
<g id="node50" class="node"><title>49</title>
<ellipse fill="white" stroke="black" stroke-width="15" cx="-2460" cy="2222.4" rx="83.3772" ry="83.3772"/>
<text text-anchor="middle" x="-2460" y="2247.4" font-family="Times,serif" font-size="100.00">49</text>
</g>
<!-- 50 -->
<g id="node51" class="node"><title>50</title>
<ellipse fill="white" stroke="black" stroke-width="15" cx="1140" cy="-81.6" rx="83.3772" ry="83.3772"/>
<text text-anchor="middle" x="1140" y="-56.6" font-family="Times,serif" font-size="100.00">50</text>
</g>
<!-- 51 -->
<g id="node52" class="node"><title>51</title>
<ellipse fill="white" stroke="black" stroke-width="15" cx="3444" cy="3662.4" rx="83.3772" ry="83.3772"/>
<text text-anchor="middle" x="3444" y="3687.4" font-family="Times,serif" font-size="100.00">51</text>
</g>
<!-- 52 -->
<g id="node53" class="node"><title>52</title>
<ellipse fill="white" stroke="black" stroke-width="15" cx="564" cy="-2529.6" rx="83.3772" ry="83.3772"/>
<text text-anchor="middle" x="564" y="-2504.6" font-family="Times,serif" font-size="100.00">52</text>
</g>
<!-- 53 -->
<g id="node54" class="node"><title>53</title>
<ellipse fill="white" stroke="black" stroke-width="15" cx="-3180" cy="1790.4" rx="83.3772" ry="83.3772"/>
<text text-anchor="middle" x="-3180" y="1815.4" font-family="Times,serif" font-size="100.00">53</text>
</g>
<!-- 54 -->
<g id="node55" class="node"><title>54</title>
<ellipse fill="white" stroke="black" stroke-width="15" cx="-12" cy="3518.4" rx="83.3772" ry="83.3772"/>
<text text-anchor="middle" x="-12" y="3543.4" font-family="Times,serif" font-size="100.00">54</text>
</g>
<!-- 55 -->
<g id="node56" class="node"><title>55</title>
<ellipse fill="white" stroke="black" stroke-width="15" cx="996" cy="-945.6" rx="83.3772" ry="83.3772"/>
<text text-anchor="middle" x="996" y="-920.6" font-family="Times,serif" font-size="100.00">55</text>
</g>
<!-- 56 -->
<g id="node57" class="node"><title>56</title>
<ellipse fill="white" stroke="black" stroke-width="15" cx="2724" cy="1502.4" rx="83.3772" ry="83.3772"/>
<text text-anchor="middle" x="2724" y="1527.4" font-family="Times,serif" font-size="100.00">56</text>
</g>
<!-- 57 -->
<g id="node58" class="node"><title>57</title>
<ellipse fill="white" stroke="black" stroke-width="15" cx="3012" cy="-1809.6" rx="83.3772" ry="83.3772"/>
<text text-anchor="middle" x="3012" y="-1784.6" font-family="Times,serif" font-size="100.00">57</text>
</g>
<!-- 58 -->
<g id="node59" class="node"><title>58</title>
<ellipse fill="white" stroke="black" stroke-width="15" cx="-156" cy="638.4" rx="83.3772" ry="83.3772"/>
<text text-anchor="middle" x="-156" y="663.4" font-family="Times,serif" font-size="100.00">58</text>
</g>
<!-- 59 -->
<g id="node60" class="node"><title>59</title>
<ellipse fill="white" stroke="black" stroke-width="15" cx="1284" cy="-2673.6" rx="83.3772" ry="83.3772"/>
<text text-anchor="middle" x="1284" y="-2648.6" font-family="Times,serif" font-size="100.00">59</text>
</g>
</g>
</svg>
