<?xml version="1.0" encoding="UTF-8" standalone="no"?>
<!DOCTYPE svg PUBLIC "-//W3C//DTD SVG 1.1//EN"
 "http://www.w3.org/Graphics/SVG/1.1/DTD/svg11.dtd">
<!-- Generated by graphviz version 2.38.0 (20140413.2041)
 -->
<!-- Title: g Pages: 1 -->
<svg width="7591pt" height="7470pt"
 viewBox="216.00 216.00 7374.88 7253.88" xmlns="http://www.w3.org/2000/svg" xmlns:xlink="http://www.w3.org/1999/xlink">
<g id="graph0" class="graph" transform="scale(1 1) rotate(0) translate(3939.44 4311.19)">
<title>g</title>
<polygon fill="white" stroke="none" points="-3723.44,2942.69 -3723.44,-4095.19 3435.44,-4095.19 3435.44,2942.69 -3723.44,2942.69"/>
<text text-anchor="middle" x="-144" y="-4075.99" font-family="Times,serif" font-size="14.00">data01&#45;tabou (cost = 835)</text>
<!-- 0&#45;&gt;3 -->
<g id="edge11" class="edge"><title>0&#45;&gt;3</title>
<path fill="none" stroke="black" stroke-width="15" d="M2159.39,-2397.32C1884.89,-1831.68 151.481,1740.2 -138.789,2338.33"/>
<polygon fill="black" stroke="black" stroke-width="15" points="-127.191,2344.49 -143.365,2347.76 -150.807,2333.03 -127.191,2344.49"/>
</g>
<!-- 0&#45;&gt;14 -->
<g id="edge18" class="edge"><title>0&#45;&gt;14</title>
<path fill="none" stroke="green" stroke-width="15" d="M2131.03,-2420.16C1885.57,-2221.45 1015.56,-1517.15 756.989,-1307.84"/>
<polygon fill="green" stroke="green" stroke-width="15" points="765.181,-1297.58 749.151,-1301.49 748.665,-1317.98 765.181,-1297.58"/>
</g>
<!-- 0&#45;&gt;16 -->
<g id="edge1" class="edge"><title>0&#45;&gt;16</title>
<path fill="none" stroke="blue" stroke-width="15" d="M2215.54,-2391.32C2286.65,-2095.05 2531.33,-1075.56 2606.11,-763.949"/>
<polygon fill="blue" stroke="blue" stroke-width="15" points="2618.92,-766.837 2608.49,-754.05 2593.39,-760.711 2618.92,-766.837"/>
</g>
<!-- 0&#45;&gt;24 -->
<g id="edge9" class="edge"><title>0&#45;&gt;24</title>
<path fill="none" stroke="red" stroke-width="15" d="M2128.29,-2423.96C1881.31,-2253.42 1029.51,-1685.49 763.799,-1514.1"/>
<polygon fill="red" stroke="red" stroke-width="15" points="770.867,-1503.04 755.352,-1508.66 756.65,-1525.11 770.867,-1503.04"/>
</g>
<!-- 0&#45;&gt;27 -->
<g id="edge29" class="edge"><title>0&#45;&gt;27</title>
<path fill="none" stroke="orange" stroke-width="15" d="M2115.45,-2450.2C1820.04,-2367.48 797.094,-2081.06 486.275,-1994.03"/>
<polygon fill="orange" stroke="orange" stroke-width="15" points="489.572,-1981.32 476.403,-1991.26 482.494,-2006.6 489.572,-1981.32"/>
</g>
<!-- 1&#45;&gt;12 -->
<g id="edge15" class="edge"><title>1&#45;&gt;12</title>
<path fill="none" stroke="black" stroke-width="15" d="M3224.25,-249.751C3250.87,-356.228 3297.5,-542.75 3325.29,-653.91"/>
<polygon fill="black" stroke="black" stroke-width="15" points="3312.6,-657.247 3327.75,-663.765 3338.06,-650.88 3312.6,-657.247"/>
</g>
<!-- 2&#45;&gt;7 -->
<g id="edge13" class="edge"><title>2&#45;&gt;7</title>
<path fill="none" stroke="black" stroke-width="15" d="M-48.7003,2579.95C284.621,2246.63 1922.43,608.818 2273.62,257.63"/>
<polygon fill="black" stroke="black" stroke-width="15" points="2264.58,248.105 2280.94,250.315 2283.14,266.667 2264.58,248.105"/>
</g>
<!-- 3&#45;&gt;2 -->
<g id="edge12" class="edge"><title>3&#45;&gt;2</title>
<path fill="none" stroke="black" stroke-width="15" d="M-153.599,2502.45C-148.414,2518.01 -142.942,2534.42 -137.659,2550.27"/>
<polygon fill="black" stroke="black" stroke-width="15" points="-125.109,2546.42 -134.398,2560.06 -150.012,2554.72 -125.109,2546.42"/>
</g>
<!-- 4&#45;&gt;28 -->
<g id="edge25" class="edge"><title>4&#45;&gt;28</title>
<path fill="none" stroke="green" stroke-width="15" d="M-2706.83,2443.12C-2572.69,2335.8 -2266.46,2090.82 -2125.5,1978.05"/>
<polygon fill="green" stroke="green" stroke-width="15" points="-2133.28,1967.47 -2117.28,1971.47 -2116.89,1987.97 -2133.28,1967.47"/>
</g>
<!-- 5&#45;&gt;20 -->
<g id="edge35" class="edge"><title>5&#45;&gt;20</title>
<path fill="none" stroke="orange" stroke-width="15" d="M-1537.9,-3424.39C-1277.82,-3473.93 -473.185,-3627.19 -199.908,-3679.24"/>
<polygon fill="orange" stroke="orange" stroke-width="15" points="-202.302,-3692.15 -190.023,-3681.13 -197.39,-3666.36 -202.302,-3692.15"/>
</g>
<!-- 6&#45;&gt;0 -->
<g id="edge28" class="edge"><title>6&#45;&gt;0</title>
<path fill="none" stroke="green" stroke-width="15" d="M506.72,765.037C735.711,326.137 1910.92,-1926.36 2152.54,-2389.45"/>
<polygon fill="green" stroke="green" stroke-width="15" points="2140.96,-2395.64 2157.23,-2398.43 2164.24,-2383.5 2140.96,-2395.64"/>
</g>
<!-- 7&#45;&gt;1 -->
<g id="edge14" class="edge"><title>7&#45;&gt;1</title>
<path fill="none" stroke="black" stroke-width="15" d="M2417.05,159.144C2578,92.0822 2948.89,-62.4537 3117.61,-132.756"/>
<polygon fill="black" stroke="black" stroke-width="15" points="3112.68,-144.921 3126.96,-136.651 3122.78,-120.69 3112.68,-144.921"/>
</g>
<!-- 8&#45;&gt;11 -->
<g id="edge23" class="edge"><title>8&#45;&gt;11</title>
<path fill="none" stroke="green" stroke-width="15" d="M-2745.31,1341.73C-2862.41,1523.89 -3174.52,2009.39 -3297.34,2200.44"/>
<polygon fill="green" stroke="green" stroke-width="15" points="-3286.42,2207.73 -3302.87,2209.04 -3308.5,2193.53 -3286.42,2207.73"/>
</g>
<!-- 9&#45;&gt;18 -->
<g id="edge21" class="edge"><title>9&#45;&gt;18</title>
<path fill="none" stroke="green" stroke-width="15" d="M-3486.5,223.16C-3269.07,312.693 -2654.31,565.829 -2426.41,659.67"/>
<polygon fill="green" stroke="green" stroke-width="15" points="-2421.41,647.536 -2417.16,663.48 -2431.4,671.809 -2421.41,647.536"/>
</g>
<!-- 10&#45;&gt;25 -->
<g id="edge33" class="edge"><title>10&#45;&gt;25</title>
<path fill="none" stroke="orange" stroke-width="15" d="M-3460.93,-2982.42C-3382.57,-3178.34 -3177.25,-3691.63 -3094.9,-3897.49"/>
<polygon fill="orange" stroke="orange" stroke-width="15" points="-3106.98,-3902.65 -3091.08,-3907.06 -3082.6,-3892.9 -3106.98,-3902.65"/>
</g>
<!-- 11&#45;&gt;4 -->
<g id="edge24" class="edge"><title>11&#45;&gt;4</title>
<path fill="none" stroke="green" stroke-width="15" d="M-3269.72,2308.61C-3162.87,2348.67 -2971.9,2420.29 -2860.14,2462.2"/>
<polygon fill="green" stroke="green" stroke-width="15" points="-2855.33,2449.98 -2850.57,2465.79 -2864.54,2474.56 -2855.33,2449.98"/>
</g>
<!-- 12&#45;&gt;30 -->
<g id="edge16" class="edge"><title>12&#45;&gt;30</title>
<path fill="none" stroke="black" stroke-width="15" d="M3276.88,-788.516C3105.73,-893.84 2671.79,-1160.88 2491.96,-1271.54"/>
<polygon fill="black" stroke="black" stroke-width="15" points="2484.97,-1260.43 2483.33,-1276.85 2498.73,-1282.79 2484.97,-1260.43"/>
</g>
<!-- 13&#45;&gt;26 -->
<g id="edge7" class="edge"><title>13&#45;&gt;26</title>
<path fill="none" stroke="blue" stroke-width="15" d="M2328.93,1116.23C2283.58,776.072 2112.1,-509.964 2064.39,-867.832"/>
<polygon fill="blue" stroke="blue" stroke-width="15" points="2051.36,-866.247 2063.05,-877.894 2077.38,-869.716 2051.36,-866.247"/>
</g>
<!-- 14&#45;&gt;22 -->
<g id="edge19" class="edge"><title>14&#45;&gt;22</title>
<path fill="none" stroke="green" stroke-width="15" d="M603.913,-1224.44C91.9018,-1069.01 -2718.73,-215.778 -3258.37,-51.958"/>
<polygon fill="green" stroke="green" stroke-width="15" points="-3254.68,-39.3641 -3268.06,-49.0183 -3262.3,-64.4822 -3254.68,-39.3641"/>
</g>
<!-- 15&#45;&gt;10 -->
<g id="edge32" class="edge"><title>15&#45;&gt;10</title>
<path fill="none" stroke="orange" stroke-width="15" d="M-3626.22,-1763.92C-3600.31,-1984.08 -3530.09,-2580.94 -3502.93,-2811.82"/>
<polygon fill="orange" stroke="orange" stroke-width="15" points="-3515.95,-2813.47 -3501.75,-2821.87 -3489.88,-2810.41 -3515.95,-2813.47"/>
</g>
<!-- 16&#45;&gt;21 -->
<g id="edge2" class="edge"><title>16&#45;&gt;21</title>
<path fill="none" stroke="blue" stroke-width="15" d="M2649.84,-591.932C2755.44,-201.232 3212.46,1489.74 3323.58,1900.89"/>
<polygon fill="blue" stroke="blue" stroke-width="15" points="3336.28,1897.58 3326.22,1910.66 3310.94,1904.43 3336.28,1897.58"/>
</g>
<!-- 17&#45;&gt;13 -->
<g id="edge6" class="edge"><title>17&#45;&gt;13</title>
<path fill="none" stroke="blue" stroke-width="15" d="M2819.69,2775.38C2735.41,2498.45 2456.05,1580.56 2367.31,1288.98"/>
<polygon fill="blue" stroke="blue" stroke-width="15" points="2354.71,1292.68 2364.36,1279.29 2379.83,1285.03 2354.71,1292.68"/>
</g>
<!-- 18&#45;&gt;8 -->
<g id="edge22" class="edge"><title>18&#45;&gt;8</title>
<path fill="none" stroke="green" stroke-width="15" d="M-2384.32,766.168C-2451.73,874.016 -2579.6,1078.61 -2650.15,1191.49"/>
<polygon fill="green" stroke="green" stroke-width="15" points="-2639.12,1198.6 -2655.55,1200.12 -2661.38,1184.69 -2639.12,1198.6"/>
</g>
<!-- 19&#45;&gt;17 -->
<g id="edge5" class="edge"><title>19&#45;&gt;17</title>
<path fill="none" stroke="blue" stroke-width="15" d="M2913.05,2820.73C2912.98,2820.76 2912.91,2820.79 2912.84,2820.83"/>
<polygon fill="blue" stroke="blue" stroke-width="15" points="2927.46,2828.2 2912.64,2820.93 2915.71,2804.72 2927.46,2828.2"/>
</g>
<!-- 20&#45;&gt;0 -->
<g id="edge36" class="edge"><title>20&#45;&gt;0</title>
<path fill="none" stroke="orange" stroke-width="15" d="M-34.2746,-3657.58C309.245,-3475.09 1751.39,-2708.95 2113.33,-2516.67"/>
<polygon fill="orange" stroke="orange" stroke-width="15" points="2119.51,-2528.25 2122.19,-2511.96 2107.2,-2505.06 2119.51,-2528.25"/>
</g>
<!-- 21&#45;&gt;31 -->
<g id="edge3" class="edge"><title>21&#45;&gt;31</title>
<path fill="none" stroke="blue" stroke-width="15" d="M3348,2074.97C3348,2196.06 3348,2419.36 3348,2545.72"/>
<polygon fill="blue" stroke="blue" stroke-width="15" points="3361.13,2545.77 3348,2555.77 3334.88,2545.77 3361.13,2545.77"/>
</g>
<!-- 22&#45;&gt;9 -->
<g id="edge20" class="edge"><title>22&#45;&gt;9</title>
<path fill="none" stroke="green" stroke-width="15" d="M-3407.02,34.2729C-3435,62.2546 -3468.55,95.8012 -3497.44,124.686"/>
<polygon fill="green" stroke="green" stroke-width="15" points="-3488.32,134.133 -3504.67,131.923 -3506.88,115.572 -3488.32,134.133"/>
</g>
<!-- 23&#45;&gt;6 -->
<g id="edge27" class="edge"><title>23&#45;&gt;6</title>
<path fill="none" stroke="green" stroke-width="15" d="M-633.387,2284.82C-445.335,2038 212.51,1174.58 410.923,914.164"/>
<polygon fill="green" stroke="green" stroke-width="15" points="400.722,905.895 417.223,905.895 421.602,921.804 400.722,905.895"/>
</g>
<!-- 24&#45;&gt;0 -->
<g id="edge10" class="edge"><title>24&#45;&gt;0</title>
<path fill="none" stroke="red" stroke-width="15" d="M751.707,-1513.54C998.695,-1684.08 1850.49,-2252.01 2116.2,-2423.4"/>
<polygon fill="red" stroke="red" stroke-width="15" points="2109.13,-2434.46 2124.65,-2428.84 2123.35,-2412.39 2109.13,-2434.46"/>
</g>
<!-- 25&#45;&gt;5 -->
<g id="edge34" class="edge"><title>25&#45;&gt;5</title>
<path fill="none" stroke="orange" stroke-width="15" d="M-2982.32,-3953.68C-2735.06,-3854.77 -1967.26,-3547.66 -1707.17,-3443.62"/>
<polygon fill="orange" stroke="orange" stroke-width="15" points="-1702.17,-3455.75 -1697.76,-3439.85 -1711.92,-3431.38 -1702.17,-3455.75"/>
</g>
<!-- 26&#45;&gt;0 -->
<g id="edge8" class="edge"><title>26&#45;&gt;0</title>
<path fill="none" stroke="blue" stroke-width="15" d="M2059.92,-1043.92C2084.75,-1304.62 2160.95,-2104.72 2187.09,-2379.19"/>
<polygon fill="blue" stroke="blue" stroke-width="15" points="2174.06,-2380.81 2188.07,-2389.52 2200.19,-2378.32 2174.06,-2380.81"/>
</g>
<!-- 27&#45;&gt;29 -->
<g id="edge30" class="edge"><title>27&#45;&gt;29</title>
<path fill="none" stroke="orange" stroke-width="15" d="M312.243,-1971.01C-82.8512,-1981.69 -1758.42,-2026.98 -2174.29,-2038.22"/>
<polygon fill="orange" stroke="orange" stroke-width="15" points="-2174.83,-2025.1 -2184.47,-2038.49 -2174.12,-2051.34 -2174.83,-2025.1"/>
</g>
<!-- 28&#45;&gt;23 -->
<g id="edge26" class="edge"><title>28&#45;&gt;23</title>
<path fill="none" stroke="green" stroke-width="15" d="M-1972.29,1944.42C-1733.43,2019.85 -1024.61,2243.69 -773.457,2323"/>
<polygon fill="green" stroke="green" stroke-width="15" points="-769.222,2310.57 -763.639,2326.1 -777.127,2335.61 -769.222,2310.57"/>
</g>
<!-- 29&#45;&gt;15 -->
<g id="edge31" class="edge"><title>29&#45;&gt;15</title>
<path fill="none" stroke="orange" stroke-width="15" d="M-2348.72,-2019.51C-2588.19,-1956.49 -3293.6,-1770.85 -3545.4,-1704.59"/>
<polygon fill="orange" stroke="orange" stroke-width="15" points="-3542.24,-1691.85 -3555.25,-1702 -3548.92,-1717.24 -3542.24,-1691.85"/>
</g>
<!-- 30&#45;&gt;0 -->
<g id="edge17" class="edge"><title>30&#45;&gt;0</title>
<path fill="none" stroke="black" stroke-width="15" d="M2396.55,-1403.14C2357.37,-1612.09 2254.33,-2161.64 2213.26,-2380.7"/>
<polygon fill="black" stroke="black" stroke-width="15" points="2200.35,-2378.31 2211.41,-2390.56 2226.15,-2383.15 2200.35,-2378.31"/>
</g>
<!-- 31&#45;&gt;19 -->
<g id="edge4" class="edge"><title>31&#45;&gt;19</title>
<path fill="none" stroke="blue" stroke-width="15" d="M3270.33,2670.32C3212.84,2693.31 3134.5,2724.65 3074.93,2748.48"/>
<polygon fill="blue" stroke="blue" stroke-width="15" points="3079.69,2760.71 3065.53,2752.24 3069.94,2736.34 3079.69,2760.71"/>
</g>
<!-- 0 -->
<g id="node1" class="node"><title>0</title>
<ellipse fill="white" stroke="black" stroke-width="15" cx="2196" cy="-2472.75" rx="83.3772" ry="83.3772"/>
<text text-anchor="middle" x="2196" y="-2447.75" font-family="Times,serif" font-size="100.00">0</text>
</g>
<!-- 1 -->
<g id="node2" class="node"><title>1</title>
<ellipse fill="white" stroke="black" stroke-width="15" cx="3204" cy="-168.75" rx="83.3772" ry="83.3772"/>
<text text-anchor="middle" x="3204" y="-143.75" font-family="Times,serif" font-size="100.00">1</text>
</g>
<!-- 2 -->
<g id="node3" class="node"><title>2</title>
<ellipse fill="white" stroke="black" stroke-width="15" cx="-108" cy="2639.25" rx="83.3772" ry="83.3772"/>
<text text-anchor="middle" x="-108" y="2664.25" font-family="Times,serif" font-size="100.00">2</text>
</g>
<!-- 3 -->
<g id="node4" class="node"><title>3</title>
<ellipse fill="white" stroke="black" stroke-width="15" cx="-180" cy="2423.25" rx="83.3772" ry="83.3772"/>
<text text-anchor="middle" x="-180" y="2448.25" font-family="Times,serif" font-size="100.00">3</text>
</g>
<!-- 4 -->
<g id="node5" class="node"><title>4</title>
<ellipse fill="white" stroke="black" stroke-width="15" cx="-2772" cy="2495.25" rx="83.3772" ry="83.3772"/>
<text text-anchor="middle" x="-2772" y="2520.25" font-family="Times,serif" font-size="100.00">4</text>
</g>
<!-- 5 -->
<g id="node6" class="node"><title>5</title>
<ellipse fill="white" stroke="black" stroke-width="15" cx="-1620" cy="-3408.75" rx="83.3772" ry="83.3772"/>
<text text-anchor="middle" x="-1620" y="-3383.75" font-family="Times,serif" font-size="100.00">5</text>
</g>
<!-- 6 -->
<g id="node7" class="node"><title>6</title>
<ellipse fill="white" stroke="black" stroke-width="15" cx="468" cy="839.25" rx="83.3772" ry="83.3772"/>
<text text-anchor="middle" x="468" y="864.25" font-family="Times,serif" font-size="100.00">6</text>
</g>
<!-- 7 -->
<g id="node8" class="node"><title>7</title>
<ellipse fill="white" stroke="black" stroke-width="15" cx="2340" cy="191.25" rx="83.3772" ry="83.3772"/>
<text text-anchor="middle" x="2340" y="216.25" font-family="Times,serif" font-size="100.00">7</text>
</g>
<!-- 8 -->
<g id="node9" class="node"><title>8</title>
<ellipse fill="white" stroke="black" stroke-width="15" cx="-2700" cy="1271.25" rx="83.3772" ry="83.3772"/>
<text text-anchor="middle" x="-2700" y="1296.25" font-family="Times,serif" font-size="100.00">8</text>
</g>
<!-- 9 -->
<g id="node10" class="node"><title>9</title>
<ellipse fill="white" stroke="black" stroke-width="15" cx="-3564" cy="191.25" rx="83.3772" ry="83.3772"/>
<text text-anchor="middle" x="-3564" y="216.25" font-family="Times,serif" font-size="100.00">9</text>
</g>
<!-- 10 -->
<g id="node11" class="node"><title>10</title>
<ellipse fill="white" stroke="black" stroke-width="15" cx="-3492" cy="-2904.75" rx="83.3772" ry="83.3772"/>
<text text-anchor="middle" x="-3492" y="-2879.75" font-family="Times,serif" font-size="100.00">10</text>
</g>
<!-- 11 -->
<g id="node12" class="node"><title>11</title>
<ellipse fill="white" stroke="black" stroke-width="15" cx="-3348" cy="2279.25" rx="83.3772" ry="83.3772"/>
<text text-anchor="middle" x="-3348" y="2304.25" font-family="Times,serif" font-size="100.00">11</text>
</g>
<!-- 12 -->
<g id="node13" class="node"><title>12</title>
<ellipse fill="white" stroke="black" stroke-width="15" cx="3348" cy="-744.75" rx="83.3772" ry="83.3772"/>
<text text-anchor="middle" x="3348" y="-719.75" font-family="Times,serif" font-size="100.00">12</text>
</g>
<!-- 13 -->
<g id="node14" class="node"><title>13</title>
<ellipse fill="white" stroke="black" stroke-width="15" cx="2340" cy="1199.25" rx="83.3772" ry="83.3772"/>
<text text-anchor="middle" x="2340" y="1224.25" font-family="Times,serif" font-size="100.00">13</text>
</g>
<!-- 14 -->
<g id="node15" class="node"><title>14</title>
<ellipse fill="white" stroke="black" stroke-width="15" cx="684" cy="-1248.75" rx="83.3772" ry="83.3772"/>
<text text-anchor="middle" x="684" y="-1223.75" font-family="Times,serif" font-size="100.00">14</text>
</g>
<!-- 15 -->
<g id="node16" class="node"><title>15</title>
<ellipse fill="white" stroke="black" stroke-width="15" cx="-3636" cy="-1680.75" rx="83.3772" ry="83.3772"/>
<text text-anchor="middle" x="-3636" y="-1655.75" font-family="Times,serif" font-size="100.00">15</text>
</g>
<!-- 16 -->
<g id="node17" class="node"><title>16</title>
<ellipse fill="white" stroke="black" stroke-width="15" cx="2628" cy="-672.75" rx="83.3772" ry="83.3772"/>
<text text-anchor="middle" x="2628" y="-647.75" font-family="Times,serif" font-size="100.00">16</text>
</g>
<!-- 17 -->
<g id="node18" class="node"><title>17</title>
<ellipse fill="white" stroke="black" stroke-width="15" cx="2844" cy="2855.25" rx="83.3772" ry="83.3772"/>
<text text-anchor="middle" x="2844" y="2880.25" font-family="Times,serif" font-size="100.00">17</text>
</g>
<!-- 18 -->
<g id="node19" class="node"><title>18</title>
<ellipse fill="white" stroke="black" stroke-width="15" cx="-2340" cy="695.25" rx="83.3772" ry="83.3772"/>
<text text-anchor="middle" x="-2340" y="720.25" font-family="Times,serif" font-size="100.00">18</text>
</g>
<!-- 19 -->
<g id="node20" class="node"><title>19</title>
<ellipse fill="white" stroke="black" stroke-width="15" cx="2988" cy="2783.25" rx="83.3772" ry="83.3772"/>
<text text-anchor="middle" x="2988" y="2808.25" font-family="Times,serif" font-size="100.00">19</text>
</g>
<!-- 20 -->
<g id="node21" class="node"><title>20</title>
<ellipse fill="white" stroke="black" stroke-width="15" cx="-108" cy="-3696.75" rx="83.3772" ry="83.3772"/>
<text text-anchor="middle" x="-108" y="-3671.75" font-family="Times,serif" font-size="100.00">20</text>
</g>
<!-- 21 -->
<g id="node22" class="node"><title>21</title>
<ellipse fill="white" stroke="black" stroke-width="15" cx="3348" cy="1991.25" rx="83.3772" ry="83.3772"/>
<text text-anchor="middle" x="3348" y="2016.25" font-family="Times,serif" font-size="100.00">21</text>
</g>
<!-- 22 -->
<g id="node23" class="node"><title>22</title>
<ellipse fill="white" stroke="black" stroke-width="15" cx="-3348" cy="-24.75" rx="83.3772" ry="83.3772"/>
<text text-anchor="middle" x="-3348" y="0.25" font-family="Times,serif" font-size="100.00">22</text>
</g>
<!-- 23 -->
<g id="node24" class="node"><title>23</title>
<ellipse fill="white" stroke="black" stroke-width="15" cx="-684" cy="2351.25" rx="83.3772" ry="83.3772"/>
<text text-anchor="middle" x="-684" y="2376.25" font-family="Times,serif" font-size="100.00">23</text>
</g>
<!-- 24 -->
<g id="node25" class="node"><title>24</title>
<ellipse fill="white" stroke="black" stroke-width="15" cx="684" cy="-1464.75" rx="83.3772" ry="83.3772"/>
<text text-anchor="middle" x="684" y="-1439.75" font-family="Times,serif" font-size="100.00">24</text>
</g>
<!-- 25 -->
<g id="node26" class="node"><title>25</title>
<ellipse fill="white" stroke="black" stroke-width="15" cx="-3060" cy="-3984.75" rx="83.3772" ry="83.3772"/>
<text text-anchor="middle" x="-3060" y="-3959.75" font-family="Times,serif" font-size="100.00">25</text>
</g>
<!-- 26 -->
<g id="node27" class="node"><title>26</title>
<ellipse fill="white" stroke="black" stroke-width="15" cx="2052" cy="-960.75" rx="83.3772" ry="83.3772"/>
<text text-anchor="middle" x="2052" y="-935.75" font-family="Times,serif" font-size="100.00">26</text>
</g>
<!-- 27 -->
<g id="node28" class="node"><title>27</title>
<ellipse fill="white" stroke="black" stroke-width="15" cx="396" cy="-1968.75" rx="83.3772" ry="83.3772"/>
<text text-anchor="middle" x="396" y="-1943.75" font-family="Times,serif" font-size="100.00">27</text>
</g>
<!-- 28 -->
<g id="node29" class="node"><title>28</title>
<ellipse fill="white" stroke="black" stroke-width="15" cx="-2052" cy="1919.25" rx="83.3772" ry="83.3772"/>
<text text-anchor="middle" x="-2052" y="1944.25" font-family="Times,serif" font-size="100.00">28</text>
</g>
<!-- 29 -->
<g id="node30" class="node"><title>29</title>
<ellipse fill="white" stroke="black" stroke-width="15" cx="-2268" cy="-2040.75" rx="83.3772" ry="83.3772"/>
<text text-anchor="middle" x="-2268" y="-2015.75" font-family="Times,serif" font-size="100.00">29</text>
</g>
<!-- 30 -->
<g id="node31" class="node"><title>30</title>
<ellipse fill="white" stroke="black" stroke-width="15" cx="2412" cy="-1320.75" rx="83.3772" ry="83.3772"/>
<text text-anchor="middle" x="2412" y="-1295.75" font-family="Times,serif" font-size="100.00">30</text>
</g>
<!-- 31 -->
<g id="node32" class="node"><title>31</title>
<ellipse fill="white" stroke="black" stroke-width="15" cx="3348" cy="2639.25" rx="83.3772" ry="83.3772"/>
<text text-anchor="middle" x="3348" y="2664.25" font-family="Times,serif" font-size="100.00">31</text>
</g>
</g>
</svg>
