<?xml version="1.0" encoding="UTF-8" standalone="no"?>
<!DOCTYPE svg PUBLIC "-//W3C//DTD SVG 1.1//EN"
 "http://www.w3.org/Graphics/SVG/1.1/DTD/svg11.dtd">
<!-- Generated by graphviz version 2.40.1 (20161225.0304)
 -->
<!-- Title: g Pages: 1 -->
<svg width="506pt" height="378pt"
 viewBox="0.00 0.00 505.80 378.17" xmlns="http://www.w3.org/2000/svg" xmlns:xlink="http://www.w3.org/1999/xlink">
<g id="graph0" class="graph" transform="scale(1 1) rotate(0) translate(4 374.1748)">
<title>g</title>
<polygon fill="#ffffff" stroke="transparent" points="-4,4 -4,-374.1748 501.7983,-374.1748 501.7983,4 -4,4"/>
<text text-anchor="middle" x="248.8991" y="-353.5748" font-family="Times,serif" font-size="14.00" fill="#000000">Graph example</text>
<!-- 0&#45;&gt;1 -->
<g id="edge1" class="edge">
<title>0&#45;&gt;1</title>
<path fill="none" stroke="#0000ff" d="M215.2278,-210.1894C211.54,-220.4408 206.7747,-233.6873 202.6001,-245.2919"/>
<polygon fill="#0000ff" stroke="#0000ff" points="199.2171,-244.3563 199.1255,-254.9508 205.8039,-246.7259 199.2171,-244.3563"/>
</g>
<!-- 0&#45;&gt;14 -->
<g id="edge8" class="edge">
<title>0&#45;&gt;14</title>
<path fill="none" stroke="#ff0000" d="M237.7115,-200.6955C247.1271,-205.1116 259.2287,-210.7875 270.1398,-215.9051"/>
<polygon fill="#ff0000" stroke="#ff0000" points="268.7845,-219.1352 279.3244,-220.2128 271.757,-212.7977 268.7845,-219.1352"/>
</g>
<!-- 1&#45;&gt;2 -->
<g id="edge2" class="edge">
<title>1&#45;&gt;2</title>
<path fill="none" stroke="#0000ff" d="M179.6803,-284.6146C172.4172,-291.4743 163.2604,-300.1225 155.0854,-307.8436"/>
<polygon fill="#0000ff" stroke="#0000ff" points="152.5089,-305.4627 147.642,-314.8735 157.3154,-310.5517 152.5089,-305.4627"/>
</g>
<!-- 3&#45;&gt;4 -->
<g id="edge4" class="edge">
<title>3&#45;&gt;4</title>
<path fill="none" stroke="#0000ff" d="M45.4676,-305.4059C41.0612,-296.5233 35.5059,-285.3247 30.5461,-275.3266"/>
<polygon fill="#0000ff" stroke="#0000ff" points="33.6098,-273.6265 26.0304,-266.2236 27.339,-276.7373 33.6098,-273.6265"/>
</g>
<!-- 2&#45;&gt;3 -->
<g id="edge3" class="edge">
<title>2&#45;&gt;3</title>
<path fill="none" stroke="#0000ff" d="M116.0537,-326.0777C105.9528,-325.3637 93.1998,-324.4622 81.85,-323.66"/>
<polygon fill="#0000ff" stroke="#0000ff" points="81.7525,-320.1445 71.5306,-322.9306 81.2589,-327.127 81.7525,-320.1445"/>
</g>
<!-- 4&#45;&gt;5 -->
<g id="edge5" class="edge">
<title>4&#45;&gt;5</title>
<path fill="none" stroke="#0000ff" d="M27.7951,-234.9052C33.3171,-226.3753 40.3424,-215.5234 46.5982,-205.8601"/>
<polygon fill="#0000ff" stroke="#0000ff" points="49.5654,-207.717 52.0617,-197.4205 43.6892,-203.9129 49.5654,-207.717"/>
</g>
<!-- 5&#45;&gt;6 -->
<g id="edge6" class="edge">
<title>5&#45;&gt;6</title>
<path fill="none" stroke="#0000ff" d="M80.1258,-178.5125C89.9584,-176.6832 102.3546,-174.3769 113.4218,-172.3178"/>
<polygon fill="#0000ff" stroke="#0000ff" points="114.3073,-175.7132 123.4984,-170.4431 113.0269,-168.8313 114.3073,-175.7132"/>
</g>
<!-- 6&#45;&gt;0 -->
<g id="edge7" class="edge">
<title>6&#45;&gt;0</title>
<path fill="none" stroke="#0000ff" d="M158.7717,-172.7365C169.1474,-176.1009 182.5544,-180.4483 194.2998,-184.2569"/>
<polygon fill="#0000ff" stroke="#0000ff" points="193.4837,-187.6716 204.0757,-187.4268 195.6429,-181.0129 193.4837,-187.6716"/>
</g>
<!-- 7&#45;&gt;0 -->
<g id="edge16" class="edge">
<title>7&#45;&gt;0</title>
<path fill="none" stroke="#ff0000" d="M237.0509,-127.9398C234.4345,-138.8204 231.015,-153.0408 228.0396,-165.4147"/>
<polygon fill="#ff0000" stroke="#ff0000" points="224.607,-164.7194 225.672,-175.2606 231.413,-166.3561 224.607,-164.7194"/>
</g>
<!-- 8&#45;&gt;7 -->
<g id="edge15" class="edge">
<title>8&#45;&gt;7</title>
<path fill="none" stroke="#ff0000" d="M276.6459,-58.7609C270.9699,-67.0477 263.814,-77.4951 257.4253,-86.8224"/>
<polygon fill="#ff0000" stroke="#ff0000" points="254.3719,-85.0867 251.6085,-95.3148 260.1471,-89.0424 254.3719,-85.0867"/>
</g>
<!-- 9&#45;&gt;8 -->
<g id="edge14" class="edge">
<title>9&#45;&gt;8</title>
<path fill="none" stroke="#ff0000" d="M347.1696,-23.6812C337.363,-26.9291 324.8491,-31.0737 313.7786,-34.7402"/>
<polygon fill="#ff0000" stroke="#ff0000" points="312.5292,-31.467 304.1367,-37.9335 314.7301,-38.112 312.5292,-31.467"/>
</g>
<!-- 10&#45;&gt;9 -->
<g id="edge13" class="edge">
<title>10&#45;&gt;9</title>
<path fill="none" stroke="#ff0000" d="M422.5143,-37.6068C413.0574,-34.4204 401.5687,-30.5494 391.3059,-27.0915"/>
<polygon fill="#ff0000" stroke="#ff0000" points="392.1665,-23.6882 381.5724,-23.8119 389.9313,-30.3217 392.1665,-23.6882"/>
</g>
<!-- 11&#45;&gt;10 -->
<g id="edge12" class="edge">
<title>11&#45;&gt;10</title>
<path fill="none" stroke="#ff0000" d="M468.1042,-98.9524C464.2721,-90.8704 459.7225,-81.2755 455.5113,-72.3941"/>
<polygon fill="#ff0000" stroke="#ff0000" points="458.5714,-70.6784 451.1244,-63.1422 452.2464,-73.6775 458.5714,-70.6784"/>
</g>
<!-- 12&#45;&gt;11 -->
<g id="edge11" class="edge">
<title>12&#45;&gt;11</title>
<path fill="none" stroke="#ff0000" d="M455.3252,-175.2931C458.6027,-166.6617 462.5322,-156.313 466.1457,-146.7966"/>
<polygon fill="#ff0000" stroke="#ff0000" points="469.4785,-147.8788 469.7563,-137.2876 462.9344,-145.3939 469.4785,-147.8788"/>
</g>
<!-- 13&#45;&gt;12 -->
<g id="edge10" class="edge">
<title>13&#45;&gt;12</title>
<path fill="none" stroke="#ff0000" d="M396.6531,-226.4128C404.1732,-221.7589 413.0902,-216.2406 421.3644,-211.12"/>
<polygon fill="#ff0000" stroke="#ff0000" points="423.3323,-214.0182 429.9939,-205.7796 419.6486,-208.0659 423.3323,-214.0182"/>
</g>
<!-- 14&#45;&gt;13 -->
<g id="edge9" class="edge">
<title>14&#45;&gt;13</title>
<path fill="none" stroke="#ff0000" d="M319.066,-231.2646C327.895,-232.1749 338.3768,-233.2556 348.0791,-234.256"/>
<polygon fill="#ff0000" stroke="#ff0000" points="347.8798,-237.7539 358.1861,-235.2981 348.5978,-230.7908 347.8798,-237.7539"/>
</g>
<!-- 0 -->
<g id="node1" class="node">
<title>0</title>
<ellipse fill="#ffffff" stroke="#000000" cx="221.396" cy="-193.0431" rx="18" ry="18"/>
<text text-anchor="middle" x="221.396" y="-188.8431" font-family="Times,serif" font-size="14.00" fill="#000000">0</text>
</g>
<!-- 1 -->
<g id="node2" class="node">
<title>1</title>
<ellipse fill="#ffffff" stroke="#000000" cx="192.9693" cy="-272.0636" rx="18" ry="18"/>
<text text-anchor="middle" x="192.9693" y="-267.8636" font-family="Times,serif" font-size="14.00" fill="#000000">1</text>
</g>
<!-- 3 -->
<g id="node3" class="node">
<title>3</title>
<ellipse fill="#ffffff" stroke="#000000" cx="53.5299" cy="-321.6582" rx="18" ry="18"/>
<text text-anchor="middle" x="53.5299" y="-317.4582" font-family="Times,serif" font-size="14.00" fill="#000000">3</text>
</g>
<!-- 2 -->
<g id="node4" class="node">
<title>2</title>
<ellipse fill="#ffffff" stroke="#000000" cx="134.4056" cy="-327.3748" rx="18" ry="18"/>
<text text-anchor="middle" x="134.4056" y="-323.1748" font-family="Times,serif" font-size="14.00" fill="#000000">2</text>
</g>
<!-- 4 -->
<g id="node5" class="node">
<title>4</title>
<ellipse fill="#ffffff" stroke="#000000" cx="18" cy="-250.0356" rx="18" ry="18"/>
<text text-anchor="middle" x="18" y="-245.8356" font-family="Times,serif" font-size="14.00" fill="#000000">4</text>
</g>
<!-- 5 -->
<g id="node6" class="node">
<title>5</title>
<ellipse fill="#ffffff" stroke="#000000" cx="62.1354" cy="-181.8596" rx="18" ry="18"/>
<text text-anchor="middle" x="62.1354" y="-177.6596" font-family="Times,serif" font-size="14.00" fill="#000000">5</text>
</g>
<!-- 6 -->
<g id="node7" class="node">
<title>6</title>
<ellipse fill="#ffffff" stroke="#000000" cx="141.4176" cy="-167.1093" rx="18" ry="18"/>
<text text-anchor="middle" x="141.4176" y="-162.9093" font-family="Times,serif" font-size="14.00" fill="#000000">6</text>
</g>
<!-- 7 -->
<g id="node8" class="node">
<title>7</title>
<ellipse fill="#ffffff" stroke="#000000" cx="241.2645" cy="-110.4169" rx="18" ry="18"/>
<text text-anchor="middle" x="241.2645" y="-106.2169" font-family="Times,serif" font-size="14.00" fill="#000000">7</text>
</g>
<!-- 8 -->
<g id="node9" class="node">
<title>8</title>
<ellipse fill="#ffffff" stroke="#000000" cx="287.031" cy="-43.5989" rx="18" ry="18"/>
<text text-anchor="middle" x="287.031" y="-39.3989" font-family="Times,serif" font-size="14.00" fill="#000000">8</text>
</g>
<!-- 9 -->
<g id="node10" class="node">
<title>9</title>
<ellipse fill="#ffffff" stroke="#000000" cx="364.3233" cy="-18" rx="18" ry="18"/>
<text text-anchor="middle" x="364.3233" y="-13.8" font-family="Times,serif" font-size="14.00" fill="#000000">9</text>
</g>
<!-- 10 -->
<g id="node11" class="node">
<title>10</title>
<ellipse fill="#ffffff" stroke="#000000" cx="442.1543" cy="-44.2243" rx="20.8887" ry="20.8887"/>
<text text-anchor="middle" x="442.1543" y="-40.0243" font-family="Times,serif" font-size="14.00" fill="#000000">10</text>
</g>
<!-- 11 -->
<g id="node12" class="node">
<title>11</title>
<ellipse fill="#ffffff" stroke="#000000" cx="477.1048" cy="-117.9347" rx="20.8887" ry="20.8887"/>
<text text-anchor="middle" x="477.1048" y="-113.7347" font-family="Times,serif" font-size="14.00" fill="#000000">11</text>
</g>
<!-- 12 -->
<g id="node13" class="node">
<title>12</title>
<ellipse fill="#ffffff" stroke="#000000" cx="447.9744" cy="-194.6522" rx="20.8887" ry="20.8887"/>
<text text-anchor="middle" x="447.9744" y="-190.4522" font-family="Times,serif" font-size="14.00" fill="#000000">12</text>
</g>
<!-- 13 -->
<g id="node14" class="node">
<title>13</title>
<ellipse fill="#ffffff" stroke="#000000" cx="378.8525" cy="-237.4289" rx="20.8887" ry="20.8887"/>
<text text-anchor="middle" x="378.8525" y="-233.2289" font-family="Times,serif" font-size="14.00" fill="#000000">13</text>
</g>
<!-- 14 -->
<g id="node15" class="node">
<title>14</title>
<ellipse fill="#ffffff" stroke="#000000" cx="298.3293" cy="-229.1266" rx="20.8887" ry="20.8887"/>
<text text-anchor="middle" x="298.3293" y="-224.9266" font-family="Times,serif" font-size="14.00" fill="#000000">14</text>
</g>
</g>
</svg>
