<?xml version="1.0" encoding="UTF-8" standalone="no"?>
<!DOCTYPE svg PUBLIC "-//W3C//DTD SVG 1.1//EN"
 "http://www.w3.org/Graphics/SVG/1.1/DTD/svg11.dtd">
<!-- Generated by graphviz version 2.40.1 (20161225.0304)
 -->
<!-- Title: g Pages: 1 -->
<svg width="7156pt" height="6965pt"
 viewBox="0.00 0.00 7156.00 6965.00" xmlns="http://www.w3.org/2000/svg" xmlns:xlink="http://www.w3.org/1999/xlink">
<g id="graph0" class="graph" transform="scale(1 1) rotate(0) translate(4 6961)">
<title>g</title>
<polygon fill="#ffffff" stroke="transparent" points="-4,4 -4,-6961 7152,-6961 7152,4 -4,4"/>
<!-- 0 -->
<g id="node1" class="node">
<title>0</title>
<ellipse fill="none" stroke="#000000" stroke-width="15" cx="5914" cy="-5354" rx="46.8387" ry="90.5193"/>
<text text-anchor="middle" x="5914" y="-5324" font-family="Times,serif" font-size="100.00" fill="#000000">0</text>
</g>
<!-- 14 -->
<g id="node15" class="node">
<title>14</title>
<ellipse fill="none" stroke="#000000" stroke-width="15" cx="4402" cy="-4130" rx="82.0488" ry="90.5193"/>
<text text-anchor="middle" x="4402" y="-4100" font-family="Times,serif" font-size="100.00" fill="#000000">14</text>
</g>
<!-- 0&#45;&gt;14 -->
<g id="edge29" class="edge">
<title>0&#45;&gt;14</title>
<path fill="none" stroke="#ffa500" stroke-width="15" d="M5870.7827,-5319.0146C5660.7068,-5148.9531 4745.3946,-4407.9861 4476.523,-4190.3281"/>
<polygon fill="#ffa500" stroke="#ffa500" stroke-width="15" points="4484.4068,-4179.8236 4468.376,-4183.733 4467.8902,-4200.2264 4484.4068,-4179.8236"/>
</g>
<!-- 16 -->
<g id="node17" class="node">
<title>16</title>
<ellipse fill="none" stroke="#000000" stroke-width="15" cx="6346" cy="-3554" rx="82.0488" ry="90.5193"/>
<text text-anchor="middle" x="6346" y="-3524" font-family="Times,serif" font-size="100.00" fill="#000000">16</text>
</g>
<!-- 0&#45;&gt;16 -->
<g id="edge10" class="edge">
<title>0&#45;&gt;16</title>
<path fill="none" stroke="#ff0000" stroke-width="15" d="M5933.7558,-5271.6841C6004.6359,-4976.3503 6245.9889,-3970.713 6322.5181,-3651.8414"/>
<polygon fill="#ff0000" stroke="#ff0000" stroke-width="15" points="6335.3812,-3654.4854 6324.9524,-3641.6984 6309.856,-3648.3592 6335.3812,-3654.4854"/>
</g>
<!-- 20 -->
<g id="node21" class="node">
<title>20</title>
<ellipse fill="none" stroke="#000000" stroke-width="15" cx="3610" cy="-6578" rx="82.0488" ry="90.5193"/>
<text text-anchor="middle" x="3610" y="-6548" font-family="Times,serif" font-size="100.00" fill="#000000">20</text>
</g>
<!-- 0&#45;&gt;20 -->
<g id="edge1" class="edge">
<title>0&#45;&gt;20</title>
<path fill="none" stroke="#0000ff" stroke-width="15" d="M5868.7526,-5378.0377C5586.4192,-5528.0273 4066.439,-6335.5168 3692.9341,-6533.9413"/>
<polygon fill="#0000ff" stroke="#0000ff" stroke-width="15" points="3686.7348,-6522.3724 3684.0614,-6538.6549 3699.0503,-6545.5542 3686.7348,-6522.3724"/>
</g>
<!-- 24 -->
<g id="node25" class="node">
<title>24</title>
<ellipse fill="none" stroke="#000000" stroke-width="15" cx="4402" cy="-4346" rx="82.0488" ry="90.5193"/>
<text text-anchor="middle" x="4402" y="-4316" font-family="Times,serif" font-size="100.00" fill="#000000">24</text>
</g>
<!-- 0&#45;&gt;24 -->
<g id="edge27" class="edge">
<title>0&#45;&gt;24</title>
<path fill="none" stroke="#00ff00" stroke-width="15" d="M5870.1387,-5321.7478C5660.3565,-5175.3893 4758.3779,-4573.7855 4482.4812,-4395.7883"/>
<polygon fill="#00ff00" stroke="#00ff00" stroke-width="15" points="4489.2319,-4384.5244 4473.7166,-4390.1408 4475.0134,-4406.5903 4489.2319,-4384.5244"/>
</g>
<!-- 30 -->
<g id="node31" class="node">
<title>30</title>
<ellipse fill="none" stroke="#000000" stroke-width="15" cx="6130" cy="-4202" rx="82.0488" ry="90.5193"/>
<text text-anchor="middle" x="6130" y="-4172" font-family="Times,serif" font-size="100.00" fill="#000000">30</text>
</g>
<!-- 0&#45;&gt;30 -->
<g id="edge17" class="edge">
<title>0&#45;&gt;30</title>
<path fill="none" stroke="#000000" stroke-width="15" d="M5929.9707,-5268.8229C5969.1403,-5059.9184 6069.8062,-4523.0339 6111.4938,-4300.7"/>
<polygon fill="#000000" stroke="#000000" stroke-width="15" points="6124.4309,-4302.9214 6113.3737,-4290.6738 6098.6305,-4298.0837 6124.4309,-4302.9214"/>
</g>
<!-- 1 -->
<g id="node2" class="node">
<title>1</title>
<ellipse fill="none" stroke="#000000" stroke-width="15" cx="6922" cy="-3050" rx="46.8387" ry="90.5193"/>
<text text-anchor="middle" x="6922" y="-3020" font-family="Times,serif" font-size="100.00" fill="#000000">1</text>
</g>
<!-- 7 -->
<g id="node8" class="node">
<title>7</title>
<ellipse fill="none" stroke="#000000" stroke-width="15" cx="6058" cy="-2690" rx="46.8387" ry="90.5193"/>
<text text-anchor="middle" x="6058" y="-2660" font-family="Times,serif" font-size="100.00" fill="#000000">7</text>
</g>
<!-- 1&#45;&gt;7 -->
<g id="edge13" class="edge">
<title>1&#45;&gt;7</title>
<path fill="none" stroke="#ff0000" stroke-width="15" d="M6876.1576,-3030.899C6729.5623,-2969.8176 6272.512,-2779.38 6113.3329,-2713.0554"/>
<polygon fill="#ff0000" stroke="#ff0000" stroke-width="15" points="6118.0109,-2700.7858 6103.7319,-2709.055 6107.9146,-2725.0166 6118.0109,-2700.7858"/>
</g>
<!-- 2 -->
<g id="node3" class="node">
<title>2</title>
<ellipse fill="none" stroke="#000000" stroke-width="15" cx="3610" cy="-242" rx="46.8387" ry="90.5193"/>
<text text-anchor="middle" x="3610" y="-212" font-family="Times,serif" font-size="100.00" fill="#000000">2</text>
</g>
<!-- 17 -->
<g id="node18" class="node">
<title>17</title>
<ellipse fill="none" stroke="#000000" stroke-width="15" cx="5876.0629" cy="-90.0712" rx="82.0488" ry="90.5193"/>
<text text-anchor="middle" x="5876.0629" y="-60.0712" font-family="Times,serif" font-size="100.00" fill="#000000">17</text>
</g>
<!-- 2&#45;&gt;17 -->
<g id="edge33" class="edge">
<title>2&#45;&gt;17</title>
<path fill="none" stroke="#ffa500" stroke-width="15" d="M3656.8098,-238.8616C3937.6717,-220.0312 5400.0225,-121.9874 5783.7662,-96.2592"/>
<polygon fill="#ffa500" stroke="#ffa500" stroke-width="15" points="5784.8903,-109.3384 5793.9897,-95.5738 5783.134,-83.1472 5784.8903,-109.3384"/>
</g>
<!-- 3 -->
<g id="node4" class="node">
<title>3</title>
<ellipse fill="none" stroke="#000000" stroke-width="15" cx="3538" cy="-458" rx="46.8387" ry="90.5193"/>
<text text-anchor="middle" x="3538" y="-428" font-family="Times,serif" font-size="100.00" fill="#000000">3</text>
</g>
<!-- 3&#45;&gt;2 -->
<g id="edge32" class="edge">
<title>3&#45;&gt;2</title>
<path fill="none" stroke="#ffa500" stroke-width="15" d="M3563.3845,-381.8465C3569.1918,-364.4245 3575.4039,-345.7883 3581.3382,-327.9855"/>
<polygon fill="#ffa500" stroke="#ffa500" stroke-width="15" points="3593.8912,-331.8313 3584.602,-318.1939 3568.9882,-323.5301 3593.8912,-331.8313"/>
</g>
<!-- 4 -->
<g id="node5" class="node">
<title>4</title>
<ellipse fill="none" stroke="#000000" stroke-width="15" cx="946" cy="-386" rx="46.8387" ry="90.5193"/>
<text text-anchor="middle" x="946" y="-356" font-family="Times,serif" font-size="100.00" fill="#000000">4</text>
</g>
<!-- 11 -->
<g id="node12" class="node">
<title>11</title>
<ellipse fill="none" stroke="#000000" stroke-width="15" cx="370" cy="-602" rx="82.0488" ry="90.5193"/>
<text text-anchor="middle" x="370" y="-572" font-family="Times,serif" font-size="100.00" fill="#000000">11</text>
</g>
<!-- 4&#45;&gt;11 -->
<g id="edge22" class="edge">
<title>4&#45;&gt;11</title>
<path fill="none" stroke="#000000" stroke-width="15" d="M899.8372,-403.3111C803.8307,-439.3135 581.2884,-522.7668 457.3356,-569.2491"/>
<polygon fill="#000000" stroke="#000000" stroke-width="15" points="452.6074,-557.0046 447.8527,-572.8052 461.8246,-581.5833 452.6074,-557.0046"/>
</g>
<!-- 5 -->
<g id="node6" class="node">
<title>5</title>
<ellipse fill="none" stroke="#000000" stroke-width="15" cx="2098" cy="-6290" rx="46.8387" ry="90.5193"/>
<text text-anchor="middle" x="2098" y="-6260" font-family="Times,serif" font-size="100.00" fill="#000000">5</text>
</g>
<!-- 25 -->
<g id="node26" class="node">
<title>25</title>
<ellipse fill="none" stroke="#000000" stroke-width="15" cx="658" cy="-6866" rx="82.0488" ry="90.5193"/>
<text text-anchor="middle" x="658" y="-6836" font-family="Times,serif" font-size="100.00" fill="#000000">25</text>
</g>
<!-- 5&#45;&gt;25 -->
<g id="edge3" class="edge">
<title>5&#45;&gt;25</title>
<path fill="none" stroke="#0000ff" stroke-width="15" d="M2052.1233,-6308.3507C1847.5421,-6390.1831 1016.6231,-6722.5508 744.6379,-6831.3449"/>
<polygon fill="#0000ff" stroke="#0000ff" stroke-width="15" points="739.6104,-6819.2197 735.2002,-6835.1199 749.3596,-6843.5922 739.6104,-6819.2197"/>
</g>
<!-- 6 -->
<g id="node7" class="node">
<title>6</title>
<ellipse fill="none" stroke="#000000" stroke-width="15" cx="4186" cy="-2042" rx="46.8387" ry="90.5193"/>
<text text-anchor="middle" x="4186" y="-2012" font-family="Times,serif" font-size="100.00" fill="#000000">6</text>
</g>
<!-- 6&#45;&gt;3 -->
<g id="edge31" class="edge">
<title>6&#45;&gt;3</title>
<path fill="none" stroke="#ffa500" stroke-width="15" d="M4156.8979,-1970.8616C4050.5396,-1710.8746 3683.2555,-813.069 3570.91,-538.4466"/>
<polygon fill="#ffa500" stroke="#ffa500" stroke-width="15" points="3582.9561,-533.2282 3567.0219,-528.9424 3558.6605,-543.1675 3582.9561,-533.2282"/>
</g>
<!-- 22 -->
<g id="node23" class="node">
<title>22</title>
<ellipse fill="none" stroke="#000000" stroke-width="15" cx="370" cy="-2906" rx="82.0488" ry="90.5193"/>
<text text-anchor="middle" x="370" y="-2876" font-family="Times,serif" font-size="100.00" fill="#000000">22</text>
</g>
<!-- 7&#45;&gt;22 -->
<g id="edge14" class="edge">
<title>7&#45;&gt;22</title>
<path fill="none" stroke="#ff0000" stroke-width="15" d="M6010.9579,-2691.7864C5509.4547,-2710.8308 1153.4196,-2876.2499 462.2326,-2902.4975"/>
<polygon fill="#ff0000" stroke="#ff0000" stroke-width="15" points="461.5762,-2889.3879 452.0816,-2902.883 462.5726,-2915.619 461.5762,-2889.3879"/>
</g>
<!-- 8 -->
<g id="node9" class="node">
<title>8</title>
<ellipse fill="none" stroke="#000000" stroke-width="15" cx="1018" cy="-1610" rx="46.8387" ry="90.5193"/>
<text text-anchor="middle" x="1018" y="-1580" font-family="Times,serif" font-size="100.00" fill="#000000">8</text>
</g>
<!-- 18 -->
<g id="node19" class="node">
<title>18</title>
<ellipse fill="none" stroke="#000000" stroke-width="15" cx="1378" cy="-2186" rx="82.0488" ry="90.5193"/>
<text text-anchor="middle" x="1378" y="-2156" font-family="Times,serif" font-size="100.00" fill="#000000">18</text>
</g>
<!-- 8&#45;&gt;18 -->
<g id="edge24" class="edge">
<title>8&#45;&gt;18</title>
<path fill="none" stroke="#000000" stroke-width="15" d="M1054.0002,-1667.6004C1118.019,-1770.0304 1251.8745,-1984.1992 1325.9317,-2102.6906"/>
<polygon fill="#000000" stroke="#000000" stroke-width="15" points="1314.9471,-2109.8797 1331.3771,-2111.4034 1337.2071,-2095.9671 1314.9471,-2109.8797"/>
</g>
<!-- 9 -->
<g id="node10" class="node">
<title>9</title>
<ellipse fill="none" stroke="#000000" stroke-width="15" cx="154" cy="-2690" rx="46.8387" ry="90.5193"/>
<text text-anchor="middle" x="154" y="-2660" font-family="Times,serif" font-size="100.00" fill="#000000">9</text>
</g>
<!-- 9&#45;&gt;0 -->
<g id="edge16" class="edge">
<title>9&#45;&gt;0</title>
<path fill="none" stroke="#ff0000" stroke-width="15" d="M199.5255,-2711.0556C707.3297,-2945.915 5302.8499,-5071.3431 5858.9833,-5328.5548"/>
<polygon fill="#ff0000" stroke="#ff0000" stroke-width="15" points="5853.8081,-5340.622 5868.3941,-5332.9073 5864.8274,-5316.7968 5853.8081,-5340.622"/>
</g>
<!-- 10 -->
<g id="node11" class="node">
<title>10</title>
<ellipse fill="none" stroke="#000000" stroke-width="15" cx="226" cy="-5786" rx="82.0488" ry="90.5193"/>
<text text-anchor="middle" x="226" y="-5756" font-family="Times,serif" font-size="100.00" fill="#000000">10</text>
</g>
<!-- 15 -->
<g id="node16" class="node">
<title>15</title>
<ellipse fill="none" stroke="#000000" stroke-width="15" cx="82" cy="-4562" rx="82.0488" ry="90.5193"/>
<text text-anchor="middle" x="82" y="-4532" font-family="Times,serif" font-size="100.00" fill="#000000">15</text>
</g>
<!-- 10&#45;&gt;15 -->
<g id="edge5" class="edge">
<title>10&#45;&gt;15</title>
<path fill="none" stroke="#0000ff" stroke-width="15" d="M215.4113,-5695.9964C189.1714,-5472.9571 121.2787,-4895.8687 93.8025,-4662.3214"/>
<polygon fill="#0000ff" stroke="#0000ff" stroke-width="15" points="106.8078,-4660.5334 92.6042,-4652.1356 80.7376,-4663.6007 106.8078,-4660.5334"/>
</g>
<!-- 11&#45;&gt;8 -->
<g id="edge23" class="edge">
<title>11&#45;&gt;8</title>
<path fill="none" stroke="#000000" stroke-width="15" d="M417.649,-676.1206C539.4353,-865.566 860.6119,-1365.174 975.9835,-1544.641"/>
<polygon fill="#000000" stroke="#000000" stroke-width="15" points="965.0364,-1551.8838 981.4845,-1553.1981 987.1174,-1537.6888 965.0364,-1551.8838"/>
</g>
<!-- 12 -->
<g id="node13" class="node">
<title>12</title>
<ellipse fill="none" stroke="#000000" stroke-width="15" cx="7066" cy="-3626" rx="82.0488" ry="90.5193"/>
<text text-anchor="middle" x="7066" y="-3596" font-family="Times,serif" font-size="100.00" fill="#000000">12</text>
</g>
<!-- 12&#45;&gt;1 -->
<g id="edge12" class="edge">
<title>12&#45;&gt;1</title>
<path fill="none" stroke="#ff0000" stroke-width="15" d="M7044.1295,-3538.518C7017.3493,-3431.3971 6972.2006,-3250.8022 6944.9414,-3141.7654"/>
<polygon fill="#ff0000" stroke="#ff0000" stroke-width="15" points="6957.6003,-3138.2852 6942.4418,-3131.7672 6932.1341,-3144.652 6957.6003,-3138.2852"/>
</g>
<!-- 13 -->
<g id="node14" class="node">
<title>13</title>
<ellipse fill="none" stroke="#000000" stroke-width="15" cx="6058" cy="-1682" rx="82.0488" ry="90.5193"/>
<text text-anchor="middle" x="6058" y="-1652" font-family="Times,serif" font-size="100.00" fill="#000000">13</text>
</g>
<!-- 21 -->
<g id="node22" class="node">
<title>21</title>
<ellipse fill="none" stroke="#000000" stroke-width="15" cx="7066" cy="-890" rx="82.0488" ry="90.5193"/>
<text text-anchor="middle" x="7066" y="-860" font-family="Times,serif" font-size="100.00" fill="#000000">21</text>
</g>
<!-- 13&#45;&gt;21 -->
<g id="edge8" class="edge">
<title>13&#45;&gt;21</title>
<path fill="none" stroke="#0000ff" stroke-width="15" d="M6124.9183,-1629.4213C6305.465,-1487.5632 6801.6736,-1097.685 6991.1331,-948.824"/>
<polygon fill="#0000ff" stroke="#0000ff" stroke-width="15" points="6999.3511,-959.0588 6999.1054,-942.5601 6983.1332,-938.4179 6999.3511,-959.0588"/>
</g>
<!-- 14&#45;&gt;6 -->
<g id="edge30" class="edge">
<title>14&#45;&gt;6</title>
<path fill="none" stroke="#ffa500" stroke-width="15" d="M4392.6841,-4039.9464C4357.5036,-3699.8685 4232.8733,-2495.1086 4196.2141,-2140.7361"/>
<polygon fill="#ffa500" stroke="#ffa500" stroke-width="15" points="4209.2658,-2139.3498 4195.1814,-2130.7536 4183.1552,-2142.0512 4209.2658,-2139.3498"/>
</g>
<!-- 29 -->
<g id="node30" class="node">
<title>29</title>
<ellipse fill="none" stroke="#000000" stroke-width="15" cx="1450" cy="-4922" rx="82.0488" ry="90.5193"/>
<text text-anchor="middle" x="1450" y="-4892" font-family="Times,serif" font-size="100.00" fill="#000000">29</text>
</g>
<!-- 15&#45;&gt;29 -->
<g id="edge6" class="edge">
<title>15&#45;&gt;29</title>
<path fill="none" stroke="#0000ff" stroke-width="15" d="M161.9642,-4583.0432C400.9404,-4645.9317 1108.7328,-4832.1928 1360.1463,-4898.3543"/>
<polygon fill="#0000ff" stroke="#0000ff" stroke-width="15" points="1356.9651,-4911.0889 1369.9761,-4900.9411 1363.6457,-4885.7032 1356.9651,-4911.0889"/>
</g>
<!-- 16&#45;&gt;12 -->
<g id="edge11" class="edge">
<title>16&#45;&gt;12</title>
<path fill="none" stroke="#ff0000" stroke-width="15" d="M6427.8922,-3562.1892C6563.229,-3575.7229 6832.6421,-3602.6642 6974.2156,-3616.8216"/>
<polygon fill="#ff0000" stroke="#ff0000" stroke-width="15" points="6972.9279,-3629.8832 6984.1844,-3617.8184 6975.5401,-3603.7634 6972.9279,-3629.8832"/>
</g>
<!-- 19 -->
<g id="node20" class="node">
<title>19</title>
<ellipse fill="none" stroke="#000000" stroke-width="15" cx="6732.0266" cy="-157.6155" rx="82.0488" ry="90.5193"/>
<text text-anchor="middle" x="6732.0266" y="-127.6155" font-family="Times,serif" font-size="100.00" fill="#000000">19</text>
</g>
<!-- 17&#45;&gt;19 -->
<g id="edge34" class="edge">
<title>17&#45;&gt;19</title>
<path fill="none" stroke="#ffa500" stroke-width="15" d="M5958.1362,-96.5476C6118.4705,-109.1996 6472.2606,-137.1173 6640.1485,-150.3654"/>
<polygon fill="#ffa500" stroke="#ffa500" stroke-width="15" points="6639.2,-163.4563 6650.2016,-151.1587 6641.2652,-137.2876 6639.2,-163.4563"/>
</g>
<!-- 27 -->
<g id="node28" class="node">
<title>27</title>
<ellipse fill="none" stroke="#000000" stroke-width="15" cx="4114" cy="-4850" rx="82.0488" ry="90.5193"/>
<text text-anchor="middle" x="4114" y="-4820" font-family="Times,serif" font-size="100.00" fill="#000000">27</text>
</g>
<!-- 18&#45;&gt;27 -->
<g id="edge25" class="edge">
<title>18&#45;&gt;27</title>
<path fill="none" stroke="#000000" stroke-width="15" d="M1439.632,-2246.0101C1802.9021,-2599.7204 3661.8542,-4409.7528 4044.9127,-4782.7308"/>
<polygon fill="#000000" stroke="#000000" stroke-width="15" points="4036.0212,-4792.3923 4052.3422,-4789.9648 4054.3338,-4773.5849 4036.0212,-4792.3923"/>
</g>
<!-- 31 -->
<g id="node32" class="node">
<title>31</title>
<ellipse fill="none" stroke="#000000" stroke-width="15" cx="7066" cy="-242" rx="82.0488" ry="90.5193"/>
<text text-anchor="middle" x="7066" y="-212" font-family="Times,serif" font-size="100.00" fill="#000000">31</text>
</g>
<!-- 19&#45;&gt;31 -->
<g id="edge35" class="edge">
<title>19&#45;&gt;31</title>
<path fill="none" stroke="#ffa500" stroke-width="15" d="M6812.0215,-177.8277C6861.4232,-190.31 6924.9182,-206.3531 6976.0625,-219.2757"/>
<polygon fill="#ffa500" stroke="#ffa500" stroke-width="15" points="6972.8795,-232.0088 6985.7901,-221.7335 6979.3101,-206.5586 6972.8795,-232.0088"/>
</g>
<!-- 20&#45;&gt;5 -->
<g id="edge2" class="edge">
<title>20&#45;&gt;5</title>
<path fill="none" stroke="#0000ff" stroke-width="15" d="M3528.9758,-6562.5668C3257.6114,-6510.8784 2384.8814,-6344.6441 2154.306,-6300.7249"/>
<polygon fill="#0000ff" stroke="#0000ff" stroke-width="15" points="2156.7318,-6287.8261 2144.4525,-6298.8481 2151.8199,-6313.6125 2156.7318,-6287.8261"/>
</g>
<!-- 21&#45;&gt;0 -->
<g id="edge9" class="edge">
<title>21&#45;&gt;0</title>
<path fill="none" stroke="#0000ff" stroke-width="15" d="M7043.5049,-977.1685C6897.5643,-1542.6882 6086.3072,-4686.3097 5937.4623,-5263.0835"/>
<polygon fill="#0000ff" stroke="#0000ff" stroke-width="15" points="5924.69,-5260.0508 5934.8998,-5273.0133 5950.1073,-5266.6103 5924.69,-5260.0508"/>
</g>
<!-- 22&#45;&gt;9 -->
<g id="edge15" class="edge">
<title>22&#45;&gt;9</title>
<path fill="none" stroke="#ff0000" stroke-width="15" d="M308.9692,-2844.9692C275.4759,-2811.4759 234.4976,-2770.4976 203.0934,-2739.0934"/>
<polygon fill="#ff0000" stroke="#ff0000" stroke-width="15" points="212.0859,-2729.5242 195.734,-2731.734 193.5242,-2748.0859 212.0859,-2729.5242"/>
</g>
<!-- 23 -->
<g id="node24" class="node">
<title>23</title>
<ellipse fill="none" stroke="#000000" stroke-width="15" cx="3034" cy="-530" rx="82.0488" ry="90.5193"/>
<text text-anchor="middle" x="3034" y="-500" font-family="Times,serif" font-size="100.00" fill="#000000">23</text>
</g>
<!-- 28 -->
<g id="node29" class="node">
<title>28</title>
<ellipse fill="none" stroke="#000000" stroke-width="15" cx="1666" cy="-962" rx="82.0488" ry="90.5193"/>
<text text-anchor="middle" x="1666" y="-932" font-family="Times,serif" font-size="100.00" fill="#000000">28</text>
</g>
<!-- 23&#45;&gt;28 -->
<g id="edge20" class="edge">
<title>23&#45;&gt;28</title>
<path fill="none" stroke="#000000" stroke-width="15" d="M2955.0379,-554.9354C2716.6847,-630.2048 2005.4719,-854.7983 1754.7142,-933.985"/>
<polygon fill="#000000" stroke="#000000" stroke-width="15" points="1750.4962,-921.553 1744.9128,-937.0802 1758.4011,-946.5846 1750.4962,-921.553"/>
</g>
<!-- 24&#45;&gt;0 -->
<g id="edge28" class="edge">
<title>24&#45;&gt;0</title>
<path fill="none" stroke="#00ff00" stroke-width="15" d="M4470.6979,-4395.4776C4727.9094,-4573.0163 5630.8803,-5174.8399 5860.5548,-5321.578"/>
<polygon fill="#00ff00" stroke="#00ff00" stroke-width="15" points="5853.5903,-5332.7033 5869.0778,-5327.0109 5867.7003,-5310.5679 5853.5903,-5332.7033"/>
</g>
<!-- 25&#45;&gt;10 -->
<g id="edge4" class="edge">
<title>25&#45;&gt;10</title>
<path fill="none" stroke="#0000ff" stroke-width="15" d="M624.819,-6783.0475C545.5747,-6584.9367 345.7428,-6085.357 262.8826,-5878.2064"/>
<polygon fill="#0000ff" stroke="#0000ff" stroke-width="15" points="275.046,-5873.2747 259.1458,-5868.8645 250.6735,-5883.0238 275.046,-5873.2747"/>
</g>
<!-- 26 -->
<g id="node27" class="node">
<title>26</title>
<ellipse fill="none" stroke="#000000" stroke-width="15" cx="5770" cy="-3842" rx="82.0488" ry="90.5193"/>
<text text-anchor="middle" x="5770" y="-3812" font-family="Times,serif" font-size="100.00" fill="#000000">26</text>
</g>
<!-- 26&#45;&gt;23 -->
<g id="edge19" class="edge">
<title>26&#45;&gt;23</title>
<path fill="none" stroke="#000000" stroke-width="15" d="M5714.7291,-3775.0931C5365.1902,-3351.9671 3464.4452,-1051.0652 3095.9079,-604.9411"/>
<polygon fill="#000000" stroke="#000000" stroke-width="15" points="3105.7802,-596.2834 3089.2924,-596.9329 3085.5424,-613.0017 3105.7802,-596.2834"/>
</g>
<!-- 27&#45;&gt;0 -->
<g id="edge26" class="edge">
<title>27&#45;&gt;0</title>
<path fill="none" stroke="#000000" stroke-width="15" d="M4193.6663,-4872.3066C4499.8125,-4958.0275 5596.5589,-5265.1165 5857.8365,-5338.2742"/>
<polygon fill="#000000" stroke="#000000" stroke-width="15" points="5854.3289,-5350.9218 5867.4975,-5340.9793 5861.4069,-5325.644 5854.3289,-5350.9218"/>
</g>
<!-- 28&#45;&gt;4 -->
<g id="edge21" class="edge">
<title>28&#45;&gt;4</title>
<path fill="none" stroke="#000000" stroke-width="15" d="M1599.5547,-908.8438C1457.163,-794.9304 1125.1848,-529.3479 997.4012,-427.121"/>
<polygon fill="#000000" stroke="#000000" stroke-width="15" points="1005.2917,-416.6251 989.2838,-420.6271 988.8934,-437.123 1005.2917,-416.6251"/>
</g>
<!-- 29&#45;&gt;13 -->
<g id="edge7" class="edge">
<title>29&#45;&gt;13</title>
<path fill="none" stroke="#0000ff" stroke-width="15" d="M1519.6232,-4873.0462C2048.2065,-4501.386 5422.954,-2128.5167 5980.1489,-1736.7391"/>
<polygon fill="#0000ff" stroke="#0000ff" stroke-width="15" points="5987.9069,-1747.329 5988.5379,-1730.8405 5972.8084,-1725.8557 5987.9069,-1747.329"/>
</g>
<!-- 30&#45;&gt;26 -->
<g id="edge18" class="edge">
<title>30&#45;&gt;26</title>
<path fill="none" stroke="#000000" stroke-width="15" d="M6068.9309,-4140.9309C6004.9619,-4076.9619 5904.72,-3976.72 5838.2011,-3910.2011"/>
<polygon fill="#000000" stroke="#000000" stroke-width="15" points="5847.4194,-3900.8578 5831.0675,-3903.0675 5828.8578,-3919.4194 5847.4194,-3900.8578"/>
</g>
<!-- 31&#45;&gt;0 -->
<g id="edge36" class="edge">
<title>31&#45;&gt;0</title>
<path fill="none" stroke="#ffa500" stroke-width="15" d="M7046.1868,-329.9211C6907.0603,-947.2951 6078.1545,-4625.5643 5935.0405,-5260.6329"/>
<polygon fill="#ffa500" stroke="#ffa500" stroke-width="15" points="5922.1767,-5258.0132 5932.7822,-5270.6541 5947.7846,-5263.7842 5922.1767,-5258.0132"/>
</g>
</g>
</svg>
