<?xml version="1.0" encoding="UTF-8" standalone="no"?>
<!DOCTYPE svg PUBLIC "-//W3C//DTD SVG 1.1//EN"
 "http://www.w3.org/Graphics/SVG/1.1/DTD/svg11.dtd">
<!-- Generated by graphviz version 2.40.1 (20161225.0304)
 -->
<!-- Title: g Pages: 1 -->
<svg width="7605pt" height="7461pt"
 viewBox="216.00 216.00 7389.02 7245.02" xmlns="http://www.w3.org/2000/svg" xmlns:xlink="http://www.w3.org/1999/xlink">
<g id="graph0" class="graph" transform="scale(1 1) rotate(0) translate(220 7241.0193)">
<title>g</title>
<polygon fill="#ffffff" stroke="transparent" points="-4,4 -4,-7025.0193 7169.0193,-7025.0193 7169.0193,4 -4,4"/>
<!-- 0&#45;&gt;14 -->
<g id="edge1" class="edge">
<title>0&#45;&gt;14</title>
<path fill="none" stroke="#0000ff" stroke-width="15" d="M5852.1138,-5361.5225C5601.2583,-5158.449 4751.9899,-4470.9461 4488.881,-4257.9531"/>
<polygon fill="#0000ff" stroke="#0000ff" stroke-width="15" points="4496.9243,-4247.5777 4480.8935,-4251.4871 4480.4077,-4267.9805 4496.9243,-4247.5777"/>
</g>
<!-- 0&#45;&gt;24 -->
<g id="edge11" class="edge">
<title>0&#45;&gt;24</title>
<path fill="none" stroke="#ff0000" stroke-width="15" d="M5847.012,-5368.1779C5591.723,-5197.9853 4761.7936,-4644.6989 4494.3728,-4466.4184"/>
<polygon fill="#ff0000" stroke="#ff0000" stroke-width="15" points="4501.4627,-4455.3707 4485.8616,-4460.7443 4486.9017,-4477.212 4501.4627,-4455.3707"/>
</g>
<!-- 0&#45;&gt;26 -->
<g id="edge23" class="edge">
<title>0&#45;&gt;26</title>
<path fill="none" stroke="#00ff00" stroke-width="15" d="M5913.9064,-5328.1751C5888.6101,-5062.5642 5814.5921,-4285.3752 5788.0881,-4007.0836"/>
<polygon fill="#00ff00" stroke="#00ff00" stroke-width="15" points="5801.1416,-4005.7073 5787.1275,-3996.9968 5775.0098,-4008.1963 5801.1416,-4005.7073"/>
</g>
<!-- 0&#45;&gt;27 -->
<g id="edge19" class="edge">
<title>0&#45;&gt;27</title>
<path fill="none" stroke="#000000" stroke-width="15" d="M5835.0836,-5394.0304C5533.2446,-5309.5154 4536.1315,-5030.3238 4219.7424,-4941.7348"/>
<polygon fill="#000000" stroke="#000000" stroke-width="15" points="4222.8467,-4928.9743 4209.6781,-4938.9168 4215.7688,-4954.2521 4222.8467,-4928.9743"/>
</g>
<!-- 0&#45;&gt;30 -->
<g id="edge31" class="edge">
<title>0&#45;&gt;30</title>
<path fill="none" stroke="#ffa500" stroke-width="15" d="M5939.2791,-5329.0727C5978.9864,-5117.3002 6078.5206,-4586.4511 6119.9563,-4365.4612"/>
<polygon fill="#ffa500" stroke="#ffa500" stroke-width="15" points="6132.8824,-4367.7412 6121.8252,-4355.4936 6107.082,-4362.9034 6132.8824,-4367.7412"/>
</g>
<!-- 1&#45;&gt;12 -->
<g id="edge35" class="edge">
<title>1&#45;&gt;12</title>
<path fill="none" stroke="#ffa500" stroke-width="15" d="M6952.5369,-3202.6187C6978.8455,-3307.8528 7022.7191,-3483.3475 7050.0558,-3592.6944"/>
<polygon fill="#ffa500" stroke="#ffa500" stroke-width="15" points="7037.3263,-3595.8924 7052.4849,-3602.4105 7062.7926,-3589.5257 7037.3263,-3595.8924"/>
</g>
<!-- 2&#45;&gt;0 -->
<g id="edge10" class="edge">
<title>2&#45;&gt;0</title>
<path fill="none" stroke="#0000ff" stroke-width="15" d="M3655.7506,-389.1381C3926.9069,-990.766 5595.1241,-4692.1229 5880.8805,-5326.1449"/>
<polygon fill="#0000ff" stroke="#0000ff" stroke-width="15" points="5869.1129,-5331.9781 5885.1878,-5335.7018 5893.0446,-5321.1918 5869.1129,-5331.9781"/>
</g>
<!-- 3&#45;&gt;2 -->
<g id="edge9" class="edge">
<title>3&#45;&gt;2</title>
<path fill="none" stroke="#0000ff" stroke-width="15" d="M3575.1729,-436.5201C3578.9412,-425.2149 3582.8216,-413.5737 3586.6393,-402.1208"/>
<polygon fill="#0000ff" stroke="#0000ff" stroke-width="15" points="3599.1166,-406.1937 3589.8275,-392.5562 3574.2137,-397.8925 3599.1166,-406.1937"/>
</g>
<!-- 4&#45;&gt;28 -->
<g id="edge6" class="edge">
<title>4&#45;&gt;28</title>
<path fill="none" stroke="#0000ff" stroke-width="15" d="M1025.1866,-507.0512C1160.3701,-615.198 1454.6526,-850.624 1595.8481,-963.5804"/>
<polygon fill="#0000ff" stroke="#0000ff" stroke-width="15" points="1587.6821,-973.8558 1603.69,-969.8539 1604.0804,-953.358 1587.6821,-973.8558"/>
</g>
<!-- 5&#45;&gt;20 -->
<g id="edge21" class="edge">
<title>5&#45;&gt;20</title>
<path fill="none" stroke="#000000" stroke-width="15" d="M2195.4473,-6371.4502C2460.1024,-6421.8607 3241.4159,-6570.6823 3519.1452,-6623.5831"/>
<polygon fill="#000000" stroke="#000000" stroke-width="15" points="3516.9296,-6636.522 3529.209,-6625.5 3521.8415,-6610.7356 3516.9296,-6636.522"/>
</g>
<!-- 6&#45;&gt;17 -->
<g id="edge25" class="edge">
<title>6&#45;&gt;17</title>
<path fill="none" stroke="#00ff00" stroke-width="15" d="M4263.6928,-2047.8088C4607.7813,-1755.855 6132.6119,-462.0593 6493.6702,-155.7068"/>
<polygon fill="#00ff00" stroke="#00ff00" stroke-width="15" points="6502.3376,-165.5656 6501.4711,-149.0878 6485.3544,-145.5497 6502.3376,-165.5656"/>
</g>
<!-- 7&#45;&gt;1 -->
<g id="edge34" class="edge">
<title>7&#45;&gt;1</title>
<path fill="none" stroke="#ffa500" stroke-width="15" d="M6150.1387,-2789.3551C6312.2382,-2856.8966 6668.108,-3005.1756 6837.4336,-3075.728"/>
<polygon fill="#ffa500" stroke="#ffa500" stroke-width="15" points="6832.5556,-3087.9142 6846.8346,-3079.645 6842.652,-3063.6834 6832.5556,-3087.9142"/>
</g>
<!-- 8&#45;&gt;11 -->
<g id="edge4" class="edge">
<title>8&#45;&gt;11</title>
<path fill="none" stroke="#0000ff" stroke-width="15" d="M977.5387,-1598.3326C858.9315,-1413.8326 556.9202,-944.0372 432.9159,-751.1415"/>
<polygon fill="#0000ff" stroke="#0000ff" stroke-width="15" points="443.9527,-744.0384 427.5046,-742.7241 421.8718,-758.2334 443.9527,-744.0384"/>
</g>
<!-- 9&#45;&gt;22 -->
<g id="edge13" class="edge">
<title>9&#45;&gt;22</title>
<path fill="none" stroke="#ff0000" stroke-width="15" d="M226.732,-2818.732C251.9668,-2843.9668 281.0399,-2873.0399 306.9451,-2898.9451"/>
<polygon fill="#ff0000" stroke="#ff0000" stroke-width="15" points="297.8099,-2908.3716 314.1618,-2906.1618 316.3716,-2889.8099 297.8099,-2908.3716"/>
</g>
<!-- 10&#45;&gt;25 -->
<g id="edge16" class="edge">
<title>10&#45;&gt;25</title>
<path fill="none" stroke="#ff0000" stroke-width="15" d="M268.228,-5934.8056C347.6781,-6133.4307 546.1704,-6629.6615 629.1377,-6837.0799"/>
<polygon fill="#ff0000" stroke="#ff0000" stroke-width="15" points="616.9803,-6842.0265 632.8805,-6846.4367 641.3528,-6832.2774 616.9803,-6842.0265"/>
</g>
<!-- 11&#45;&gt;4 -->
<g id="edge5" class="edge">
<title>11&#45;&gt;4</title>
<path fill="none" stroke="#0000ff" stroke-width="15" d="M463.5005,-634.6381C569.4706,-594.8993 750.0499,-527.1821 860.1924,-485.8787"/>
<polygon fill="#0000ff" stroke="#0000ff" stroke-width="15" points="864.8851,-498.1365 869.6398,-482.3359 855.668,-473.5578 864.8851,-498.1365"/>
</g>
<!-- 12&#45;&gt;0 -->
<g id="edge36" class="edge">
<title>12&#45;&gt;0</title>
<path fill="none" stroke="#ffa500" stroke-width="15" d="M7024.2689,-3765.8708C6836.4408,-4047.6129 6176.2107,-5037.9581 5978.7219,-5334.1914"/>
<polygon fill="#ffa500" stroke="#ffa500" stroke-width="15" points="5967.6413,-5327.1508 5973.0149,-5342.7518 5989.4826,-5341.7118 5967.6413,-5327.1508"/>
</g>
<!-- 13&#45;&gt;0 -->
<g id="edge30" class="edge">
<title>13&#45;&gt;0</title>
<path fill="none" stroke="#00ff00" stroke-width="15" d="M6062.9501,-1837.2787C6043.1964,-2340.9981 5947.1893,-4789.1799 5926.4601,-5317.7725"/>
<polygon fill="#00ff00" stroke="#00ff00" stroke-width="15" points="5913.3345,-5317.5335 5926.0575,-5328.0403 5939.5644,-5318.5624 5913.3345,-5317.5335"/>
</g>
<!-- 14&#45;&gt;18 -->
<g id="edge2" class="edge">
<title>14&#45;&gt;18</title>
<path fill="none" stroke="#0000ff" stroke-width="15" d="M4334.2463,-4145.4832C3916.6834,-3877.05 1910.2926,-2587.2273 1471.4389,-2305.107"/>
<polygon fill="#0000ff" stroke="#0000ff" stroke-width="15" points="1478.4201,-2293.9918 1462.9108,-2299.6247 1464.2251,-2316.0728 1478.4201,-2293.9918"/>
</g>
<!-- 15&#45;&gt;10 -->
<g id="edge15" class="edge">
<title>15&#45;&gt;10</title>
<path fill="none" stroke="#ff0000" stroke-width="15" d="M101.0983,-4716.5133C127.3382,-4939.5526 195.231,-5516.641 222.7072,-5750.1883"/>
<polygon fill="#ff0000" stroke="#ff0000" stroke-width="15" points="209.7019,-5751.9763 223.9055,-5760.3741 235.7721,-5748.9089 209.7019,-5751.9763"/>
</g>
<!-- 16&#45;&gt;7 -->
<g id="edge33" class="edge">
<title>16&#45;&gt;7</title>
<path fill="none" stroke="#ffa500" stroke-width="15" d="M6325.8422,-3532.5073C6271.7246,-3370.1544 6154.8885,-3019.6461 6098.3891,-2850.1479"/>
<polygon fill="#ffa500" stroke="#ffa500" stroke-width="15" points="6110.7816,-2845.8203 6095.1678,-2840.484 6085.8787,-2854.1215 6110.7816,-2845.8203"/>
</g>
<!-- 17&#45;&gt;19 -->
<g id="edge26" class="edge">
<title>17&#45;&gt;19</title>
<path fill="none" stroke="#00ff00" stroke-width="15" d="M6651.7681,-131.1389C6651.8319,-131.1708 6651.8957,-131.2027 6651.9594,-131.2345"/>
<polygon fill="#00ff00" stroke="#00ff00" stroke-width="15" points="6637.3329,-138.5955 6652.1507,-131.3302 6649.079,-115.1155 6637.3329,-138.5955"/>
</g>
<!-- 18&#45;&gt;8 -->
<g id="edge3" class="edge">
<title>18&#45;&gt;8</title>
<path fill="none" stroke="#0000ff" stroke-width="15" d="M1338.5184,-2173.7236C1271.4467,-2066.4089 1150.0601,-1872.1904 1080.1055,-1760.263"/>
<polygon fill="#0000ff" stroke="#0000ff" stroke-width="15" points="1091.1747,-1753.2094 1074.7447,-1751.6857 1068.9147,-1767.122 1091.1747,-1753.2094"/>
</g>
<!-- 19&#45;&gt;31 -->
<g id="edge27" class="edge">
<title>19&#45;&gt;31</title>
<path fill="none" stroke="#00ff00" stroke-width="15" d="M6798.9137,-196.2713C6853.4306,-218.078 6924.429,-246.4774 6980.7093,-268.9895"/>
<polygon fill="#00ff00" stroke="#00ff00" stroke-width="15" points="6976.1638,-281.3074 6990.3232,-272.8351 6985.913,-256.9348 6976.1638,-281.3074"/>
</g>
<!-- 20&#45;&gt;0 -->
<g id="edge22" class="edge">
<title>20&#45;&gt;0</title>
<path fill="none" stroke="#000000" stroke-width="15" d="M3698.4876,-6600.0214C4050.7989,-6412.856 5463.2454,-5662.4938 5833.3567,-5465.8722"/>
<polygon fill="#000000" stroke="#000000" stroke-width="15" points="5839.7567,-5477.3344 5842.4302,-5461.0519 5827.4413,-5454.1526 5839.7567,-5477.3344"/>
</g>
<!-- 21&#45;&gt;13 -->
<g id="edge29" class="edge">
<title>21&#45;&gt;13</title>
<path fill="none" stroke="#00ff00" stroke-width="15" d="M7003.2275,-1010.5171C6820.6557,-1153.9663 6337.1802,-1533.84 6145.964,-1684.0813"/>
<polygon fill="#00ff00" stroke="#00ff00" stroke-width="15" points="6137.6612,-1673.9131 6137.907,-1690.4118 6153.8791,-1694.554 6137.6612,-1673.9131"/>
</g>
<!-- 22&#45;&gt;15 -->
<g id="edge14" class="edge">
<title>22&#45;&gt;15</title>
<path fill="none" stroke="#ff0000" stroke-width="15" d="M362.9745,-3059.8368C313.4577,-3344.5585 159.5686,-4229.4209 107.7442,-4527.4112"/>
<polygon fill="#ff0000" stroke="#ff0000" stroke-width="15" points="94.8007,-4525.235 106.0181,-4537.3361 120.6625,-4529.7329 94.8007,-4525.235"/>
</g>
<!-- 23&#45;&gt;3 -->
<g id="edge8" class="edge">
<title>23&#45;&gt;3</title>
<path fill="none" stroke="#0000ff" stroke-width="15" d="M3132.3242,-581.679C3220.5687,-569.0727 3354.9468,-549.8758 3446.5385,-536.7913"/>
<polygon fill="#0000ff" stroke="#0000ff" stroke-width="15" points="3448.6108,-549.7536 3456.654,-535.3462 3444.8982,-523.7674 3448.6108,-549.7536"/>
</g>
<!-- 24&#45;&gt;9 -->
<g id="edge12" class="edge">
<title>24&#45;&gt;9</title>
<path fill="none" stroke="#ff0000" stroke-width="15" d="M4326.1323,-4377.6168C3786.5719,-4167.2797 824.1726,-3012.4461 256.5583,-2791.1727"/>
<polygon fill="#ff0000" stroke="#ff0000" stroke-width="15" points="261.2567,-2778.9173 247.1725,-2787.5138 251.7224,-2803.3746 261.2567,-2778.9173"/>
</g>
<!-- 25&#45;&gt;29 -->
<g id="edge17" class="edge">
<title>25&#45;&gt;29</title>
<path fill="none" stroke="#ff0000" stroke-width="15" d="M700.6679,-6846.6667C829.4477,-6530.5708 1285.1164,-5412.1113 1420.3823,-5080.095"/>
<polygon fill="#ff0000" stroke="#ff0000" stroke-width="15" points="1432.6721,-5084.716 1424.2902,-5070.503 1408.3622,-5074.8118 1432.6721,-5084.716"/>
</g>
<!-- 26&#45;&gt;6 -->
<g id="edge24" class="edge">
<title>26&#45;&gt;6</title>
<path fill="none" stroke="#00ff00" stroke-width="15" d="M5718.5891,-3838.4181C5470.1262,-3556.0739 4521.7047,-2478.3222 4261.1074,-2182.1889"/>
<polygon fill="#00ff00" stroke="#00ff00" stroke-width="15" points="4270.7979,-2173.3333 4254.3385,-2174.4969 4251.0916,-2190.6749 4270.7979,-2173.3333"/>
</g>
<!-- 27&#45;&gt;5 -->
<g id="edge20" class="edge">
<title>27&#45;&gt;5</title>
<path fill="none" stroke="#000000" stroke-width="15" d="M4048.6691,-4967.253C3735.4693,-5190.9671 2517.8372,-6060.7043 2188.8386,-6295.7033"/>
<polygon fill="#000000" stroke="#000000" stroke-width="15" points="2180.8063,-6285.3112 2180.2978,-6301.8039 2196.0639,-6306.6717 2180.8063,-6285.3112"/>
</g>
<!-- 28&#45;&gt;23 -->
<g id="edge7" class="edge">
<title>28&#45;&gt;23</title>
<path fill="none" stroke="#0000ff" stroke-width="15" d="M1760.862,-999.2405C2003.728,-922.546 2691.5813,-705.3292 2946.184,-624.9283"/>
<polygon fill="#0000ff" stroke="#0000ff" stroke-width="15" points="2950.2053,-637.4224 2955.7887,-621.8952 2942.3004,-612.3908 2950.2053,-637.4224"/>
</g>
<!-- 29&#45;&gt;0 -->
<g id="edge18" class="edge">
<title>29&#45;&gt;0</title>
<path fill="none" stroke="#ff0000" stroke-width="15" d="M1548.6885,-4995.2367C2119.1289,-5050.4406 5221.7281,-5350.6921 5821.9447,-5408.7776"/>
<polygon fill="#ff0000" stroke="#ff0000" stroke-width="15" points="5821.0779,-5421.8799 5832.2957,-5409.7793 5823.6066,-5395.752 5821.0779,-5421.8799"/>
</g>
<!-- 30&#45;&gt;16 -->
<g id="edge32" class="edge">
<title>30&#45;&gt;16</title>
<path fill="none" stroke="#ffa500" stroke-width="15" d="M6167.1928,-4180.4603C6207.5127,-4059.5005 6280.7038,-3839.9273 6322.6653,-3714.0428"/>
<polygon fill="#ffa500" stroke="#ffa500" stroke-width="15" points="6335.1692,-3718.0357 6325.8801,-3704.3983 6310.2663,-3709.7346 6335.1692,-3718.0357"/>
</g>
<!-- 31&#45;&gt;21 -->
<g id="edge28" class="edge">
<title>31&#45;&gt;21</title>
<path fill="none" stroke="#00ff00" stroke-width="15" d="M7074.5097,-397.2936C7074.5097,-517.3959 7074.5097,-728.4496 7074.5097,-853.4815"/>
<polygon fill="#00ff00" stroke="#00ff00" stroke-width="15" points="7061.3848,-853.8183 7074.5097,-863.8185 7087.6348,-853.8186 7061.3848,-853.8183"/>
</g>
<!-- 0 -->
<g id="node1" class="node">
<title>0</title>
<ellipse fill="#ffffff" stroke="#000000" stroke-width="15" cx="5922.5097" cy="-5418.5097" rx="90.5193" ry="90.5193"/>
<text text-anchor="middle" x="5922.5097" y="-5388.5097" font-family="Times,serif" font-size="100.00" fill="#000000">0</text>
</g>
<!-- 1 -->
<g id="node2" class="node">
<title>1</title>
<ellipse fill="#ffffff" stroke="#000000" stroke-width="15" cx="6930.5097" cy="-3114.5097" rx="90.5193" ry="90.5193"/>
<text text-anchor="middle" x="6930.5097" y="-3084.5097" font-family="Times,serif" font-size="100.00" fill="#000000">1</text>
</g>
<!-- 2 -->
<g id="node3" class="node">
<title>2</title>
<ellipse fill="#ffffff" stroke="#000000" stroke-width="15" cx="3618.5097" cy="-306.5097" rx="90.5193" ry="90.5193"/>
<text text-anchor="middle" x="3618.5097" y="-276.5097" font-family="Times,serif" font-size="100.00" fill="#000000">2</text>
</g>
<!-- 3 -->
<g id="node4" class="node">
<title>3</title>
<ellipse fill="#ffffff" stroke="#000000" stroke-width="15" cx="3546.5097" cy="-522.5097" rx="90.5193" ry="90.5193"/>
<text text-anchor="middle" x="3546.5097" y="-492.5097" font-family="Times,serif" font-size="100.00" fill="#000000">3</text>
</g>
<!-- 4 -->
<g id="node5" class="node">
<title>4</title>
<ellipse fill="#ffffff" stroke="#000000" stroke-width="15" cx="954.5097" cy="-450.5097" rx="90.5193" ry="90.5193"/>
<text text-anchor="middle" x="954.5097" y="-420.5097" font-family="Times,serif" font-size="100.00" fill="#000000">4</text>
</g>
<!-- 5 -->
<g id="node6" class="node">
<title>5</title>
<ellipse fill="#ffffff" stroke="#000000" stroke-width="15" cx="2106.5097" cy="-6354.5097" rx="90.5193" ry="90.5193"/>
<text text-anchor="middle" x="2106.5097" y="-6324.5097" font-family="Times,serif" font-size="100.00" fill="#000000">5</text>
</g>
<!-- 6 -->
<g id="node7" class="node">
<title>6</title>
<ellipse fill="#ffffff" stroke="#000000" stroke-width="15" cx="4194.5097" cy="-2106.5097" rx="90.5193" ry="90.5193"/>
<text text-anchor="middle" x="4194.5097" y="-2076.5097" font-family="Times,serif" font-size="100.00" fill="#000000">6</text>
</g>
<!-- 7 -->
<g id="node8" class="node">
<title>7</title>
<ellipse fill="#ffffff" stroke="#000000" stroke-width="15" cx="6066.5097" cy="-2754.5097" rx="90.5193" ry="90.5193"/>
<text text-anchor="middle" x="6066.5097" y="-2724.5097" font-family="Times,serif" font-size="100.00" fill="#000000">7</text>
</g>
<!-- 8 -->
<g id="node9" class="node">
<title>8</title>
<ellipse fill="#ffffff" stroke="#000000" stroke-width="15" cx="1026.5097" cy="-1674.5097" rx="90.5193" ry="90.5193"/>
<text text-anchor="middle" x="1026.5097" y="-1644.5097" font-family="Times,serif" font-size="100.00" fill="#000000">8</text>
</g>
<!-- 9 -->
<g id="node10" class="node">
<title>9</title>
<ellipse fill="#ffffff" stroke="#000000" stroke-width="15" cx="162.5097" cy="-2754.5097" rx="90.5193" ry="90.5193"/>
<text text-anchor="middle" x="162.5097" y="-2724.5097" font-family="Times,serif" font-size="100.00" fill="#000000">9</text>
</g>
<!-- 10 -->
<g id="node11" class="node">
<title>10</title>
<ellipse fill="#ffffff" stroke="#000000" stroke-width="15" cx="234.5097" cy="-5850.5097" rx="90.5193" ry="90.5193"/>
<text text-anchor="middle" x="234.5097" y="-5820.5097" font-family="Times,serif" font-size="100.00" fill="#000000">10</text>
</g>
<!-- 11 -->
<g id="node12" class="node">
<title>11</title>
<ellipse fill="#ffffff" stroke="#000000" stroke-width="15" cx="378.5097" cy="-666.5097" rx="90.5193" ry="90.5193"/>
<text text-anchor="middle" x="378.5097" y="-636.5097" font-family="Times,serif" font-size="100.00" fill="#000000">11</text>
</g>
<!-- 12 -->
<g id="node13" class="node">
<title>12</title>
<ellipse fill="#ffffff" stroke="#000000" stroke-width="15" cx="7074.5097" cy="-3690.5097" rx="90.5193" ry="90.5193"/>
<text text-anchor="middle" x="7074.5097" y="-3660.5097" font-family="Times,serif" font-size="100.00" fill="#000000">12</text>
</g>
<!-- 13 -->
<g id="node14" class="node">
<title>13</title>
<ellipse fill="#ffffff" stroke="#000000" stroke-width="15" cx="6066.5097" cy="-1746.5097" rx="90.5193" ry="90.5193"/>
<text text-anchor="middle" x="6066.5097" y="-1716.5097" font-family="Times,serif" font-size="100.00" fill="#000000">13</text>
</g>
<!-- 14 -->
<g id="node15" class="node">
<title>14</title>
<ellipse fill="#ffffff" stroke="#000000" stroke-width="15" cx="4410.5097" cy="-4194.5097" rx="90.5193" ry="90.5193"/>
<text text-anchor="middle" x="4410.5097" y="-4164.5097" font-family="Times,serif" font-size="100.00" fill="#000000">14</text>
</g>
<!-- 15 -->
<g id="node16" class="node">
<title>15</title>
<ellipse fill="#ffffff" stroke="#000000" stroke-width="15" cx="90.5097" cy="-4626.5097" rx="90.5193" ry="90.5193"/>
<text text-anchor="middle" x="90.5097" y="-4596.5097" font-family="Times,serif" font-size="100.00" fill="#000000">15</text>
</g>
<!-- 16 -->
<g id="node17" class="node">
<title>16</title>
<ellipse fill="#ffffff" stroke="#000000" stroke-width="15" cx="6354.5097" cy="-3618.5097" rx="90.5193" ry="90.5193"/>
<text text-anchor="middle" x="6354.5097" y="-3588.5097" font-family="Times,serif" font-size="100.00" fill="#000000">16</text>
</g>
<!-- 17 -->
<g id="node18" class="node">
<title>17</title>
<ellipse fill="#ffffff" stroke="#000000" stroke-width="15" cx="6570.5097" cy="-90.5097" rx="90.5193" ry="90.5193"/>
<text text-anchor="middle" x="6570.5097" y="-60.5097" font-family="Times,serif" font-size="100.00" fill="#000000">17</text>
</g>
<!-- 18 -->
<g id="node19" class="node">
<title>18</title>
<ellipse fill="#ffffff" stroke="#000000" stroke-width="15" cx="1386.5097" cy="-2250.5097" rx="90.5193" ry="90.5193"/>
<text text-anchor="middle" x="1386.5097" y="-2220.5097" font-family="Times,serif" font-size="100.00" fill="#000000">18</text>
</g>
<!-- 19 -->
<g id="node20" class="node">
<title>19</title>
<ellipse fill="#ffffff" stroke="#000000" stroke-width="15" cx="6714.5097" cy="-162.5097" rx="90.5193" ry="90.5193"/>
<text text-anchor="middle" x="6714.5097" y="-132.5097" font-family="Times,serif" font-size="100.00" fill="#000000">19</text>
</g>
<!-- 20 -->
<g id="node21" class="node">
<title>20</title>
<ellipse fill="#ffffff" stroke="#000000" stroke-width="15" cx="3618.5097" cy="-6642.5097" rx="90.5193" ry="90.5193"/>
<text text-anchor="middle" x="3618.5097" y="-6612.5097" font-family="Times,serif" font-size="100.00" fill="#000000">20</text>
</g>
<!-- 21 -->
<g id="node22" class="node">
<title>21</title>
<ellipse fill="#ffffff" stroke="#000000" stroke-width="15" cx="7074.5097" cy="-954.5097" rx="90.5193" ry="90.5193"/>
<text text-anchor="middle" x="7074.5097" y="-924.5097" font-family="Times,serif" font-size="100.00" fill="#000000">21</text>
</g>
<!-- 22 -->
<g id="node23" class="node">
<title>22</title>
<ellipse fill="#ffffff" stroke="#000000" stroke-width="15" cx="378.5097" cy="-2970.5097" rx="90.5193" ry="90.5193"/>
<text text-anchor="middle" x="378.5097" y="-2940.5097" font-family="Times,serif" font-size="100.00" fill="#000000">22</text>
</g>
<!-- 23 -->
<g id="node24" class="node">
<title>23</title>
<ellipse fill="#ffffff" stroke="#000000" stroke-width="15" cx="3042.5097" cy="-594.5097" rx="90.5193" ry="90.5193"/>
<text text-anchor="middle" x="3042.5097" y="-564.5097" font-family="Times,serif" font-size="100.00" fill="#000000">23</text>
</g>
<!-- 24 -->
<g id="node25" class="node">
<title>24</title>
<ellipse fill="#ffffff" stroke="#000000" stroke-width="15" cx="4410.5097" cy="-4410.5097" rx="90.5193" ry="90.5193"/>
<text text-anchor="middle" x="4410.5097" y="-4380.5097" font-family="Times,serif" font-size="100.00" fill="#000000">24</text>
</g>
<!-- 25 -->
<g id="node26" class="node">
<title>25</title>
<ellipse fill="#ffffff" stroke="#000000" stroke-width="15" cx="666.5097" cy="-6930.5097" rx="90.5193" ry="90.5193"/>
<text text-anchor="middle" x="666.5097" y="-6900.5097" font-family="Times,serif" font-size="100.00" fill="#000000">25</text>
</g>
<!-- 26 -->
<g id="node27" class="node">
<title>26</title>
<ellipse fill="#ffffff" stroke="#000000" stroke-width="15" cx="5778.5097" cy="-3906.5097" rx="90.5193" ry="90.5193"/>
<text text-anchor="middle" x="5778.5097" y="-3876.5097" font-family="Times,serif" font-size="100.00" fill="#000000">26</text>
</g>
<!-- 27 -->
<g id="node28" class="node">
<title>27</title>
<ellipse fill="#ffffff" stroke="#000000" stroke-width="15" cx="4122.5097" cy="-4914.5097" rx="90.5193" ry="90.5193"/>
<text text-anchor="middle" x="4122.5097" y="-4884.5097" font-family="Times,serif" font-size="100.00" fill="#000000">27</text>
</g>
<!-- 28 -->
<g id="node29" class="node">
<title>28</title>
<ellipse fill="#ffffff" stroke="#000000" stroke-width="15" cx="1674.5097" cy="-1026.5097" rx="90.5193" ry="90.5193"/>
<text text-anchor="middle" x="1674.5097" y="-996.5097" font-family="Times,serif" font-size="100.00" fill="#000000">28</text>
</g>
<!-- 29 -->
<g id="node30" class="node">
<title>29</title>
<ellipse fill="#ffffff" stroke="#000000" stroke-width="15" cx="1458.5097" cy="-4986.5097" rx="90.5193" ry="90.5193"/>
<text text-anchor="middle" x="1458.5097" y="-4956.5097" font-family="Times,serif" font-size="100.00" fill="#000000">29</text>
</g>
<!-- 30 -->
<g id="node31" class="node">
<title>30</title>
<ellipse fill="#ffffff" stroke="#000000" stroke-width="15" cx="6138.5097" cy="-4266.5097" rx="90.5193" ry="90.5193"/>
<text text-anchor="middle" x="6138.5097" y="-4236.5097" font-family="Times,serif" font-size="100.00" fill="#000000">30</text>
</g>
<!-- 31 -->
<g id="node32" class="node">
<title>31</title>
<ellipse fill="#ffffff" stroke="#000000" stroke-width="15" cx="7074.5097" cy="-306.5097" rx="90.5193" ry="90.5193"/>
<text text-anchor="middle" x="7074.5097" y="-276.5097" font-family="Times,serif" font-size="100.00" fill="#000000">31</text>
</g>
</g>
</svg>
