<?xml version="1.0" encoding="UTF-8" standalone="no"?>
<!DOCTYPE svg PUBLIC "-//W3C//DTD SVG 1.1//EN"
 "http://www.w3.org/Graphics/SVG/1.1/DTD/svg11.dtd">
<!-- Generated by graphviz version 2.38.0 (20140413.2041)
 -->
<!-- Title: g Pages: 1 -->
<svg width="7375pt" height="7254pt"
 viewBox="216.00 216.00 7158.88 7037.88" xmlns="http://www.w3.org/2000/svg" xmlns:xlink="http://www.w3.org/1999/xlink">
<g id="graph0" class="graph" transform="scale(1 1) rotate(0) translate(3627.44 3288.04)">
<title>g</title>
<polygon fill="white" stroke="none" points="-3411.44,3749.84 -3411.44,-3072.04 3531.44,-3072.04 3531.44,3749.84 -3411.44,3749.84"/>
<text text-anchor="middle" x="59.9999" y="-3052.84" font-family="Times,serif" font-size="14.00">data02&#45;tabou (cost = 1622)</text>
<!-- 0&#45;&gt;2 -->
<g id="edge11" class="edge"><title>0&#45;&gt;2</title>
<path fill="none" stroke="red" stroke-width="15" d="M-1448.91,-2590.14C-1430.11,-2082.67 -1331.32,584.747 -1311.47,1120.59"/>
<polygon fill="red" stroke="red" stroke-width="15" points="-1298.34,1120.5 -1311.09,1130.98 -1324.58,1121.47 -1298.34,1120.5"/>
</g>
<!-- 0&#45;&gt;19 -->
<g id="edge20" class="edge"><title>0&#45;&gt;19</title>
<path fill="none" stroke="black" stroke-width="15" d="M-1372.56,-2647.12C-1036.72,-2535.17 265.504,-2101.1 619.018,-1983.26"/>
<polygon fill="black" stroke="black" stroke-width="15" points="623.362,-1995.65 628.698,-1980.03 615.061,-1970.74 623.362,-1995.65"/>
</g>
<!-- 0&#45;&gt;23 -->
<g id="edge39" class="edge"><title>0&#45;&gt;23</title>
<path fill="none" stroke="blue" stroke-width="15" d="M-1414.65,-2598.9C-1242.24,-2254.07 -523.915,-817.43 -342.009,-453.618"/>
<polygon fill="blue" stroke="blue" stroke-width="15" points="-330.159,-459.266 -337.426,-444.452 -353.638,-447.527 -330.159,-459.266"/>
</g>
<!-- 0&#45;&gt;25 -->
<g id="edge44" class="edge"><title>0&#45;&gt;25</title>
<path fill="none" stroke="red" stroke-width="15" d="M-1504.13,-2608.44C-1611.45,-2474.29 -1856.43,-2168.06 -1969.2,-2027.1"/>
<polygon fill="red" stroke="red" stroke-width="15" points="-1959.28,-2018.49 -1975.78,-2018.88 -1979.78,-2034.88 -1959.28,-2018.49"/>
</g>
<!-- 0&#45;&gt;33 -->
<g id="edge60" class="edge"><title>0&#45;&gt;33</title>
<path fill="none" stroke="green" stroke-width="15" d="M-1371.64,-2696.56C-1186.11,-2749.57 -728.931,-2880.19 -534.193,-2935.83"/>
<polygon fill="green" stroke="green" stroke-width="15" points="-537.779,-2948.46 -524.558,-2938.58 -530.567,-2923.22 -537.779,-2948.46"/>
</g>
<!-- 0&#45;&gt;34 -->
<g id="edge27" class="edge"><title>0&#45;&gt;34</title>
<path fill="none" stroke="green" stroke-width="15" d="M-1441.62,-2590.58C-1397.11,-2234.48 -1222.48,-837.434 -1175.62,-462.586"/>
<polygon fill="green" stroke="green" stroke-width="15" points="-1162.59,-464.142 -1174.37,-452.591 -1188.64,-460.886 -1162.59,-464.142"/>
</g>
<!-- 0&#45;&gt;41 -->
<g id="edge32" class="edge"><title>0&#45;&gt;41</title>
<path fill="none" stroke="orange" stroke-width="15" d="M-1392.68,-2732.92C-1345.43,-2780.17 -1279.34,-2846.26 -1230.35,-2895.25"/>
<polygon fill="orange" stroke="orange" stroke-width="15" points="-1239.6,-2904.56 -1223.25,-2902.35 -1221.04,-2886 -1239.6,-2904.56"/>
</g>
<!-- 0&#45;&gt;53 -->
<g id="edge51" class="edge"><title>0&#45;&gt;53</title>
<path fill="none" stroke="black" stroke-width="15" d="M-1482.18,-2595.65C-1691.5,-2054.88 -2925.56,1133.09 -3146.23,1703.17"/>
<polygon fill="black" stroke="black" stroke-width="15" points="-3134.02,1707.99 -3149.87,1712.58 -3158.5,1698.51 -3134.02,1707.99"/>
</g>
<!-- 0&#45;&gt;57 -->
<g id="edge1" class="edge"><title>0&#45;&gt;57</title>
<path fill="none" stroke="blue" stroke-width="15" d="M-1369.74,-2657.68C-818.224,-2550.93 2337.53,-1940.14 2919.68,-1827.47"/>
<polygon fill="blue" stroke="blue" stroke-width="15" points="2922.38,-1840.31 2929.7,-1825.53 2917.39,-1814.54 2922.38,-1840.31"/>
</g>
<!-- 1&#45;&gt;22 -->
<g id="edge13" class="edge"><title>1&#45;&gt;22</title>
<path fill="none" stroke="red" stroke-width="15" d="M-969.813,2145.32C-819.121,2346.24 -371.235,2943.42 -212.53,3155.03"/>
<polygon fill="red" stroke="red" stroke-width="15" points="-201.825,3147.42 -206.325,3163.3 -222.825,3163.17 -201.825,3147.42"/>
</g>
<!-- 2&#45;&gt;1 -->
<g id="edge12" class="edge"><title>2&#45;&gt;1</title>
<path fill="none" stroke="red" stroke-width="15" d="M-1281.55,1293.75C-1227.77,1455.09 -1106.01,1820.38 -1049.65,1989.46"/>
<polygon fill="red" stroke="red" stroke-width="15" points="-1037.15,1985.45 -1046.44,1999.08 -1062.05,1993.75 -1037.15,1985.45"/>
</g>
<!-- 3&#45;&gt;0 -->
<g id="edge10" class="edge"><title>3&#45;&gt;0</title>
<path fill="none" stroke="blue" stroke-width="15" d="M-2820.1,-1852.74C-2577.21,-1998.48 -1788.12,-2471.93 -1532.63,-2625.22"/>
<polygon fill="blue" stroke="blue" stroke-width="15" points="-1539.09,-2636.65 -1523.76,-2630.54 -1525.59,-2614.14 -1539.09,-2636.65"/>
</g>
<!-- 4&#45;&gt;11 -->
<g id="edge8" class="edge"><title>4&#45;&gt;11</title>
<path fill="none" stroke="blue" stroke-width="15" d="M-3264.84,-284.762C-3184.68,-364.922 -3041.99,-507.607 -2958.3,-591.297"/>
<polygon fill="blue" stroke="blue" stroke-width="15" points="-2967.49,-600.671 -2951.14,-598.461 -2948.93,-582.109 -2967.49,-600.671"/>
</g>
<!-- 5&#45;&gt;47 -->
<g id="edge17" class="edge"><title>5&#45;&gt;47</title>
<path fill="none" stroke="red" stroke-width="15" d="M120.944,3291.48C48.7138,2749.75 -355.346,-280.694 -431.589,-852.52"/>
<polygon fill="red" stroke="red" stroke-width="15" points="-444.645,-851.129 -432.957,-862.776 -418.625,-854.598 -444.645,-851.129"/>
</g>
<!-- 6&#45;&gt;0 -->
<g id="edge50" class="edge"><title>6&#45;&gt;0</title>
<path fill="none" stroke="red" stroke-width="15" d="M-1871.59,123.698C-1809.36,-291.2 -1531.55,-2143.23 -1465.93,-2580.75"/>
<polygon fill="red" stroke="red" stroke-width="15" points="-1478.88,-2582.88 -1464.42,-2590.82 -1452.92,-2578.99 -1478.88,-2582.88"/>
</g>
<!-- 7&#45;&gt;59 -->
<g id="edge63" class="edge"><title>7&#45;&gt;59</title>
<path fill="none" stroke="green" stroke-width="15" d="M2211.64,-2408.56C2026.11,-2461.57 1568.93,-2592.19 1374.19,-2647.83"/>
<polygon fill="green" stroke="green" stroke-width="15" points="1370.57,-2635.22 1364.56,-2650.58 1377.78,-2660.46 1370.57,-2635.22"/>
</g>
<!-- 8&#45;&gt;13 -->
<g id="edge24" class="edge"><title>8&#45;&gt;13</title>
<path fill="none" stroke="black" stroke-width="15" d="M2436,-2037.37C2436,-2037.43 2436,-2037.49 2436,-2037.55"/>
<polygon fill="black" stroke="black" stroke-width="15" points="2422.88,-2027.73 2436,-2037.74 2449.13,-2027.74 2422.88,-2027.73"/>
</g>
<!-- 9&#45;&gt;51 -->
<g id="edge57" class="edge"><title>9&#45;&gt;51</title>
<path fill="none" stroke="black" stroke-width="15" d="M2795.67,3273.4C2930.76,3354.46 3222.18,3529.31 3363.67,3614.2"/>
<polygon fill="black" stroke="black" stroke-width="15" points="3370.53,3603.01 3372.35,3619.41 3357.03,3625.52 3370.53,3603.01"/>
</g>
<!-- 10&#45;&gt;54 -->
<g id="edge15" class="edge"><title>10&#45;&gt;54</title>
<path fill="none" stroke="red" stroke-width="15" d="M-96.5983,3433.8C-90.5844,3439.82 -84.4495,3445.95 -78.3685,3452.03"/>
<polygon fill="red" stroke="red" stroke-width="15" points="-69.0555,3442.78 -71.2652,3459.13 -87.6171,3461.34 -69.0555,3442.78"/>
</g>
<!-- 11&#45;&gt;3 -->
<g id="edge9" class="edge"><title>11&#45;&gt;3</title>
<path fill="none" stroke="blue" stroke-width="15" d="M-2892,-741.377C-2892,-950.853 -2892,-1496.28 -2892,-1715.93"/>
<polygon fill="blue" stroke="blue" stroke-width="15" points="-2905.12,-1716.14 -2892,-1726.14 -2878.87,-1716.14 -2905.12,-1716.14"/>
</g>
<!-- 12&#45;&gt;0 -->
<g id="edge59" class="edge"><title>12&#45;&gt;0</title>
<path fill="none" stroke="black" stroke-width="15" d="M3383.86,2020.03C2865.9,1517.3 -836.408,-2076.11 -1384.31,-2607.9"/>
<polygon fill="black" stroke="black" stroke-width="15" points="-1393.73,-2598.75 -1391.77,-2615.14 -1375.45,-2617.59 -1393.73,-2598.75"/>
</g>
<!-- 13&#45;&gt;29 -->
<g id="edge25" class="edge"><title>13&#45;&gt;29</title>
<path fill="none" stroke="black" stroke-width="15" d="M2495.4,-2157C2501.42,-2163.02 2507.55,-2169.15 2513.63,-2175.23"/>
<polygon fill="black" stroke="black" stroke-width="15" points="2504.38,-2184.54 2520.73,-2182.33 2522.94,-2165.98 2504.38,-2184.54"/>
</g>
<!-- 14&#45;&gt;0 -->
<g id="edge19" class="edge"><title>14&#45;&gt;0</title>
<path fill="none" stroke="red" stroke-width="15" d="M-785.529,-1873.83C-916.82,-2031.38 -1254.11,-2436.14 -1391.95,-2601.54"/>
<polygon fill="red" stroke="red" stroke-width="15" points="-1402.04,-2593.15 -1398.36,-2609.24 -1381.88,-2609.96 -1402.04,-2593.15"/>
</g>
<!-- 15&#45;&gt;35 -->
<g id="edge5" class="edge"><title>15&#45;&gt;35</title>
<path fill="none" stroke="blue" stroke-width="15" d="M1488.35,-945.6C1353.14,-945.6 1087.47,-945.6 945.95,-945.6"/>
<polygon fill="blue" stroke="blue" stroke-width="15" points="945.562,-932.475 935.562,-945.6 945.562,-958.725 945.562,-932.475"/>
</g>
<!-- 16&#45;&gt;20 -->
<g id="edge67" class="edge"><title>16&#45;&gt;20</title>
<path fill="none" stroke="green" stroke-width="15" d="M-2399.69,-2817.6C-2434.15,-2817.6 -2474.24,-2817.6 -2509.74,-2817.6"/>
<polygon fill="green" stroke="green" stroke-width="15" points="-2510.1,-2804.48 -2520.1,-2817.6 -2510.1,-2830.73 -2510.1,-2804.48"/>
</g>
<!-- 17&#45;&gt;15 -->
<g id="edge4" class="edge"><title>17&#45;&gt;15</title>
<path fill="none" stroke="blue" stroke-width="15" d="M2932.01,-1353.6C2683.17,-1278.95 1923.73,-1051.12 1661.88,-972.563"/>
<polygon fill="blue" stroke="blue" stroke-width="15" points="1665.38,-959.91 1652.03,-969.608 1657.83,-985.053 1665.38,-959.91"/>
</g>
<!-- 18&#45;&gt;16 -->
<g id="edge66" class="edge"><title>18&#45;&gt;16</title>
<path fill="none" stroke="green" stroke-width="15" d="M-1103.04,-2682.83C-1333.54,-2708.44 -1980.17,-2780.29 -2222.62,-2807.22"/>
<polygon fill="green" stroke="green" stroke-width="15" points="-2224.32,-2794.21 -2232.81,-2808.36 -2221.42,-2820.3 -2224.32,-2794.21"/>
</g>
<!-- 19&#45;&gt;26 -->
<g id="edge21" class="edge"><title>19&#45;&gt;26</title>
<path fill="none" stroke="black" stroke-width="15" d="M781.673,-1913.93C1078.4,-1754.15 2184.98,-1158.3 2497.39,-990.081"/>
<polygon fill="black" stroke="black" stroke-width="15" points="2503.82,-1001.53 2506.4,-985.23 2491.37,-978.415 2503.82,-1001.53"/>
</g>
<!-- 20&#45;&gt;0 -->
<g id="edge68" class="edge"><title>20&#45;&gt;0</title>
<path fill="none" stroke="green" stroke-width="15" d="M-2521.15,-2807.24C-2312.17,-2781.12 -1764.66,-2712.68 -1545.08,-2685.23"/>
<polygon fill="green" stroke="green" stroke-width="15" points="-1543.17,-2698.22 -1534.87,-2683.96 -1546.42,-2672.18 -1543.17,-2698.22"/>
</g>
<!-- 21&#45;&gt;4 -->
<g id="edge7" class="edge"><title>21&#45;&gt;4</title>
<path fill="none" stroke="blue" stroke-width="15" d="M-3239.4,-141.002C-3245.42,-147.016 -3251.55,-153.15 -3257.63,-159.231"/>
<polygon fill="blue" stroke="blue" stroke-width="15" points="-3266.94,-149.983 -3264.73,-166.335 -3248.38,-168.545 -3266.94,-149.983"/>
</g>
<!-- 22&#45;&gt;10 -->
<g id="edge14" class="edge"><title>22&#45;&gt;10</title>
<path fill="none" stroke="red" stroke-width="15" d="M-156,3314.17C-156,3314.23 -156,3314.29 -156,3314.35"/>
<polygon fill="red" stroke="red" stroke-width="15" points="-142.87,3304.54 -156,3314.54 -169.12,3304.53 -142.87,3304.54"/>
</g>
<!-- 23&#45;&gt;58 -->
<g id="edge40" class="edge"><title>23&#45;&gt;58</title>
<path fill="none" stroke="blue" stroke-width="15" d="M-288.155,-286.683C-261.538,-100.368 -197.15,350.349 -169.254,545.62"/>
<polygon fill="blue" stroke="blue" stroke-width="15" points="-156.254,543.815 -167.833,555.571 -182.24,547.528 -156.254,543.815"/>
</g>
<!-- 24&#45;&gt;48 -->
<g id="edge29" class="edge"><title>24&#45;&gt;48</title>
<path fill="none" stroke="green" stroke-width="15" d="M-845.979,1004.45C-730.044,1305.89 -311.931,2392.98 -189.751,2710.65"/>
<polygon fill="green" stroke="green" stroke-width="15" points="-177.389,2706.23 -186.049,2720.27 -201.889,2715.65 -177.389,2706.23"/>
</g>
<!-- 25&#45;&gt;46 -->
<g id="edge45" class="edge"><title>25&#45;&gt;46</title>
<path fill="none" stroke="red" stroke-width="15" d="M-2074.59,-1883.71C-2126.43,-1805.95 -2209.98,-1680.63 -2263.94,-1599.7"/>
<polygon fill="red" stroke="red" stroke-width="15" points="-2253.25,-1592.07 -2269.71,-1591.03 -2275.09,-1606.63 -2253.25,-1592.07"/>
</g>
<!-- 26&#45;&gt;27 -->
<g id="edge22" class="edge"><title>26&#45;&gt;27</title>
<path fill="none" stroke="black" stroke-width="15" d="M2600.25,-1026.6C2626.87,-1133.08 2673.5,-1319.6 2701.29,-1430.76"/>
<polygon fill="black" stroke="black" stroke-width="15" points="2688.6,-1434.1 2703.75,-1440.61 2714.06,-1427.73 2688.6,-1434.1"/>
</g>
<!-- 27&#45;&gt;8 -->
<g id="edge23" class="edge"><title>27&#45;&gt;8</title>
<path fill="none" stroke="black" stroke-width="15" d="M2677.41,-1591.49C2625.57,-1669.25 2542.02,-1794.57 2488.06,-1875.5"/>
<polygon fill="black" stroke="black" stroke-width="15" points="2476.91,-1868.57 2482.29,-1884.17 2498.75,-1883.13 2476.91,-1868.57"/>
</g>
<!-- 28&#45;&gt;6 -->
<g id="edge49" class="edge"><title>28&#45;&gt;6</title>
<path fill="none" stroke="red" stroke-width="15" d="M-2016.15,1131.48C-1989.54,945.168 -1925.15,494.451 -1897.25,299.18"/>
<polygon fill="red" stroke="red" stroke-width="15" points="-1910.24,297.272 -1895.83,289.229 -1884.25,300.985 -1910.24,297.272"/>
</g>
<!-- 29&#45;&gt;0 -->
<g id="edge26" class="edge"><title>29&#45;&gt;0</title>
<path fill="none" stroke="black" stroke-width="15" d="M2496.71,-2250.52C1977.44,-2306.16 -811.566,-2604.98 -1358.8,-2663.61"/>
<polygon fill="black" stroke="black" stroke-width="15" points="-1360.46,-2650.59 -1369.01,-2664.71 -1357.67,-2676.69 -1360.46,-2650.59"/>
</g>
<!-- 30&#45;&gt;49 -->
<g id="edge53" class="edge"><title>30&#45;&gt;49</title>
<path fill="none" stroke="black" stroke-width="15" d="M-3264.95,3027.35C-3109.44,2871.84 -2689.34,2451.74 -2526.12,2288.52"/>
<polygon fill="black" stroke="black" stroke-width="15" points="-2535.36,2279.2 -2519.01,2281.41 -2516.8,2297.76 -2535.36,2279.2"/>
</g>
<!-- 31&#45;&gt;28 -->
<g id="edge48" class="edge"><title>31&#45;&gt;28</title>
<path fill="none" stroke="red" stroke-width="15" d="M-2232.31,1214.4C-2197.85,1214.4 -2157.76,1214.4 -2122.26,1214.4"/>
<polygon fill="red" stroke="red" stroke-width="15" points="-2121.9,1201.27 -2111.9,1214.4 -2121.9,1227.52 -2121.9,1201.27"/>
</g>
<!-- 32&#45;&gt;9 -->
<g id="edge56" class="edge"><title>32&#45;&gt;9</title>
<path fill="none" stroke="black" stroke-width="15" d="M2606.41,2877.64C2631.25,2952.15 2668.39,3063.56 2694.26,3141.17"/>
<polygon fill="black" stroke="black" stroke-width="15" points="2706.8,3137.3 2697.51,3150.94 2681.9,3145.6 2706.8,3137.3"/>
</g>
<!-- 33&#45;&gt;38 -->
<g id="edge61" class="edge"><title>33&#45;&gt;38</title>
<path fill="none" stroke="green" stroke-width="15" d="M-360.512,-2961.6C-89.9602,-2961.6 761.566,-2961.6 1046.25,-2961.6"/>
<polygon fill="green" stroke="green" stroke-width="15" points="1046.55,-2974.73 1056.55,-2961.6 1046.55,-2948.48 1046.55,-2974.73"/>
</g>
<!-- 34&#45;&gt;24 -->
<g id="edge28" class="edge"><title>34&#45;&gt;24</title>
<path fill="none" stroke="green" stroke-width="15" d="M-1145.88,-288.038C-1094.82,-58.2798 -950.033,593.254 -896.353,834.81"/>
<polygon fill="green" stroke="green" stroke-width="15" points="-883.531,832.007 -894.174,844.616 -909.156,837.701 -883.531,832.007"/>
</g>
<!-- 35&#45;&gt;21 -->
<g id="edge6" class="edge"><title>35&#45;&gt;21</title>
<path fill="none" stroke="blue" stroke-width="15" d="M770.091,-928.048C254.033,-817.464 -2543.1,-218.078 -3087.97,-101.32"/>
<polygon fill="blue" stroke="blue" stroke-width="15" points="-3085.61,-88.4031 -3098.14,-99.1414 -3091.11,-114.07 -3085.61,-88.4031"/>
</g>
<!-- 36&#45;&gt;32 -->
<g id="edge55" class="edge"><title>36&#45;&gt;32</title>
<path fill="none" stroke="black" stroke-width="15" d="M-1224.54,2939.31C-717.071,2920.51 1950.35,2821.72 2486.19,2801.87"/>
<polygon fill="black" stroke="black" stroke-width="15" points="2486.1,2788.74 2496.58,2801.49 2487.07,2814.98 2486.1,2788.74"/>
</g>
<!-- 37&#45;&gt;17 -->
<g id="edge3" class="edge"><title>37&#45;&gt;17</title>
<path fill="none" stroke="blue" stroke-width="15" d="M3262.64,-1878.89C3208.98,-1771.56 3110.36,-1574.33 3054.16,-1461.91"/>
<polygon fill="blue" stroke="blue" stroke-width="15" points="3065.73,-1455.71 3049.52,-1452.64 3042.25,-1467.45 3065.73,-1455.71"/>
</g>
<!-- 38&#45;&gt;7 -->
<g id="edge62" class="edge"><title>38&#45;&gt;7</title>
<path fill="none" stroke="green" stroke-width="15" d="M1214.7,-2924.25C1420.03,-2821.58 1992.06,-2535.57 2208.01,-2427.59"/>
<polygon fill="green" stroke="green" stroke-width="15" points="2214.02,-2439.26 2217.1,-2423.05 2202.28,-2415.78 2214.02,-2439.26"/>
</g>
<!-- 39&#45;&gt;50 -->
<g id="edge37" class="edge"><title>39&#45;&gt;50</title>
<path fill="none" stroke="orange" stroke-width="15" d="M1200.23,-81.6C1200.17,-81.6 1200.11,-81.6 1200.05,-81.6"/>
<polygon fill="orange" stroke="orange" stroke-width="15" points="1209.87,-68.4804 1199.86,-81.6 1209.86,-94.7304 1209.87,-68.4804"/>
</g>
<!-- 40&#45;&gt;31 -->
<g id="edge47" class="edge"><title>40&#45;&gt;31</title>
<path fill="none" stroke="red" stroke-width="15" d="M-2316,-861.919C-2316,-521.021 -2316,761.909 -2316,1120.67"/>
<polygon fill="red" stroke="red" stroke-width="15" points="-2302.87,1120.76 -2316,1130.76 -2329.12,1120.76 -2302.87,1120.76"/>
</g>
<!-- 41&#45;&gt;55 -->
<g id="edge33" class="edge"><title>41&#45;&gt;55</title>
<path fill="none" stroke="orange" stroke-width="15" d="M-1102.83,-2904.51C-793.067,-2615.4 600.677,-1314.57 927.337,-1009.69"/>
<polygon fill="orange" stroke="orange" stroke-width="15" points="936.499,-1019.09 934.854,-1002.67 918.588,-999.897 936.499,-1019.09"/>
</g>
<!-- 42&#45;&gt;45 -->
<g id="edge42" class="edge"><title>42&#45;&gt;45</title>
<path fill="none" stroke="blue" stroke-width="15" d="M633.083,3336.94C593.494,3317.15 544.775,3292.79 503.919,3272.36"/>
<polygon fill="blue" stroke="blue" stroke-width="15" points="497.866,3284.01 494.791,3267.8 509.605,3260.53 497.866,3284.01"/>
</g>
<!-- 43&#45;&gt;56 -->
<g id="edge35" class="edge"><title>43&#45;&gt;56</title>
<path fill="none" stroke="orange" stroke-width="15" d="M2724,1442.17C2724,1442.23 2724,1442.29 2724,1442.35"/>
<polygon fill="orange" stroke="orange" stroke-width="15" points="2737.13,1432.54 2724,1442.54 2710.88,1432.53 2737.13,1432.54"/>
</g>
<!-- 44&#45;&gt;0 -->
<g id="edge31" class="edge"><title>44&#45;&gt;0</title>
<path fill="none" stroke="green" stroke-width="15" d="M-1876.18,1850.98C-1823.15,1285.34 -1516.72,-1983.3 -1460.77,-2580.08"/>
<polygon fill="green" stroke="green" stroke-width="15" points="-1473.81,-2581.62 -1459.8,-2590.35 -1447.67,-2579.17 -1473.81,-2581.62"/>
</g>
<!-- 45&#45;&gt;0 -->
<g id="edge43" class="edge"><title>45&#45;&gt;0</title>
<path fill="none" stroke="blue" stroke-width="15" d="M394.777,3150.85C189.37,2503.03 -1206.76,-1900.16 -1423.7,-2584.33"/>
<polygon fill="blue" stroke="blue" stroke-width="15" points="-1436.22,-2580.4 -1426.73,-2593.9 -1411.19,-2588.33 -1436.22,-2580.4"/>
</g>
<!-- 46&#45;&gt;40 -->
<g id="edge46" class="edge"><title>46&#45;&gt;40</title>
<path fill="none" stroke="red" stroke-width="15" d="M-2316,-1438.15C-2316,-1332.18 -2316,-1149.84 -2316,-1039.23"/>
<polygon fill="red" stroke="red" stroke-width="15" points="-2302.87,-1039.09 -2316,-1029.09 -2329.12,-1039.09 -2302.87,-1039.09"/>
</g>
<!-- 47&#45;&gt;14 -->
<g id="edge18" class="edge"><title>47&#45;&gt;14</title>
<path fill="none" stroke="red" stroke-width="15" d="M-470.45,-1024.95C-524.229,-1186.29 -645.994,-1551.58 -702.354,-1720.66"/>
<polygon fill="red" stroke="red" stroke-width="15" points="-714.85,-1716.65 -705.561,-1730.28 -689.947,-1724.95 -714.85,-1716.65"/>
</g>
<!-- 48&#45;&gt;44 -->
<g id="edge30" class="edge"><title>48&#45;&gt;44</title>
<path fill="none" stroke="green" stroke-width="15" d="M-230.805,2761C-511.95,2620.42 -1504.34,2124.23 -1800.17,1976.32"/>
<polygon fill="green" stroke="green" stroke-width="15" points="-1806.06,1988.04 -1809.14,1971.83 -1794.32,1964.56 -1806.06,1988.04"/>
</g>
<!-- 49&#45;&gt;36 -->
<g id="edge54" class="edge"><title>49&#45;&gt;36</title>
<path fill="none" stroke="black" stroke-width="15" d="M-2389.24,2266.63C-2185.96,2393.67 -1601.22,2759.14 -1387.47,2892.73"/>
<polygon fill="black" stroke="black" stroke-width="15" points="-1380.32,2881.72 -1378.8,2898.15 -1394.23,2903.98 -1380.32,2881.72"/>
</g>
<!-- 50&#45;&gt;0 -->
<g id="edge38" class="edge"><title>50&#45;&gt;0</title>
<path fill="none" stroke="orange" stroke-width="15" d="M1080.99,-140.608C735.613,-485.987 -1021.23,-2242.83 -1385.73,-2607.33"/>
<polygon fill="orange" stroke="orange" stroke-width="15" points="-1395.01,-2598.05 -1392.8,-2614.4 -1376.45,-2616.61 -1395.01,-2598.05"/>
</g>
<!-- 51&#45;&gt;12 -->
<g id="edge58" class="edge"><title>51&#45;&gt;12</title>
<path fill="none" stroke="black" stroke-width="15" d="M3444,3578.91C3444,3308.36 3444,2456.83 3444,2172.15"/>
<polygon fill="black" stroke="black" stroke-width="15" points="3430.88,2171.85 3444,2161.85 3457.13,2171.85 3430.88,2171.85"/>
</g>
<!-- 52&#45;&gt;18 -->
<g id="edge65" class="edge"><title>52&#45;&gt;18</title>
<path fill="none" stroke="green" stroke-width="15" d="M480.79,-2537.16C210.559,-2561.73 -641.369,-2639.18 -926.204,-2665.07"/>
<polygon fill="green" stroke="green" stroke-width="15" points="-927.731,-2652.03 -936.502,-2666.01 -925.355,-2678.18 -927.731,-2652.03"/>
</g>
<!-- 53&#45;&gt;30 -->
<g id="edge52" class="edge"><title>53&#45;&gt;30</title>
<path fill="none" stroke="black" stroke-width="15" d="M-3189.23,1873.44C-3214.84,2103.94 -3286.69,2750.57 -3313.62,2993.02"/>
<polygon fill="black" stroke="black" stroke-width="15" points="-3300.61,2994.72 -3314.76,3003.21 -3326.7,2991.82 -3300.61,2994.72"/>
</g>
<!-- 54&#45;&gt;5 -->
<g id="edge16" class="edge"><title>54&#45;&gt;5</title>
<path fill="none" stroke="red" stroke-width="15" d="M47.4017,3459C53.4156,3452.98 59.5505,3446.85 65.6315,3440.77"/>
<polygon fill="red" stroke="red" stroke-width="15" points="56.3829,3431.46 72.7348,3433.67 74.9445,3450.02 56.3829,3431.46"/>
</g>
<!-- 55&#45;&gt;43 -->
<g id="edge34" class="edge"><title>55&#45;&gt;43</title>
<path fill="none" stroke="orange" stroke-width="15" d="M1046.08,-878.822C1295.74,-545.942 2404.27,932.099 2667.7,1283.33"/>
<polygon fill="orange" stroke="orange" stroke-width="15" points="2678.26,1275.54 2673.76,1291.42 2657.26,1291.29 2678.26,1275.54"/>
</g>
<!-- 56&#45;&gt;39 -->
<g id="edge36" class="edge"><title>56&#45;&gt;39</title>
<path fill="none" stroke="orange" stroke-width="15" d="M2667.55,1440.31C2439.57,1189.53 1587.54,252.293 1347.37,-11.8879"/>
<polygon fill="orange" stroke="orange" stroke-width="15" points="1337.46,-3.27798 1340.45,-19.5063 1356.89,-20.9357 1337.46,-3.27798"/>
</g>
<!-- 57&#45;&gt;37 -->
<g id="edge2" class="edge"><title>57&#45;&gt;37</title>
<path fill="none" stroke="blue" stroke-width="15" d="M3086.92,-1847.06C3126.51,-1866.85 3175.22,-1891.21 3216.08,-1911.64"/>
<polygon fill="blue" stroke="blue" stroke-width="15" points="3210.39,-1923.47 3225.21,-1916.2 3222.13,-1899.99 3210.39,-1923.47"/>
</g>
<!-- 58&#45;&gt;42 -->
<g id="edge41" class="edge"><title>58&#45;&gt;42</title>
<path fill="none" stroke="blue" stroke-width="15" d="M-130.842,718.065C-5.81542,1113.98 547.914,2867.46 679.755,3284.96"/>
<polygon fill="blue" stroke="blue" stroke-width="15" points="692.295,3281.08 682.791,3294.57 667.264,3288.99 692.295,3281.08"/>
</g>
<!-- 59&#45;&gt;52 -->
<g id="edge64" class="edge"><title>59&#45;&gt;52</title>
<path fill="none" stroke="green" stroke-width="15" d="M1202.11,-2657.22C1066.86,-2630.17 797.716,-2576.34 656.067,-2548.01"/>
<polygon fill="green" stroke="green" stroke-width="15" points="658.472,-2535.11 646.092,-2546.02 653.324,-2560.85 658.472,-2535.11"/>
</g>
<!-- 0 -->
<g id="node1" class="node"><title>0</title>
<ellipse fill="white" stroke="black" stroke-width="15" cx="-1452" cy="-2673.6" rx="83.3772" ry="83.3772"/>
<text text-anchor="middle" x="-1452" y="-2648.6" font-family="Times,serif" font-size="100.00">0</text>
</g>
<!-- 1 -->
<g id="node2" class="node"><title>1</title>
<ellipse fill="white" stroke="black" stroke-width="15" cx="-1020" cy="2078.4" rx="83.3772" ry="83.3772"/>
<text text-anchor="middle" x="-1020" y="2103.4" font-family="Times,serif" font-size="100.00">1</text>
</g>
<!-- 2 -->
<g id="node3" class="node"><title>2</title>
<ellipse fill="white" stroke="black" stroke-width="15" cx="-1308" cy="1214.4" rx="83.3772" ry="83.3772"/>
<text text-anchor="middle" x="-1308" y="1239.4" font-family="Times,serif" font-size="100.00">2</text>
</g>
<!-- 3 -->
<g id="node4" class="node"><title>3</title>
<ellipse fill="white" stroke="black" stroke-width="15" cx="-2892" cy="-1809.6" rx="83.3772" ry="83.3772"/>
<text text-anchor="middle" x="-2892" y="-1784.6" font-family="Times,serif" font-size="100.00">3</text>
</g>
<!-- 4 -->
<g id="node5" class="node"><title>4</title>
<ellipse fill="white" stroke="black" stroke-width="15" cx="-3324" cy="-225.6" rx="83.3772" ry="83.3772"/>
<text text-anchor="middle" x="-3324" y="-200.6" font-family="Times,serif" font-size="100.00">4</text>
</g>
<!-- 5 -->
<g id="node6" class="node"><title>5</title>
<ellipse fill="white" stroke="black" stroke-width="15" cx="132" cy="3374.4" rx="83.3772" ry="83.3772"/>
<text text-anchor="middle" x="132" y="3399.4" font-family="Times,serif" font-size="100.00">5</text>
</g>
<!-- 6 -->
<g id="node7" class="node"><title>6</title>
<ellipse fill="white" stroke="black" stroke-width="15" cx="-1884" cy="206.4" rx="83.3772" ry="83.3772"/>
<text text-anchor="middle" x="-1884" y="231.4" font-family="Times,serif" font-size="100.00">6</text>
</g>
<!-- 7 -->
<g id="node8" class="node"><title>7</title>
<ellipse fill="white" stroke="black" stroke-width="15" cx="2292" cy="-2385.6" rx="83.3772" ry="83.3772"/>
<text text-anchor="middle" x="2292" y="-2360.6" font-family="Times,serif" font-size="100.00">7</text>
</g>
<!-- 8 -->
<g id="node9" class="node"><title>8</title>
<ellipse fill="white" stroke="black" stroke-width="15" cx="2436" cy="-1953.6" rx="83.3772" ry="83.3772"/>
<text text-anchor="middle" x="2436" y="-1928.6" font-family="Times,serif" font-size="100.00">8</text>
</g>
<!-- 9 -->
<g id="node10" class="node"><title>9</title>
<ellipse fill="white" stroke="black" stroke-width="15" cx="2724" cy="3230.4" rx="83.3772" ry="83.3772"/>
<text text-anchor="middle" x="2724" y="3255.4" font-family="Times,serif" font-size="100.00">9</text>
</g>
<!-- 10 -->
<g id="node11" class="node"><title>10</title>
<ellipse fill="white" stroke="black" stroke-width="15" cx="-156" cy="3374.4" rx="83.3772" ry="83.3772"/>
<text text-anchor="middle" x="-156" y="3399.4" font-family="Times,serif" font-size="100.00">10</text>
</g>
<!-- 11 -->
<g id="node12" class="node"><title>11</title>
<ellipse fill="white" stroke="black" stroke-width="15" cx="-2892" cy="-657.6" rx="83.3772" ry="83.3772"/>
<text text-anchor="middle" x="-2892" y="-632.6" font-family="Times,serif" font-size="100.00">11</text>
</g>
<!-- 12 -->
<g id="node13" class="node"><title>12</title>
<ellipse fill="white" stroke="black" stroke-width="15" cx="3444" cy="2078.4" rx="83.3772" ry="83.3772"/>
<text text-anchor="middle" x="3444" y="2103.4" font-family="Times,serif" font-size="100.00">12</text>
</g>
<!-- 13 -->
<g id="node14" class="node"><title>13</title>
<ellipse fill="white" stroke="black" stroke-width="15" cx="2436" cy="-2097.6" rx="83.3772" ry="83.3772"/>
<text text-anchor="middle" x="2436" y="-2072.6" font-family="Times,serif" font-size="100.00">13</text>
</g>
<!-- 14 -->
<g id="node15" class="node"><title>14</title>
<ellipse fill="white" stroke="black" stroke-width="15" cx="-732" cy="-1809.6" rx="83.3772" ry="83.3772"/>
<text text-anchor="middle" x="-732" y="-1784.6" font-family="Times,serif" font-size="100.00">14</text>
</g>
<!-- 15 -->
<g id="node16" class="node"><title>15</title>
<ellipse fill="white" stroke="black" stroke-width="15" cx="1572" cy="-945.6" rx="83.3772" ry="83.3772"/>
<text text-anchor="middle" x="1572" y="-920.6" font-family="Times,serif" font-size="100.00">15</text>
</g>
<!-- 16 -->
<g id="node17" class="node"><title>16</title>
<ellipse fill="white" stroke="black" stroke-width="15" cx="-2316" cy="-2817.6" rx="83.3772" ry="83.3772"/>
<text text-anchor="middle" x="-2316" y="-2792.6" font-family="Times,serif" font-size="100.00">16</text>
</g>
<!-- 17 -->
<g id="node18" class="node"><title>17</title>
<ellipse fill="white" stroke="black" stroke-width="15" cx="3012" cy="-1377.6" rx="83.3772" ry="83.3772"/>
<text text-anchor="middle" x="3012" y="-1352.6" font-family="Times,serif" font-size="100.00">17</text>
</g>
<!-- 18 -->
<g id="node19" class="node"><title>18</title>
<ellipse fill="white" stroke="black" stroke-width="15" cx="-1020" cy="-2673.6" rx="83.3772" ry="83.3772"/>
<text text-anchor="middle" x="-1020" y="-2648.6" font-family="Times,serif" font-size="100.00">18</text>
</g>
<!-- 19 -->
<g id="node20" class="node"><title>19</title>
<ellipse fill="white" stroke="black" stroke-width="15" cx="708" cy="-1953.6" rx="83.3772" ry="83.3772"/>
<text text-anchor="middle" x="708" y="-1928.6" font-family="Times,serif" font-size="100.00">19</text>
</g>
<!-- 20 -->
<g id="node21" class="node"><title>20</title>
<ellipse fill="white" stroke="black" stroke-width="15" cx="-2604" cy="-2817.6" rx="83.3772" ry="83.3772"/>
<text text-anchor="middle" x="-2604" y="-2792.6" font-family="Times,serif" font-size="100.00">20</text>
</g>
<!-- 21 -->
<g id="node22" class="node"><title>21</title>
<ellipse fill="white" stroke="black" stroke-width="15" cx="-3180" cy="-81.6" rx="83.3772" ry="83.3772"/>
<text text-anchor="middle" x="-3180" y="-56.6" font-family="Times,serif" font-size="100.00">21</text>
</g>
<!-- 22 -->
<g id="node23" class="node"><title>22</title>
<ellipse fill="white" stroke="black" stroke-width="15" cx="-156" cy="3230.4" rx="83.3772" ry="83.3772"/>
<text text-anchor="middle" x="-156" y="3255.4" font-family="Times,serif" font-size="100.00">22</text>
</g>
<!-- 23 -->
<g id="node24" class="node"><title>23</title>
<ellipse fill="white" stroke="black" stroke-width="15" cx="-300" cy="-369.6" rx="83.3772" ry="83.3772"/>
<text text-anchor="middle" x="-300" y="-344.6" font-family="Times,serif" font-size="100.00">23</text>
</g>
<!-- 24 -->
<g id="node25" class="node"><title>24</title>
<ellipse fill="white" stroke="black" stroke-width="15" cx="-876" cy="926.4" rx="83.3772" ry="83.3772"/>
<text text-anchor="middle" x="-876" y="951.4" font-family="Times,serif" font-size="100.00">24</text>
</g>
<!-- 25 -->
<g id="node26" class="node"><title>25</title>
<ellipse fill="white" stroke="black" stroke-width="15" cx="-2028" cy="-1953.6" rx="83.3772" ry="83.3772"/>
<text text-anchor="middle" x="-2028" y="-1928.6" font-family="Times,serif" font-size="100.00">25</text>
</g>
<!-- 26 -->
<g id="node27" class="node"><title>26</title>
<ellipse fill="white" stroke="black" stroke-width="15" cx="2580" cy="-945.6" rx="83.3772" ry="83.3772"/>
<text text-anchor="middle" x="2580" y="-920.6" font-family="Times,serif" font-size="100.00">26</text>
</g>
<!-- 27 -->
<g id="node28" class="node"><title>27</title>
<ellipse fill="white" stroke="black" stroke-width="15" cx="2724" cy="-1521.6" rx="83.3772" ry="83.3772"/>
<text text-anchor="middle" x="2724" y="-1496.6" font-family="Times,serif" font-size="100.00">27</text>
</g>
<!-- 28 -->
<g id="node29" class="node"><title>28</title>
<ellipse fill="white" stroke="black" stroke-width="15" cx="-2028" cy="1214.4" rx="83.3772" ry="83.3772"/>
<text text-anchor="middle" x="-2028" y="1239.4" font-family="Times,serif" font-size="100.00">28</text>
</g>
<!-- 29 -->
<g id="node30" class="node"><title>29</title>
<ellipse fill="white" stroke="black" stroke-width="15" cx="2580" cy="-2241.6" rx="83.3772" ry="83.3772"/>
<text text-anchor="middle" x="2580" y="-2216.6" font-family="Times,serif" font-size="100.00">29</text>
</g>
<!-- 30 -->
<g id="node31" class="node"><title>30</title>
<ellipse fill="white" stroke="black" stroke-width="15" cx="-3324" cy="3086.4" rx="83.3772" ry="83.3772"/>
<text text-anchor="middle" x="-3324" y="3111.4" font-family="Times,serif" font-size="100.00">30</text>
</g>
<!-- 31 -->
<g id="node32" class="node"><title>31</title>
<ellipse fill="white" stroke="black" stroke-width="15" cx="-2316" cy="1214.4" rx="83.3772" ry="83.3772"/>
<text text-anchor="middle" x="-2316" y="1239.4" font-family="Times,serif" font-size="100.00">31</text>
</g>
<!-- 32 -->
<g id="node33" class="node"><title>32</title>
<ellipse fill="white" stroke="black" stroke-width="15" cx="2580" cy="2798.4" rx="83.3772" ry="83.3772"/>
<text text-anchor="middle" x="2580" y="2823.4" font-family="Times,serif" font-size="100.00">32</text>
</g>
<!-- 33 -->
<g id="node34" class="node"><title>33</title>
<ellipse fill="white" stroke="black" stroke-width="15" cx="-444" cy="-2961.6" rx="83.3772" ry="83.3772"/>
<text text-anchor="middle" x="-444" y="-2936.6" font-family="Times,serif" font-size="100.00">33</text>
</g>
<!-- 34 -->
<g id="node35" class="node"><title>34</title>
<ellipse fill="white" stroke="black" stroke-width="15" cx="-1164" cy="-369.6" rx="83.3772" ry="83.3772"/>
<text text-anchor="middle" x="-1164" y="-344.6" font-family="Times,serif" font-size="100.00">34</text>
</g>
<!-- 35 -->
<g id="node36" class="node"><title>35</title>
<ellipse fill="white" stroke="black" stroke-width="15" cx="852" cy="-945.6" rx="83.3772" ry="83.3772"/>
<text text-anchor="middle" x="852" y="-920.6" font-family="Times,serif" font-size="100.00">35</text>
</g>
<!-- 36 -->
<g id="node37" class="node"><title>36</title>
<ellipse fill="white" stroke="black" stroke-width="15" cx="-1308" cy="2942.4" rx="83.3772" ry="83.3772"/>
<text text-anchor="middle" x="-1308" y="2967.4" font-family="Times,serif" font-size="100.00">36</text>
</g>
<!-- 37 -->
<g id="node38" class="node"><title>37</title>
<ellipse fill="white" stroke="black" stroke-width="15" cx="3300" cy="-1953.6" rx="83.3772" ry="83.3772"/>
<text text-anchor="middle" x="3300" y="-1928.6" font-family="Times,serif" font-size="100.00">37</text>
</g>
<!-- 38 -->
<g id="node39" class="node"><title>38</title>
<ellipse fill="white" stroke="black" stroke-width="15" cx="1140" cy="-2961.6" rx="83.3772" ry="83.3772"/>
<text text-anchor="middle" x="1140" y="-2936.6" font-family="Times,serif" font-size="100.00">38</text>
</g>
<!-- 39 -->
<g id="node40" class="node"><title>39</title>
<ellipse fill="white" stroke="black" stroke-width="15" cx="1284" cy="-81.6" rx="83.3772" ry="83.3772"/>
<text text-anchor="middle" x="1284" y="-56.6" font-family="Times,serif" font-size="100.00">39</text>
</g>
<!-- 40 -->
<g id="node41" class="node"><title>40</title>
<ellipse fill="white" stroke="black" stroke-width="15" cx="-2316" cy="-945.6" rx="83.3772" ry="83.3772"/>
<text text-anchor="middle" x="-2316" y="-920.6" font-family="Times,serif" font-size="100.00">40</text>
</g>
<!-- 41 -->
<g id="node42" class="node"><title>41</title>
<ellipse fill="white" stroke="black" stroke-width="15" cx="-1164" cy="-2961.6" rx="83.3772" ry="83.3772"/>
<text text-anchor="middle" x="-1164" y="-2936.6" font-family="Times,serif" font-size="100.00">41</text>
</g>
<!-- 42 -->
<g id="node43" class="node"><title>42</title>
<ellipse fill="white" stroke="black" stroke-width="15" cx="708" cy="3374.4" rx="83.3772" ry="83.3772"/>
<text text-anchor="middle" x="708" y="3399.4" font-family="Times,serif" font-size="100.00">42</text>
</g>
<!-- 43 -->
<g id="node44" class="node"><title>43</title>
<ellipse fill="white" stroke="black" stroke-width="15" cx="2724" cy="1358.4" rx="83.3772" ry="83.3772"/>
<text text-anchor="middle" x="2724" y="1383.4" font-family="Times,serif" font-size="100.00">43</text>
</g>
<!-- 44 -->
<g id="node45" class="node"><title>44</title>
<ellipse fill="white" stroke="black" stroke-width="15" cx="-1884" cy="1934.4" rx="83.3772" ry="83.3772"/>
<text text-anchor="middle" x="-1884" y="1959.4" font-family="Times,serif" font-size="100.00">44</text>
</g>
<!-- 45 -->
<g id="node46" class="node"><title>45</title>
<ellipse fill="white" stroke="black" stroke-width="15" cx="420" cy="3230.4" rx="83.3772" ry="83.3772"/>
<text text-anchor="middle" x="420" y="3255.4" font-family="Times,serif" font-size="100.00">45</text>
</g>
<!-- 46 -->
<g id="node47" class="node"><title>46</title>
<ellipse fill="white" stroke="black" stroke-width="15" cx="-2316" cy="-1521.6" rx="83.3772" ry="83.3772"/>
<text text-anchor="middle" x="-2316" y="-1496.6" font-family="Times,serif" font-size="100.00">46</text>
</g>
<!-- 47 -->
<g id="node48" class="node"><title>47</title>
<ellipse fill="white" stroke="black" stroke-width="15" cx="-444" cy="-945.6" rx="83.3772" ry="83.3772"/>
<text text-anchor="middle" x="-444" y="-920.6" font-family="Times,serif" font-size="100.00">47</text>
</g>
<!-- 48 -->
<g id="node49" class="node"><title>48</title>
<ellipse fill="white" stroke="black" stroke-width="15" cx="-156" cy="2798.4" rx="83.3772" ry="83.3772"/>
<text text-anchor="middle" x="-156" y="2823.4" font-family="Times,serif" font-size="100.00">48</text>
</g>
<!-- 49 -->
<g id="node50" class="node"><title>49</title>
<ellipse fill="white" stroke="black" stroke-width="15" cx="-2460" cy="2222.4" rx="83.3772" ry="83.3772"/>
<text text-anchor="middle" x="-2460" y="2247.4" font-family="Times,serif" font-size="100.00">49</text>
</g>
<!-- 50 -->
<g id="node51" class="node"><title>50</title>
<ellipse fill="white" stroke="black" stroke-width="15" cx="1140" cy="-81.6" rx="83.3772" ry="83.3772"/>
<text text-anchor="middle" x="1140" y="-56.6" font-family="Times,serif" font-size="100.00">50</text>
</g>
<!-- 51 -->
<g id="node52" class="node"><title>51</title>
<ellipse fill="white" stroke="black" stroke-width="15" cx="3444" cy="3662.4" rx="83.3772" ry="83.3772"/>
<text text-anchor="middle" x="3444" y="3687.4" font-family="Times,serif" font-size="100.00">51</text>
</g>
<!-- 52 -->
<g id="node53" class="node"><title>52</title>
<ellipse fill="white" stroke="black" stroke-width="15" cx="564" cy="-2529.6" rx="83.3772" ry="83.3772"/>
<text text-anchor="middle" x="564" y="-2504.6" font-family="Times,serif" font-size="100.00">52</text>
</g>
<!-- 53 -->
<g id="node54" class="node"><title>53</title>
<ellipse fill="white" stroke="black" stroke-width="15" cx="-3180" cy="1790.4" rx="83.3772" ry="83.3772"/>
<text text-anchor="middle" x="-3180" y="1815.4" font-family="Times,serif" font-size="100.00">53</text>
</g>
<!-- 54 -->
<g id="node55" class="node"><title>54</title>
<ellipse fill="white" stroke="black" stroke-width="15" cx="-12" cy="3518.4" rx="83.3772" ry="83.3772"/>
<text text-anchor="middle" x="-12" y="3543.4" font-family="Times,serif" font-size="100.00">54</text>
</g>
<!-- 55 -->
<g id="node56" class="node"><title>55</title>
<ellipse fill="white" stroke="black" stroke-width="15" cx="996" cy="-945.6" rx="83.3772" ry="83.3772"/>
<text text-anchor="middle" x="996" y="-920.6" font-family="Times,serif" font-size="100.00">55</text>
</g>
<!-- 56 -->
<g id="node57" class="node"><title>56</title>
<ellipse fill="white" stroke="black" stroke-width="15" cx="2724" cy="1502.4" rx="83.3772" ry="83.3772"/>
<text text-anchor="middle" x="2724" y="1527.4" font-family="Times,serif" font-size="100.00">56</text>
</g>
<!-- 57 -->
<g id="node58" class="node"><title>57</title>
<ellipse fill="white" stroke="black" stroke-width="15" cx="3012" cy="-1809.6" rx="83.3772" ry="83.3772"/>
<text text-anchor="middle" x="3012" y="-1784.6" font-family="Times,serif" font-size="100.00">57</text>
</g>
<!-- 58 -->
<g id="node59" class="node"><title>58</title>
<ellipse fill="white" stroke="black" stroke-width="15" cx="-156" cy="638.4" rx="83.3772" ry="83.3772"/>
<text text-anchor="middle" x="-156" y="663.4" font-family="Times,serif" font-size="100.00">58</text>
</g>
<!-- 59 -->
<g id="node60" class="node"><title>59</title>
<ellipse fill="white" stroke="black" stroke-width="15" cx="1284" cy="-2673.6" rx="83.3772" ry="83.3772"/>
<text text-anchor="middle" x="1284" y="-2648.6" font-family="Times,serif" font-size="100.00">59</text>
</g>
</g>
</svg>
