<?xml version="1.0" encoding="UTF-8" standalone="no"?>
<!DOCTYPE svg PUBLIC "-//W3C//DTD SVG 1.1//EN"
 "http://www.w3.org/Graphics/SVG/1.1/DTD/svg11.dtd">
<!-- Generated by graphviz version 2.38.0 (20140413.2041)
 -->
<!-- Title: g Pages: 1 -->
<svg width="7375pt" height="7254pt"
 viewBox="216.00 216.00 7158.88 7037.88" xmlns="http://www.w3.org/2000/svg" xmlns:xlink="http://www.w3.org/1999/xlink">
<g id="graph0" class="graph" transform="scale(1 1) rotate(0) translate(3627.44 3288.04)">
<title>g</title>
<polygon fill="white" stroke="none" points="-3411.44,3749.84 -3411.44,-3072.04 3531.44,-3072.04 3531.44,3749.84 -3411.44,3749.84"/>
<text text-anchor="middle" x="59.9999" y="-3052.84" font-family="Times,serif" font-size="14.00">data02&#45;tabou (cost = 1498)</text>
<!-- 0&#45;&gt;2 -->
<g id="edge39" class="edge"><title>0&#45;&gt;2</title>
<path fill="none" stroke="blue" stroke-width="15" d="M-1448.91,-2590.14C-1430.11,-2082.67 -1331.32,584.747 -1311.47,1120.59"/>
<polygon fill="blue" stroke="blue" stroke-width="15" points="-1298.34,1120.5 -1311.09,1130.98 -1324.58,1121.47 -1298.34,1120.5"/>
</g>
<!-- 0&#45;&gt;14 -->
<g id="edge1" class="edge"><title>0&#45;&gt;14</title>
<path fill="none" stroke="blue" stroke-width="15" d="M-1398.47,-2609.37C-1267.18,-2451.82 -929.885,-2047.06 -792.048,-1881.66"/>
<polygon fill="blue" stroke="blue" stroke-width="15" points="-781.955,-1890.05 -785.636,-1873.96 -802.121,-1873.24 -781.955,-1890.05"/>
</g>
<!-- 0&#45;&gt;16 -->
<g id="edge45" class="edge"><title>0&#45;&gt;16</title>
<path fill="none" stroke="red" stroke-width="15" d="M-1534.45,-2687.34C-1696.26,-2714.31 -2054.33,-2773.99 -2223.73,-2802.22"/>
<polygon fill="red" stroke="red" stroke-width="15" points="-2225.92,-2789.28 -2233.63,-2803.87 -2221.61,-2815.17 -2225.92,-2789.28"/>
</g>
<!-- 0&#45;&gt;18 -->
<g id="edge61" class="edge"><title>0&#45;&gt;18</title>
<path fill="none" stroke="green" stroke-width="15" d="M-1368.45,-2673.6C-1295.45,-2673.6 -1189.57,-2673.6 -1113.7,-2673.6"/>
<polygon fill="green" stroke="green" stroke-width="15" points="-1113.67,-2686.73 -1103.67,-2673.6 -1113.67,-2660.48 -1113.67,-2686.73"/>
</g>
<!-- 0&#45;&gt;19 -->
<g id="edge13" class="edge"><title>0&#45;&gt;19</title>
<path fill="none" stroke="black" stroke-width="15" d="M-1372.56,-2647.12C-1036.72,-2535.17 265.504,-2101.1 619.018,-1983.26"/>
<polygon fill="black" stroke="black" stroke-width="15" points="623.362,-1995.65 628.698,-1980.03 615.061,-1970.74 623.362,-1995.65"/>
</g>
<!-- 0&#45;&gt;24 -->
<g id="edge8" class="edge"><title>0&#45;&gt;24</title>
<path fill="none" stroke="red" stroke-width="15" d="M-1438.75,-2590.78C-1361.7,-2109.25 -972.032,326.201 -890.837,833.669"/>
<polygon fill="red" stroke="red" stroke-width="15" points="-877.824,831.924 -889.204,843.873 -903.745,836.072 -877.824,831.924"/>
</g>
<!-- 0&#45;&gt;41 -->
<g id="edge55" class="edge"><title>0&#45;&gt;41</title>
<path fill="none" stroke="black" stroke-width="15" d="M-1392.68,-2732.92C-1345.43,-2780.17 -1279.34,-2846.26 -1230.35,-2895.25"/>
<polygon fill="black" stroke="black" stroke-width="15" points="-1239.6,-2904.56 -1223.25,-2902.35 -1221.04,-2886 -1239.6,-2904.56"/>
</g>
<!-- 0&#45;&gt;50 -->
<g id="edge29" class="edge"><title>0&#45;&gt;50</title>
<path fill="none" stroke="orange" stroke-width="15" d="M-1392.99,-2614.59C-1047.61,-2269.21 709.231,-512.369 1073.73,-147.869"/>
<polygon fill="orange" stroke="orange" stroke-width="15" points="1083.01,-157.15 1080.8,-140.798 1064.45,-138.588 1083.01,-157.15"/>
</g>
<!-- 0&#45;&gt;53 -->
<g id="edge21" class="edge"><title>0&#45;&gt;53</title>
<path fill="none" stroke="green" stroke-width="15" d="M-1482.18,-2595.65C-1691.5,-2054.88 -2925.56,1133.09 -3146.23,1703.17"/>
<polygon fill="green" stroke="green" stroke-width="15" points="-3134.02,1707.99 -3149.87,1712.58 -3158.5,1698.51 -3134.02,1707.99"/>
</g>
<!-- 1&#45;&gt;0 -->
<g id="edge38" class="edge"><title>1&#45;&gt;0</title>
<path fill="none" stroke="orange" stroke-width="15" d="M-1027.57,1995.17C-1079.95,1418.92 -1388.24,-1972.25 -1443.52,-2580.28"/>
<polygon fill="orange" stroke="orange" stroke-width="15" points="-1456.59,-2579.17 -1444.43,-2590.31 -1430.45,-2581.54 -1456.59,-2579.17"/>
</g>
<!-- 2&#45;&gt;44 -->
<g id="edge40" class="edge"><title>2&#45;&gt;44</title>
<path fill="none" stroke="blue" stroke-width="15" d="M-1360.13,1279.57C-1467.45,1413.71 -1712.43,1719.94 -1825.2,1860.9"/>
<polygon fill="blue" stroke="blue" stroke-width="15" points="-1815.28,1869.51 -1831.78,1869.12 -1835.78,1853.12 -1815.28,1869.51"/>
</g>
<!-- 3&#45;&gt;4 -->
<g id="edge48" class="edge"><title>3&#45;&gt;4</title>
<path fill="none" stroke="red" stroke-width="15" d="M-2914.02,-1728.87C-2987.25,-1460.33 -3222.39,-598.176 -3299.36,-315.959"/>
<polygon fill="red" stroke="red" stroke-width="15" points="-3286.73,-312.36 -3302.03,-306.166 -3312.06,-319.267 -3286.73,-312.36"/>
</g>
<!-- 4&#45;&gt;21 -->
<g id="edge49" class="edge"><title>4&#45;&gt;21</title>
<path fill="none" stroke="red" stroke-width="15" d="M-3264.6,-166.198C-3258.58,-160.184 -3252.45,-154.05 -3246.37,-147.969"/>
<polygon fill="red" stroke="red" stroke-width="15" points="-3237.06,-157.217 -3239.27,-140.865 -3255.62,-138.655 -3237.06,-157.217"/>
</g>
<!-- 5&#45;&gt;54 -->
<g id="edge34" class="edge"><title>5&#45;&gt;54</title>
<path fill="none" stroke="orange" stroke-width="15" d="M72.5983,3433.8C66.5844,3439.82 60.4495,3445.95 54.3685,3452.03"/>
<polygon fill="orange" stroke="orange" stroke-width="15" points="63.6171,3461.34 47.2652,3459.13 45.0555,3442.78 63.6171,3461.34"/>
</g>
<!-- 6&#45;&gt;0 -->
<g id="edge7" class="edge"><title>6&#45;&gt;0</title>
<path fill="none" stroke="blue" stroke-width="15" d="M-1871.59,123.698C-1809.36,-291.2 -1531.55,-2143.23 -1465.93,-2580.75"/>
<polygon fill="blue" stroke="blue" stroke-width="15" points="-1478.88,-2582.88 -1464.42,-2590.82 -1452.92,-2578.99 -1478.88,-2582.88"/>
</g>
<!-- 7&#45;&gt;29 -->
<g id="edge63" class="edge"><title>7&#45;&gt;29</title>
<path fill="none" stroke="green" stroke-width="15" d="M2366.92,-2348.14C2406.51,-2328.35 2455.22,-2303.99 2496.08,-2283.56"/>
<polygon fill="green" stroke="green" stroke-width="15" points="2502.13,-2295.21 2505.21,-2279 2490.39,-2271.73 2502.13,-2295.21"/>
</g>
<!-- 8&#45;&gt;15 -->
<g id="edge66" class="edge"><title>8&#45;&gt;15</title>
<path fill="none" stroke="green" stroke-width="15" d="M2381.63,-1890.16C2228.45,-1711.46 1794.1,-1204.71 1633.06,-1016.84"/>
<polygon fill="green" stroke="green" stroke-width="15" points="1643,-1008.26 1626.52,-1009.21 1623.07,-1025.34 1643,-1008.26"/>
</g>
<!-- 9&#45;&gt;5 -->
<g id="edge33" class="edge"><title>9&#45;&gt;5</title>
<path fill="none" stroke="orange" stroke-width="15" d="M2640.33,3235.05C2252.75,3256.58 633.474,3346.54 225.587,3369.2"/>
<polygon fill="orange" stroke="orange" stroke-width="15" points="226.314,3382.31 215.601,3369.76 224.857,3356.1 226.314,3382.31"/>
</g>
<!-- 10&#45;&gt;22 -->
<g id="edge36" class="edge"><title>10&#45;&gt;22</title>
<path fill="none" stroke="orange" stroke-width="15" d="M-156,3290.63C-156,3290.57 -156,3290.51 -156,3290.45"/>
<polygon fill="orange" stroke="orange" stroke-width="15" points="-169.12,3300.27 -156,3290.26 -142.87,3300.26 -169.12,3300.27"/>
</g>
<!-- 11&#45;&gt;40 -->
<g id="edge51" class="edge"><title>11&#45;&gt;40</title>
<path fill="none" stroke="red" stroke-width="15" d="M-2817.29,-694.956C-2709.96,-748.619 -2512.73,-847.237 -2400.31,-903.444"/>
<polygon fill="red" stroke="red" stroke-width="15" points="-2405.85,-915.349 -2391.04,-908.082 -2394.11,-891.87 -2405.85,-915.349"/>
</g>
<!-- 12&#45;&gt;43 -->
<g id="edge26" class="edge"><title>12&#45;&gt;43</title>
<path fill="none" stroke="green" stroke-width="15" d="M3384.77,2019.17C3251.76,1886.16 2930.07,1564.47 2790.48,1424.88"/>
<polygon fill="green" stroke="green" stroke-width="15" points="2780.95,1433.92 2783.16,1417.56 2799.52,1415.35 2780.95,1433.92"/>
</g>
<!-- 13&#45;&gt;8 -->
<g id="edge65" class="edge"><title>13&#45;&gt;8</title>
<path fill="none" stroke="green" stroke-width="15" d="M2436,-2013.83C2436,-2013.77 2436,-2013.71 2436,-2013.65"/>
<polygon fill="green" stroke="green" stroke-width="15" points="2449.13,-2023.46 2436,-2013.46 2422.88,-2023.47 2449.13,-2023.46"/>
</g>
<!-- 14&#45;&gt;47 -->
<g id="edge2" class="edge"><title>14&#45;&gt;47</title>
<path fill="none" stroke="blue" stroke-width="15" d="M-705.55,-1730.25C-651.771,-1568.91 -530.006,-1203.62 -473.646,-1034.54"/>
<polygon fill="blue" stroke="blue" stroke-width="15" points="-461.15,-1038.55 -470.439,-1024.92 -486.053,-1030.25 -461.15,-1038.55"/>
</g>
<!-- 15&#45;&gt;55 -->
<g id="edge67" class="edge"><title>15&#45;&gt;55</title>
<path fill="none" stroke="green" stroke-width="15" d="M1488.55,-945.6C1382.58,-945.6 1200.24,-945.6 1089.63,-945.6"/>
<polygon fill="green" stroke="green" stroke-width="15" points="1089.49,-932.475 1079.49,-945.6 1089.49,-958.725 1089.49,-932.475"/>
</g>
<!-- 16&#45;&gt;20 -->
<g id="edge46" class="edge"><title>16&#45;&gt;20</title>
<path fill="none" stroke="red" stroke-width="15" d="M-2399.69,-2817.6C-2434.15,-2817.6 -2474.24,-2817.6 -2509.74,-2817.6"/>
<polygon fill="red" stroke="red" stroke-width="15" points="-2510.1,-2804.48 -2520.1,-2817.6 -2510.1,-2830.73 -2510.1,-2804.48"/>
</g>
<!-- 17&#45;&gt;26 -->
<g id="edge18" class="edge"><title>17&#45;&gt;26</title>
<path fill="none" stroke="black" stroke-width="15" d="M2952.84,-1318.44C2872.68,-1238.28 2729.99,-1095.59 2646.3,-1011.9"/>
<polygon fill="black" stroke="black" stroke-width="15" points="2655.49,-1002.53 2639.14,-1004.74 2636.93,-1021.09 2655.49,-1002.53"/>
</g>
<!-- 18&#45;&gt;7 -->
<g id="edge62" class="edge"><title>18&#45;&gt;7</title>
<path fill="none" stroke="green" stroke-width="15" d="M-936.473,-2666.34C-479.243,-2626.58 1717.37,-2435.57 2198.67,-2393.72"/>
<polygon fill="green" stroke="green" stroke-width="15" points="2199.87,-2406.79 2208.7,-2392.84 2197.6,-2380.63 2199.87,-2406.79"/>
</g>
<!-- 19&#45;&gt;27 -->
<g id="edge14" class="edge"><title>19&#45;&gt;27</title>
<path fill="none" stroke="black" stroke-width="15" d="M789.841,-1936.06C1112.27,-1866.97 2293.65,-1613.82 2632.55,-1541.2"/>
<polygon fill="black" stroke="black" stroke-width="15" points="2635.31,-1554.03 2642.33,-1539.1 2629.81,-1528.36 2635.31,-1554.03"/>
</g>
<!-- 20&#45;&gt;3 -->
<g id="edge47" class="edge"><title>20&#45;&gt;3</title>
<path fill="none" stroke="red" stroke-width="15" d="M-2626.96,-2737.24C-2679.97,-2551.71 -2810.59,-2094.53 -2866.23,-1899.79"/>
<polygon fill="red" stroke="red" stroke-width="15" points="-2853.62,-1896.17 -2868.98,-1890.16 -2878.86,-1903.38 -2853.62,-1896.17"/>
</g>
<!-- 21&#45;&gt;11 -->
<g id="edge50" class="edge"><title>21&#45;&gt;11</title>
<path fill="none" stroke="red" stroke-width="15" d="M-3142.64,-156.311C-3088.98,-263.638 -2990.36,-460.874 -2934.16,-573.288"/>
<polygon fill="red" stroke="red" stroke-width="15" points="-2945.73,-579.49 -2929.52,-582.564 -2922.25,-567.75 -2945.73,-579.49"/>
</g>
<!-- 22&#45;&gt;1 -->
<g id="edge37" class="edge"><title>22&#45;&gt;1</title>
<path fill="none" stroke="orange" stroke-width="15" d="M-206.187,3163.48C-356.879,2962.56 -804.765,2365.38 -963.47,2153.77"/>
<polygon fill="orange" stroke="orange" stroke-width="15" points="-974.175,2161.38 -969.675,2145.5 -953.175,2145.63 -974.175,2161.38"/>
</g>
<!-- 23&#45;&gt;0 -->
<g id="edge12" class="edge"><title>23&#45;&gt;0</title>
<path fill="none" stroke="red" stroke-width="15" d="M-337.349,-444.297C-509.765,-789.129 -1228.08,-2225.77 -1409.99,-2589.58"/>
<polygon fill="red" stroke="red" stroke-width="15" points="-1421.84,-2583.93 -1414.57,-2598.75 -1398.36,-2595.67 -1421.84,-2583.93"/>
</g>
<!-- 24&#45;&gt;48 -->
<g id="edge9" class="edge"><title>24&#45;&gt;48</title>
<path fill="none" stroke="red" stroke-width="15" d="M-845.979,1004.45C-730.044,1305.89 -311.931,2392.98 -189.751,2710.65"/>
<polygon fill="red" stroke="red" stroke-width="15" points="-177.389,2706.23 -186.049,2720.27 -201.889,2715.65 -177.389,2706.23"/>
</g>
<!-- 25&#45;&gt;0 -->
<g id="edge54" class="edge"><title>25&#45;&gt;0</title>
<path fill="none" stroke="red" stroke-width="15" d="M-1975.87,-2018.77C-1868.55,-2152.91 -1623.57,-2459.14 -1510.8,-2600.1"/>
<polygon fill="red" stroke="red" stroke-width="15" points="-1520.72,-2608.71 -1504.22,-2608.32 -1500.22,-2592.32 -1520.72,-2608.71"/>
</g>
<!-- 26&#45;&gt;39 -->
<g id="edge19" class="edge"><title>26&#45;&gt;39</title>
<path fill="none" stroke="black" stroke-width="15" d="M2510.32,-899.148C2287.91,-750.874 1595.89,-289.528 1362.08,-133.657"/>
<polygon fill="black" stroke="black" stroke-width="15" points="1369.23,-122.645 1353.63,-128.019 1354.67,-144.487 1369.23,-122.645"/>
</g>
<!-- 27&#45;&gt;57 -->
<g id="edge15" class="edge"><title>27&#45;&gt;57</title>
<path fill="none" stroke="black" stroke-width="15" d="M2783.32,-1580.92C2830.57,-1628.17 2896.66,-1694.26 2945.65,-1743.25"/>
<polygon fill="black" stroke="black" stroke-width="15" points="2936.4,-1752.56 2952.75,-1750.35 2954.96,-1734 2936.4,-1752.56"/>
</g>
<!-- 28&#45;&gt;31 -->
<g id="edge5" class="edge"><title>28&#45;&gt;31</title>
<path fill="none" stroke="blue" stroke-width="15" d="M-2111.69,1214.4C-2146.15,1214.4 -2186.24,1214.4 -2221.74,1214.4"/>
<polygon fill="blue" stroke="blue" stroke-width="15" points="-2222.1,1227.52 -2232.1,1214.4 -2222.1,1201.27 -2222.1,1227.52"/>
</g>
<!-- 29&#45;&gt;13 -->
<g id="edge64" class="edge"><title>29&#45;&gt;13</title>
<path fill="none" stroke="green" stroke-width="15" d="M2520.6,-2182.2C2514.58,-2176.18 2508.45,-2170.05 2502.37,-2163.97"/>
<polygon fill="green" stroke="green" stroke-width="15" points="2511.62,-2154.66 2495.27,-2156.87 2493.06,-2173.22 2511.62,-2154.66"/>
</g>
<!-- 30&#45;&gt;49 -->
<g id="edge23" class="edge"><title>30&#45;&gt;49</title>
<path fill="none" stroke="green" stroke-width="15" d="M-3264.95,3027.35C-3109.44,2871.84 -2689.34,2451.74 -2526.12,2288.52"/>
<polygon fill="green" stroke="green" stroke-width="15" points="-2535.36,2279.2 -2519.01,2281.41 -2516.8,2297.76 -2535.36,2279.2"/>
</g>
<!-- 31&#45;&gt;6 -->
<g id="edge6" class="edge"><title>31&#45;&gt;6</title>
<path fill="none" stroke="blue" stroke-width="15" d="M-2283,1137.39C-2203.87,952.761 -2003.78,485.878 -1920.86,292.417"/>
<polygon fill="blue" stroke="blue" stroke-width="15" points="-1932.89,287.156 -1916.89,283.135 -1908.76,297.496 -1932.89,287.156"/>
</g>
<!-- 32&#45;&gt;9 -->
<g id="edge32" class="edge"><title>32&#45;&gt;9</title>
<path fill="none" stroke="orange" stroke-width="15" d="M2606.41,2877.64C2631.25,2952.15 2668.39,3063.56 2694.26,3141.17"/>
<polygon fill="orange" stroke="orange" stroke-width="15" points="2706.8,3137.3 2697.51,3150.94 2681.9,3145.6 2706.8,3137.3"/>
</g>
<!-- 33&#45;&gt;38 -->
<g id="edge57" class="edge"><title>33&#45;&gt;38</title>
<path fill="none" stroke="black" stroke-width="15" d="M-360.512,-2961.6C-89.9602,-2961.6 761.566,-2961.6 1046.25,-2961.6"/>
<polygon fill="black" stroke="black" stroke-width="15" points="1046.55,-2974.73 1056.55,-2961.6 1046.55,-2948.48 1046.55,-2974.73"/>
</g>
<!-- 34&#45;&gt;28 -->
<g id="edge4" class="edge"><title>34&#45;&gt;28</title>
<path fill="none" stroke="blue" stroke-width="15" d="M-1204.08,-296.115C-1347.18,-33.767 -1832.37,855.738 -1983.01,1131.91"/>
<polygon fill="blue" stroke="blue" stroke-width="15" points="-1971.7,1138.59 -1988.01,1141.08 -1994.74,1126.02 -1971.7,1138.59"/>
</g>
<!-- 35&#45;&gt;0 -->
<g id="edge28" class="edge"><title>35&#45;&gt;0</title>
<path fill="none" stroke="green" stroke-width="15" d="M785.222,-995.683C452.342,-1245.34 -1025.7,-2353.87 -1376.93,-2617.3"/>
<polygon fill="green" stroke="green" stroke-width="15" points="-1384.89,-2606.86 -1385.02,-2623.36 -1369.14,-2627.86 -1384.89,-2606.86"/>
</g>
<!-- 36&#45;&gt;45 -->
<g id="edge42" class="edge"><title>36&#45;&gt;45</title>
<path fill="none" stroke="blue" stroke-width="15" d="M-1225.53,2956.15C-937.25,3004.19 24.2611,3164.44 327.533,3214.99"/>
<polygon fill="blue" stroke="blue" stroke-width="15" points="329.904,3202.08 337.61,3216.67 325.589,3227.97 329.904,3202.08"/>
</g>
<!-- 37&#45;&gt;17 -->
<g id="edge17" class="edge"><title>37&#45;&gt;17</title>
<path fill="none" stroke="black" stroke-width="15" d="M3262.64,-1878.89C3208.98,-1771.56 3110.36,-1574.33 3054.16,-1461.91"/>
<polygon fill="black" stroke="black" stroke-width="15" points="3065.73,-1455.71 3049.52,-1452.64 3042.25,-1467.45 3065.73,-1455.71"/>
</g>
<!-- 38&#45;&gt;59 -->
<g id="edge58" class="edge"><title>38&#45;&gt;59</title>
<path fill="none" stroke="black" stroke-width="15" d="M1177.46,-2886.68C1197.25,-2847.09 1221.61,-2798.38 1242.04,-2757.52"/>
<polygon fill="black" stroke="black" stroke-width="15" points="1253.87,-2763.21 1246.6,-2748.39 1230.39,-2751.47 1253.87,-2763.21"/>
</g>
<!-- 39&#45;&gt;0 -->
<g id="edge20" class="edge"><title>39&#45;&gt;0</title>
<path fill="none" stroke="black" stroke-width="15" d="M1223.34,-139.065C862.177,-481.221 -1002.19,-2247.46 -1383.74,-2608.93"/>
<polygon fill="black" stroke="black" stroke-width="15" points="-1392.9,-2599.53 -1391.14,-2615.94 -1374.85,-2618.59 -1392.9,-2599.53"/>
</g>
<!-- 40&#45;&gt;46 -->
<g id="edge52" class="edge"><title>40&#45;&gt;46</title>
<path fill="none" stroke="red" stroke-width="15" d="M-2316,-1029.05C-2316,-1135.02 -2316,-1317.36 -2316,-1427.97"/>
<polygon fill="red" stroke="red" stroke-width="15" points="-2329.12,-1428.11 -2316,-1438.11 -2302.87,-1428.11 -2329.12,-1428.11"/>
</g>
<!-- 41&#45;&gt;33 -->
<g id="edge56" class="edge"><title>41&#45;&gt;33</title>
<path fill="none" stroke="black" stroke-width="15" d="M-1080.35,-2961.6C-945.144,-2961.6 -679.474,-2961.6 -537.95,-2961.6"/>
<polygon fill="black" stroke="black" stroke-width="15" points="-537.562,-2974.73 -527.562,-2961.6 -537.562,-2948.48 -537.562,-2974.73"/>
</g>
<!-- 42&#45;&gt;0 -->
<g id="edge44" class="edge"><title>42&#45;&gt;0</title>
<path fill="none" stroke="blue" stroke-width="15" d="M679.9,3295.72C446.128,2641.16 -1173.43,-1893.6 -1420.44,-2585.23"/>
<polygon fill="blue" stroke="blue" stroke-width="15" points="-1432.89,-2581.06 -1423.89,-2594.89 -1408.16,-2589.89 -1432.89,-2581.06"/>
</g>
<!-- 43&#45;&gt;35 -->
<g id="edge27" class="edge"><title>43&#45;&gt;35</title>
<path fill="none" stroke="green" stroke-width="15" d="M2671.24,1293.46C2403.2,963.575 1194.12,-524.524 911.305,-872.609"/>
<polygon fill="green" stroke="green" stroke-width="15" points="900.917,-864.581 904.798,-880.618 921.29,-881.134 900.917,-864.581"/>
</g>
<!-- 44&#45;&gt;36 -->
<g id="edge41" class="edge"><title>44&#45;&gt;36</title>
<path fill="none" stroke="blue" stroke-width="15" d="M-1842.58,2006.89C-1738.09,2189.75 -1464.33,2668.83 -1354.54,2860.96"/>
<polygon fill="blue" stroke="blue" stroke-width="15" points="-1343,2854.69 -1349.44,2869.89 -1365.79,2867.72 -1343,2854.69"/>
</g>
<!-- 45&#45;&gt;42 -->
<g id="edge43" class="edge"><title>45&#45;&gt;42</title>
<path fill="none" stroke="blue" stroke-width="15" d="M494.917,3267.86C534.506,3287.65 583.225,3312.01 624.081,3332.44"/>
<polygon fill="blue" stroke="blue" stroke-width="15" points="630.134,3320.79 633.209,3337 618.395,3344.27 630.134,3320.79"/>
</g>
<!-- 46&#45;&gt;25 -->
<g id="edge53" class="edge"><title>46&#45;&gt;25</title>
<path fill="none" stroke="red" stroke-width="15" d="M-2269.41,-1591.49C-2217.57,-1669.25 -2134.02,-1794.57 -2080.06,-1875.5"/>
<polygon fill="red" stroke="red" stroke-width="15" points="-2090.75,-1883.13 -2074.29,-1884.17 -2068.91,-1868.57 -2090.75,-1883.13"/>
</g>
<!-- 47&#45;&gt;34 -->
<g id="edge3" class="edge"><title>47&#45;&gt;34</title>
<path fill="none" stroke="blue" stroke-width="15" d="M-509.165,-893.468C-643.313,-786.15 -949.538,-541.17 -1090.5,-428.401"/>
<polygon fill="blue" stroke="blue" stroke-width="15" points="-1082.72,-417.819 -1098.72,-421.821 -1099.11,-438.317 -1082.72,-417.819"/>
</g>
<!-- 48&#45;&gt;58 -->
<g id="edge10" class="edge"><title>48&#45;&gt;58</title>
<path fill="none" stroke="red" stroke-width="15" d="M-156,2714.72C-156,2373.82 -156,1090.89 -156,732.128"/>
<polygon fill="red" stroke="red" stroke-width="15" points="-169.125,732.04 -156,722.04 -142.875,732.04 -169.125,732.04"/>
</g>
<!-- 49&#45;&gt;51 -->
<g id="edge24" class="edge"><title>49&#45;&gt;51</title>
<path fill="none" stroke="green" stroke-width="15" d="M-2378.79,2242.21C-1725.67,2401.5 2663.7,3472.08 3352.99,3640.2"/>
<polygon fill="green" stroke="green" stroke-width="15" points="3356.26,3627.49 3362.87,3642.61 3350.04,3652.99 3356.26,3627.49"/>
</g>
<!-- 50&#45;&gt;56 -->
<g id="edge30" class="edge"><title>50&#45;&gt;56</title>
<path fill="none" stroke="orange" stroke-width="15" d="M1199.2,-22.3963C1446.68,225.077 2397.5,1175.9 2657.79,1436.19"/>
<polygon fill="orange" stroke="orange" stroke-width="15" points="2667.13,1426.97 2664.92,1443.32 2648.57,1445.53 2667.13,1426.97"/>
</g>
<!-- 51&#45;&gt;12 -->
<g id="edge25" class="edge"><title>51&#45;&gt;12</title>
<path fill="none" stroke="green" stroke-width="15" d="M3444,3578.91C3444,3308.36 3444,2456.83 3444,2172.15"/>
<polygon fill="green" stroke="green" stroke-width="15" points="3430.88,2171.85 3444,2161.85 3457.13,2171.85 3430.88,2171.85"/>
</g>
<!-- 52&#45;&gt;0 -->
<g id="edge60" class="edge"><title>52&#45;&gt;0</title>
<path fill="none" stroke="black" stroke-width="15" d="M480.578,-2535.56C156.531,-2558.71 -1017.52,-2642.57 -1358.52,-2666.92"/>
<polygon fill="black" stroke="black" stroke-width="15" points="-1359.57,-2653.84 -1368.61,-2667.64 -1357.7,-2680.02 -1359.57,-2653.84"/>
</g>
<!-- 53&#45;&gt;30 -->
<g id="edge22" class="edge"><title>53&#45;&gt;30</title>
<path fill="none" stroke="green" stroke-width="15" d="M-3189.23,1873.44C-3214.84,2103.94 -3286.69,2750.57 -3313.62,2993.02"/>
<polygon fill="green" stroke="green" stroke-width="15" points="-3300.61,2994.72 -3314.76,3003.21 -3326.7,2991.82 -3300.61,2994.72"/>
</g>
<!-- 54&#45;&gt;10 -->
<g id="edge35" class="edge"><title>54&#45;&gt;10</title>
<path fill="none" stroke="orange" stroke-width="15" d="M-71.4017,3459C-77.4156,3452.98 -83.5505,3446.85 -89.6315,3440.77"/>
<polygon fill="orange" stroke="orange" stroke-width="15" points="-98.9445,3450.02 -96.7348,3433.67 -80.3829,3431.46 -98.9445,3450.02"/>
</g>
<!-- 55&#45;&gt;0 -->
<g id="edge68" class="edge"><title>55&#45;&gt;0</title>
<path fill="none" stroke="green" stroke-width="15" d="M927.649,-993.847C578.098,-1240.59 -1007.54,-2359.86 -1375.55,-2619.64"/>
<polygon fill="green" stroke="green" stroke-width="15" points="-1383.16,-2608.94 -1383.76,-2625.43 -1368.02,-2630.38 -1383.16,-2608.94"/>
</g>
<!-- 56&#45;&gt;32 -->
<g id="edge31" class="edge"><title>56&#45;&gt;32</title>
<path fill="none" stroke="orange" stroke-width="15" d="M2714.77,1585.44C2689.16,1815.94 2617.31,2462.57 2590.38,2705.02"/>
<polygon fill="orange" stroke="orange" stroke-width="15" points="2603.39,2706.72 2589.24,2715.21 2577.3,2703.82 2603.39,2706.72"/>
</g>
<!-- 57&#45;&gt;37 -->
<g id="edge16" class="edge"><title>57&#45;&gt;37</title>
<path fill="none" stroke="black" stroke-width="15" d="M3086.92,-1847.06C3126.51,-1866.85 3175.22,-1891.21 3216.08,-1911.64"/>
<polygon fill="black" stroke="black" stroke-width="15" points="3210.39,-1923.47 3225.21,-1916.2 3222.13,-1899.99 3210.39,-1923.47"/>
</g>
<!-- 58&#45;&gt;23 -->
<g id="edge11" class="edge"><title>58&#45;&gt;23</title>
<path fill="none" stroke="red" stroke-width="15" d="M-167.845,555.483C-194.462,369.168 -258.85,-81.5486 -286.746,-276.82"/>
<polygon fill="red" stroke="red" stroke-width="15" points="-299.746,-275.015 -288.167,-286.771 -273.76,-278.728 -299.746,-275.015"/>
</g>
<!-- 59&#45;&gt;52 -->
<g id="edge59" class="edge"><title>59&#45;&gt;52</title>
<path fill="none" stroke="black" stroke-width="15" d="M1202.11,-2657.22C1066.86,-2630.17 797.716,-2576.34 656.067,-2548.01"/>
<polygon fill="black" stroke="black" stroke-width="15" points="658.472,-2535.11 646.092,-2546.02 653.324,-2560.85 658.472,-2535.11"/>
</g>
<!-- 0 -->
<g id="node1" class="node"><title>0</title>
<ellipse fill="white" stroke="black" stroke-width="15" cx="-1452" cy="-2673.6" rx="83.3772" ry="83.3772"/>
<text text-anchor="middle" x="-1452" y="-2648.6" font-family="Times,serif" font-size="100.00">0</text>
</g>
<!-- 1 -->
<g id="node2" class="node"><title>1</title>
<ellipse fill="white" stroke="black" stroke-width="15" cx="-1020" cy="2078.4" rx="83.3772" ry="83.3772"/>
<text text-anchor="middle" x="-1020" y="2103.4" font-family="Times,serif" font-size="100.00">1</text>
</g>
<!-- 2 -->
<g id="node3" class="node"><title>2</title>
<ellipse fill="white" stroke="black" stroke-width="15" cx="-1308" cy="1214.4" rx="83.3772" ry="83.3772"/>
<text text-anchor="middle" x="-1308" y="1239.4" font-family="Times,serif" font-size="100.00">2</text>
</g>
<!-- 3 -->
<g id="node4" class="node"><title>3</title>
<ellipse fill="white" stroke="black" stroke-width="15" cx="-2892" cy="-1809.6" rx="83.3772" ry="83.3772"/>
<text text-anchor="middle" x="-2892" y="-1784.6" font-family="Times,serif" font-size="100.00">3</text>
</g>
<!-- 4 -->
<g id="node5" class="node"><title>4</title>
<ellipse fill="white" stroke="black" stroke-width="15" cx="-3324" cy="-225.6" rx="83.3772" ry="83.3772"/>
<text text-anchor="middle" x="-3324" y="-200.6" font-family="Times,serif" font-size="100.00">4</text>
</g>
<!-- 5 -->
<g id="node6" class="node"><title>5</title>
<ellipse fill="white" stroke="black" stroke-width="15" cx="132" cy="3374.4" rx="83.3772" ry="83.3772"/>
<text text-anchor="middle" x="132" y="3399.4" font-family="Times,serif" font-size="100.00">5</text>
</g>
<!-- 6 -->
<g id="node7" class="node"><title>6</title>
<ellipse fill="white" stroke="black" stroke-width="15" cx="-1884" cy="206.4" rx="83.3772" ry="83.3772"/>
<text text-anchor="middle" x="-1884" y="231.4" font-family="Times,serif" font-size="100.00">6</text>
</g>
<!-- 7 -->
<g id="node8" class="node"><title>7</title>
<ellipse fill="white" stroke="black" stroke-width="15" cx="2292" cy="-2385.6" rx="83.3772" ry="83.3772"/>
<text text-anchor="middle" x="2292" y="-2360.6" font-family="Times,serif" font-size="100.00">7</text>
</g>
<!-- 8 -->
<g id="node9" class="node"><title>8</title>
<ellipse fill="white" stroke="black" stroke-width="15" cx="2436" cy="-1953.6" rx="83.3772" ry="83.3772"/>
<text text-anchor="middle" x="2436" y="-1928.6" font-family="Times,serif" font-size="100.00">8</text>
</g>
<!-- 9 -->
<g id="node10" class="node"><title>9</title>
<ellipse fill="white" stroke="black" stroke-width="15" cx="2724" cy="3230.4" rx="83.3772" ry="83.3772"/>
<text text-anchor="middle" x="2724" y="3255.4" font-family="Times,serif" font-size="100.00">9</text>
</g>
<!-- 10 -->
<g id="node11" class="node"><title>10</title>
<ellipse fill="white" stroke="black" stroke-width="15" cx="-156" cy="3374.4" rx="83.3772" ry="83.3772"/>
<text text-anchor="middle" x="-156" y="3399.4" font-family="Times,serif" font-size="100.00">10</text>
</g>
<!-- 11 -->
<g id="node12" class="node"><title>11</title>
<ellipse fill="white" stroke="black" stroke-width="15" cx="-2892" cy="-657.6" rx="83.3772" ry="83.3772"/>
<text text-anchor="middle" x="-2892" y="-632.6" font-family="Times,serif" font-size="100.00">11</text>
</g>
<!-- 12 -->
<g id="node13" class="node"><title>12</title>
<ellipse fill="white" stroke="black" stroke-width="15" cx="3444" cy="2078.4" rx="83.3772" ry="83.3772"/>
<text text-anchor="middle" x="3444" y="2103.4" font-family="Times,serif" font-size="100.00">12</text>
</g>
<!-- 13 -->
<g id="node14" class="node"><title>13</title>
<ellipse fill="white" stroke="black" stroke-width="15" cx="2436" cy="-2097.6" rx="83.3772" ry="83.3772"/>
<text text-anchor="middle" x="2436" y="-2072.6" font-family="Times,serif" font-size="100.00">13</text>
</g>
<!-- 14 -->
<g id="node15" class="node"><title>14</title>
<ellipse fill="white" stroke="black" stroke-width="15" cx="-732" cy="-1809.6" rx="83.3772" ry="83.3772"/>
<text text-anchor="middle" x="-732" y="-1784.6" font-family="Times,serif" font-size="100.00">14</text>
</g>
<!-- 15 -->
<g id="node16" class="node"><title>15</title>
<ellipse fill="white" stroke="black" stroke-width="15" cx="1572" cy="-945.6" rx="83.3772" ry="83.3772"/>
<text text-anchor="middle" x="1572" y="-920.6" font-family="Times,serif" font-size="100.00">15</text>
</g>
<!-- 16 -->
<g id="node17" class="node"><title>16</title>
<ellipse fill="white" stroke="black" stroke-width="15" cx="-2316" cy="-2817.6" rx="83.3772" ry="83.3772"/>
<text text-anchor="middle" x="-2316" y="-2792.6" font-family="Times,serif" font-size="100.00">16</text>
</g>
<!-- 17 -->
<g id="node18" class="node"><title>17</title>
<ellipse fill="white" stroke="black" stroke-width="15" cx="3012" cy="-1377.6" rx="83.3772" ry="83.3772"/>
<text text-anchor="middle" x="3012" y="-1352.6" font-family="Times,serif" font-size="100.00">17</text>
</g>
<!-- 18 -->
<g id="node19" class="node"><title>18</title>
<ellipse fill="white" stroke="black" stroke-width="15" cx="-1020" cy="-2673.6" rx="83.3772" ry="83.3772"/>
<text text-anchor="middle" x="-1020" y="-2648.6" font-family="Times,serif" font-size="100.00">18</text>
</g>
<!-- 19 -->
<g id="node20" class="node"><title>19</title>
<ellipse fill="white" stroke="black" stroke-width="15" cx="708" cy="-1953.6" rx="83.3772" ry="83.3772"/>
<text text-anchor="middle" x="708" y="-1928.6" font-family="Times,serif" font-size="100.00">19</text>
</g>
<!-- 20 -->
<g id="node21" class="node"><title>20</title>
<ellipse fill="white" stroke="black" stroke-width="15" cx="-2604" cy="-2817.6" rx="83.3772" ry="83.3772"/>
<text text-anchor="middle" x="-2604" y="-2792.6" font-family="Times,serif" font-size="100.00">20</text>
</g>
<!-- 21 -->
<g id="node22" class="node"><title>21</title>
<ellipse fill="white" stroke="black" stroke-width="15" cx="-3180" cy="-81.6" rx="83.3772" ry="83.3772"/>
<text text-anchor="middle" x="-3180" y="-56.6" font-family="Times,serif" font-size="100.00">21</text>
</g>
<!-- 22 -->
<g id="node23" class="node"><title>22</title>
<ellipse fill="white" stroke="black" stroke-width="15" cx="-156" cy="3230.4" rx="83.3772" ry="83.3772"/>
<text text-anchor="middle" x="-156" y="3255.4" font-family="Times,serif" font-size="100.00">22</text>
</g>
<!-- 23 -->
<g id="node24" class="node"><title>23</title>
<ellipse fill="white" stroke="black" stroke-width="15" cx="-300" cy="-369.6" rx="83.3772" ry="83.3772"/>
<text text-anchor="middle" x="-300" y="-344.6" font-family="Times,serif" font-size="100.00">23</text>
</g>
<!-- 24 -->
<g id="node25" class="node"><title>24</title>
<ellipse fill="white" stroke="black" stroke-width="15" cx="-876" cy="926.4" rx="83.3772" ry="83.3772"/>
<text text-anchor="middle" x="-876" y="951.4" font-family="Times,serif" font-size="100.00">24</text>
</g>
<!-- 25 -->
<g id="node26" class="node"><title>25</title>
<ellipse fill="white" stroke="black" stroke-width="15" cx="-2028" cy="-1953.6" rx="83.3772" ry="83.3772"/>
<text text-anchor="middle" x="-2028" y="-1928.6" font-family="Times,serif" font-size="100.00">25</text>
</g>
<!-- 26 -->
<g id="node27" class="node"><title>26</title>
<ellipse fill="white" stroke="black" stroke-width="15" cx="2580" cy="-945.6" rx="83.3772" ry="83.3772"/>
<text text-anchor="middle" x="2580" y="-920.6" font-family="Times,serif" font-size="100.00">26</text>
</g>
<!-- 27 -->
<g id="node28" class="node"><title>27</title>
<ellipse fill="white" stroke="black" stroke-width="15" cx="2724" cy="-1521.6" rx="83.3772" ry="83.3772"/>
<text text-anchor="middle" x="2724" y="-1496.6" font-family="Times,serif" font-size="100.00">27</text>
</g>
<!-- 28 -->
<g id="node29" class="node"><title>28</title>
<ellipse fill="white" stroke="black" stroke-width="15" cx="-2028" cy="1214.4" rx="83.3772" ry="83.3772"/>
<text text-anchor="middle" x="-2028" y="1239.4" font-family="Times,serif" font-size="100.00">28</text>
</g>
<!-- 29 -->
<g id="node30" class="node"><title>29</title>
<ellipse fill="white" stroke="black" stroke-width="15" cx="2580" cy="-2241.6" rx="83.3772" ry="83.3772"/>
<text text-anchor="middle" x="2580" y="-2216.6" font-family="Times,serif" font-size="100.00">29</text>
</g>
<!-- 30 -->
<g id="node31" class="node"><title>30</title>
<ellipse fill="white" stroke="black" stroke-width="15" cx="-3324" cy="3086.4" rx="83.3772" ry="83.3772"/>
<text text-anchor="middle" x="-3324" y="3111.4" font-family="Times,serif" font-size="100.00">30</text>
</g>
<!-- 31 -->
<g id="node32" class="node"><title>31</title>
<ellipse fill="white" stroke="black" stroke-width="15" cx="-2316" cy="1214.4" rx="83.3772" ry="83.3772"/>
<text text-anchor="middle" x="-2316" y="1239.4" font-family="Times,serif" font-size="100.00">31</text>
</g>
<!-- 32 -->
<g id="node33" class="node"><title>32</title>
<ellipse fill="white" stroke="black" stroke-width="15" cx="2580" cy="2798.4" rx="83.3772" ry="83.3772"/>
<text text-anchor="middle" x="2580" y="2823.4" font-family="Times,serif" font-size="100.00">32</text>
</g>
<!-- 33 -->
<g id="node34" class="node"><title>33</title>
<ellipse fill="white" stroke="black" stroke-width="15" cx="-444" cy="-2961.6" rx="83.3772" ry="83.3772"/>
<text text-anchor="middle" x="-444" y="-2936.6" font-family="Times,serif" font-size="100.00">33</text>
</g>
<!-- 34 -->
<g id="node35" class="node"><title>34</title>
<ellipse fill="white" stroke="black" stroke-width="15" cx="-1164" cy="-369.6" rx="83.3772" ry="83.3772"/>
<text text-anchor="middle" x="-1164" y="-344.6" font-family="Times,serif" font-size="100.00">34</text>
</g>
<!-- 35 -->
<g id="node36" class="node"><title>35</title>
<ellipse fill="white" stroke="black" stroke-width="15" cx="852" cy="-945.6" rx="83.3772" ry="83.3772"/>
<text text-anchor="middle" x="852" y="-920.6" font-family="Times,serif" font-size="100.00">35</text>
</g>
<!-- 36 -->
<g id="node37" class="node"><title>36</title>
<ellipse fill="white" stroke="black" stroke-width="15" cx="-1308" cy="2942.4" rx="83.3772" ry="83.3772"/>
<text text-anchor="middle" x="-1308" y="2967.4" font-family="Times,serif" font-size="100.00">36</text>
</g>
<!-- 37 -->
<g id="node38" class="node"><title>37</title>
<ellipse fill="white" stroke="black" stroke-width="15" cx="3300" cy="-1953.6" rx="83.3772" ry="83.3772"/>
<text text-anchor="middle" x="3300" y="-1928.6" font-family="Times,serif" font-size="100.00">37</text>
</g>
<!-- 38 -->
<g id="node39" class="node"><title>38</title>
<ellipse fill="white" stroke="black" stroke-width="15" cx="1140" cy="-2961.6" rx="83.3772" ry="83.3772"/>
<text text-anchor="middle" x="1140" y="-2936.6" font-family="Times,serif" font-size="100.00">38</text>
</g>
<!-- 39 -->
<g id="node40" class="node"><title>39</title>
<ellipse fill="white" stroke="black" stroke-width="15" cx="1284" cy="-81.6" rx="83.3772" ry="83.3772"/>
<text text-anchor="middle" x="1284" y="-56.6" font-family="Times,serif" font-size="100.00">39</text>
</g>
<!-- 40 -->
<g id="node41" class="node"><title>40</title>
<ellipse fill="white" stroke="black" stroke-width="15" cx="-2316" cy="-945.6" rx="83.3772" ry="83.3772"/>
<text text-anchor="middle" x="-2316" y="-920.6" font-family="Times,serif" font-size="100.00">40</text>
</g>
<!-- 41 -->
<g id="node42" class="node"><title>41</title>
<ellipse fill="white" stroke="black" stroke-width="15" cx="-1164" cy="-2961.6" rx="83.3772" ry="83.3772"/>
<text text-anchor="middle" x="-1164" y="-2936.6" font-family="Times,serif" font-size="100.00">41</text>
</g>
<!-- 42 -->
<g id="node43" class="node"><title>42</title>
<ellipse fill="white" stroke="black" stroke-width="15" cx="708" cy="3374.4" rx="83.3772" ry="83.3772"/>
<text text-anchor="middle" x="708" y="3399.4" font-family="Times,serif" font-size="100.00">42</text>
</g>
<!-- 43 -->
<g id="node44" class="node"><title>43</title>
<ellipse fill="white" stroke="black" stroke-width="15" cx="2724" cy="1358.4" rx="83.3772" ry="83.3772"/>
<text text-anchor="middle" x="2724" y="1383.4" font-family="Times,serif" font-size="100.00">43</text>
</g>
<!-- 44 -->
<g id="node45" class="node"><title>44</title>
<ellipse fill="white" stroke="black" stroke-width="15" cx="-1884" cy="1934.4" rx="83.3772" ry="83.3772"/>
<text text-anchor="middle" x="-1884" y="1959.4" font-family="Times,serif" font-size="100.00">44</text>
</g>
<!-- 45 -->
<g id="node46" class="node"><title>45</title>
<ellipse fill="white" stroke="black" stroke-width="15" cx="420" cy="3230.4" rx="83.3772" ry="83.3772"/>
<text text-anchor="middle" x="420" y="3255.4" font-family="Times,serif" font-size="100.00">45</text>
</g>
<!-- 46 -->
<g id="node47" class="node"><title>46</title>
<ellipse fill="white" stroke="black" stroke-width="15" cx="-2316" cy="-1521.6" rx="83.3772" ry="83.3772"/>
<text text-anchor="middle" x="-2316" y="-1496.6" font-family="Times,serif" font-size="100.00">46</text>
</g>
<!-- 47 -->
<g id="node48" class="node"><title>47</title>
<ellipse fill="white" stroke="black" stroke-width="15" cx="-444" cy="-945.6" rx="83.3772" ry="83.3772"/>
<text text-anchor="middle" x="-444" y="-920.6" font-family="Times,serif" font-size="100.00">47</text>
</g>
<!-- 48 -->
<g id="node49" class="node"><title>48</title>
<ellipse fill="white" stroke="black" stroke-width="15" cx="-156" cy="2798.4" rx="83.3772" ry="83.3772"/>
<text text-anchor="middle" x="-156" y="2823.4" font-family="Times,serif" font-size="100.00">48</text>
</g>
<!-- 49 -->
<g id="node50" class="node"><title>49</title>
<ellipse fill="white" stroke="black" stroke-width="15" cx="-2460" cy="2222.4" rx="83.3772" ry="83.3772"/>
<text text-anchor="middle" x="-2460" y="2247.4" font-family="Times,serif" font-size="100.00">49</text>
</g>
<!-- 50 -->
<g id="node51" class="node"><title>50</title>
<ellipse fill="white" stroke="black" stroke-width="15" cx="1140" cy="-81.6" rx="83.3772" ry="83.3772"/>
<text text-anchor="middle" x="1140" y="-56.6" font-family="Times,serif" font-size="100.00">50</text>
</g>
<!-- 51 -->
<g id="node52" class="node"><title>51</title>
<ellipse fill="white" stroke="black" stroke-width="15" cx="3444" cy="3662.4" rx="83.3772" ry="83.3772"/>
<text text-anchor="middle" x="3444" y="3687.4" font-family="Times,serif" font-size="100.00">51</text>
</g>
<!-- 52 -->
<g id="node53" class="node"><title>52</title>
<ellipse fill="white" stroke="black" stroke-width="15" cx="564" cy="-2529.6" rx="83.3772" ry="83.3772"/>
<text text-anchor="middle" x="564" y="-2504.6" font-family="Times,serif" font-size="100.00">52</text>
</g>
<!-- 53 -->
<g id="node54" class="node"><title>53</title>
<ellipse fill="white" stroke="black" stroke-width="15" cx="-3180" cy="1790.4" rx="83.3772" ry="83.3772"/>
<text text-anchor="middle" x="-3180" y="1815.4" font-family="Times,serif" font-size="100.00">53</text>
</g>
<!-- 54 -->
<g id="node55" class="node"><title>54</title>
<ellipse fill="white" stroke="black" stroke-width="15" cx="-12" cy="3518.4" rx="83.3772" ry="83.3772"/>
<text text-anchor="middle" x="-12" y="3543.4" font-family="Times,serif" font-size="100.00">54</text>
</g>
<!-- 55 -->
<g id="node56" class="node"><title>55</title>
<ellipse fill="white" stroke="black" stroke-width="15" cx="996" cy="-945.6" rx="83.3772" ry="83.3772"/>
<text text-anchor="middle" x="996" y="-920.6" font-family="Times,serif" font-size="100.00">55</text>
</g>
<!-- 56 -->
<g id="node57" class="node"><title>56</title>
<ellipse fill="white" stroke="black" stroke-width="15" cx="2724" cy="1502.4" rx="83.3772" ry="83.3772"/>
<text text-anchor="middle" x="2724" y="1527.4" font-family="Times,serif" font-size="100.00">56</text>
</g>
<!-- 57 -->
<g id="node58" class="node"><title>57</title>
<ellipse fill="white" stroke="black" stroke-width="15" cx="3012" cy="-1809.6" rx="83.3772" ry="83.3772"/>
<text text-anchor="middle" x="3012" y="-1784.6" font-family="Times,serif" font-size="100.00">57</text>
</g>
<!-- 58 -->
<g id="node59" class="node"><title>58</title>
<ellipse fill="white" stroke="black" stroke-width="15" cx="-156" cy="638.4" rx="83.3772" ry="83.3772"/>
<text text-anchor="middle" x="-156" y="663.4" font-family="Times,serif" font-size="100.00">58</text>
</g>
<!-- 59 -->
<g id="node60" class="node"><title>59</title>
<ellipse fill="white" stroke="black" stroke-width="15" cx="1284" cy="-2673.6" rx="83.3772" ry="83.3772"/>
<text text-anchor="middle" x="1284" y="-2648.6" font-family="Times,serif" font-size="100.00">59</text>
</g>
</g>
</svg>
