<?xml version="1.0" encoding="UTF-8" standalone="no"?>
<!DOCTYPE svg PUBLIC "-//W3C//DTD SVG 1.1//EN"
 "http://www.w3.org/Graphics/SVG/1.1/DTD/svg11.dtd">
<!-- Generated by graphviz version 2.38.0 (20140413.2041)
 -->
<!-- Title: g Pages: 1 -->
<svg width="7735pt" height="7830pt"
 viewBox="216.00 216.00 7518.88 7613.88" xmlns="http://www.w3.org/2000/svg" xmlns:xlink="http://www.w3.org/1999/xlink">
<g id="graph0" class="graph" transform="scale(1 1) rotate(0) translate(4015.44 3718.44)">
<title>g</title>
<polygon fill="white" stroke="none" points="-3799.44,3895.44 -3799.44,-3502.44 3503.44,-3502.44 3503.44,3895.44 -3799.44,3895.44"/>
<text text-anchor="middle" x="-148" y="-3483.24" font-family="Times,serif" font-size="14.00">data04&#45;tabou (cost = 1586)</text>
<!-- 0&#45;&gt;7 -->
<g id="edge11" class="edge"><title>0&#45;&gt;7</title>
<path fill="none" stroke="red" stroke-width="15" d="M1615.3,-1550.46C1251.69,-1342.68 -367.276,-417.556 -750.486,-198.58"/>
<polygon fill="red" stroke="red" stroke-width="15" points="-744.113,-187.105 -759.307,-193.539 -757.136,-209.896 -744.113,-187.105"/>
</g>
<!-- 0&#45;&gt;10 -->
<g id="edge66" class="edge"><title>0&#45;&gt;10</title>
<path fill="none" stroke="orange" stroke-width="15" d="M1732.74,-1521.36C1938.07,-1197.15 2789.43,147.096 3005.81,488.747"/>
<polygon fill="orange" stroke="orange" stroke-width="15" points="3017,481.885 3011.26,497.356 2994.82,495.93 3017,481.885"/>
</g>
<!-- 0&#45;&gt;12 -->
<g id="edge37" class="edge"><title>0&#45;&gt;12</title>
<path fill="none" stroke="blue" stroke-width="15" d="M1652.26,-1516.43C1370.26,-920.197 -492.873,3018.99 -791.618,3650.62"/>
<polygon fill="blue" stroke="blue" stroke-width="15" points="-779.971,3656.69 -796.112,3660.12 -803.701,3645.47 -779.971,3656.69"/>
</g>
<!-- 0&#45;&gt;17 -->
<g id="edge16" class="edge"><title>0&#45;&gt;17</title>
<path fill="none" stroke="black" stroke-width="15" d="M1608.59,-1565.53C1411.86,-1499.95 902.979,-1330.33 696.755,-1261.59"/>
<polygon fill="black" stroke="black" stroke-width="15" points="700.804,-1249.1 687.166,-1258.39 692.502,-1274 700.804,-1249.1"/>
</g>
<!-- 0&#45;&gt;18 -->
<g id="edge21" class="edge"><title>0&#45;&gt;18</title>
<path fill="none" stroke="green" stroke-width="15" d="M1696.54,-1508.72C1738.47,-1099.94 1922.25,691.948 1966.43,1122.66"/>
<polygon fill="green" stroke="green" stroke-width="15" points="1979.51,1121.6 1967.48,1132.88 1953.4,1124.28 1979.51,1121.6"/>
</g>
<!-- 0&#45;&gt;21 -->
<g id="edge30" class="edge"><title>0&#45;&gt;21</title>
<path fill="none" stroke="orange" stroke-width="15" d="M1618.34,-1545.56C1252.88,-1301.92 -440.728,-172.848 -825.909,83.9395"/>
<polygon fill="orange" stroke="orange" stroke-width="15" points="-818.891,95.035 -834.492,89.6614 -833.452,73.1937 -818.891,95.035"/>
</g>
<!-- 0&#45;&gt;40 -->
<g id="edge48" class="edge"><title>0&#45;&gt;40</title>
<path fill="none" stroke="black" stroke-width="15" d="M1649.26,-1518.05C1516.38,-1264.35 1079.5,-430.316 939.547,-163.136"/>
<polygon fill="black" stroke="black" stroke-width="15" points="951.161,-157.021 934.894,-154.253 927.908,-169.202 951.161,-157.021"/>
</g>
<!-- 0&#45;&gt;48 -->
<g id="edge58" class="edge"><title>0&#45;&gt;48</title>
<path fill="none" stroke="green" stroke-width="15" d="M1671.57,-1674.14C1660.51,-1729.44 1645.91,-1802.46 1634.45,-1859.76"/>
<polygon fill="green" stroke="green" stroke-width="15" points="1621.51,-1857.52 1632.42,-1869.9 1647.25,-1862.67 1621.51,-1857.52"/>
</g>
<!-- 0&#45;&gt;50 -->
<g id="edge1" class="edge"><title>0&#45;&gt;50</title>
<path fill="none" stroke="blue" stroke-width="15" d="M1608.01,-1616C1359.17,-1690.65 599.734,-1918.48 337.877,-1997.04"/>
<polygon fill="blue" stroke="blue" stroke-width="15" points="333.832,-1984.55 328.025,-1999.99 341.375,-2009.69 333.832,-1984.55"/>
</g>
<!-- 0&#45;&gt;52 -->
<g id="edge44" class="edge"><title>0&#45;&gt;52</title>
<path fill="none" stroke="red" stroke-width="15" d="M1771.06,-1601.23C1892.09,-1614.68 2116.25,-1639.58 2242.78,-1653.64"/>
<polygon fill="red" stroke="red" stroke-width="15" points="2241.45,-1666.7 2252.84,-1654.76 2244.35,-1640.61 2241.45,-1666.7"/>
</g>
<!-- 1&#45;&gt;41 -->
<g id="edge50" class="edge"><title>1&#45;&gt;41</title>
<path fill="none" stroke="black" stroke-width="15" d="M470.807,2852.15C408.433,2902.05 314.493,2977.21 249.492,3029.21"/>
<polygon fill="black" stroke="black" stroke-width="15" points="257.323,3039.75 241.316,3035.75 240.925,3019.25 257.323,3039.75"/>
</g>
<!-- 2&#45;&gt;9 -->
<g id="edge52" class="edge"><title>2&#45;&gt;9</title>
<path fill="none" stroke="black" stroke-width="15" d="M-472,3531.69C-472,3566.15 -472,3606.24 -472,3641.74"/>
<polygon fill="black" stroke="black" stroke-width="15" points="-458.875,3642.1 -472,3652.1 -485.125,3642.1 -458.875,3642.1"/>
</g>
<!-- 3&#45;&gt;39 -->
<g id="edge24" class="edge"><title>3&#45;&gt;39</title>
<path fill="none" stroke="green" stroke-width="15" d="M2684.22,2800C2474.75,2800 1929.32,2800 1709.67,2800"/>
<polygon fill="green" stroke="green" stroke-width="15" points="1709.46,2813.12 1699.46,2800 1709.46,2786.87 1709.46,2813.12"/>
</g>
<!-- 4&#45;&gt;0 -->
<g id="edge57" class="edge"><title>4&#45;&gt;0</title>
<path fill="none" stroke="black" stroke-width="15" d="M1280,-2952.01C1354.65,-2703.17 1582.48,-1943.73 1661.04,-1681.88"/>
<polygon fill="black" stroke="black" stroke-width="15" points="1673.69,-1685.37 1663.99,-1672.03 1648.55,-1677.83 1673.69,-1685.37"/>
</g>
<!-- 5&#45;&gt;3 -->
<g id="edge23" class="edge"><title>5&#45;&gt;3</title>
<path fill="none" stroke="green" stroke-width="15" d="M2431.62,1656.31C2495.97,1875.08 2674.04,2480.53 2741.57,2710.13"/>
<polygon fill="green" stroke="green" stroke-width="15" points="2754.18,2706.5 2744.41,2719.79 2729,2713.9 2754.18,2706.5"/>
</g>
<!-- 6&#45;&gt;27 -->
<g id="edge39" class="edge"><title>6&#45;&gt;27</title>
<path fill="none" stroke="blue" stroke-width="15" d="M-2351.57,3724.74C-2365.1,3575.9 -2393.34,3265.22 -2407.51,3109.37"/>
<polygon fill="blue" stroke="blue" stroke-width="15" points="-2420.59,3110.48 -2408.42,3099.33 -2394.45,3108.1 -2420.59,3110.48"/>
</g>
<!-- 7&#45;&gt;23 -->
<g id="edge12" class="edge"><title>7&#45;&gt;23</title>
<path fill="none" stroke="red" stroke-width="15" d="M-899.972,-103.449C-993.57,-36.593 -1161.64,83.4589 -1259.52,153.374"/>
<polygon fill="red" stroke="red" stroke-width="15" points="-1252.13,164.225 -1267.9,159.357 -1267.39,142.864 -1252.13,164.225"/>
</g>
<!-- 8&#45;&gt;29 -->
<g id="edge42" class="edge"><title>8&#45;&gt;29</title>
<path fill="none" stroke="blue" stroke-width="15" d="M-2212.18,2669.67C-1840.61,2307.4 148.636,367.88 540.827,-14.5066"/>
<polygon fill="blue" stroke="blue" stroke-width="15" points="531.824,-24.0599 548.147,-21.6434 550.15,-5.26484 531.824,-24.0599"/>
</g>
<!-- 9&#45;&gt;42 -->
<g id="edge53" class="edge"><title>9&#45;&gt;42</title>
<path fill="none" stroke="black" stroke-width="15" d="M-388.542,3728.27C119.054,3681.27 2787.66,3434.18 3322.59,3384.65"/>
<polygon fill="black" stroke="black" stroke-width="15" points="3321.41,3371.58 3332.58,3383.72 3323.83,3397.72 3321.41,3371.58"/>
</g>
<!-- 10&#45;&gt;59 -->
<g id="edge67" class="edge"><title>10&#45;&gt;59</title>
<path fill="none" stroke="orange" stroke-width="15" d="M2984.05,568C2984.04,568 2984.04,568 2984.03,568"/>
<polygon fill="orange" stroke="orange" stroke-width="15" points="2994.09,581.064 2984.01,568 2993.93,554.814 2994.09,581.064"/>
</g>
<!-- 11&#45;&gt;34 -->
<g id="edge4" class="edge"><title>11&#45;&gt;34</title>
<path fill="none" stroke="blue" stroke-width="15" d="M-2669.48,-2674.95C-2669.51,-2675.02 -2669.54,-2675.09 -2669.58,-2675.16"/>
<polygon fill="blue" stroke="blue" stroke-width="15" points="-2676.95,-2660.54 -2669.68,-2675.36 -2653.47,-2672.29 -2676.95,-2660.54"/>
</g>
<!-- 12&#45;&gt;6 -->
<g id="edge38" class="edge"><title>12&#45;&gt;6</title>
<path fill="none" stroke="blue" stroke-width="15" d="M-915.445,3739.97C-1176.29,3752.39 -1975.23,3790.44 -2250.01,3803.52"/>
<polygon fill="blue" stroke="blue" stroke-width="15" points="-2249.74,3816.65 -2260.35,3804.02 -2250.98,3790.43 -2249.74,3816.65"/>
</g>
<!-- 13&#45;&gt;20 -->
<g id="edge71" class="edge"><title>13&#45;&gt;20</title>
<path fill="none" stroke="orange" stroke-width="15" d="M576.597,-2886.93C644.207,-2765.23 779.427,-2521.83 850.287,-2394.28"/>
<polygon fill="orange" stroke="orange" stroke-width="15" points="861.893,-2400.42 855.276,-2385.3 838.946,-2387.67 861.893,-2400.42"/>
</g>
<!-- 14&#45;&gt;53 -->
<g id="edge27" class="edge"><title>14&#45;&gt;53</title>
<path fill="none" stroke="green" stroke-width="15" d="M216.597,1934.93C284.207,1813.23 419.427,1569.83 490.287,1442.28"/>
<polygon fill="green" stroke="green" stroke-width="15" points="478.946,1435.67 495.276,1433.3 501.893,1448.42 478.946,1435.67"/>
</g>
<!-- 15&#45;&gt;25 -->
<g id="edge46" class="edge"><title>15&#45;&gt;25</title>
<path fill="none" stroke="red" stroke-width="15" d="M1309.84,774.259C1282.89,653.014 1232.5,426.239 1204.35,299.564"/>
<polygon fill="red" stroke="red" stroke-width="15" points="1191.47,302.106 1202.11,289.497 1217.09,296.411 1191.47,302.106"/>
</g>
<!-- 16&#45;&gt;56 -->
<g id="edge35" class="edge"><title>16&#45;&gt;56</title>
<path fill="none" stroke="orange" stroke-width="15" d="M-913.909,1231.82C-671.495,1012.5 210.366,214.621 466.065,-16.7255"/>
<polygon fill="orange" stroke="orange" stroke-width="15" points="457.588,-26.7557 473.809,-23.7322 475.2,-7.29032 457.588,-26.7557"/>
</g>
<!-- 17&#45;&gt;55 -->
<g id="edge17" class="edge"><title>17&#45;&gt;55</title>
<path fill="none" stroke="black" stroke-width="15" d="M527.103,-1209.94C19.208,-1071.42 -2725.32,-322.914 -3261.23,-176.755"/>
<polygon fill="black" stroke="black" stroke-width="15" points="-3258.13,-163.996 -3271.23,-174.028 -3265.04,-189.322 -3258.13,-163.996"/>
</g>
<!-- 18&#45;&gt;5 -->
<g id="edge22" class="edge"><title>18&#45;&gt;5</title>
<path fill="none" stroke="green" stroke-width="15" d="M2040.21,1269.51C2119.33,1335.44 2253.41,1447.17 2335.97,1515.97"/>
<polygon fill="green" stroke="green" stroke-width="15" points="2344.51,1506.01 2343.79,1522.49 2327.71,1526.17 2344.51,1506.01"/>
</g>
<!-- 19&#45;&gt;30 -->
<g id="edge55" class="edge"><title>19&#45;&gt;30</title>
<path fill="none" stroke="black" stroke-width="15" d="M3386.55,1857.47C3179.12,1304.31 1939.66,-2000.91 1720.96,-2584.12"/>
<polygon fill="black" stroke="black" stroke-width="15" points="1708.57,-2579.76 1717.35,-2593.73 1733.15,-2588.98 1708.57,-2579.76"/>
</g>
<!-- 20&#45;&gt;0 -->
<g id="edge72" class="edge"><title>20&#45;&gt;0</title>
<path fill="none" stroke="orange" stroke-width="15" d="M957.817,-2255.8C1103.17,-2123.66 1465.85,-1793.96 1618.52,-1655.16"/>
<polygon fill="orange" stroke="orange" stroke-width="15" points="1627.5,-1664.74 1626.07,-1648.3 1609.85,-1645.31 1627.5,-1664.74"/>
</g>
<!-- 21&#45;&gt;61 -->
<g id="edge31" class="edge"><title>21&#45;&gt;61</title>
<path fill="none" stroke="orange" stroke-width="15" d="M-904,219.765C-904,219.827 -904,219.889 -904,219.951"/>
<polygon fill="orange" stroke="orange" stroke-width="15" points="-890.87,210.144 -904,220.136 -917.12,210.129 -890.87,210.144"/>
</g>
<!-- 22&#45;&gt;58 -->
<g id="edge63" class="edge"><title>22&#45;&gt;58</title>
<path fill="none" stroke="green" stroke-width="15" d="M-2344.05,-1304C-2344.04,-1304 -2344.04,-1304 -2344.03,-1304"/>
<polygon fill="green" stroke="green" stroke-width="15" points="-2353.93,-1317.19 -2344.01,-1304 -2354.09,-1290.94 -2353.93,-1317.19"/>
</g>
<!-- 23&#45;&gt;46 -->
<g id="edge13" class="edge"><title>23&#45;&gt;46</title>
<path fill="none" stroke="red" stroke-width="15" d="M-1388.15,273.193C-1438.05,335.567 -1513.21,429.507 -1565.21,494.508"/>
<polygon fill="red" stroke="red" stroke-width="15" points="-1555.25,503.075 -1571.75,502.684 -1575.75,486.677 -1555.25,503.075"/>
</g>
<!-- 24&#45;&gt;0 -->
<g id="edge15" class="edge"><title>24&#45;&gt;0</title>
<path fill="none" stroke="red" stroke-width="15" d="M-1113.1,-611.616C-704.55,-754.608 1168.14,-1410.05 1599.3,-1560.95"/>
<polygon fill="red" stroke="red" stroke-width="15" points="1595.13,-1573.4 1608.91,-1564.32 1603.81,-1548.63 1595.13,-1573.4"/>
</g>
<!-- 25&#45;&gt;0 -->
<g id="edge47" class="edge"><title>25&#45;&gt;0</title>
<path fill="none" stroke="red" stroke-width="15" d="M1206.55,127.455C1289.27,-167.962 1575.69,-1190.91 1662.72,-1501.73"/>
<polygon fill="red" stroke="red" stroke-width="15" points="1650.15,-1505.51 1665.49,-1511.6 1675.43,-1498.43 1650.15,-1505.51"/>
</g>
<!-- 26&#45;&gt;38 -->
<g id="edge7" class="edge"><title>26&#45;&gt;38</title>
<path fill="none" stroke="blue" stroke-width="15" d="M686.193,-2990.07C859.5,-3056.73 1274.89,-3216.5 1456.51,-3286.35"/>
<polygon fill="blue" stroke="blue" stroke-width="15" points="1451.99,-3298.67 1466.03,-3290.01 1461.41,-3274.17 1451.99,-3298.67"/>
</g>
<!-- 27&#45;&gt;35 -->
<g id="edge40" class="edge"><title>27&#45;&gt;35</title>
<path fill="none" stroke="blue" stroke-width="15" d="M-2332.23,3016C-2332.17,3016 -2332.11,3016 -2332.05,3016"/>
<polygon fill="blue" stroke="blue" stroke-width="15" points="-2341.86,3002.87 -2331.86,3016 -2341.87,3029.12 -2341.86,3002.87"/>
</g>
<!-- 28&#45;&gt;57 -->
<g id="edge69" class="edge"><title>28&#45;&gt;57</title>
<path fill="none" stroke="orange" stroke-width="15" d="M-188.3,-2778.68C-336.588,-2846.09 -662.742,-2994.34 -818.254,-3065.02"/>
<polygon fill="orange" stroke="orange" stroke-width="15" points="-824.122,-3053.27 -827.794,-3069.36 -813.259,-3077.17 -824.122,-3053.27"/>
</g>
<!-- 29&#45;&gt;0 -->
<g id="edge43" class="edge"><title>29&#45;&gt;0</title>
<path fill="none" stroke="blue" stroke-width="15" d="M656.503,-147.905C833.841,-396.177 1446.42,-1253.78 1633.38,-1515.54"/>
<polygon fill="blue" stroke="blue" stroke-width="15" points="1622.83,-1523.34 1639.32,-1523.85 1644.19,-1508.09 1622.83,-1523.34"/>
</g>
<!-- 30&#45;&gt;4 -->
<g id="edge56" class="edge"><title>30&#45;&gt;4</title>
<path fill="none" stroke="black" stroke-width="15" d="M1623.79,-2725.51C1544.67,-2791.44 1410.59,-2903.17 1328.03,-2971.97"/>
<polygon fill="black" stroke="black" stroke-width="15" points="1319.49,-2962.01 1320.21,-2978.49 1336.29,-2982.17 1319.49,-2962.01"/>
</g>
<!-- 31&#45;&gt;0 -->
<g id="edge65" class="edge"><title>31&#45;&gt;0</title>
<path fill="none" stroke="green" stroke-width="15" d="M-748.514,-1592C-368.765,-1592 1194.22,-1592 1594.35,-1592"/>
<polygon fill="green" stroke="green" stroke-width="15" points="1594.44,-1605.13 1604.44,-1592 1594.44,-1578.88 1594.44,-1605.13"/>
</g>
<!-- 32&#45;&gt;26 -->
<g id="edge6" class="edge"><title>32&#45;&gt;26</title>
<path fill="none" stroke="blue" stroke-width="15" d="M-1182.66,-3373.23C-877.901,-3302.9 195.241,-3055.25 516.481,-2981.12"/>
<polygon fill="blue" stroke="blue" stroke-width="15" points="519.885,-2993.8 526.677,-2978.77 513.982,-2968.23 519.885,-2993.8"/>
</g>
<!-- 33&#45;&gt;60 -->
<g id="edge19" class="edge"><title>33&#45;&gt;60</title>
<path fill="none" stroke="black" stroke-width="15" d="M-3628.32,925.211C-3287.42,913.847 -2004.49,871.083 -1645.73,859.124"/>
<polygon fill="black" stroke="black" stroke-width="15" points="-1646.07,846.004 -1635.64,858.788 -1645.2,872.239 -1646.07,846.004"/>
</g>
<!-- 34&#45;&gt;32 -->
<g id="edge5" class="edge"><title>34&#45;&gt;32</title>
<path fill="none" stroke="blue" stroke-width="15" d="M-2627.85,-2778.27C-2381.74,-2889.01 -1608.75,-3236.86 -1349.63,-3353.47"/>
<polygon fill="blue" stroke="blue" stroke-width="15" points="-1354.77,-3365.55 -1340.26,-3357.68 -1343.99,-3341.61 -1354.77,-3365.55"/>
</g>
<!-- 35&#45;&gt;8 -->
<g id="edge41" class="edge"><title>35&#45;&gt;8</title>
<path fill="none" stroke="blue" stroke-width="15" d="M-2272,2932.31C-2272,2897.85 -2272,2857.76 -2272,2822.26"/>
<polygon fill="blue" stroke="blue" stroke-width="15" points="-2285.12,2821.9 -2272,2811.9 -2258.87,2821.9 -2285.12,2821.9"/>
</g>
<!-- 36&#45;&gt;0 -->
<g id="edge10" class="edge"><title>36&#45;&gt;0</title>
<path fill="none" stroke="blue" stroke-width="15" d="M1866.62,-1949.24C1828.55,-1873.09 1769.61,-1755.23 1729.96,-1675.92"/>
<polygon fill="blue" stroke="blue" stroke-width="15" points="1741.67,-1670 1725.46,-1666.93 1718.2,-1681.74 1741.67,-1670"/>
</g>
<!-- 37&#45;&gt;16 -->
<g id="edge34" class="edge"><title>37&#45;&gt;16</title>
<path fill="none" stroke="orange" stroke-width="15" d="M-1253.86,1232.43C-1198.56,1243.49 -1125.54,1258.09 -1068.24,1269.55"/>
<polygon fill="orange" stroke="orange" stroke-width="15" points="-1065.33,1256.75 -1058.1,1271.58 -1070.48,1282.49 -1065.33,1256.75"/>
</g>
<!-- 38&#45;&gt;43 -->
<g id="edge8" class="edge"><title>38&#45;&gt;43</title>
<path fill="none" stroke="blue" stroke-width="15" d="M1623.67,-3294.51C1918.22,-3200.25 2944.62,-2871.8 3254.65,-2772.59"/>
<polygon fill="blue" stroke="blue" stroke-width="15" points="3258.97,-2784.99 3264.49,-2769.44 3250.97,-2759.99 3258.97,-2784.99"/>
</g>
<!-- 39&#45;&gt;45 -->
<g id="edge25" class="edge"><title>39&#45;&gt;45</title>
<path fill="none" stroke="green" stroke-width="15" d="M1616,2716.23C1616,2716.17 1616,2716.11 1616,2716.05"/>
<polygon fill="green" stroke="green" stroke-width="15" points="1602.88,2725.87 1616,2715.86 1629.13,2725.86 1602.88,2725.87"/>
</g>
<!-- 40&#45;&gt;1 -->
<g id="edge49" class="edge"><title>40&#45;&gt;1</title>
<path fill="none" stroke="black" stroke-width="15" d="M885.614,3.08685C833.67,418.644 602.389,2268.89 547.645,2706.84"/>
<polygon fill="black" stroke="black" stroke-width="15" points="560.649,2708.63 546.385,2716.92 534.602,2705.37 560.649,2708.63"/>
</g>
<!-- 41&#45;&gt;2 -->
<g id="edge51" class="edge"><title>41&#45;&gt;2</title>
<path fill="none" stroke="black" stroke-width="15" d="M102.926,3128.6C-18.7724,3196.21 -262.168,3331.43 -389.716,3402.29"/>
<polygon fill="black" stroke="black" stroke-width="15" points="-383.581,3413.89 -398.696,3407.28 -396.329,3390.95 -383.581,3413.89"/>
</g>
<!-- 42&#45;&gt;19 -->
<g id="edge54" class="edge"><title>42&#45;&gt;19</title>
<path fill="none" stroke="black" stroke-width="15" d="M3416,3292.36C3416,3041.2 3416,2294.73 3416,2030.22"/>
<polygon fill="black" stroke="black" stroke-width="15" points="3402.87,2029.88 3416,2019.88 3429.12,2029.88 3402.87,2029.88"/>
</g>
<!-- 43&#45;&gt;36 -->
<g id="edge9" class="edge"><title>43&#45;&gt;36</title>
<path fill="none" stroke="blue" stroke-width="15" d="M3269.36,-2706.68C3024.32,-2584.16 2245.45,-2194.72 1987.71,-2065.86"/>
<polygon fill="blue" stroke="blue" stroke-width="15" points="1993.58,-2054.12 1978.77,-2061.38 1981.84,-2077.6 1993.58,-2054.12"/>
</g>
<!-- 44&#45;&gt;51 -->
<g id="edge61" class="edge"><title>44&#45;&gt;51</title>
<path fill="none" stroke="green" stroke-width="15" d="M-1984,-2300.35C-1984,-2165.14 -1984,-1899.47 -1984,-1757.95"/>
<polygon fill="green" stroke="green" stroke-width="15" points="-1970.87,-1757.56 -1984,-1747.56 -1997.12,-1757.56 -1970.87,-1757.56"/>
</g>
<!-- 45&#45;&gt;14 -->
<g id="edge26" class="edge"><title>45&#45;&gt;14</title>
<path fill="none" stroke="green" stroke-width="15" d="M1539.85,2621.73C1293.74,2510.99 520.752,2163.14 261.63,2046.53"/>
<polygon fill="green" stroke="green" stroke-width="15" points="255.994,2058.39 252.261,2042.32 266.766,2034.45 255.994,2058.39"/>
</g>
<!-- 46&#45;&gt;24 -->
<g id="edge14" class="edge"><title>46&#45;&gt;24</title>
<path fill="none" stroke="red" stroke-width="15" d="M-1594.65,489.724C-1516.99,282.64 -1306.54,-278.565 -1224.95,-496.143"/>
<polygon fill="red" stroke="red" stroke-width="15" points="-1237.19,-500.862 -1221.39,-505.616 -1212.62,-491.644 -1237.19,-500.862"/>
</g>
<!-- 47&#45;&gt;11 -->
<g id="edge3" class="edge"><title>47&#45;&gt;11</title>
<path fill="none" stroke="blue" stroke-width="15" d="M-2337.19,-2364.15C-2399.57,-2414.05 -2493.51,-2489.21 -2558.51,-2541.21"/>
<polygon fill="blue" stroke="blue" stroke-width="15" points="-2567.08,-2531.25 -2566.68,-2547.75 -2550.68,-2551.75 -2567.08,-2531.25"/>
</g>
<!-- 48&#45;&gt;62 -->
<g id="edge59" class="edge"><title>48&#45;&gt;62</title>
<path fill="none" stroke="green" stroke-width="15" d="M1532.48,-1952C1291.46,-1952 595.734,-1952 342.018,-1952"/>
<polygon fill="green" stroke="green" stroke-width="15" points="341.725,-1938.88 331.724,-1952 341.724,-1965.13 341.725,-1938.88"/>
</g>
<!-- 49&#45;&gt;0 -->
<g id="edge29" class="edge"><title>49&#45;&gt;0</title>
<path fill="none" stroke="green" stroke-width="15" d="M1338.39,1204.91C1390.33,789.356 1621.61,-1060.89 1676.36,-1498.84"/>
<polygon fill="green" stroke="green" stroke-width="15" points="1663.35,-1500.63 1677.62,-1508.92 1689.4,-1497.37 1663.35,-1500.63"/>
</g>
<!-- 50&#45;&gt;47 -->
<g id="edge2" class="edge"><title>50&#45;&gt;47</title>
<path fill="none" stroke="blue" stroke-width="15" d="M164.873,-2033.5C-214.446,-2076.85 -1779.71,-2255.74 -2178.97,-2301.37"/>
<polygon fill="blue" stroke="blue" stroke-width="15" points="-2180.59,-2288.34 -2189.03,-2302.52 -2177.61,-2314.42 -2180.59,-2288.34"/>
</g>
<!-- 51&#45;&gt;22 -->
<g id="edge62" class="edge"><title>51&#45;&gt;22</title>
<path fill="none" stroke="green" stroke-width="15" d="M-2048.21,-1610.49C-2127.33,-1544.56 -2261.41,-1432.83 -2343.97,-1364.03"/>
<polygon fill="green" stroke="green" stroke-width="15" points="-2335.71,-1353.83 -2351.79,-1357.51 -2352.51,-1373.99 -2335.71,-1353.83"/>
</g>
<!-- 52&#45;&gt;15 -->
<g id="edge45" class="edge"><title>52&#45;&gt;15</title>
<path fill="none" stroke="red" stroke-width="15" d="M2305.01,-1586.51C2156.58,-1215.46 1519.23,377.918 1362.78,769.047"/>
<polygon fill="red" stroke="red" stroke-width="15" points="1374.96,773.928 1359.06,778.338 1350.59,764.179 1374.96,773.928"/>
</g>
<!-- 53&#45;&gt;49 -->
<g id="edge28" class="edge"><title>53&#45;&gt;49</title>
<path fill="none" stroke="green" stroke-width="15" d="M619.261,1352.43C768.103,1338.9 1078.78,1310.66 1234.63,1296.49"/>
<polygon fill="green" stroke="green" stroke-width="15" points="1233.52,1283.41 1244.67,1295.58 1235.9,1309.55 1233.52,1283.41"/>
</g>
<!-- 54&#45;&gt;37 -->
<g id="edge33" class="edge"><title>54&#45;&gt;37</title>
<path fill="none" stroke="orange" stroke-width="15" d="M-887.137,703.014C-981.893,811.306 -1174.98,1031.98 -1274.17,1145.33"/>
<polygon fill="orange" stroke="orange" stroke-width="15" points="-1264.39,1154.09 -1280.85,1152.97 -1284.14,1136.8 -1264.39,1154.09"/>
</g>
<!-- 55&#45;&gt;33 -->
<g id="edge18" class="edge"><title>55&#45;&gt;33</title>
<path fill="none" stroke="black" stroke-width="15" d="M-3378.47,-72.585C-3444.05,124.139 -3613.67,633.021 -3682.42,839.245"/>
<polygon fill="black" stroke="black" stroke-width="15" points="-3670,843.498 -3685.61,848.834 -3694.9,835.196 -3670,843.498"/>
</g>
<!-- 56&#45;&gt;0 -->
<g id="edge36" class="edge"><title>56&#45;&gt;0</title>
<path fill="none" stroke="orange" stroke-width="15" d="M586.613,-146.43C774.665,-393.248 1432.51,-1256.67 1630.92,-1517.09"/>
<polygon fill="orange" stroke="orange" stroke-width="15" points="1620.72,-1525.36 1637.22,-1525.35 1641.6,-1509.45 1620.72,-1525.36"/>
</g>
<!-- 57&#45;&gt;13 -->
<g id="edge70" class="edge"><title>57&#45;&gt;13</title>
<path fill="none" stroke="orange" stroke-width="15" d="M-820.882,-3095.69C-569.984,-3070.6 178.661,-2995.73 442.617,-2969.34"/>
<polygon fill="orange" stroke="orange" stroke-width="15" points="444.29,-2982.36 452.934,-2968.31 441.677,-2956.24 444.29,-2982.36"/>
</g>
<!-- 58&#45;&gt;31 -->
<g id="edge64" class="edge"><title>58&#45;&gt;31</title>
<path fill="none" stroke="green" stroke-width="15" d="M-2261.9,-1319.64C-2001.82,-1369.18 -1197.19,-1522.44 -923.908,-1574.49"/>
<polygon fill="green" stroke="green" stroke-width="15" points="-926.302,-1587.4 -914.023,-1576.38 -921.39,-1561.61 -926.302,-1587.4"/>
</g>
<!-- 59&#45;&gt;28 -->
<g id="edge68" class="edge"><title>59&#45;&gt;28</title>
<path fill="none" stroke="orange" stroke-width="15" d="M2926.95,506.97C2544.45,97.779 355.778,-2243.59 -47.9722,-2675.51"/>
<polygon fill="orange" stroke="orange" stroke-width="15" points="-57.6838,-2666.67 -54.9245,-2682.94 -38.5074,-2684.6 -57.6838,-2666.67"/>
</g>
<!-- 60&#45;&gt;0 -->
<g id="edge20" class="edge"><title>60&#45;&gt;0</title>
<path fill="none" stroke="black" stroke-width="15" d="M-1485.07,805.432C-1067.8,490.163 1173.37,-1203.16 1613.1,-1535.41"/>
<polygon fill="black" stroke="black" stroke-width="15" points="1605.42,-1546.06 1621.31,-1541.61 1621.24,-1525.11 1605.42,-1546.06"/>
</g>
<!-- 61&#45;&gt;54 -->
<g id="edge32" class="edge"><title>61&#45;&gt;54</title>
<path fill="none" stroke="orange" stroke-width="15" d="M-887.572,362.14C-876.511,417.444 -861.909,490.456 -850.448,547.757"/>
<polygon fill="orange" stroke="orange" stroke-width="15" points="-837.511,545.522 -848.42,557.902 -863.251,550.67 -837.511,545.522"/>
</g>
<!-- 62&#45;&gt;44 -->
<g id="edge60" class="edge"><title>62&#45;&gt;44</title>
<path fill="none" stroke="green" stroke-width="15" d="M165.915,-1967.89C-181.118,-2035.06 -1526.75,-2295.5 -1892.05,-2366.2"/>
<polygon fill="green" stroke="green" stroke-width="15" points="-1894.73,-2353.35 -1902.05,-2368.14 -1889.74,-2379.13 -1894.73,-2353.35"/>
</g>
<!-- 0 -->
<g id="node1" class="node"><title>0</title>
<ellipse fill="white" stroke="black" stroke-width="15" cx="1688" cy="-1592" rx="83.3772" ry="83.3772"/>
<text text-anchor="middle" x="1688" y="-1567" font-family="Times,serif" font-size="100.00">0</text>
</g>
<!-- 1 -->
<g id="node2" class="node"><title>1</title>
<ellipse fill="white" stroke="black" stroke-width="15" cx="536" cy="2800" rx="83.3772" ry="83.3772"/>
<text text-anchor="middle" x="536" y="2825" font-family="Times,serif" font-size="100.00">1</text>
</g>
<!-- 2 -->
<g id="node3" class="node"><title>2</title>
<ellipse fill="white" stroke="black" stroke-width="15" cx="-472" cy="3448" rx="83.3772" ry="83.3772"/>
<text text-anchor="middle" x="-472" y="3473" font-family="Times,serif" font-size="100.00">2</text>
</g>
<!-- 3 -->
<g id="node4" class="node"><title>3</title>
<ellipse fill="white" stroke="black" stroke-width="15" cx="2768" cy="2800" rx="83.3772" ry="83.3772"/>
<text text-anchor="middle" x="2768" y="2825" font-family="Times,serif" font-size="100.00">3</text>
</g>
<!-- 4 -->
<g id="node5" class="node"><title>4</title>
<ellipse fill="white" stroke="black" stroke-width="15" cx="1256" cy="-3032" rx="83.3772" ry="83.3772"/>
<text text-anchor="middle" x="1256" y="-3007" font-family="Times,serif" font-size="100.00">4</text>
</g>
<!-- 5 -->
<g id="node6" class="node"><title>5</title>
<ellipse fill="white" stroke="black" stroke-width="15" cx="2408" cy="1576" rx="83.3772" ry="83.3772"/>
<text text-anchor="middle" x="2408" y="1601" font-family="Times,serif" font-size="100.00">5</text>
</g>
<!-- 6 -->
<g id="node7" class="node"><title>6</title>
<ellipse fill="white" stroke="black" stroke-width="15" cx="-2344" cy="3808" rx="83.3772" ry="83.3772"/>
<text text-anchor="middle" x="-2344" y="3833" font-family="Times,serif" font-size="100.00">6</text>
</g>
<!-- 7 -->
<g id="node8" class="node"><title>7</title>
<ellipse fill="white" stroke="black" stroke-width="15" cx="-832" cy="-152" rx="83.3772" ry="83.3772"/>
<text text-anchor="middle" x="-832" y="-127" font-family="Times,serif" font-size="100.00">7</text>
</g>
<!-- 8 -->
<g id="node9" class="node"><title>8</title>
<ellipse fill="white" stroke="black" stroke-width="15" cx="-2272" cy="2728" rx="83.3772" ry="83.3772"/>
<text text-anchor="middle" x="-2272" y="2753" font-family="Times,serif" font-size="100.00">8</text>
</g>
<!-- 9 -->
<g id="node10" class="node"><title>9</title>
<ellipse fill="white" stroke="black" stroke-width="15" cx="-472" cy="3736" rx="83.3772" ry="83.3772"/>
<text text-anchor="middle" x="-472" y="3761" font-family="Times,serif" font-size="100.00">9</text>
</g>
<!-- 10 -->
<g id="node11" class="node"><title>10</title>
<ellipse fill="white" stroke="black" stroke-width="15" cx="3056" cy="568" rx="83.3772" ry="83.3772"/>
<text text-anchor="middle" x="3056" y="593" font-family="Times,serif" font-size="100.00">10</text>
</g>
<!-- 11 -->
<g id="node12" class="node"><title>11</title>
<ellipse fill="white" stroke="black" stroke-width="15" cx="-2632" cy="-2600" rx="83.3772" ry="83.3772"/>
<text text-anchor="middle" x="-2632" y="-2575" font-family="Times,serif" font-size="100.00">11</text>
</g>
<!-- 12 -->
<g id="node13" class="node"><title>12</title>
<ellipse fill="white" stroke="black" stroke-width="15" cx="-832" cy="3736" rx="83.3772" ry="83.3772"/>
<text text-anchor="middle" x="-832" y="3761" font-family="Times,serif" font-size="100.00">12</text>
</g>
<!-- 13 -->
<g id="node14" class="node"><title>13</title>
<ellipse fill="white" stroke="black" stroke-width="15" cx="536" cy="-2960" rx="83.3772" ry="83.3772"/>
<text text-anchor="middle" x="536" y="-2935" font-family="Times,serif" font-size="100.00">13</text>
</g>
<!-- 14 -->
<g id="node15" class="node"><title>14</title>
<ellipse fill="white" stroke="black" stroke-width="15" cx="176" cy="2008" rx="83.3772" ry="83.3772"/>
<text text-anchor="middle" x="176" y="2033" font-family="Times,serif" font-size="100.00">14</text>
</g>
<!-- 15 -->
<g id="node16" class="node"><title>15</title>
<ellipse fill="white" stroke="black" stroke-width="15" cx="1328" cy="856" rx="83.3772" ry="83.3772"/>
<text text-anchor="middle" x="1328" y="881" font-family="Times,serif" font-size="100.00">15</text>
</g>
<!-- 16 -->
<g id="node17" class="node"><title>16</title>
<ellipse fill="white" stroke="black" stroke-width="15" cx="-976" cy="1288" rx="83.3772" ry="83.3772"/>
<text text-anchor="middle" x="-976" y="1313" font-family="Times,serif" font-size="100.00">16</text>
</g>
<!-- 17 -->
<g id="node18" class="node"><title>17</title>
<ellipse fill="white" stroke="black" stroke-width="15" cx="608" cy="-1232" rx="83.3772" ry="83.3772"/>
<text text-anchor="middle" x="608" y="-1207" font-family="Times,serif" font-size="100.00">17</text>
</g>
<!-- 18 -->
<g id="node19" class="node"><title>18</title>
<ellipse fill="white" stroke="black" stroke-width="15" cx="1976" cy="1216" rx="83.3772" ry="83.3772"/>
<text text-anchor="middle" x="1976" y="1241" font-family="Times,serif" font-size="100.00">18</text>
</g>
<!-- 19 -->
<g id="node20" class="node"><title>19</title>
<ellipse fill="white" stroke="black" stroke-width="15" cx="3416" cy="1936" rx="83.3772" ry="83.3772"/>
<text text-anchor="middle" x="3416" y="1961" font-family="Times,serif" font-size="100.00">19</text>
</g>
<!-- 20 -->
<g id="node21" class="node"><title>20</title>
<ellipse fill="white" stroke="black" stroke-width="15" cx="896" cy="-2312" rx="83.3772" ry="83.3772"/>
<text text-anchor="middle" x="896" y="-2287" font-family="Times,serif" font-size="100.00">20</text>
</g>
<!-- 21 -->
<g id="node22" class="node"><title>21</title>
<ellipse fill="white" stroke="black" stroke-width="15" cx="-904" cy="136" rx="83.3772" ry="83.3772"/>
<text text-anchor="middle" x="-904" y="161" font-family="Times,serif" font-size="100.00">21</text>
</g>
<!-- 22 -->
<g id="node23" class="node"><title>22</title>
<ellipse fill="white" stroke="black" stroke-width="15" cx="-2416" cy="-1304" rx="83.3772" ry="83.3772"/>
<text text-anchor="middle" x="-2416" y="-1279" font-family="Times,serif" font-size="100.00">22</text>
</g>
<!-- 23 -->
<g id="node24" class="node"><title>23</title>
<ellipse fill="white" stroke="black" stroke-width="15" cx="-1336" cy="208" rx="83.3772" ry="83.3772"/>
<text text-anchor="middle" x="-1336" y="233" font-family="Times,serif" font-size="100.00">23</text>
</g>
<!-- 24 -->
<g id="node25" class="node"><title>24</title>
<ellipse fill="white" stroke="black" stroke-width="15" cx="-1192" cy="-584" rx="83.3772" ry="83.3772"/>
<text text-anchor="middle" x="-1192" y="-559" font-family="Times,serif" font-size="100.00">24</text>
</g>
<!-- 25 -->
<g id="node26" class="node"><title>25</title>
<ellipse fill="white" stroke="black" stroke-width="15" cx="1184" cy="208" rx="83.3772" ry="83.3772"/>
<text text-anchor="middle" x="1184" y="233" font-family="Times,serif" font-size="100.00">25</text>
</g>
<!-- 26 -->
<g id="node27" class="node"><title>26</title>
<ellipse fill="white" stroke="black" stroke-width="15" cx="608" cy="-2960" rx="83.3772" ry="83.3772"/>
<text text-anchor="middle" x="608" y="-2935" font-family="Times,serif" font-size="100.00">26</text>
</g>
<!-- 27 -->
<g id="node28" class="node"><title>27</title>
<ellipse fill="white" stroke="black" stroke-width="15" cx="-2416" cy="3016" rx="83.3772" ry="83.3772"/>
<text text-anchor="middle" x="-2416" y="3041" font-family="Times,serif" font-size="100.00">27</text>
</g>
<!-- 28 -->
<g id="node29" class="node"><title>28</title>
<ellipse fill="white" stroke="black" stroke-width="15" cx="-112" cy="-2744" rx="83.3772" ry="83.3772"/>
<text text-anchor="middle" x="-112" y="-2719" font-family="Times,serif" font-size="100.00">28</text>
</g>
<!-- 29 -->
<g id="node30" class="node"><title>29</title>
<ellipse fill="white" stroke="black" stroke-width="15" cx="608" cy="-80" rx="83.3772" ry="83.3772"/>
<text text-anchor="middle" x="608" y="-55" font-family="Times,serif" font-size="100.00">29</text>
</g>
<!-- 30 -->
<g id="node31" class="node"><title>30</title>
<ellipse fill="white" stroke="black" stroke-width="15" cx="1688" cy="-2672" rx="83.3772" ry="83.3772"/>
<text text-anchor="middle" x="1688" y="-2647" font-family="Times,serif" font-size="100.00">30</text>
</g>
<!-- 31 -->
<g id="node32" class="node"><title>31</title>
<ellipse fill="white" stroke="black" stroke-width="15" cx="-832" cy="-1592" rx="83.3772" ry="83.3772"/>
<text text-anchor="middle" x="-832" y="-1567" font-family="Times,serif" font-size="100.00">31</text>
</g>
<!-- 32 -->
<g id="node33" class="node"><title>32</title>
<ellipse fill="white" stroke="black" stroke-width="15" cx="-1264" cy="-3392" rx="83.3772" ry="83.3772"/>
<text text-anchor="middle" x="-1264" y="-3367" font-family="Times,serif" font-size="100.00">32</text>
</g>
<!-- 33 -->
<g id="node34" class="node"><title>33</title>
<ellipse fill="white" stroke="black" stroke-width="15" cx="-3712" cy="928" rx="83.3772" ry="83.3772"/>
<text text-anchor="middle" x="-3712" y="953" font-family="Times,serif" font-size="100.00">33</text>
</g>
<!-- 34 -->
<g id="node35" class="node"><title>34</title>
<ellipse fill="white" stroke="black" stroke-width="15" cx="-2704" cy="-2744" rx="83.3772" ry="83.3772"/>
<text text-anchor="middle" x="-2704" y="-2719" font-family="Times,serif" font-size="100.00">34</text>
</g>
<!-- 35 -->
<g id="node36" class="node"><title>35</title>
<ellipse fill="white" stroke="black" stroke-width="15" cx="-2272" cy="3016" rx="83.3772" ry="83.3772"/>
<text text-anchor="middle" x="-2272" y="3041" font-family="Times,serif" font-size="100.00">35</text>
</g>
<!-- 36 -->
<g id="node37" class="node"><title>36</title>
<ellipse fill="white" stroke="black" stroke-width="15" cx="1904" cy="-2024" rx="83.3772" ry="83.3772"/>
<text text-anchor="middle" x="1904" y="-1999" font-family="Times,serif" font-size="100.00">36</text>
</g>
<!-- 37 -->
<g id="node38" class="node"><title>37</title>
<ellipse fill="white" stroke="black" stroke-width="15" cx="-1336" cy="1216" rx="83.3772" ry="83.3772"/>
<text text-anchor="middle" x="-1336" y="1241" font-family="Times,serif" font-size="100.00">37</text>
</g>
<!-- 38 -->
<g id="node39" class="node"><title>38</title>
<ellipse fill="white" stroke="black" stroke-width="15" cx="1544" cy="-3320" rx="83.3772" ry="83.3772"/>
<text text-anchor="middle" x="1544" y="-3295" font-family="Times,serif" font-size="100.00">38</text>
</g>
<!-- 39 -->
<g id="node40" class="node"><title>39</title>
<ellipse fill="white" stroke="black" stroke-width="15" cx="1616" cy="2800" rx="83.3772" ry="83.3772"/>
<text text-anchor="middle" x="1616" y="2825" font-family="Times,serif" font-size="100.00">39</text>
</g>
<!-- 40 -->
<g id="node41" class="node"><title>40</title>
<ellipse fill="white" stroke="black" stroke-width="15" cx="896" cy="-80" rx="83.3772" ry="83.3772"/>
<text text-anchor="middle" x="896" y="-55" font-family="Times,serif" font-size="100.00">40</text>
</g>
<!-- 41 -->
<g id="node42" class="node"><title>41</title>
<ellipse fill="white" stroke="black" stroke-width="15" cx="176" cy="3088" rx="83.3772" ry="83.3772"/>
<text text-anchor="middle" x="176" y="3113" font-family="Times,serif" font-size="100.00">41</text>
</g>
<!-- 42 -->
<g id="node43" class="node"><title>42</title>
<ellipse fill="white" stroke="black" stroke-width="15" cx="3416" cy="3376" rx="83.3772" ry="83.3772"/>
<text text-anchor="middle" x="3416" y="3401" font-family="Times,serif" font-size="100.00">42</text>
</g>
<!-- 43 -->
<g id="node44" class="node"><title>43</title>
<ellipse fill="white" stroke="black" stroke-width="15" cx="3344" cy="-2744" rx="83.3772" ry="83.3772"/>
<text text-anchor="middle" x="3344" y="-2719" font-family="Times,serif" font-size="100.00">43</text>
</g>
<!-- 44 -->
<g id="node45" class="node"><title>44</title>
<ellipse fill="white" stroke="black" stroke-width="15" cx="-1984" cy="-2384" rx="83.3772" ry="83.3772"/>
<text text-anchor="middle" x="-1984" y="-2359" font-family="Times,serif" font-size="100.00">44</text>
</g>
<!-- 45 -->
<g id="node46" class="node"><title>45</title>
<ellipse fill="white" stroke="black" stroke-width="15" cx="1616" cy="2656" rx="83.3772" ry="83.3772"/>
<text text-anchor="middle" x="1616" y="2681" font-family="Times,serif" font-size="100.00">45</text>
</g>
<!-- 46 -->
<g id="node47" class="node"><title>46</title>
<ellipse fill="white" stroke="black" stroke-width="15" cx="-1624" cy="568" rx="83.3772" ry="83.3772"/>
<text text-anchor="middle" x="-1624" y="593" font-family="Times,serif" font-size="100.00">46</text>
</g>
<!-- 47 -->
<g id="node48" class="node"><title>47</title>
<ellipse fill="white" stroke="black" stroke-width="15" cx="-2272" cy="-2312" rx="83.3772" ry="83.3772"/>
<text text-anchor="middle" x="-2272" y="-2287" font-family="Times,serif" font-size="100.00">47</text>
</g>
<!-- 48 -->
<g id="node49" class="node"><title>48</title>
<ellipse fill="white" stroke="black" stroke-width="15" cx="1616" cy="-1952" rx="83.3772" ry="83.3772"/>
<text text-anchor="middle" x="1616" y="-1927" font-family="Times,serif" font-size="100.00">48</text>
</g>
<!-- 49 -->
<g id="node50" class="node"><title>49</title>
<ellipse fill="white" stroke="black" stroke-width="15" cx="1328" cy="1288" rx="83.3772" ry="83.3772"/>
<text text-anchor="middle" x="1328" y="1313" font-family="Times,serif" font-size="100.00">49</text>
</g>
<!-- 50 -->
<g id="node51" class="node"><title>50</title>
<ellipse fill="white" stroke="black" stroke-width="15" cx="248" cy="-2024" rx="83.3772" ry="83.3772"/>
<text text-anchor="middle" x="248" y="-1999" font-family="Times,serif" font-size="100.00">50</text>
</g>
<!-- 51 -->
<g id="node52" class="node"><title>51</title>
<ellipse fill="white" stroke="black" stroke-width="15" cx="-1984" cy="-1664" rx="83.3772" ry="83.3772"/>
<text text-anchor="middle" x="-1984" y="-1639" font-family="Times,serif" font-size="100.00">51</text>
</g>
<!-- 52 -->
<g id="node53" class="node"><title>52</title>
<ellipse fill="white" stroke="black" stroke-width="15" cx="2336" cy="-1664" rx="83.3772" ry="83.3772"/>
<text text-anchor="middle" x="2336" y="-1639" font-family="Times,serif" font-size="100.00">52</text>
</g>
<!-- 53 -->
<g id="node54" class="node"><title>53</title>
<ellipse fill="white" stroke="black" stroke-width="15" cx="536" cy="1360" rx="83.3772" ry="83.3772"/>
<text text-anchor="middle" x="536" y="1385" font-family="Times,serif" font-size="100.00">53</text>
</g>
<!-- 54 -->
<g id="node55" class="node"><title>54</title>
<ellipse fill="white" stroke="black" stroke-width="15" cx="-832" cy="640" rx="83.3772" ry="83.3772"/>
<text text-anchor="middle" x="-832" y="665" font-family="Times,serif" font-size="100.00">54</text>
</g>
<!-- 55 -->
<g id="node56" class="node"><title>55</title>
<ellipse fill="white" stroke="black" stroke-width="15" cx="-3352" cy="-152" rx="83.3772" ry="83.3772"/>
<text text-anchor="middle" x="-3352" y="-127" font-family="Times,serif" font-size="100.00">55</text>
</g>
<!-- 56 -->
<g id="node57" class="node"><title>56</title>
<ellipse fill="white" stroke="black" stroke-width="15" cx="536" cy="-80" rx="83.3772" ry="83.3772"/>
<text text-anchor="middle" x="536" y="-55" font-family="Times,serif" font-size="100.00">56</text>
</g>
<!-- 57 -->
<g id="node58" class="node"><title>57</title>
<ellipse fill="white" stroke="black" stroke-width="15" cx="-904" cy="-3104" rx="83.3772" ry="83.3772"/>
<text text-anchor="middle" x="-904" y="-3079" font-family="Times,serif" font-size="100.00">57</text>
</g>
<!-- 58 -->
<g id="node59" class="node"><title>58</title>
<ellipse fill="white" stroke="black" stroke-width="15" cx="-2344" cy="-1304" rx="83.3772" ry="83.3772"/>
<text text-anchor="middle" x="-2344" y="-1279" font-family="Times,serif" font-size="100.00">58</text>
</g>
<!-- 59 -->
<g id="node60" class="node"><title>59</title>
<ellipse fill="white" stroke="black" stroke-width="15" cx="2984" cy="568" rx="83.3772" ry="83.3772"/>
<text text-anchor="middle" x="2984" y="593" font-family="Times,serif" font-size="100.00">59</text>
</g>
<!-- 60 -->
<g id="node61" class="node"><title>60</title>
<ellipse fill="white" stroke="black" stroke-width="15" cx="-1552" cy="856" rx="83.3772" ry="83.3772"/>
<text text-anchor="middle" x="-1552" y="881" font-family="Times,serif" font-size="100.00">60</text>
</g>
<!-- 61 -->
<g id="node62" class="node"><title>61</title>
<ellipse fill="white" stroke="black" stroke-width="15" cx="-904" cy="280" rx="83.3772" ry="83.3772"/>
<text text-anchor="middle" x="-904" y="305" font-family="Times,serif" font-size="100.00">61</text>
</g>
<!-- 62 -->
<g id="node63" class="node"><title>62</title>
<ellipse fill="white" stroke="black" stroke-width="15" cx="248" cy="-1952" rx="83.3772" ry="83.3772"/>
<text text-anchor="middle" x="248" y="-1927" font-family="Times,serif" font-size="100.00">62</text>
</g>
</g>
</svg>
