<?xml version="1.0" encoding="UTF-8" standalone="no"?>
<!DOCTYPE svg PUBLIC "-//W3C//DTD SVG 1.1//EN"
 "http://www.w3.org/Graphics/SVG/1.1/DTD/svg11.dtd">
<!-- Generated by graphviz version 2.38.0 (20140413.2041)
 -->
<!-- Title: g Pages: 1 -->
<svg width="7519pt" height="7398pt"
 viewBox="216.00 216.00 7302.88 7181.88" xmlns="http://www.w3.org/2000/svg" xmlns:xlink="http://www.w3.org/1999/xlink">
<g id="graph0" class="graph" transform="scale(1 1) rotate(0) translate(3622.19 3573.19)">
<title>g</title>
<polygon fill="white" stroke="none" points="-3406.19,3608.69 -3406.19,-3357.19 3680.69,-3357.19 3680.69,3608.69 -3406.19,3608.69"/>
<text text-anchor="middle" x="137.25" y="-3337.99" font-family="Times,serif" font-size="14.00">data05&#45;tabou (cost = 1615)</text>
<!-- 0&#45;&gt;4 -->
<g id="edge31" class="edge"><title>0&#45;&gt;4</title>
<path fill="none" stroke="orange" stroke-width="15" d="M3509.81,1212.34C2922.24,1177.78 -587.85,971.303 -1208.88,934.772"/>
<polygon fill="orange" stroke="orange" stroke-width="15" points="-1209.91,947.859 -1219.12,934.169 -1208.37,921.654 -1209.91,947.859"/>
</g>
<!-- 0&#45;&gt;6 -->
<g id="edge68" class="edge"><title>0&#45;&gt;6</title>
<path fill="none" stroke="orange" stroke-width="15" d="M3533.93,1157.93C3486.68,1110.68 3420.59,1044.59 3371.6,995.597"/>
<polygon fill="orange" stroke="orange" stroke-width="15" points="3362.29,1004.85 3364.5,988.498 3380.85,986.288 3362.29,1004.85"/>
</g>
<!-- 0&#45;&gt;10 -->
<g id="edge22" class="edge"><title>0&#45;&gt;10</title>
<path fill="none" stroke="green" stroke-width="15" d="M3528.08,1269.38C3393.94,1376.7 3087.71,1621.68 2946.75,1734.45"/>
<polygon fill="green" stroke="green" stroke-width="15" points="2954.53,1745.03 2938.53,1741.03 2938.14,1724.53 2954.53,1745.03"/>
</g>
<!-- 0&#45;&gt;17 -->
<g id="edge60" class="edge"><title>0&#45;&gt;17</title>
<path fill="none" stroke="green" stroke-width="15" d="M3539.82,1152.58C3194.51,734.559 1280.8,-1582.03 916.985,-2022.44"/>
<polygon fill="green" stroke="green" stroke-width="15" points="906.709,-2014.27 910.459,-2030.34 926.946,-2030.99 906.709,-2014.27"/>
</g>
<!-- 0&#45;&gt;18 -->
<g id="edge41" class="edge"><title>0&#45;&gt;18</title>
<path fill="none" stroke="blue" stroke-width="15" d="M3586.59,1134C3548,651.681 3353.45,-1780.22 3312.73,-2289.24"/>
<polygon fill="blue" stroke="blue" stroke-width="15" points="3299.63,-2288.46 3311.91,-2299.48 3325.79,-2290.56 3299.63,-2288.46"/>
</g>
<!-- 0&#45;&gt;20 -->
<g id="edge48" class="edge"><title>0&#45;&gt;20</title>
<path fill="none" stroke="red" stroke-width="15" d="M3510.97,1202.94C3056.17,1123.84 853.161,740.713 373.55,657.302"/>
<polygon fill="red" stroke="red" stroke-width="15" points="371.158,670.208 363.554,655.564 375.656,644.346 371.158,670.208"/>
</g>
<!-- 0&#45;&gt;33 -->
<g id="edge1" class="edge"><title>0&#45;&gt;33</title>
<path fill="none" stroke="blue" stroke-width="15" d="M3514.53,1189.14C3195.75,1075.29 2001.75,648.857 1665.74,528.852"/>
<polygon fill="blue" stroke="blue" stroke-width="15" points="1661.05,541.116 1656.05,525.392 1669.88,516.395 1661.05,541.116"/>
</g>
<!-- 0&#45;&gt;45 -->
<g id="edge12" class="edge"><title>0&#45;&gt;45</title>
<path fill="none" stroke="black" stroke-width="15" d="M3524.4,1169.59C3233.43,968.141 2105.38,187.186 1798.63,-25.1822"/>
<polygon fill="black" stroke="black" stroke-width="15" points="1790.98,-14.5142 1790.23,-30.9976 1805.92,-36.0968 1790.98,-14.5142"/>
</g>
<!-- 0&#45;&gt;53 -->
<g id="edge52" class="edge"><title>0&#45;&gt;53</title>
<path fill="none" stroke="black" stroke-width="15" d="M3519.89,1176.9C3121.11,957.572 1216.47,-89.9766 795.664,-321.422"/>
<polygon fill="black" stroke="black" stroke-width="15" points="789.03,-310.092 786.593,-326.411 801.681,-333.092 789.03,-310.092"/>
</g>
<!-- 1&#45;&gt;27 -->
<g id="edge62" class="edge"><title>1&#45;&gt;27</title>
<path fill="none" stroke="green" stroke-width="15" d="M631.358,-2222.37C496.111,-2195.32 226.966,-2141.49 85.317,-2113.16"/>
<polygon fill="green" stroke="green" stroke-width="15" points="87.7221,-2100.26 75.3422,-2111.17 82.5738,-2126 87.7221,-2100.26"/>
</g>
<!-- 2&#45;&gt;58 -->
<g id="edge19" class="edge"><title>2&#45;&gt;58</title>
<path fill="none" stroke="black" stroke-width="15" d="M-3237.75,1197C-3131.27,1170.38 -2944.75,1123.75 -2833.59,1095.96"/>
<polygon fill="black" stroke="black" stroke-width="15" points="-2836.62,1083.19 -2823.74,1093.5 -2830.25,1108.65 -2836.62,1083.19"/>
</g>
<!-- 3&#45;&gt;30 -->
<g id="edge54" class="edge"><title>3&#45;&gt;30</title>
<path fill="none" stroke="black" stroke-width="15" d="M519.061,-577.669C437.937,-685.835 278.534,-898.371 193.62,-1011.59"/>
<polygon fill="black" stroke="black" stroke-width="15" points="182.887,-1004.03 187.387,-1019.9 203.887,-1019.78 182.887,-1004.03"/>
</g>
<!-- 4&#45;&gt;54 -->
<g id="edge32" class="edge"><title>4&#45;&gt;54</title>
<path fill="none" stroke="orange" stroke-width="15" d="M-1377.46,966.606C-1484.79,1020.27 -1682.02,1118.89 -1794.44,1175.09"/>
<polygon fill="orange" stroke="orange" stroke-width="15" points="-1788.9,1187 -1803.71,1179.73 -1800.64,1163.52 -1788.9,1187"/>
</g>
<!-- 5&#45;&gt;0 -->
<g id="edge21" class="edge"><title>5&#45;&gt;0</title>
<path fill="none" stroke="black" stroke-width="15" d="M-1795.53,791.82C-1166.31,841.495 2836.33,1157.49 3500.06,1209.89"/>
<polygon fill="black" stroke="black" stroke-width="15" points="3501.12,1196.81 3510.05,1210.68 3499.05,1222.98 3501.12,1196.81"/>
</g>
<!-- 6&#45;&gt;42 -->
<g id="edge69" class="edge"><title>6&#45;&gt;42</title>
<path fill="none" stroke="orange" stroke-width="15" d="M3222.05,939.039C2850.24,982.781 1342.08,1160.21 950.502,1206.28"/>
<polygon fill="orange" stroke="orange" stroke-width="15" points="951.816,1219.34 940.351,1207.47 948.749,1193.27 951.816,1219.34"/>
</g>
<!-- 7&#45;&gt;36 -->
<g id="edge15" class="edge"><title>7&#45;&gt;36</title>
<path fill="none" stroke="black" stroke-width="15" d="M-3030.75,-2875.11C-3030.75,-2623.95 -3030.75,-1877.48 -3030.75,-1612.97"/>
<polygon fill="black" stroke="black" stroke-width="15" points="-3017.62,-1612.63 -3030.75,-1602.63 -3043.87,-1612.63 -3017.62,-1612.63"/>
</g>
<!-- 8&#45;&gt;16 -->
<g id="edge37" class="edge"><title>8&#45;&gt;16</title>
<path fill="none" stroke="orange" stroke-width="15" d="M-1559.66,2878.99C-1505.52,3014.33 -1394.33,3292.3 -1337.64,3434.02"/>
<polygon fill="orange" stroke="orange" stroke-width="15" points="-1325.35,3429.41 -1333.82,3443.57 -1349.72,3439.16 -1325.35,3429.41"/>
</g>
<!-- 9&#45;&gt;13 -->
<g id="edge7" class="edge"><title>9&#45;&gt;13</title>
<path fill="none" stroke="blue" stroke-width="15" d="M49.6997,991.345C277.677,1242.12 1129.71,2179.36 1369.88,2443.54"/>
<polygon fill="blue" stroke="blue" stroke-width="15" points="1379.79,2434.93 1376.8,2451.16 1360.36,2452.59 1379.79,2434.93"/>
</g>
<!-- 10&#45;&gt;19 -->
<g id="edge23" class="edge"><title>10&#45;&gt;19</title>
<path fill="none" stroke="green" stroke-width="15" d="M2795.47,1762.14C2388.73,1599.44 508.763,847.455 80.324,676.08"/>
<polygon fill="green" stroke="green" stroke-width="15" points="75.1868,688.161 70.7766,672.261 84.936,663.788 75.1868,688.161"/>
</g>
<!-- 11&#45;&gt;15 -->
<g id="edge46" class="edge"><title>11&#45;&gt;15</title>
<path fill="none" stroke="blue" stroke-width="15" d="M1470.61,-1012.04C1524.27,-904.712 1622.89,-707.476 1679.09,-595.062"/>
<polygon fill="blue" stroke="blue" stroke-width="15" points="1691,-600.6 1683.73,-585.786 1667.52,-588.86 1691,-600.6"/>
</g>
<!-- 12&#45;&gt;57 -->
<g id="edge44" class="edge"><title>12&#45;&gt;57</title>
<path fill="none" stroke="blue" stroke-width="15" d="M1690.18,-2737.07C1591.27,-2489.81 1284.16,-1722.01 1180.12,-1461.92"/>
<polygon fill="blue" stroke="blue" stroke-width="15" points="1192.25,-1456.92 1176.35,-1452.51 1167.88,-1466.67 1192.25,-1456.92"/>
</g>
<!-- 13&#45;&gt;52 -->
<g id="edge8" class="edge"><title>13&#45;&gt;52</title>
<path fill="none" stroke="blue" stroke-width="15" d="M1504.92,2556.25C1640.01,2637.31 1931.43,2812.16 2072.92,2897.05"/>
<polygon fill="blue" stroke="blue" stroke-width="15" points="2079.78,2885.86 2081.6,2902.26 2066.28,2908.37 2079.78,2885.86"/>
</g>
<!-- 14&#45;&gt;28 -->
<g id="edge64" class="edge"><title>14&#45;&gt;28</title>
<path fill="none" stroke="green" stroke-width="15" d="M-87.3132,-2149.12C91.3879,-2302.3 598.136,-2736.65 786.013,-2897.69"/>
<polygon fill="green" stroke="green" stroke-width="15" points="777.506,-2907.68 793.64,-2904.23 794.589,-2887.75 777.506,-2907.68"/>
</g>
<!-- 15&#45;&gt;0 -->
<g id="edge47" class="edge"><title>15&#45;&gt;0</title>
<path fill="none" stroke="blue" stroke-width="15" d="M1782.74,-453.994C2063.97,-194.395 3226.79,878.977 3523.89,1153.22"/>
<polygon fill="blue" stroke="blue" stroke-width="15" points="3533.14,1143.9 3531.58,1160.33 3515.33,1163.19 3533.14,1143.9"/>
</g>
<!-- 16&#45;&gt;60 -->
<g id="edge38" class="edge"><title>16&#45;&gt;60</title>
<path fill="none" stroke="orange" stroke-width="15" d="M-1227.83,3483.79C-1188.24,3464 -1139.53,3439.64 -1098.67,3419.21"/>
<polygon fill="orange" stroke="orange" stroke-width="15" points="-1104.36,3407.38 -1089.54,3414.65 -1092.62,3430.86 -1104.36,3407.38"/>
</g>
<!-- 17&#45;&gt;1 -->
<g id="edge61" class="edge"><title>17&#45;&gt;1</title>
<path fill="none" stroke="green" stroke-width="15" d="M797.848,-2154.15C791.834,-2160.17 785.7,-2166.3 779.619,-2172.38"/>
<polygon fill="green" stroke="green" stroke-width="15" points="770.305,-2163.13 772.515,-2179.48 788.867,-2181.69 770.305,-2163.13"/>
</g>
<!-- 18&#45;&gt;22 -->
<g id="edge42" class="edge"><title>18&#45;&gt;22</title>
<path fill="none" stroke="blue" stroke-width="15" d="M3267.86,-2457.54C3187.6,-2618.05 2999.32,-2994.61 2915.17,-3162.91"/>
<polygon fill="blue" stroke="blue" stroke-width="15" points="2903.36,-3157.17 2910.63,-3171.99 2926.84,-3168.91 2903.36,-3157.17"/>
</g>
<!-- 19&#45;&gt;23 -->
<g id="edge24" class="edge"><title>19&#45;&gt;23</title>
<path fill="none" stroke="green" stroke-width="15" d="M-81.4614,603.894C-188.788,550.231 -386.024,451.613 -498.438,395.406"/>
<polygon fill="green" stroke="green" stroke-width="15" points="-504.64,406.979 -507.714,390.768 -492.9,383.501 -504.64,406.979"/>
</g>
<!-- 20&#45;&gt;51 -->
<g id="edge49" class="edge"><title>20&#45;&gt;51</title>
<path fill="none" stroke="red" stroke-width="15" d="M206.333,603.792C166.744,583.997 118.025,559.638 77.1691,539.21"/>
<polygon fill="red" stroke="red" stroke-width="15" points="71.116,550.857 68.0415,534.646 82.8555,527.379 71.116,550.857"/>
</g>
<!-- 21&#45;&gt;7 -->
<g id="edge14" class="edge"><title>21&#45;&gt;7</title>
<path fill="none" stroke="black" stroke-width="15" d="M-1817.79,-3093.52C-2048.29,-3067.91 -2694.92,-2996.06 -2937.37,-2969.13"/>
<polygon fill="black" stroke="black" stroke-width="15" points="-2936.17,-2956.05 -2947.56,-2967.99 -2939.07,-2982.14 -2936.17,-2956.05"/>
</g>
<!-- 22&#45;&gt;12 -->
<g id="edge43" class="edge"><title>22&#45;&gt;12</title>
<path fill="none" stroke="blue" stroke-width="15" d="M2794.97,-3217.4C2587.89,-3139.74 2026.68,-2929.29 1809.11,-2847.7"/>
<polygon fill="blue" stroke="blue" stroke-width="15" points="1813.61,-2835.37 1799.63,-2844.14 1804.39,-2859.94 1813.61,-2835.37"/>
</g>
<!-- 23&#45;&gt;37 -->
<g id="edge25" class="edge"><title>23&#45;&gt;37</title>
<path fill="none" stroke="green" stroke-width="15" d="M-642.152,293.848C-648.166,287.834 -654.3,281.7 -660.381,275.619"/>
<polygon fill="green" stroke="green" stroke-width="15" points="-669.695,284.867 -667.485,268.515 -651.133,266.305 -669.695,284.867"/>
</g>
<!-- 24&#45;&gt;0 -->
<g id="edge72" class="edge"><title>24&#45;&gt;0</title>
<path fill="none" stroke="orange" stroke-width="15" d="M-75.9622,3051.86C400.353,2813.7 3006.42,1510.66 3509.26,1259.25"/>
<polygon fill="orange" stroke="orange" stroke-width="15" points="3503.47,1247.47 3518.28,1254.73 3515.21,1270.94 3503.47,1247.47"/>
</g>
<!-- 25&#45;&gt;0 -->
<g id="edge59" class="edge"><title>25&#45;&gt;0</title>
<path fill="none" stroke="black" stroke-width="15" d="M2775.7,-9.07141C2923.98,213.34 3385.32,905.358 3541.19,1139.17"/>
<polygon fill="black" stroke="black" stroke-width="15" points="3552.2,1132.02 3546.83,1147.62 3530.36,1146.58 3552.2,1132.02"/>
</g>
<!-- 26&#45;&gt;35 -->
<g id="edge56" class="edge"><title>26&#45;&gt;35</title>
<path fill="none" stroke="black" stroke-width="15" d="M-811.348,-3162.15C-805.334,-3168.17 -799.2,-3174.3 -793.119,-3180.38"/>
<polygon fill="black" stroke="black" stroke-width="15" points="-802.367,-3189.69 -786.015,-3187.48 -783.805,-3171.13 -802.367,-3189.69"/>
</g>
<!-- 27&#45;&gt;14 -->
<g id="edge63" class="edge"><title>27&#45;&gt;14</title>
<path fill="none" stroke="green" stroke-width="15" d="M-90.5154,-2094.75C-90.5773,-2094.75 -90.6391,-2094.75 -90.701,-2094.75"/>
<polygon fill="green" stroke="green" stroke-width="15" points="-80.8794,-2081.63 -90.8865,-2094.75 -80.8936,-2107.88 -80.8794,-2081.63"/>
</g>
<!-- 28&#45;&gt;43 -->
<g id="edge65" class="edge"><title>28&#45;&gt;43</title>
<path fill="none" stroke="green" stroke-width="15" d="M916.575,-2899.43C963.815,-2852.18 1029.91,-2786.09 1078.9,-2737.1"/>
<polygon fill="green" stroke="green" stroke-width="15" points="1088.21,-2746.35 1086,-2730 1069.65,-2727.79 1088.21,-2746.35"/>
</g>
<!-- 29&#45;&gt;25 -->
<g id="edge58" class="edge"><title>29&#45;&gt;25</title>
<path fill="none" stroke="black" stroke-width="15" d="M2669.02,-78.75C2669.08,-78.75 2669.14,-78.75 2669.2,-78.75"/>
<polygon fill="black" stroke="black" stroke-width="15" points="2659.39,-91.8804 2669.39,-78.75 2659.38,-65.6304 2659.39,-91.8804"/>
</g>
<!-- 30&#45;&gt;26 -->
<g id="edge55" class="edge"><title>30&#45;&gt;26</title>
<path fill="none" stroke="black" stroke-width="15" d="M99.8776,-1161.49C-57.2049,-1475.66 -663.443,-2688.14 -828.852,-3018.95"/>
<polygon fill="black" stroke="black" stroke-width="15" points="-840.649,-3013.2 -833.382,-3028.01 -817.17,-3024.94 -840.649,-3013.2"/>
</g>
<!-- 31&#45;&gt;34 -->
<g id="edge5" class="edge"><title>31&#45;&gt;34</title>
<path fill="none" stroke="blue" stroke-width="15" d="M-1815.58,-311.48C-1616.97,-137.694 -1005.98,396.923 -797.393,579.437"/>
<polygon fill="blue" stroke="blue" stroke-width="15" points="-788.729,569.578 -789.846,586.041 -806.015,589.333 -788.729,569.578"/>
</g>
<!-- 32&#45;&gt;24 -->
<g id="edge71" class="edge"><title>32&#45;&gt;24</title>
<path fill="none" stroke="orange" stroke-width="15" d="M248.247,2158.26C169.119,2342.89 -30.9739,2809.77 -113.885,3003.23"/>
<polygon fill="orange" stroke="orange" stroke-width="15" points="-101.861,3008.49 -117.864,3012.52 -125.988,2998.15 -101.861,3008.49"/>
</g>
<!-- 33&#45;&gt;44 -->
<g id="edge2" class="edge"><title>33&#45;&gt;44</title>
<path fill="none" stroke="blue" stroke-width="15" d="M1508.99,448.901C1071.05,138.694 -1340.4,-1569.42 -1802.26,-1896.57"/>
<polygon fill="blue" stroke="blue" stroke-width="15" points="-1809.97,-1885.95 -1810.55,-1902.44 -1794.8,-1907.37 -1809.97,-1885.95"/>
</g>
<!-- 34&#45;&gt;9 -->
<g id="edge6" class="edge"><title>34&#45;&gt;9</title>
<path fill="none" stroke="blue" stroke-width="15" d="M-649.013,672.345C-513.673,726.481 -235.696,837.672 -93.9834,894.357"/>
<polygon fill="blue" stroke="blue" stroke-width="15" points="-88.8444,882.276 -84.4342,898.176 -98.5935,906.649 -88.8444,882.276"/>
</g>
<!-- 35&#45;&gt;29 -->
<g id="edge57" class="edge"><title>35&#45;&gt;29</title>
<path fill="none" stroke="black" stroke-width="15" d="M-666.437,-3189.06C-259.076,-2799.41 2086.84,-555.493 2517.38,-143.672"/>
<polygon fill="black" stroke="black" stroke-width="15" points="2526.64,-152.979 2524.79,-136.582 2508.49,-134.009 2526.64,-152.979"/>
</g>
<!-- 36&#45;&gt;40 -->
<g id="edge16" class="edge"><title>36&#45;&gt;40</title>
<path fill="none" stroke="black" stroke-width="15" d="M-3030.75,-1518.75C-3030.75,-1518.75 -3030.75,-1518.75 -3030.75,-1518.75"/>
<polygon fill="black" stroke="black" stroke-width="15" points="-3007.62,-1515.62 -3030.75,-1518.75 -3033.88,-1541.88 -3007.62,-1515.62"/>
</g>
<!-- 37&#45;&gt;59 -->
<g id="edge26" class="edge"><title>37&#45;&gt;59</title>
<path fill="none" stroke="green" stroke-width="15" d="M-796.358,162.845C-955.549,56.7172 -1345.3,-203.118 -1512.49,-314.58"/>
<polygon fill="green" stroke="green" stroke-width="15" points="-1520.21,-303.951 -1521.25,-320.419 -1505.65,-325.792 -1520.21,-303.951"/>
</g>
<!-- 38&#45;&gt;0 -->
<g id="edge67" class="edge"><title>38&#45;&gt;0</title>
<path fill="none" stroke="green" stroke-width="15" d="M2612.87,-1583.85C2755.86,-1175.3 3411.3,697.389 3562.2,1128.55"/>
<polygon fill="green" stroke="green" stroke-width="15" points="3574.65,1124.38 3565.57,1138.16 3549.88,1133.06 3574.65,1124.38"/>
</g>
<!-- 39&#45;&gt;31 -->
<g id="edge4" class="edge"><title>39&#45;&gt;31</title>
<path fill="none" stroke="blue" stroke-width="15" d="M-2146.5,-1437.74C-2094.45,-1229.55 -1956.27,-676.841 -1901.54,-457.907"/>
<polygon fill="blue" stroke="blue" stroke-width="15" points="-1888.77,-460.936 -1899.08,-448.051 -1914.23,-454.569 -1888.77,-460.936"/>
</g>
<!-- 40&#45;&gt;50 -->
<g id="edge17" class="edge"><title>40&#45;&gt;50</title>
<path fill="none" stroke="black" stroke-width="15" d="M-2989.33,-1446.26C-2884.84,-1263.4 -2611.08,-784.324 -2501.29,-592.192"/>
<polygon fill="black" stroke="black" stroke-width="15" points="-2489.75,-598.456 -2496.19,-583.262 -2512.54,-585.432 -2489.75,-598.456"/>
</g>
<!-- 41&#45;&gt;0 -->
<g id="edge11" class="edge"><title>41&#45;&gt;0</title>
<path fill="none" stroke="blue" stroke-width="15" d="M2500.36,2310.14C2695.91,2114.59 3321.12,1489.38 3526.89,1283.61"/>
<polygon fill="blue" stroke="blue" stroke-width="15" points="3517.68,1274.26 3534.03,1276.47 3536.24,1292.82 3517.68,1274.26"/>
</g>
<!-- 42&#45;&gt;32 -->
<g id="edge70" class="edge"><title>42&#45;&gt;32</title>
<path fill="none" stroke="orange" stroke-width="15" d="M810.845,1286.86C704.717,1446.05 444.882,1835.8 333.42,2002.99"/>
<polygon fill="orange" stroke="orange" stroke-width="15" points="344.049,2010.71 327.581,2011.75 322.208,1996.15 344.049,2010.71"/>
</g>
<!-- 43&#45;&gt;38 -->
<g id="edge66" class="edge"><title>43&#45;&gt;38</title>
<path fill="none" stroke="green" stroke-width="15" d="M1213.74,-2622.81C1453.73,-2454.82 2255.76,-1893.39 2508.37,-1716.56"/>
<polygon fill="green" stroke="green" stroke-width="15" points="2516.1,-1727.18 2516.77,-1710.69 2501.05,-1705.67 2516.1,-1727.18"/>
</g>
<!-- 44&#45;&gt;39 -->
<g id="edge3" class="edge"><title>44&#45;&gt;39</title>
<path fill="none" stroke="blue" stroke-width="15" d="M-1925.34,-1880.86C-1977.18,-1803.1 -2060.73,-1677.78 -2114.69,-1596.85"/>
<polygon fill="blue" stroke="blue" stroke-width="15" points="-2104,-1589.22 -2120.46,-1588.18 -2125.84,-1603.78 -2104,-1589.22"/>
</g>
<!-- 45&#45;&gt;21 -->
<g id="edge13" class="edge"><title>45&#45;&gt;21</title>
<path fill="none" stroke="black" stroke-width="15" d="M1658.31,-133.819C1233.24,-505.757 -1214.67,-2647.68 -1663.93,-3040.78"/>
<polygon fill="black" stroke="black" stroke-width="15" points="-1672.78,-3031.08 -1671.66,-3047.55 -1655.49,-3050.84 -1672.78,-3031.08"/>
</g>
<!-- 46&#45;&gt;8 -->
<g id="edge36" class="edge"><title>46&#45;&gt;8</title>
<path fill="none" stroke="orange" stroke-width="15" d="M-1832.16,2439.14C-1780.32,2516.9 -1696.77,2642.22 -1642.81,2723.15"/>
<polygon fill="orange" stroke="orange" stroke-width="15" points="-1631.66,2716.22 -1637.04,2731.82 -1653.5,2730.78 -1631.66,2716.22"/>
</g>
<!-- 47&#45;&gt;46 -->
<g id="edge35" class="edge"><title>47&#45;&gt;46</title>
<path fill="none" stroke="orange" stroke-width="15" d="M-2678.52,3035.72C-2520.97,2904.43 -2116.21,2567.14 -1950.81,2429.3"/>
<polygon fill="orange" stroke="orange" stroke-width="15" points="-1959.2,2419.21 -1943.11,2422.89 -1942.39,2439.37 -1959.2,2419.21"/>
</g>
<!-- 48&#45;&gt;0 -->
<g id="edge30" class="edge"><title>48&#45;&gt;0</title>
<path fill="none" stroke="green" stroke-width="15" d="M1368.89,522.138C1720.55,632.032 3133.15,1073.47 3503.81,1189.3"/>
<polygon fill="green" stroke="green" stroke-width="15" points="3507.8,1176.79 3513.43,1192.31 3499.97,1201.85 3507.8,1176.79"/>
</g>
<!-- 49&#45;&gt;48 -->
<g id="edge29" class="edge"><title>49&#45;&gt;48</title>
<path fill="none" stroke="green" stroke-width="15" d="M-1515.93,-905.341C-1114.47,-704.612 781.87,243.56 1205.28,455.265"/>
<polygon fill="green" stroke="green" stroke-width="15" points="1211.34,443.619 1214.41,459.83 1199.6,467.097 1211.34,443.619"/>
</g>
<!-- 50&#45;&gt;2 -->
<g id="edge18" class="edge"><title>50&#45;&gt;2</title>
<path fill="none" stroke="black" stroke-width="15" d="M-2492.15,-435.945C-2632.73,-154.8 -3128.92,837.588 -3276.83,1133.42"/>
<polygon fill="black" stroke="black" stroke-width="15" points="-3265.11,1139.31 -3281.32,1142.39 -3288.59,1127.57 -3265.11,1139.31"/>
</g>
<!-- 51&#45;&gt;62 -->
<g id="edge50" class="edge"><title>51&#45;&gt;62</title>
<path fill="none" stroke="red" stroke-width="15" d="M39.8423,427.362C91.6832,349.6 175.232,224.277 229.186,143.346"/>
<polygon fill="red" stroke="red" stroke-width="15" points="218.495,135.72 234.963,134.68 240.337,150.281 218.495,135.72"/>
</g>
<!-- 52&#45;&gt;56 -->
<g id="edge9" class="edge"><title>52&#45;&gt;56</title>
<path fill="none" stroke="blue" stroke-width="15" d="M2236.8,2945.25C2309.8,2945.25 2415.68,2945.25 2491.55,2945.25"/>
<polygon fill="blue" stroke="blue" stroke-width="15" points="2491.58,2932.12 2501.58,2945.25 2491.58,2958.37 2491.58,2932.12"/>
</g>
<!-- 53&#45;&gt;3 -->
<g id="edge53" class="edge"><title>53&#45;&gt;3</title>
<path fill="none" stroke="black" stroke-width="15" d="M653.848,-426.152C647.834,-432.166 641.7,-438.3 635.619,-444.381"/>
<polygon fill="black" stroke="black" stroke-width="15" points="626.305,-435.133 628.515,-451.485 644.867,-453.695 626.305,-435.133"/>
</g>
<!-- 54&#45;&gt;63 -->
<g id="edge33" class="edge"><title>54&#45;&gt;63</title>
<path fill="none" stroke="orange" stroke-width="15" d="M-1942.98,1270.78C-2100.53,1402.07 -2505.29,1739.36 -2670.69,1877.2"/>
<polygon fill="orange" stroke="orange" stroke-width="15" points="-2662.3,1887.29 -2678.39,1883.61 -2679.11,1867.13 -2662.3,1887.29"/>
</g>
<!-- 55&#45;&gt;49 -->
<g id="edge28" class="edge"><title>55&#45;&gt;49</title>
<path fill="none" stroke="green" stroke-width="15" d="M-1484.21,-729.667C-1504,-769.256 -1528.36,-817.975 -1548.79,-858.831"/>
<polygon fill="green" stroke="green" stroke-width="15" points="-1560.62,-853.145 -1553.35,-867.959 -1537.14,-864.884 -1560.62,-853.145"/>
</g>
<!-- 56&#45;&gt;41 -->
<g id="edge10" class="edge"><title>56&#45;&gt;41</title>
<path fill="none" stroke="blue" stroke-width="15" d="M2565,2864.25C2538.38,2757.77 2491.75,2571.25 2463.96,2460.09"/>
<polygon fill="blue" stroke="blue" stroke-width="15" points="2451.19,2463.12 2461.5,2450.24 2476.65,2456.75 2451.19,2463.12"/>
</g>
<!-- 57&#45;&gt;11 -->
<g id="edge45" class="edge"><title>57&#45;&gt;11</title>
<path fill="none" stroke="blue" stroke-width="15" d="M1204.57,-1315.43C1251.82,-1268.18 1317.91,-1202.09 1366.9,-1153.1"/>
<polygon fill="blue" stroke="blue" stroke-width="15" points="1376.21,-1162.35 1374,-1146 1357.65,-1143.79 1376.21,-1162.35"/>
</g>
<!-- 58&#45;&gt;5 -->
<g id="edge20" class="edge"><title>58&#45;&gt;5</title>
<path fill="none" stroke="black" stroke-width="15" d="M-2663.4,1046.8C-2502.06,993.021 -2136.77,871.256 -1967.69,814.896"/>
<polygon fill="black" stroke="black" stroke-width="15" points="-1971.7,802.4 -1958.07,811.689 -1963.4,827.303 -1971.7,802.4"/>
</g>
<!-- 59&#45;&gt;55 -->
<g id="edge27" class="edge"><title>59&#45;&gt;55</title>
<path fill="none" stroke="green" stroke-width="15" d="M-1553.29,-441.667C-1533.5,-481.256 -1509.14,-529.975 -1488.71,-570.831"/>
<polygon fill="green" stroke="green" stroke-width="15" points="-1500.36,-576.884 -1484.15,-579.959 -1476.88,-565.145 -1500.36,-576.884"/>
</g>
<!-- 60&#45;&gt;61 -->
<g id="edge39" class="edge"><title>60&#45;&gt;61</title>
<path fill="none" stroke="orange" stroke-width="15" d="M-937.074,3346.18C-689.807,3247.27 77.9875,2940.16 338.08,2836.12"/>
<polygon fill="orange" stroke="orange" stroke-width="15" points="333.329,2823.88 347.488,2832.35 343.078,2848.25 333.329,2823.88"/>
</g>
<!-- 61&#45;&gt;0 -->
<g id="edge40" class="edge"><title>61&#45;&gt;0</title>
<path fill="none" stroke="orange" stroke-width="15" d="M500.049,2763.85C927.562,2550.09 3058.32,1484.72 3509.31,1259.22"/>
<polygon fill="orange" stroke="orange" stroke-width="15" points="3503.56,1247.42 3518.38,1254.69 3515.3,1270.9 3503.56,1247.42"/>
</g>
<!-- 62&#45;&gt;0 -->
<g id="edge51" class="edge"><title>62&#45;&gt;0</title>
<path fill="none" stroke="red" stroke-width="15" d="M360.258,92.7312C808.86,248.767 3032.15,1022.09 3504.81,1186.49"/>
<polygon fill="red" stroke="red" stroke-width="15" points="3509.19,1174.11 3514.32,1189.8 3500.56,1198.91 3509.19,1174.11"/>
</g>
<!-- 63&#45;&gt;47 -->
<g id="edge34" class="edge"><title>63&#45;&gt;47</title>
<path fill="none" stroke="orange" stroke-width="15" d="M-2742.75,2021.03C-2742.75,2230.5 -2742.75,2775.93 -2742.75,2995.58"/>
<polygon fill="orange" stroke="orange" stroke-width="15" points="-2729.62,2995.79 -2742.75,3005.79 -2755.87,2995.79 -2729.62,2995.79"/>
</g>
<!-- 0 -->
<g id="node1" class="node"><title>0</title>
<ellipse fill="white" stroke="black" stroke-width="15" cx="3593.25" cy="1217.25" rx="83.3772" ry="83.3772"/>
<text text-anchor="middle" x="3593.25" y="1242.25" font-family="Times,serif" font-size="100.00">0</text>
</g>
<!-- 1 -->
<g id="node2" class="node"><title>1</title>
<ellipse fill="white" stroke="black" stroke-width="15" cx="713.25" cy="-2238.75" rx="83.3772" ry="83.3772"/>
<text text-anchor="middle" x="713.25" y="-2213.75" font-family="Times,serif" font-size="100.00">1</text>
</g>
<!-- 2 -->
<g id="node3" class="node"><title>2</title>
<ellipse fill="white" stroke="black" stroke-width="15" cx="-3318.75" cy="1217.25" rx="83.3772" ry="83.3772"/>
<text text-anchor="middle" x="-3318.75" y="1242.25" font-family="Times,serif" font-size="100.00">2</text>
</g>
<!-- 3 -->
<g id="node4" class="node"><title>3</title>
<ellipse fill="white" stroke="black" stroke-width="15" cx="569.25" cy="-510.75" rx="83.3772" ry="83.3772"/>
<text text-anchor="middle" x="569.25" y="-485.75" font-family="Times,serif" font-size="100.00">3</text>
</g>
<!-- 4 -->
<g id="node5" class="node"><title>4</title>
<ellipse fill="white" stroke="black" stroke-width="15" cx="-1302.75" cy="929.25" rx="83.3772" ry="83.3772"/>
<text text-anchor="middle" x="-1302.75" y="954.25" font-family="Times,serif" font-size="100.00">4</text>
</g>
<!-- 5 -->
<g id="node6" class="node"><title>5</title>
<ellipse fill="white" stroke="black" stroke-width="15" cx="-1878.75" cy="785.25" rx="83.3772" ry="83.3772"/>
<text text-anchor="middle" x="-1878.75" y="810.25" font-family="Times,serif" font-size="100.00">5</text>
</g>
<!-- 6 -->
<g id="node7" class="node"><title>6</title>
<ellipse fill="white" stroke="black" stroke-width="15" cx="3305.25" cy="929.25" rx="83.3772" ry="83.3772"/>
<text text-anchor="middle" x="3305.25" y="954.25" font-family="Times,serif" font-size="100.00">6</text>
</g>
<!-- 7 -->
<g id="node8" class="node"><title>7</title>
<ellipse fill="white" stroke="black" stroke-width="15" cx="-3030.75" cy="-2958.75" rx="83.3772" ry="83.3772"/>
<text text-anchor="middle" x="-3030.75" y="-2933.75" font-family="Times,serif" font-size="100.00">7</text>
</g>
<!-- 8 -->
<g id="node9" class="node"><title>8</title>
<ellipse fill="white" stroke="black" stroke-width="15" cx="-1590.75" cy="2801.25" rx="83.3772" ry="83.3772"/>
<text text-anchor="middle" x="-1590.75" y="2826.25" font-family="Times,serif" font-size="100.00">8</text>
</g>
<!-- 9 -->
<g id="node10" class="node"><title>9</title>
<ellipse fill="white" stroke="black" stroke-width="15" cx="-6.75" cy="929.25" rx="83.3772" ry="83.3772"/>
<text text-anchor="middle" x="-6.75" y="954.25" font-family="Times,serif" font-size="100.00">9</text>
</g>
<!-- 10 -->
<g id="node11" class="node"><title>10</title>
<ellipse fill="white" stroke="black" stroke-width="15" cx="2873.25" cy="1793.25" rx="83.3772" ry="83.3772"/>
<text text-anchor="middle" x="2873.25" y="1818.25" font-family="Times,serif" font-size="100.00">10</text>
</g>
<!-- 11 -->
<g id="node12" class="node"><title>11</title>
<ellipse fill="white" stroke="black" stroke-width="15" cx="1433.25" cy="-1086.75" rx="83.3772" ry="83.3772"/>
<text text-anchor="middle" x="1433.25" y="-1061.75" font-family="Times,serif" font-size="100.00">11</text>
</g>
<!-- 12 -->
<g id="node13" class="node"><title>12</title>
<ellipse fill="white" stroke="black" stroke-width="15" cx="1721.25" cy="-2814.75" rx="83.3772" ry="83.3772"/>
<text text-anchor="middle" x="1721.25" y="-2789.75" font-family="Times,serif" font-size="100.00">12</text>
</g>
<!-- 13 -->
<g id="node14" class="node"><title>13</title>
<ellipse fill="white" stroke="black" stroke-width="15" cx="1433.25" cy="2513.25" rx="83.3772" ry="83.3772"/>
<text text-anchor="middle" x="1433.25" y="2538.25" font-family="Times,serif" font-size="100.00">13</text>
</g>
<!-- 14 -->
<g id="node15" class="node"><title>14</title>
<ellipse fill="white" stroke="black" stroke-width="15" cx="-150.75" cy="-2094.75" rx="83.3772" ry="83.3772"/>
<text text-anchor="middle" x="-150.75" y="-2069.75" font-family="Times,serif" font-size="100.00">14</text>
</g>
<!-- 15 -->
<g id="node16" class="node"><title>15</title>
<ellipse fill="white" stroke="black" stroke-width="15" cx="1721.25" cy="-510.75" rx="83.3772" ry="83.3772"/>
<text text-anchor="middle" x="1721.25" y="-485.75" font-family="Times,serif" font-size="100.00">15</text>
</g>
<!-- 16 -->
<g id="node17" class="node"><title>16</title>
<ellipse fill="white" stroke="black" stroke-width="15" cx="-1302.75" cy="3521.25" rx="83.3772" ry="83.3772"/>
<text text-anchor="middle" x="-1302.75" y="3546.25" font-family="Times,serif" font-size="100.00">16</text>
</g>
<!-- 17 -->
<g id="node18" class="node"><title>17</title>
<ellipse fill="white" stroke="black" stroke-width="15" cx="857.25" cy="-2094.75" rx="83.3772" ry="83.3772"/>
<text text-anchor="middle" x="857.25" y="-2069.75" font-family="Times,serif" font-size="100.00">17</text>
</g>
<!-- 18 -->
<g id="node19" class="node"><title>18</title>
<ellipse fill="white" stroke="black" stroke-width="15" cx="3305.25" cy="-2382.75" rx="83.3772" ry="83.3772"/>
<text text-anchor="middle" x="3305.25" y="-2357.75" font-family="Times,serif" font-size="100.00">18</text>
</g>
<!-- 19 -->
<g id="node20" class="node"><title>19</title>
<ellipse fill="white" stroke="black" stroke-width="15" cx="-6.75" cy="641.25" rx="83.3772" ry="83.3772"/>
<text text-anchor="middle" x="-6.75" y="666.25" font-family="Times,serif" font-size="100.00">19</text>
</g>
<!-- 20 -->
<g id="node21" class="node"><title>20</title>
<ellipse fill="white" stroke="black" stroke-width="15" cx="281.25" cy="641.25" rx="83.3772" ry="83.3772"/>
<text text-anchor="middle" x="281.25" y="666.25" font-family="Times,serif" font-size="100.00">20</text>
</g>
<!-- 21 -->
<g id="node22" class="node"><title>21</title>
<ellipse fill="white" stroke="black" stroke-width="15" cx="-1734.75" cy="-3102.75" rx="83.3772" ry="83.3772"/>
<text text-anchor="middle" x="-1734.75" y="-3077.75" font-family="Times,serif" font-size="100.00">21</text>
</g>
<!-- 22 -->
<g id="node23" class="node"><title>22</title>
<ellipse fill="white" stroke="black" stroke-width="15" cx="2873.25" cy="-3246.75" rx="83.3772" ry="83.3772"/>
<text text-anchor="middle" x="2873.25" y="-3221.75" font-family="Times,serif" font-size="100.00">22</text>
</g>
<!-- 23 -->
<g id="node24" class="node"><title>23</title>
<ellipse fill="white" stroke="black" stroke-width="15" cx="-582.75" cy="353.25" rx="83.3772" ry="83.3772"/>
<text text-anchor="middle" x="-582.75" y="378.25" font-family="Times,serif" font-size="100.00">23</text>
</g>
<!-- 24 -->
<g id="node25" class="node"><title>24</title>
<ellipse fill="white" stroke="black" stroke-width="15" cx="-150.75" cy="3089.25" rx="83.3772" ry="83.3772"/>
<text text-anchor="middle" x="-150.75" y="3114.25" font-family="Times,serif" font-size="100.00">24</text>
</g>
<!-- 25 -->
<g id="node26" class="node"><title>25</title>
<ellipse fill="white" stroke="black" stroke-width="15" cx="2729.25" cy="-78.75" rx="83.3772" ry="83.3772"/>
<text text-anchor="middle" x="2729.25" y="-53.75" font-family="Times,serif" font-size="100.00">25</text>
</g>
<!-- 26 -->
<g id="node27" class="node"><title>26</title>
<ellipse fill="white" stroke="black" stroke-width="15" cx="-870.75" cy="-3102.75" rx="83.3772" ry="83.3772"/>
<text text-anchor="middle" x="-870.75" y="-3077.75" font-family="Times,serif" font-size="100.00">26</text>
</g>
<!-- 27 -->
<g id="node28" class="node"><title>27</title>
<ellipse fill="white" stroke="black" stroke-width="15" cx="-6.75" cy="-2094.75" rx="83.3772" ry="83.3772"/>
<text text-anchor="middle" x="-6.75" y="-2069.75" font-family="Times,serif" font-size="100.00">27</text>
</g>
<!-- 28 -->
<g id="node29" class="node"><title>28</title>
<ellipse fill="white" stroke="black" stroke-width="15" cx="857.25" cy="-2958.75" rx="83.3772" ry="83.3772"/>
<text text-anchor="middle" x="857.25" y="-2933.75" font-family="Times,serif" font-size="100.00">28</text>
</g>
<!-- 29 -->
<g id="node30" class="node"><title>29</title>
<ellipse fill="white" stroke="black" stroke-width="15" cx="2585.25" cy="-78.75" rx="83.3772" ry="83.3772"/>
<text text-anchor="middle" x="2585.25" y="-53.75" font-family="Times,serif" font-size="100.00">29</text>
</g>
<!-- 30 -->
<g id="node31" class="node"><title>30</title>
<ellipse fill="white" stroke="black" stroke-width="15" cx="137.25" cy="-1086.75" rx="83.3772" ry="83.3772"/>
<text text-anchor="middle" x="137.25" y="-1061.75" font-family="Times,serif" font-size="100.00">30</text>
</g>
<!-- 31 -->
<g id="node32" class="node"><title>31</title>
<ellipse fill="white" stroke="black" stroke-width="15" cx="-1878.75" cy="-366.75" rx="83.3772" ry="83.3772"/>
<text text-anchor="middle" x="-1878.75" y="-341.75" font-family="Times,serif" font-size="100.00">31</text>
</g>
<!-- 32 -->
<g id="node33" class="node"><title>32</title>
<ellipse fill="white" stroke="black" stroke-width="15" cx="281.25" cy="2081.25" rx="83.3772" ry="83.3772"/>
<text text-anchor="middle" x="281.25" y="2106.25" font-family="Times,serif" font-size="100.00">32</text>
</g>
<!-- 33 -->
<g id="node34" class="node"><title>33</title>
<ellipse fill="white" stroke="black" stroke-width="15" cx="1577.25" cy="497.25" rx="83.3772" ry="83.3772"/>
<text text-anchor="middle" x="1577.25" y="522.25" font-family="Times,serif" font-size="100.00">33</text>
</g>
<!-- 34 -->
<g id="node35" class="node"><title>34</title>
<ellipse fill="white" stroke="black" stroke-width="15" cx="-726.75" cy="641.25" rx="83.3772" ry="83.3772"/>
<text text-anchor="middle" x="-726.75" y="666.25" font-family="Times,serif" font-size="100.00">34</text>
</g>
<!-- 35 -->
<g id="node36" class="node"><title>35</title>
<ellipse fill="white" stroke="black" stroke-width="15" cx="-726.75" cy="-3246.75" rx="83.3772" ry="83.3772"/>
<text text-anchor="middle" x="-726.75" y="-3221.75" font-family="Times,serif" font-size="100.00">35</text>
</g>
<!-- 36 -->
<g id="node37" class="node"><title>36</title>
<ellipse fill="white" stroke="black" stroke-width="15" cx="-3030.75" cy="-1518.75" rx="83.3772" ry="83.3772"/>
<text text-anchor="middle" x="-3030.75" y="-1493.75" font-family="Times,serif" font-size="100.00">36</text>
</g>
<!-- 37 -->
<g id="node38" class="node"><title>37</title>
<ellipse fill="white" stroke="black" stroke-width="15" cx="-726.75" cy="209.25" rx="83.3772" ry="83.3772"/>
<text text-anchor="middle" x="-726.75" y="234.25" font-family="Times,serif" font-size="100.00">37</text>
</g>
<!-- 38 -->
<g id="node39" class="node"><title>38</title>
<ellipse fill="white" stroke="black" stroke-width="15" cx="2585.25" cy="-1662.75" rx="83.3772" ry="83.3772"/>
<text text-anchor="middle" x="2585.25" y="-1637.75" font-family="Times,serif" font-size="100.00">38</text>
</g>
<!-- 39 -->
<g id="node40" class="node"><title>39</title>
<ellipse fill="white" stroke="black" stroke-width="15" cx="-2166.75" cy="-1518.75" rx="83.3772" ry="83.3772"/>
<text text-anchor="middle" x="-2166.75" y="-1493.75" font-family="Times,serif" font-size="100.00">39</text>
</g>
<!-- 40 -->
<g id="node41" class="node"><title>40</title>
<ellipse fill="white" stroke="black" stroke-width="15" cx="-3030.75" cy="-1518.75" rx="83.3772" ry="83.3772"/>
<text text-anchor="middle" x="-3030.75" y="-1493.75" font-family="Times,serif" font-size="100.00">40</text>
</g>
<!-- 41 -->
<g id="node42" class="node"><title>41</title>
<ellipse fill="white" stroke="black" stroke-width="15" cx="2441.25" cy="2369.25" rx="83.3772" ry="83.3772"/>
<text text-anchor="middle" x="2441.25" y="2394.25" font-family="Times,serif" font-size="100.00">41</text>
</g>
<!-- 42 -->
<g id="node43" class="node"><title>42</title>
<ellipse fill="white" stroke="black" stroke-width="15" cx="857.25" cy="1217.25" rx="83.3772" ry="83.3772"/>
<text text-anchor="middle" x="857.25" y="1242.25" font-family="Times,serif" font-size="100.00">42</text>
</g>
<!-- 43 -->
<g id="node44" class="node"><title>43</title>
<ellipse fill="white" stroke="black" stroke-width="15" cx="1145.25" cy="-2670.75" rx="83.3772" ry="83.3772"/>
<text text-anchor="middle" x="1145.25" y="-2645.75" font-family="Times,serif" font-size="100.00">43</text>
</g>
<!-- 44 -->
<g id="node45" class="node"><title>44</title>
<ellipse fill="white" stroke="black" stroke-width="15" cx="-1878.75" cy="-1950.75" rx="83.3772" ry="83.3772"/>
<text text-anchor="middle" x="-1878.75" y="-1925.75" font-family="Times,serif" font-size="100.00">44</text>
</g>
<!-- 45 -->
<g id="node46" class="node"><title>45</title>
<ellipse fill="white" stroke="black" stroke-width="15" cx="1721.25" cy="-78.75" rx="83.3772" ry="83.3772"/>
<text text-anchor="middle" x="1721.25" y="-53.75" font-family="Times,serif" font-size="100.00">45</text>
</g>
<!-- 46 -->
<g id="node47" class="node"><title>46</title>
<ellipse fill="white" stroke="black" stroke-width="15" cx="-1878.75" cy="2369.25" rx="83.3772" ry="83.3772"/>
<text text-anchor="middle" x="-1878.75" y="2394.25" font-family="Times,serif" font-size="100.00">46</text>
</g>
<!-- 47 -->
<g id="node48" class="node"><title>47</title>
<ellipse fill="white" stroke="black" stroke-width="15" cx="-2742.75" cy="3089.25" rx="83.3772" ry="83.3772"/>
<text text-anchor="middle" x="-2742.75" y="3114.25" font-family="Times,serif" font-size="100.00">47</text>
</g>
<!-- 48 -->
<g id="node49" class="node"><title>48</title>
<ellipse fill="white" stroke="black" stroke-width="15" cx="1289.25" cy="497.25" rx="83.3772" ry="83.3772"/>
<text text-anchor="middle" x="1289.25" y="522.25" font-family="Times,serif" font-size="100.00">48</text>
</g>
<!-- 49 -->
<g id="node50" class="node"><title>49</title>
<ellipse fill="white" stroke="black" stroke-width="15" cx="-1590.75" cy="-942.75" rx="83.3772" ry="83.3772"/>
<text text-anchor="middle" x="-1590.75" y="-917.75" font-family="Times,serif" font-size="100.00">49</text>
</g>
<!-- 50 -->
<g id="node51" class="node"><title>50</title>
<ellipse fill="white" stroke="black" stroke-width="15" cx="-2454.75" cy="-510.75" rx="83.3772" ry="83.3772"/>
<text text-anchor="middle" x="-2454.75" y="-485.75" font-family="Times,serif" font-size="100.00">50</text>
</g>
<!-- 51 -->
<g id="node52" class="node"><title>51</title>
<ellipse fill="white" stroke="black" stroke-width="15" cx="-6.75" cy="497.25" rx="83.3772" ry="83.3772"/>
<text text-anchor="middle" x="-6.75" y="522.25" font-family="Times,serif" font-size="100.00">51</text>
</g>
<!-- 52 -->
<g id="node53" class="node"><title>52</title>
<ellipse fill="white" stroke="black" stroke-width="15" cx="2153.25" cy="2945.25" rx="83.3772" ry="83.3772"/>
<text text-anchor="middle" x="2153.25" y="2970.25" font-family="Times,serif" font-size="100.00">52</text>
</g>
<!-- 53 -->
<g id="node54" class="node"><title>53</title>
<ellipse fill="white" stroke="black" stroke-width="15" cx="713.25" cy="-366.75" rx="83.3772" ry="83.3772"/>
<text text-anchor="middle" x="713.25" y="-341.75" font-family="Times,serif" font-size="100.00">53</text>
</g>
<!-- 54 -->
<g id="node55" class="node"><title>54</title>
<ellipse fill="white" stroke="black" stroke-width="15" cx="-1878.75" cy="1217.25" rx="83.3772" ry="83.3772"/>
<text text-anchor="middle" x="-1878.75" y="1242.25" font-family="Times,serif" font-size="100.00">54</text>
</g>
<!-- 55 -->
<g id="node56" class="node"><title>55</title>
<ellipse fill="white" stroke="black" stroke-width="15" cx="-1446.75" cy="-654.75" rx="83.3772" ry="83.3772"/>
<text text-anchor="middle" x="-1446.75" y="-629.75" font-family="Times,serif" font-size="100.00">55</text>
</g>
<!-- 56 -->
<g id="node57" class="node"><title>56</title>
<ellipse fill="white" stroke="black" stroke-width="15" cx="2585.25" cy="2945.25" rx="83.3772" ry="83.3772"/>
<text text-anchor="middle" x="2585.25" y="2970.25" font-family="Times,serif" font-size="100.00">56</text>
</g>
<!-- 57 -->
<g id="node58" class="node"><title>57</title>
<ellipse fill="white" stroke="black" stroke-width="15" cx="1145.25" cy="-1374.75" rx="83.3772" ry="83.3772"/>
<text text-anchor="middle" x="1145.25" y="-1349.75" font-family="Times,serif" font-size="100.00">57</text>
</g>
<!-- 58 -->
<g id="node59" class="node"><title>58</title>
<ellipse fill="white" stroke="black" stroke-width="15" cx="-2742.75" cy="1073.25" rx="83.3772" ry="83.3772"/>
<text text-anchor="middle" x="-2742.75" y="1098.25" font-family="Times,serif" font-size="100.00">58</text>
</g>
<!-- 59 -->
<g id="node60" class="node"><title>59</title>
<ellipse fill="white" stroke="black" stroke-width="15" cx="-1590.75" cy="-366.75" rx="83.3772" ry="83.3772"/>
<text text-anchor="middle" x="-1590.75" y="-341.75" font-family="Times,serif" font-size="100.00">59</text>
</g>
<!-- 60 -->
<g id="node61" class="node"><title>60</title>
<ellipse fill="white" stroke="black" stroke-width="15" cx="-1014.75" cy="3377.25" rx="83.3772" ry="83.3772"/>
<text text-anchor="middle" x="-1014.75" y="3402.25" font-family="Times,serif" font-size="100.00">60</text>
</g>
<!-- 61 -->
<g id="node62" class="node"><title>61</title>
<ellipse fill="white" stroke="black" stroke-width="15" cx="425.25" cy="2801.25" rx="83.3772" ry="83.3772"/>
<text text-anchor="middle" x="425.25" y="2826.25" font-family="Times,serif" font-size="100.00">61</text>
</g>
<!-- 62 -->
<g id="node63" class="node"><title>62</title>
<ellipse fill="white" stroke="black" stroke-width="15" cx="281.25" cy="65.25" rx="83.3772" ry="83.3772"/>
<text text-anchor="middle" x="281.25" y="90.25" font-family="Times,serif" font-size="100.00">62</text>
</g>
<!-- 63 -->
<g id="node64" class="node"><title>63</title>
<ellipse fill="white" stroke="black" stroke-width="15" cx="-2742.75" cy="1937.25" rx="83.3772" ry="83.3772"/>
<text text-anchor="middle" x="-2742.75" y="1962.25" font-family="Times,serif" font-size="100.00">63</text>
</g>
</g>
</svg>
